%TF.GenerationSoftware,KiCad,Pcbnew,(6.0.9)*%
%TF.CreationDate,2024-07-08T19:13:13-04:00*%
%TF.ProjectId,PantryLED,50616e74-7279-44c4-9544-2e6b69636164,rev?*%
%TF.SameCoordinates,Original*%
%TF.FileFunction,Copper,L1,Top*%
%TF.FilePolarity,Positive*%
%FSLAX46Y46*%
G04 Gerber Fmt 4.6, Leading zero omitted, Abs format (unit mm)*
G04 Created by KiCad (PCBNEW (6.0.9)) date 2024-07-08 19:13:13*
%MOMM*%
%LPD*%
G01*
G04 APERTURE LIST*
%TA.AperFunction,ComponentPad*%
%ADD10R,1.700000X1.700000*%
%TD*%
%TA.AperFunction,ComponentPad*%
%ADD11O,1.700000X1.700000*%
%TD*%
%TA.AperFunction,ComponentPad*%
%ADD12R,3.200000X3.200000*%
%TD*%
%TA.AperFunction,ComponentPad*%
%ADD13O,3.200000X3.200000*%
%TD*%
%TA.AperFunction,SMDPad,CuDef*%
%ADD14C,2.500000*%
%TD*%
%TA.AperFunction,ComponentPad*%
%ADD15C,1.600000*%
%TD*%
%TA.AperFunction,ComponentPad*%
%ADD16O,1.600000X1.600000*%
%TD*%
%TA.AperFunction,ComponentPad*%
%ADD17R,1.300000X1.300000*%
%TD*%
%TA.AperFunction,ComponentPad*%
%ADD18C,1.300000*%
%TD*%
%TA.AperFunction,ComponentPad*%
%ADD19R,1.500000X1.050000*%
%TD*%
%TA.AperFunction,ComponentPad*%
%ADD20O,1.500000X1.050000*%
%TD*%
%TA.AperFunction,ComponentPad*%
%ADD21C,1.200000*%
%TD*%
%TA.AperFunction,ComponentPad*%
%ADD22R,1.600000X1.600000*%
%TD*%
%TA.AperFunction,Conductor*%
%ADD23C,0.643800*%
%TD*%
G04 APERTURE END LIST*
D10*
%TO.P,J1,1,Pin_1*%
%TO.N,GND*%
X152380000Y-106705000D03*
D11*
%TO.P,J1,2,Pin_2*%
%TO.N,+3.3V*%
X149840000Y-106705000D03*
%TO.P,J1,3,Pin_3*%
%TO.N,SBWTDIO*%
X147300000Y-106705000D03*
%TO.P,J1,4,Pin_4*%
%TO.N,SBWTCK*%
X144760000Y-106705000D03*
%TO.P,J1,5,Pin_5*%
%TO.N,Net-(U3-Pad3)*%
X142220000Y-106705000D03*
%TO.P,J1,6,Pin_6*%
%TO.N,GND*%
X139680000Y-106705000D03*
%TO.P,J1,7,Pin_7*%
%TO.N,+12V*%
X137140000Y-106705000D03*
%TD*%
D12*
%TO.P,D1,1,K*%
%TO.N,Net-(D1-Pad1)*%
X149860000Y-63500000D03*
D13*
%TO.P,D1,2,A*%
%TO.N,GND*%
X149860000Y-78740000D03*
%TD*%
D10*
%TO.P,D2,1,K*%
%TO.N,+12V*%
X133340000Y-104135000D03*
D11*
%TO.P,D2,2,A*%
%TO.N,Net-(D2-Pad2)*%
X133340000Y-101595000D03*
%TD*%
D10*
%TO.P,U1,1,VIN*%
%TO.N,+12V*%
X147340000Y-57740000D03*
D11*
%TO.P,U1,2,OUT*%
%TO.N,Net-(D1-Pad1)*%
X144800000Y-57740000D03*
%TO.P,U1,3,GND*%
%TO.N,GND*%
X142260000Y-57740000D03*
%TO.P,U1,4,FB*%
%TO.N,+5V*%
X139720000Y-57740000D03*
%TO.P,U1,5,~{ON}/OFF*%
%TO.N,GND*%
X137180000Y-57740000D03*
%TD*%
D14*
%TO.P,TP3,1,1*%
%TO.N,GND*%
X156210000Y-59690000D03*
%TD*%
%TO.P,TP2,1,1*%
%TO.N,+3.3V*%
X156210000Y-72390000D03*
%TD*%
D15*
%TO.P,R2,1*%
%TO.N,+3.3V*%
X149850000Y-82545000D03*
D16*
%TO.P,R2,2*%
%TO.N,SBWTDIO*%
X149850000Y-92705000D03*
%TD*%
D15*
%TO.P,R1,1*%
%TO.N,Net-(R1-Pad1)*%
X133340000Y-91435000D03*
D16*
%TO.P,R1,2*%
%TO.N,GND*%
X133340000Y-81275000D03*
%TD*%
D17*
%TO.P,U2,1,S*%
%TO.N,GND*%
X132070000Y-95245000D03*
D18*
%TO.P,U2,2,G*%
%TO.N,Net-(R1-Pad1)*%
X133340000Y-96515000D03*
%TO.P,U2,3,D*%
%TO.N,Net-(D2-Pad2)*%
X132070000Y-97785000D03*
%TD*%
D14*
%TO.P,TP1,1,1*%
%TO.N,+5V*%
X156210000Y-66040000D03*
%TD*%
D15*
%TO.P,C2,1*%
%TO.N,+5V*%
X134620000Y-63620000D03*
%TO.P,C2,2*%
%TO.N,GND*%
X132120000Y-63620000D03*
%TD*%
D19*
%TO.P,L1,1,1*%
%TO.N,Net-(D1-Pad1)*%
X142240000Y-63500000D03*
D20*
%TO.P,L1,2,2*%
%TO.N,+5V*%
X142240000Y-66040000D03*
%TD*%
D21*
%TO.P,C1,1*%
%TO.N,+12V*%
X151130000Y-57150000D03*
%TO.P,C1,2*%
%TO.N,GND*%
X153130000Y-57150000D03*
%TD*%
D15*
%TO.P,R3,1*%
%TO.N,+5V*%
X142240000Y-71120000D03*
D16*
%TO.P,R3,2*%
%TO.N,+3.3V*%
X132080000Y-71120000D03*
%TD*%
D15*
%TO.P,R4,1*%
%TO.N,+3.3V*%
X132080000Y-74930000D03*
D16*
%TO.P,R4,2*%
%TO.N,GND*%
X142240000Y-74930000D03*
%TD*%
D22*
%TO.P,U3,1,DVCC*%
%TO.N,+3.3V*%
X137160000Y-78740000D03*
D16*
%TO.P,U3,2,TA0CLK/ACLK/P1.0*%
%TO.N,unconnected-(U3-Pad2)*%
X137160000Y-81280000D03*
%TO.P,U3,3,TA0.0/P1.1*%
%TO.N,Net-(U3-Pad3)*%
X137160000Y-83820000D03*
%TO.P,U3,4,TA0.1/P1.2*%
%TO.N,unconnected-(U3-Pad4)*%
X137160000Y-86360000D03*
%TO.P,U3,5,P1.3*%
%TO.N,unconnected-(U3-Pad5)*%
X137160000Y-88900000D03*
%TO.P,U3,6,SMCLK/TCK/TA0.2/P1.4*%
%TO.N,unconnected-(U3-Pad6)*%
X137160000Y-91440000D03*
%TO.P,U3,7,TMS/TA0.0/P1.5*%
%TO.N,unconnected-(U3-Pad7)*%
X137160000Y-93980000D03*
%TO.P,U3,8,P2.0*%
%TO.N,unconnected-(U3-Pad8)*%
X137160000Y-96520000D03*
%TO.P,U3,9,P2.1*%
%TO.N,unconnected-(U3-Pad9)*%
X137160000Y-99060000D03*
%TO.P,U3,10,P2.2*%
%TO.N,Net-(R1-Pad1)*%
X137160000Y-101600000D03*
%TO.P,U3,11,P2.3*%
%TO.N,unconnected-(U3-Pad11)*%
X144780000Y-101600000D03*
%TO.P,U3,12,P2.4*%
%TO.N,unconnected-(U3-Pad12)*%
X144780000Y-99060000D03*
%TO.P,U3,13,P2.5*%
%TO.N,unconnected-(U3-Pad13)*%
X144780000Y-96520000D03*
%TO.P,U3,14,SDO/SCL/TDI/TCLK/TA0.1/P1.6*%
%TO.N,unconnected-(U3-Pad14)*%
X144780000Y-93980000D03*
%TO.P,U3,15,SDI/SDA/TDO/TDI/P1.7*%
%TO.N,unconnected-(U3-Pad15)*%
X144780000Y-91440000D03*
%TO.P,U3,16,~{RST}/NMI/SBWTDIO*%
%TO.N,SBWTDIO*%
X144780000Y-88900000D03*
%TO.P,U3,17,SBWTCK/TEST*%
%TO.N,SBWTCK*%
X144780000Y-86360000D03*
%TO.P,U3,18,P2.7/XOUT*%
%TO.N,unconnected-(U3-Pad18)*%
X144780000Y-83820000D03*
%TO.P,U3,19,P2.6/XIN/TA0.1*%
%TO.N,unconnected-(U3-Pad19)*%
X144780000Y-81280000D03*
%TO.P,U3,20,DVSS*%
%TO.N,GND*%
X144780000Y-78740000D03*
%TD*%
D23*
%TO.N,+12V*%
X129540000Y-58420000D02*
X129540000Y-100335000D01*
X150540000Y-57740000D02*
X151130000Y-57150000D01*
X135915000Y-106705000D02*
X137140000Y-106705000D01*
X146050000Y-53975000D02*
X133985000Y-53975000D01*
X129540000Y-100335000D02*
X133340000Y-104135000D01*
X133985000Y-53975000D02*
X129540000Y-58420000D01*
X133340000Y-104135000D02*
X135885000Y-106680000D01*
X147340000Y-57740000D02*
X147340000Y-55265000D01*
X135885000Y-106680000D02*
X135890000Y-106680000D01*
X135890000Y-106680000D02*
X135915000Y-106705000D01*
X147340000Y-57740000D02*
X150540000Y-57740000D01*
X147340000Y-55265000D02*
X146050000Y-53975000D01*
%TO.N,GND*%
X156210000Y-59690000D02*
X156210000Y-58420000D01*
X154940000Y-57150000D02*
X153130000Y-57150000D01*
X156210000Y-58420000D02*
X154940000Y-57150000D01*
%TO.N,+5V*%
X154940000Y-67310000D02*
X156210000Y-66040000D01*
X143510000Y-67310000D02*
X154940000Y-67310000D01*
X142240000Y-66040000D02*
X142240000Y-71120000D01*
X134620000Y-62840000D02*
X139720000Y-57740000D01*
X134620000Y-63620000D02*
X134620000Y-62840000D01*
X142240000Y-66040000D02*
X143510000Y-67310000D01*
X137040000Y-66040000D02*
X142240000Y-66040000D01*
X134620000Y-63620000D02*
X137040000Y-66040000D01*
%TO.N,Net-(D1-Pad1)*%
X147320000Y-63500000D02*
X149860000Y-63500000D01*
X144800000Y-60940000D02*
X144780000Y-60960000D01*
X142240000Y-63500000D02*
X144800000Y-60940000D01*
X144780000Y-60960000D02*
X147320000Y-63500000D01*
X144800000Y-60940000D02*
X144800000Y-57740000D01*
%TO.N,Net-(R1-Pad1)*%
X133340000Y-96515000D02*
X133340000Y-91435000D01*
X133340000Y-97785000D02*
X137155000Y-101600000D01*
X133340000Y-96515000D02*
X133340000Y-97785000D01*
X137155000Y-101600000D02*
X137160000Y-101600000D01*
%TO.N,+3.3V*%
X156210000Y-76185000D02*
X156210000Y-72390000D01*
X149850000Y-82545000D02*
X156210000Y-76185000D01*
%TO.N,SBWTDIO*%
X146045000Y-88900000D02*
X149850000Y-92705000D01*
X147300000Y-106705000D02*
X147300000Y-104145000D01*
X149850000Y-101595000D02*
X149850000Y-92705000D01*
X147300000Y-104145000D02*
X149850000Y-101595000D01*
X144780000Y-88900000D02*
X146045000Y-88900000D01*
%TO.N,SBWTCK*%
X142230000Y-104175000D02*
X144760000Y-106705000D01*
X142230000Y-88910000D02*
X142230000Y-104175000D01*
X142230000Y-88910000D02*
X144780000Y-86360000D01*
X144780000Y-106680000D02*
X144780000Y-106665000D01*
%TO.N,Net-(D2-Pad2)*%
X132070000Y-97785000D02*
X132070000Y-100325000D01*
X132070000Y-100325000D02*
X133340000Y-101595000D01*
%TO.N,Net-(U3-Pad3)*%
X139700000Y-86360000D02*
X139700000Y-104185000D01*
X139700000Y-104185000D02*
X142220000Y-106705000D01*
X137160000Y-83820000D02*
X139700000Y-86360000D01*
%TD*%
%TA.AperFunction,Conductor*%
%TO.N,GND*%
G36*
X154690871Y-44978502D02*
G01*
X154723550Y-45008900D01*
X158216300Y-49665899D01*
X158241171Y-49732397D01*
X158241500Y-49741499D01*
X158241500Y-114088500D01*
X158221498Y-114156621D01*
X158216300Y-114164100D01*
X154723550Y-118821100D01*
X154666676Y-118863595D01*
X154622750Y-118871500D01*
X128587250Y-118871500D01*
X128519129Y-118851498D01*
X128486450Y-118821100D01*
X124993700Y-114164101D01*
X124968829Y-114097603D01*
X124968500Y-114088501D01*
X124968500Y-113162703D01*
X127430743Y-113162703D01*
X127468268Y-113447734D01*
X127544129Y-113725036D01*
X127656923Y-113989476D01*
X127804561Y-114236161D01*
X127984313Y-114460528D01*
X128001397Y-114476740D01*
X128154224Y-114621767D01*
X128192851Y-114658423D01*
X128426317Y-114826186D01*
X128430112Y-114828195D01*
X128430113Y-114828196D01*
X128451869Y-114839715D01*
X128680392Y-114960712D01*
X128950373Y-115059511D01*
X129231264Y-115120755D01*
X129259841Y-115123004D01*
X129454282Y-115138307D01*
X129454291Y-115138307D01*
X129456739Y-115138500D01*
X129612271Y-115138500D01*
X129614407Y-115138354D01*
X129614418Y-115138354D01*
X129822548Y-115124165D01*
X129822554Y-115124164D01*
X129826825Y-115123873D01*
X129831020Y-115123004D01*
X129831022Y-115123004D01*
X129967584Y-115094723D01*
X130108342Y-115065574D01*
X130379343Y-114969607D01*
X130634812Y-114837750D01*
X130638313Y-114835289D01*
X130638317Y-114835287D01*
X130752418Y-114755095D01*
X130870023Y-114672441D01*
X131080622Y-114476740D01*
X131262713Y-114254268D01*
X131412927Y-114009142D01*
X131528483Y-113745898D01*
X131607244Y-113469406D01*
X131647751Y-113184784D01*
X131647845Y-113166951D01*
X131647867Y-113162703D01*
X151560743Y-113162703D01*
X151598268Y-113447734D01*
X151674129Y-113725036D01*
X151786923Y-113989476D01*
X151934561Y-114236161D01*
X152114313Y-114460528D01*
X152131397Y-114476740D01*
X152284224Y-114621767D01*
X152322851Y-114658423D01*
X152556317Y-114826186D01*
X152560112Y-114828195D01*
X152560113Y-114828196D01*
X152581869Y-114839715D01*
X152810392Y-114960712D01*
X153080373Y-115059511D01*
X153361264Y-115120755D01*
X153389841Y-115123004D01*
X153584282Y-115138307D01*
X153584291Y-115138307D01*
X153586739Y-115138500D01*
X153742271Y-115138500D01*
X153744407Y-115138354D01*
X153744418Y-115138354D01*
X153952548Y-115124165D01*
X153952554Y-115124164D01*
X153956825Y-115123873D01*
X153961020Y-115123004D01*
X153961022Y-115123004D01*
X154097584Y-115094723D01*
X154238342Y-115065574D01*
X154509343Y-114969607D01*
X154764812Y-114837750D01*
X154768313Y-114835289D01*
X154768317Y-114835287D01*
X154882418Y-114755095D01*
X155000023Y-114672441D01*
X155210622Y-114476740D01*
X155392713Y-114254268D01*
X155542927Y-114009142D01*
X155658483Y-113745898D01*
X155737244Y-113469406D01*
X155777751Y-113184784D01*
X155777845Y-113166951D01*
X155779235Y-112901583D01*
X155779235Y-112901576D01*
X155779257Y-112897297D01*
X155741732Y-112612266D01*
X155665871Y-112334964D01*
X155553077Y-112070524D01*
X155405439Y-111823839D01*
X155225687Y-111599472D01*
X155017149Y-111401577D01*
X154783683Y-111233814D01*
X154761843Y-111222250D01*
X154738654Y-111209972D01*
X154529608Y-111099288D01*
X154259627Y-111000489D01*
X153978736Y-110939245D01*
X153947685Y-110936801D01*
X153755718Y-110921693D01*
X153755709Y-110921693D01*
X153753261Y-110921500D01*
X153597729Y-110921500D01*
X153595593Y-110921646D01*
X153595582Y-110921646D01*
X153387452Y-110935835D01*
X153387446Y-110935836D01*
X153383175Y-110936127D01*
X153378980Y-110936996D01*
X153378978Y-110936996D01*
X153242417Y-110965276D01*
X153101658Y-110994426D01*
X152830657Y-111090393D01*
X152575188Y-111222250D01*
X152571687Y-111224711D01*
X152571683Y-111224713D01*
X152561594Y-111231804D01*
X152339977Y-111387559D01*
X152129378Y-111583260D01*
X151947287Y-111805732D01*
X151797073Y-112050858D01*
X151681517Y-112314102D01*
X151602756Y-112590594D01*
X151562249Y-112875216D01*
X151562227Y-112879505D01*
X151562226Y-112879512D01*
X151560765Y-113158417D01*
X151560743Y-113162703D01*
X131647867Y-113162703D01*
X131649235Y-112901583D01*
X131649235Y-112901576D01*
X131649257Y-112897297D01*
X131611732Y-112612266D01*
X131535871Y-112334964D01*
X131423077Y-112070524D01*
X131275439Y-111823839D01*
X131095687Y-111599472D01*
X130887149Y-111401577D01*
X130653683Y-111233814D01*
X130631843Y-111222250D01*
X130608654Y-111209972D01*
X130399608Y-111099288D01*
X130129627Y-111000489D01*
X129848736Y-110939245D01*
X129817685Y-110936801D01*
X129625718Y-110921693D01*
X129625709Y-110921693D01*
X129623261Y-110921500D01*
X129467729Y-110921500D01*
X129465593Y-110921646D01*
X129465582Y-110921646D01*
X129257452Y-110935835D01*
X129257446Y-110935836D01*
X129253175Y-110936127D01*
X129248980Y-110936996D01*
X129248978Y-110936996D01*
X129112417Y-110965276D01*
X128971658Y-110994426D01*
X128700657Y-111090393D01*
X128445188Y-111222250D01*
X128441687Y-111224711D01*
X128441683Y-111224713D01*
X128431594Y-111231804D01*
X128209977Y-111387559D01*
X127999378Y-111583260D01*
X127817287Y-111805732D01*
X127667073Y-112050858D01*
X127551517Y-112314102D01*
X127472756Y-112590594D01*
X127432249Y-112875216D01*
X127432227Y-112879505D01*
X127432226Y-112879512D01*
X127430765Y-113158417D01*
X127430743Y-113162703D01*
X124968500Y-113162703D01*
X124968500Y-100355409D01*
X128704952Y-100355409D01*
X128714414Y-100426314D01*
X128715340Y-100433255D01*
X128715708Y-100436294D01*
X128724189Y-100514368D01*
X128726367Y-100520840D01*
X128726910Y-100523310D01*
X128727006Y-100523853D01*
X128727153Y-100524487D01*
X128727306Y-100525012D01*
X128727912Y-100527478D01*
X128728815Y-100534246D01*
X128731150Y-100540662D01*
X128731151Y-100540665D01*
X128755666Y-100608020D01*
X128756684Y-100610925D01*
X128781736Y-100685367D01*
X128785252Y-100691219D01*
X128786317Y-100693523D01*
X128786524Y-100694026D01*
X128786814Y-100694634D01*
X128787077Y-100695116D01*
X128788191Y-100697380D01*
X128790523Y-100703788D01*
X128832621Y-100770125D01*
X128834196Y-100772676D01*
X128874661Y-100840020D01*
X128879353Y-100844981D01*
X128880885Y-100847000D01*
X128881510Y-100847900D01*
X128884425Y-100851754D01*
X128887198Y-100856124D01*
X128890888Y-100860251D01*
X128943055Y-100912418D01*
X128945509Y-100914940D01*
X128989171Y-100961111D01*
X128998627Y-100971111D01*
X129004269Y-100974945D01*
X129009239Y-100979175D01*
X129016671Y-100986034D01*
X131944595Y-103913958D01*
X131978621Y-103976270D01*
X131981500Y-104003053D01*
X131981500Y-105033134D01*
X131988255Y-105095316D01*
X132039385Y-105231705D01*
X132126739Y-105348261D01*
X132243295Y-105435615D01*
X132379684Y-105486745D01*
X132441866Y-105493500D01*
X133471947Y-105493500D01*
X133540068Y-105513502D01*
X133561042Y-105530405D01*
X135269372Y-107238735D01*
X135276515Y-107246502D01*
X135308963Y-107284899D01*
X135314385Y-107289044D01*
X135327971Y-107299431D01*
X135335685Y-107306020D01*
X135338963Y-107309899D01*
X135344382Y-107314042D01*
X135344385Y-107314045D01*
X135401392Y-107357630D01*
X135403797Y-107359515D01*
X135464967Y-107408698D01*
X135471081Y-107411733D01*
X135473205Y-107413091D01*
X135473659Y-107413409D01*
X135474217Y-107413757D01*
X135474706Y-107414025D01*
X135476869Y-107415335D01*
X135482294Y-107419483D01*
X135488483Y-107422369D01*
X135553461Y-107452669D01*
X135556235Y-107454004D01*
X135620462Y-107485887D01*
X135620466Y-107485888D01*
X135626573Y-107488920D01*
X135633195Y-107490571D01*
X135635568Y-107491444D01*
X135636067Y-107491652D01*
X135636705Y-107491878D01*
X135637226Y-107492031D01*
X135639624Y-107492848D01*
X135645812Y-107495733D01*
X135652470Y-107497221D01*
X135652481Y-107497225D01*
X135722456Y-107512866D01*
X135725452Y-107513574D01*
X135795015Y-107530918D01*
X135801637Y-107532569D01*
X135808455Y-107532759D01*
X135810972Y-107533104D01*
X135812047Y-107533297D01*
X135816841Y-107533962D01*
X135821890Y-107535091D01*
X135827417Y-107535400D01*
X135901219Y-107535400D01*
X135904737Y-107535449D01*
X135981990Y-107537607D01*
X135988695Y-107536328D01*
X135994312Y-107535876D01*
X136063818Y-107550349D01*
X136099656Y-107578972D01*
X136182865Y-107675031D01*
X136182869Y-107675035D01*
X136186250Y-107678938D01*
X136358126Y-107821632D01*
X136551000Y-107934338D01*
X136759692Y-108014030D01*
X136764760Y-108015061D01*
X136764763Y-108015062D01*
X136859862Y-108034410D01*
X136978597Y-108058567D01*
X136983772Y-108058757D01*
X136983774Y-108058757D01*
X137196673Y-108066564D01*
X137196677Y-108066564D01*
X137201837Y-108066753D01*
X137206957Y-108066097D01*
X137206959Y-108066097D01*
X137418288Y-108039025D01*
X137418289Y-108039025D01*
X137423416Y-108038368D01*
X137428366Y-108036883D01*
X137632429Y-107975661D01*
X137632434Y-107975659D01*
X137637384Y-107974174D01*
X137837994Y-107875896D01*
X138019860Y-107746173D01*
X138178096Y-107588489D01*
X138214796Y-107537416D01*
X138308453Y-107407077D01*
X138309640Y-107407930D01*
X138356960Y-107364362D01*
X138426897Y-107352145D01*
X138492338Y-107379678D01*
X138520166Y-107411511D01*
X138577694Y-107505388D01*
X138583777Y-107513699D01*
X138723213Y-107674667D01*
X138730580Y-107681883D01*
X138894434Y-107817916D01*
X138902881Y-107823831D01*
X139086756Y-107931279D01*
X139096042Y-107935729D01*
X139295001Y-108011703D01*
X139304899Y-108014579D01*
X139408250Y-108035606D01*
X139422299Y-108034410D01*
X139426000Y-108024065D01*
X139426000Y-106577000D01*
X139446002Y-106508879D01*
X139499658Y-106462386D01*
X139552000Y-106451000D01*
X139808000Y-106451000D01*
X139876121Y-106471002D01*
X139922614Y-106524658D01*
X139934000Y-106577000D01*
X139934000Y-108023517D01*
X139938064Y-108037359D01*
X139951478Y-108039393D01*
X139958184Y-108038534D01*
X139968262Y-108036392D01*
X140172255Y-107975191D01*
X140181842Y-107971433D01*
X140373095Y-107877739D01*
X140381945Y-107872464D01*
X140555328Y-107748792D01*
X140563200Y-107742139D01*
X140714052Y-107591812D01*
X140720730Y-107583965D01*
X140848022Y-107406819D01*
X140849279Y-107407722D01*
X140896373Y-107364362D01*
X140966311Y-107352145D01*
X141031751Y-107379678D01*
X141059579Y-107411511D01*
X141119987Y-107510088D01*
X141266250Y-107678938D01*
X141438126Y-107821632D01*
X141631000Y-107934338D01*
X141839692Y-108014030D01*
X141844760Y-108015061D01*
X141844763Y-108015062D01*
X141939862Y-108034410D01*
X142058597Y-108058567D01*
X142063772Y-108058757D01*
X142063774Y-108058757D01*
X142276673Y-108066564D01*
X142276677Y-108066564D01*
X142281837Y-108066753D01*
X142286957Y-108066097D01*
X142286959Y-108066097D01*
X142498288Y-108039025D01*
X142498289Y-108039025D01*
X142503416Y-108038368D01*
X142508366Y-108036883D01*
X142712429Y-107975661D01*
X142712434Y-107975659D01*
X142717384Y-107974174D01*
X142917994Y-107875896D01*
X143099860Y-107746173D01*
X143258096Y-107588489D01*
X143294796Y-107537416D01*
X143388453Y-107407077D01*
X143389776Y-107408028D01*
X143436645Y-107364857D01*
X143506580Y-107352625D01*
X143572026Y-107380144D01*
X143599875Y-107411994D01*
X143659987Y-107510088D01*
X143806250Y-107678938D01*
X143978126Y-107821632D01*
X144171000Y-107934338D01*
X144379692Y-108014030D01*
X144384760Y-108015061D01*
X144384763Y-108015062D01*
X144479862Y-108034410D01*
X144598597Y-108058567D01*
X144603772Y-108058757D01*
X144603774Y-108058757D01*
X144816673Y-108066564D01*
X144816677Y-108066564D01*
X144821837Y-108066753D01*
X144826957Y-108066097D01*
X144826959Y-108066097D01*
X145038288Y-108039025D01*
X145038289Y-108039025D01*
X145043416Y-108038368D01*
X145048366Y-108036883D01*
X145252429Y-107975661D01*
X145252434Y-107975659D01*
X145257384Y-107974174D01*
X145457994Y-107875896D01*
X145639860Y-107746173D01*
X145798096Y-107588489D01*
X145834796Y-107537416D01*
X145928453Y-107407077D01*
X145929776Y-107408028D01*
X145976645Y-107364857D01*
X146046580Y-107352625D01*
X146112026Y-107380144D01*
X146139875Y-107411994D01*
X146199987Y-107510088D01*
X146346250Y-107678938D01*
X146518126Y-107821632D01*
X146711000Y-107934338D01*
X146919692Y-108014030D01*
X146924760Y-108015061D01*
X146924763Y-108015062D01*
X147019862Y-108034410D01*
X147138597Y-108058567D01*
X147143772Y-108058757D01*
X147143774Y-108058757D01*
X147356673Y-108066564D01*
X147356677Y-108066564D01*
X147361837Y-108066753D01*
X147366957Y-108066097D01*
X147366959Y-108066097D01*
X147578288Y-108039025D01*
X147578289Y-108039025D01*
X147583416Y-108038368D01*
X147588366Y-108036883D01*
X147792429Y-107975661D01*
X147792434Y-107975659D01*
X147797384Y-107974174D01*
X147997994Y-107875896D01*
X148179860Y-107746173D01*
X148338096Y-107588489D01*
X148374796Y-107537416D01*
X148468453Y-107407077D01*
X148469776Y-107408028D01*
X148516645Y-107364857D01*
X148586580Y-107352625D01*
X148652026Y-107380144D01*
X148679875Y-107411994D01*
X148739987Y-107510088D01*
X148886250Y-107678938D01*
X149058126Y-107821632D01*
X149251000Y-107934338D01*
X149459692Y-108014030D01*
X149464760Y-108015061D01*
X149464763Y-108015062D01*
X149559862Y-108034410D01*
X149678597Y-108058567D01*
X149683772Y-108058757D01*
X149683774Y-108058757D01*
X149896673Y-108066564D01*
X149896677Y-108066564D01*
X149901837Y-108066753D01*
X149906957Y-108066097D01*
X149906959Y-108066097D01*
X150118288Y-108039025D01*
X150118289Y-108039025D01*
X150123416Y-108038368D01*
X150128366Y-108036883D01*
X150332429Y-107975661D01*
X150332434Y-107975659D01*
X150337384Y-107974174D01*
X150537994Y-107875896D01*
X150719860Y-107746173D01*
X150787331Y-107678938D01*
X150828479Y-107637933D01*
X150890851Y-107604017D01*
X150961658Y-107609205D01*
X151018419Y-107651851D01*
X151035401Y-107682954D01*
X151076676Y-107793054D01*
X151085214Y-107808649D01*
X151161715Y-107910724D01*
X151174276Y-107923285D01*
X151276351Y-107999786D01*
X151291946Y-108008324D01*
X151412394Y-108053478D01*
X151427649Y-108057105D01*
X151478514Y-108062631D01*
X151485328Y-108063000D01*
X152107885Y-108063000D01*
X152123124Y-108058525D01*
X152124329Y-108057135D01*
X152126000Y-108049452D01*
X152126000Y-108044884D01*
X152634000Y-108044884D01*
X152638475Y-108060123D01*
X152639865Y-108061328D01*
X152647548Y-108062999D01*
X153274669Y-108062999D01*
X153281490Y-108062629D01*
X153332352Y-108057105D01*
X153347604Y-108053479D01*
X153468054Y-108008324D01*
X153483649Y-107999786D01*
X153585724Y-107923285D01*
X153598285Y-107910724D01*
X153674786Y-107808649D01*
X153683324Y-107793054D01*
X153728478Y-107672606D01*
X153732105Y-107657351D01*
X153737631Y-107606486D01*
X153738000Y-107599672D01*
X153738000Y-106977115D01*
X153733525Y-106961876D01*
X153732135Y-106960671D01*
X153724452Y-106959000D01*
X152652115Y-106959000D01*
X152636876Y-106963475D01*
X152635671Y-106964865D01*
X152634000Y-106972548D01*
X152634000Y-108044884D01*
X152126000Y-108044884D01*
X152126000Y-106432885D01*
X152634000Y-106432885D01*
X152638475Y-106448124D01*
X152639865Y-106449329D01*
X152647548Y-106451000D01*
X153719884Y-106451000D01*
X153735123Y-106446525D01*
X153736328Y-106445135D01*
X153737999Y-106437452D01*
X153737999Y-105810331D01*
X153737629Y-105803510D01*
X153732105Y-105752648D01*
X153728479Y-105737396D01*
X153683324Y-105616946D01*
X153674786Y-105601351D01*
X153598285Y-105499276D01*
X153585724Y-105486715D01*
X153483649Y-105410214D01*
X153468054Y-105401676D01*
X153347606Y-105356522D01*
X153332351Y-105352895D01*
X153281486Y-105347369D01*
X153274672Y-105347000D01*
X152652115Y-105347000D01*
X152636876Y-105351475D01*
X152635671Y-105352865D01*
X152634000Y-105360548D01*
X152634000Y-106432885D01*
X152126000Y-106432885D01*
X152126000Y-105365116D01*
X152121525Y-105349877D01*
X152120135Y-105348672D01*
X152112452Y-105347001D01*
X151485331Y-105347001D01*
X151478510Y-105347371D01*
X151427648Y-105352895D01*
X151412396Y-105356521D01*
X151291946Y-105401676D01*
X151276351Y-105410214D01*
X151174276Y-105486715D01*
X151161715Y-105499276D01*
X151085214Y-105601351D01*
X151076676Y-105616946D01*
X151035297Y-105727322D01*
X150992655Y-105784087D01*
X150926093Y-105808786D01*
X150856744Y-105793578D01*
X150824121Y-105767891D01*
X150773151Y-105711876D01*
X150773145Y-105711870D01*
X150769670Y-105708051D01*
X150765616Y-105704849D01*
X150765615Y-105704848D01*
X150598414Y-105572800D01*
X150598410Y-105572798D01*
X150594359Y-105569598D01*
X150558028Y-105549542D01*
X150456507Y-105493500D01*
X150398789Y-105461638D01*
X150393920Y-105459914D01*
X150393916Y-105459912D01*
X150193087Y-105388795D01*
X150193083Y-105388794D01*
X150188212Y-105387069D01*
X150183119Y-105386162D01*
X150183116Y-105386161D01*
X149973373Y-105348800D01*
X149973367Y-105348799D01*
X149968284Y-105347894D01*
X149894452Y-105346992D01*
X149750081Y-105345228D01*
X149750079Y-105345228D01*
X149744911Y-105345165D01*
X149524091Y-105378955D01*
X149311756Y-105448357D01*
X149281443Y-105464137D01*
X149154144Y-105530405D01*
X149113607Y-105551507D01*
X149109474Y-105554610D01*
X149109471Y-105554612D01*
X148939100Y-105682530D01*
X148934965Y-105685635D01*
X148780629Y-105847138D01*
X148673201Y-106004621D01*
X148618293Y-106049621D01*
X148547768Y-106057792D01*
X148484021Y-106026538D01*
X148463324Y-106002054D01*
X148382822Y-105877617D01*
X148382820Y-105877614D01*
X148380014Y-105873277D01*
X148229670Y-105708051D01*
X148178307Y-105667487D01*
X148137245Y-105609571D01*
X148130400Y-105568606D01*
X148130400Y-104541153D01*
X148150402Y-104473032D01*
X148167305Y-104452058D01*
X150408735Y-102210628D01*
X150416502Y-102203485D01*
X150449685Y-102175443D01*
X150454899Y-102171037D01*
X150502602Y-102108644D01*
X150504493Y-102106232D01*
X150553698Y-102045033D01*
X150556734Y-102038919D01*
X150558100Y-102036782D01*
X150558414Y-102036334D01*
X150558761Y-102035776D01*
X150559018Y-102035309D01*
X150560342Y-102033123D01*
X150564483Y-102027706D01*
X150567364Y-102021527D01*
X150567368Y-102021521D01*
X150597673Y-101956532D01*
X150599007Y-101953759D01*
X150630887Y-101889537D01*
X150633921Y-101883426D01*
X150635573Y-101876803D01*
X150636452Y-101874413D01*
X150636660Y-101873914D01*
X150636879Y-101873296D01*
X150637032Y-101872776D01*
X150637852Y-101870368D01*
X150640733Y-101864188D01*
X150650028Y-101822607D01*
X150657862Y-101787561D01*
X150658569Y-101784567D01*
X150677569Y-101708362D01*
X150677759Y-101701540D01*
X150678103Y-101699031D01*
X150678297Y-101697957D01*
X150678963Y-101693154D01*
X150680091Y-101688110D01*
X150680400Y-101682583D01*
X150680400Y-101608781D01*
X150680449Y-101605263D01*
X150681666Y-101561695D01*
X150682607Y-101528010D01*
X150681328Y-101521306D01*
X150680806Y-101514816D01*
X150680400Y-101504710D01*
X150680400Y-93777288D01*
X150700402Y-93709167D01*
X150717305Y-93688193D01*
X150856198Y-93549300D01*
X150872671Y-93525775D01*
X150984366Y-93366257D01*
X150987523Y-93361749D01*
X150989846Y-93356767D01*
X150989849Y-93356762D01*
X151081961Y-93159225D01*
X151081961Y-93159224D01*
X151084284Y-93154243D01*
X151132634Y-92973802D01*
X151142119Y-92938402D01*
X151142119Y-92938400D01*
X151143543Y-92933087D01*
X151163498Y-92705000D01*
X151143543Y-92476913D01*
X151136581Y-92450931D01*
X151085707Y-92261067D01*
X151085706Y-92261065D01*
X151084284Y-92255757D01*
X151010138Y-92096749D01*
X150989849Y-92053238D01*
X150989846Y-92053233D01*
X150987523Y-92048251D01*
X150876184Y-91889243D01*
X150859357Y-91865211D01*
X150859355Y-91865208D01*
X150856198Y-91860700D01*
X150694300Y-91698802D01*
X150689792Y-91695645D01*
X150689789Y-91695643D01*
X150611611Y-91640902D01*
X150506749Y-91567477D01*
X150501767Y-91565154D01*
X150501762Y-91565151D01*
X150304225Y-91473039D01*
X150304224Y-91473039D01*
X150299243Y-91470716D01*
X150293935Y-91469294D01*
X150293933Y-91469293D01*
X150083402Y-91412881D01*
X150083400Y-91412881D01*
X150078087Y-91411457D01*
X149850000Y-91391502D01*
X149844525Y-91391981D01*
X149844515Y-91391981D01*
X149780589Y-91397574D01*
X149710984Y-91383586D01*
X149680512Y-91361149D01*
X146660628Y-88341265D01*
X146653485Y-88333498D01*
X146625443Y-88300315D01*
X146621037Y-88295101D01*
X146558644Y-88247398D01*
X146556232Y-88245507D01*
X146495033Y-88196302D01*
X146488912Y-88193264D01*
X146486798Y-88191912D01*
X146486339Y-88191591D01*
X146485775Y-88191239D01*
X146485294Y-88190975D01*
X146483131Y-88189665D01*
X146477706Y-88185517D01*
X146406537Y-88152330D01*
X146403765Y-88150996D01*
X146339538Y-88119113D01*
X146339534Y-88119112D01*
X146333427Y-88116080D01*
X146326805Y-88114429D01*
X146324432Y-88113556D01*
X146323933Y-88113348D01*
X146323295Y-88113122D01*
X146322774Y-88112969D01*
X146320376Y-88112152D01*
X146314188Y-88109267D01*
X146307530Y-88107779D01*
X146307519Y-88107775D01*
X146237544Y-88092134D01*
X146234548Y-88091426D01*
X146164985Y-88074082D01*
X146164984Y-88074082D01*
X146158363Y-88072431D01*
X146151545Y-88072241D01*
X146149028Y-88071896D01*
X146147953Y-88071703D01*
X146143159Y-88071038D01*
X146138110Y-88069909D01*
X146132583Y-88069600D01*
X146058781Y-88069600D01*
X146055263Y-88069551D01*
X146054783Y-88069538D01*
X145978010Y-88067393D01*
X145971306Y-88068672D01*
X145964816Y-88069194D01*
X145954710Y-88069600D01*
X145852288Y-88069600D01*
X145784167Y-88049598D01*
X145763193Y-88032695D01*
X145624300Y-87893802D01*
X145619792Y-87890645D01*
X145619789Y-87890643D01*
X145541611Y-87835902D01*
X145436749Y-87762477D01*
X145431767Y-87760154D01*
X145431762Y-87760151D01*
X145397543Y-87744195D01*
X145344258Y-87697278D01*
X145324797Y-87629001D01*
X145345339Y-87561041D01*
X145397543Y-87515805D01*
X145431762Y-87499849D01*
X145431767Y-87499846D01*
X145436749Y-87497523D01*
X145541611Y-87424098D01*
X145619789Y-87369357D01*
X145619792Y-87369355D01*
X145624300Y-87366198D01*
X145786198Y-87204300D01*
X145917523Y-87016749D01*
X145919846Y-87011767D01*
X145919849Y-87011762D01*
X146011961Y-86814225D01*
X146011961Y-86814224D01*
X146014284Y-86809243D01*
X146073543Y-86588087D01*
X146093498Y-86360000D01*
X146073543Y-86131913D01*
X146040778Y-86009633D01*
X146015707Y-85916067D01*
X146015706Y-85916065D01*
X146014284Y-85910757D01*
X146011961Y-85905775D01*
X145919849Y-85708238D01*
X145919846Y-85708233D01*
X145917523Y-85703251D01*
X145786198Y-85515700D01*
X145624300Y-85353802D01*
X145619792Y-85350645D01*
X145619789Y-85350643D01*
X145541611Y-85295902D01*
X145436749Y-85222477D01*
X145431767Y-85220154D01*
X145431762Y-85220151D01*
X145397543Y-85204195D01*
X145344258Y-85157278D01*
X145324797Y-85089001D01*
X145345339Y-85021041D01*
X145397543Y-84975805D01*
X145431762Y-84959849D01*
X145431767Y-84959846D01*
X145436749Y-84957523D01*
X145541611Y-84884098D01*
X145619789Y-84829357D01*
X145619792Y-84829355D01*
X145624300Y-84826198D01*
X145786198Y-84664300D01*
X145917523Y-84476749D01*
X145919846Y-84471767D01*
X145919849Y-84471762D01*
X146011961Y-84274225D01*
X146011961Y-84274224D01*
X146014284Y-84269243D01*
X146073543Y-84048087D01*
X146093498Y-83820000D01*
X146073543Y-83591913D01*
X146063480Y-83554357D01*
X146015707Y-83376067D01*
X146015706Y-83376065D01*
X146014284Y-83370757D01*
X145935475Y-83201749D01*
X145919849Y-83168238D01*
X145919846Y-83168233D01*
X145917523Y-83163251D01*
X145844098Y-83058389D01*
X145789357Y-82980211D01*
X145789355Y-82980208D01*
X145786198Y-82975700D01*
X145624300Y-82813802D01*
X145619792Y-82810645D01*
X145619789Y-82810643D01*
X145541611Y-82755902D01*
X145436749Y-82682477D01*
X145431767Y-82680154D01*
X145431762Y-82680151D01*
X145397543Y-82664195D01*
X145344258Y-82617278D01*
X145324797Y-82549001D01*
X145326006Y-82545000D01*
X148536502Y-82545000D01*
X148556457Y-82773087D01*
X148557881Y-82778400D01*
X148557881Y-82778402D01*
X148567367Y-82813802D01*
X148615716Y-82994243D01*
X148618039Y-82999224D01*
X148618039Y-82999225D01*
X148710151Y-83196762D01*
X148710154Y-83196767D01*
X148712477Y-83201749D01*
X148715634Y-83206257D01*
X148827330Y-83365775D01*
X148843802Y-83389300D01*
X149005700Y-83551198D01*
X149010208Y-83554355D01*
X149010211Y-83554357D01*
X149056256Y-83586598D01*
X149193251Y-83682523D01*
X149198233Y-83684846D01*
X149198238Y-83684849D01*
X149395775Y-83776961D01*
X149400757Y-83779284D01*
X149406065Y-83780706D01*
X149406067Y-83780707D01*
X149616598Y-83837119D01*
X149616600Y-83837119D01*
X149621913Y-83838543D01*
X149850000Y-83858498D01*
X150078087Y-83838543D01*
X150083400Y-83837119D01*
X150083402Y-83837119D01*
X150293933Y-83780707D01*
X150293935Y-83780706D01*
X150299243Y-83779284D01*
X150304225Y-83776961D01*
X150501762Y-83684849D01*
X150501767Y-83684846D01*
X150506749Y-83682523D01*
X150643744Y-83586598D01*
X150689789Y-83554357D01*
X150689792Y-83554355D01*
X150694300Y-83551198D01*
X150856198Y-83389300D01*
X150872671Y-83365775D01*
X150984366Y-83206257D01*
X150987523Y-83201749D01*
X150989846Y-83196767D01*
X150989849Y-83196762D01*
X151081961Y-82999225D01*
X151081961Y-82999224D01*
X151084284Y-82994243D01*
X151132634Y-82813802D01*
X151142119Y-82778402D01*
X151142119Y-82778400D01*
X151143543Y-82773087D01*
X151163498Y-82545000D01*
X151163019Y-82539525D01*
X151163019Y-82539515D01*
X151157426Y-82475589D01*
X151171414Y-82405984D01*
X151193851Y-82375512D01*
X156768735Y-76800628D01*
X156776502Y-76793485D01*
X156809685Y-76765443D01*
X156814899Y-76761037D01*
X156862602Y-76698644D01*
X156864493Y-76696232D01*
X156900492Y-76651458D01*
X156913698Y-76635033D01*
X156916736Y-76628912D01*
X156918088Y-76626798D01*
X156918409Y-76626339D01*
X156918761Y-76625775D01*
X156919025Y-76625294D01*
X156920335Y-76623131D01*
X156924483Y-76617706D01*
X156957670Y-76546537D01*
X156959004Y-76543765D01*
X156990887Y-76479538D01*
X156990888Y-76479534D01*
X156993920Y-76473427D01*
X156995571Y-76466805D01*
X156996444Y-76464432D01*
X156996652Y-76463933D01*
X156996878Y-76463295D01*
X156997031Y-76462774D01*
X156997848Y-76460376D01*
X157000733Y-76454188D01*
X157002221Y-76447530D01*
X157002225Y-76447519D01*
X157017866Y-76377544D01*
X157018574Y-76374548D01*
X157035918Y-76304985D01*
X157035918Y-76304984D01*
X157037569Y-76298363D01*
X157037759Y-76291545D01*
X157038104Y-76289028D01*
X157038297Y-76287953D01*
X157038962Y-76283159D01*
X157040091Y-76278110D01*
X157040400Y-76272583D01*
X157040400Y-76198781D01*
X157040449Y-76195263D01*
X157040462Y-76194783D01*
X157042607Y-76118010D01*
X157041328Y-76111306D01*
X157040806Y-76104816D01*
X157040400Y-76094710D01*
X157040400Y-74014398D01*
X157060402Y-73946277D01*
X157100093Y-73907257D01*
X157246519Y-73816646D01*
X157446005Y-73647768D01*
X157537729Y-73543177D01*
X157615257Y-73454774D01*
X157615261Y-73454769D01*
X157618339Y-73451259D01*
X157759733Y-73231437D01*
X157867083Y-72993129D01*
X157938030Y-72741572D01*
X157954832Y-72609496D01*
X157970616Y-72485421D01*
X157970616Y-72485417D01*
X157971014Y-72482291D01*
X157973431Y-72390000D01*
X157954061Y-72129348D01*
X157952467Y-72122301D01*
X157897408Y-71878980D01*
X157896377Y-71874423D01*
X157801647Y-71630823D01*
X157671951Y-71403902D01*
X157510138Y-71198643D01*
X157319763Y-71019557D01*
X157167437Y-70913884D01*
X157108851Y-70873241D01*
X157108848Y-70873239D01*
X157105009Y-70870576D01*
X157100816Y-70868508D01*
X156874781Y-70757040D01*
X156874778Y-70757039D01*
X156870593Y-70754975D01*
X156824449Y-70740204D01*
X156626123Y-70676720D01*
X156621665Y-70675293D01*
X156363693Y-70633279D01*
X156249942Y-70631790D01*
X156107022Y-70629919D01*
X156107019Y-70629919D01*
X156102345Y-70629858D01*
X155843362Y-70665104D01*
X155838876Y-70666412D01*
X155838874Y-70666412D01*
X155803509Y-70676720D01*
X155592433Y-70738243D01*
X155588180Y-70740203D01*
X155588179Y-70740204D01*
X155551659Y-70757040D01*
X155355072Y-70847668D01*
X155316067Y-70873241D01*
X155140404Y-70988410D01*
X155140399Y-70988414D01*
X155136491Y-70990976D01*
X154941494Y-71165018D01*
X154774363Y-71365970D01*
X154638771Y-71589419D01*
X154537697Y-71830455D01*
X154473359Y-72083783D01*
X154447173Y-72343839D01*
X154447397Y-72348505D01*
X154447397Y-72348511D01*
X154453443Y-72474373D01*
X154459713Y-72604908D01*
X154510704Y-72861256D01*
X154599026Y-73107252D01*
X154601242Y-73111376D01*
X154665753Y-73231437D01*
X154722737Y-73337491D01*
X154725532Y-73341234D01*
X154725534Y-73341237D01*
X154876330Y-73543177D01*
X154876335Y-73543183D01*
X154879122Y-73546915D01*
X154882431Y-73550195D01*
X154882436Y-73550201D01*
X155032046Y-73698510D01*
X155064743Y-73730923D01*
X155068505Y-73733681D01*
X155068508Y-73733684D01*
X155271750Y-73882707D01*
X155275524Y-73885474D01*
X155312268Y-73904806D01*
X155363240Y-73954223D01*
X155379600Y-74016313D01*
X155379600Y-75788847D01*
X155359598Y-75856968D01*
X155342695Y-75877942D01*
X152161364Y-79059273D01*
X152099052Y-79093299D01*
X152028237Y-79088234D01*
X151971401Y-79045687D01*
X151949816Y-78997298D01*
X151937354Y-78994000D01*
X150132115Y-78994000D01*
X150116876Y-78998475D01*
X150115671Y-78999865D01*
X150114000Y-79007548D01*
X150114000Y-80814560D01*
X150118475Y-80829799D01*
X150122199Y-80833026D01*
X150174229Y-80857494D01*
X150211943Y-80917646D01*
X150211149Y-80988638D01*
X150179752Y-81040885D01*
X150019488Y-81201149D01*
X149957176Y-81235175D01*
X149919411Y-81237574D01*
X149855485Y-81231981D01*
X149855475Y-81231981D01*
X149850000Y-81231502D01*
X149621913Y-81251457D01*
X149616600Y-81252881D01*
X149616598Y-81252881D01*
X149406067Y-81309293D01*
X149406065Y-81309294D01*
X149400757Y-81310716D01*
X149395776Y-81313039D01*
X149395775Y-81313039D01*
X149198238Y-81405151D01*
X149198233Y-81405154D01*
X149193251Y-81407477D01*
X149088389Y-81480902D01*
X149010211Y-81535643D01*
X149010208Y-81535645D01*
X149005700Y-81538802D01*
X148843802Y-81700700D01*
X148840645Y-81705208D01*
X148840643Y-81705211D01*
X148827534Y-81723933D01*
X148712477Y-81888251D01*
X148710154Y-81893233D01*
X148710151Y-81893238D01*
X148690208Y-81936007D01*
X148615716Y-82095757D01*
X148614294Y-82101065D01*
X148614293Y-82101067D01*
X148557881Y-82311598D01*
X148556457Y-82316913D01*
X148536502Y-82545000D01*
X145326006Y-82545000D01*
X145345339Y-82481041D01*
X145397543Y-82435805D01*
X145431762Y-82419849D01*
X145431767Y-82419846D01*
X145436749Y-82417523D01*
X145541611Y-82344098D01*
X145619789Y-82289357D01*
X145619792Y-82289355D01*
X145624300Y-82286198D01*
X145786198Y-82124300D01*
X145917523Y-81936749D01*
X145919846Y-81931767D01*
X145919849Y-81931762D01*
X146011961Y-81734225D01*
X146011961Y-81734224D01*
X146014284Y-81729243D01*
X146020724Y-81705211D01*
X146072119Y-81513402D01*
X146072119Y-81513400D01*
X146073543Y-81508087D01*
X146093498Y-81280000D01*
X146073543Y-81051913D01*
X146061630Y-81007452D01*
X146015707Y-80836067D01*
X146015706Y-80836065D01*
X146014284Y-80830757D01*
X146009710Y-80820947D01*
X145919849Y-80628238D01*
X145919846Y-80628233D01*
X145917523Y-80623251D01*
X145786198Y-80435700D01*
X145624300Y-80273802D01*
X145619792Y-80270645D01*
X145619789Y-80270643D01*
X145541611Y-80215902D01*
X145436749Y-80142477D01*
X145431767Y-80140154D01*
X145431762Y-80140151D01*
X145396951Y-80123919D01*
X145343666Y-80077002D01*
X145324205Y-80008725D01*
X145344747Y-79940765D01*
X145396951Y-79895529D01*
X145431511Y-79879414D01*
X145441007Y-79873931D01*
X145619467Y-79748972D01*
X145627875Y-79741916D01*
X145781916Y-79587875D01*
X145788972Y-79579467D01*
X145913931Y-79401007D01*
X145919414Y-79391511D01*
X146011490Y-79194053D01*
X146015236Y-79183761D01*
X146061394Y-79011497D01*
X146061297Y-79007429D01*
X147764359Y-79007429D01*
X147764562Y-79009034D01*
X147818246Y-79282664D01*
X147820457Y-79290916D01*
X147910782Y-79554736D01*
X147914097Y-79562621D01*
X148039389Y-79811736D01*
X148043745Y-79819102D01*
X148201687Y-80048907D01*
X148206995Y-80055605D01*
X148394670Y-80261858D01*
X148400841Y-80267775D01*
X148614761Y-80446641D01*
X148621693Y-80451676D01*
X148857895Y-80599846D01*
X148865446Y-80603895D01*
X149119581Y-80718640D01*
X149127612Y-80721627D01*
X149394967Y-80800822D01*
X149403318Y-80802689D01*
X149588090Y-80830962D01*
X149601877Y-80829107D01*
X149606000Y-80815298D01*
X149606000Y-79012115D01*
X149601525Y-78996876D01*
X149600135Y-78995671D01*
X149592452Y-78994000D01*
X147781226Y-78994000D01*
X147766041Y-78998459D01*
X147764359Y-79007429D01*
X146061297Y-79007429D01*
X146061058Y-78997401D01*
X146053116Y-78994000D01*
X143512033Y-78994000D01*
X143498502Y-78997973D01*
X143497273Y-79006522D01*
X143544764Y-79183761D01*
X143548510Y-79194053D01*
X143640586Y-79391511D01*
X143646069Y-79401007D01*
X143771028Y-79579467D01*
X143778084Y-79587875D01*
X143932125Y-79741916D01*
X143940533Y-79748972D01*
X144118993Y-79873931D01*
X144128489Y-79879414D01*
X144163049Y-79895529D01*
X144216334Y-79942446D01*
X144235795Y-80010723D01*
X144215253Y-80078683D01*
X144163049Y-80123919D01*
X144128238Y-80140151D01*
X144128233Y-80140154D01*
X144123251Y-80142477D01*
X144018389Y-80215902D01*
X143940211Y-80270643D01*
X143940208Y-80270645D01*
X143935700Y-80273802D01*
X143773802Y-80435700D01*
X143642477Y-80623251D01*
X143640154Y-80628233D01*
X143640151Y-80628238D01*
X143550290Y-80820947D01*
X143545716Y-80830757D01*
X143544294Y-80836065D01*
X143544293Y-80836067D01*
X143498370Y-81007452D01*
X143486457Y-81051913D01*
X143466502Y-81280000D01*
X143486457Y-81508087D01*
X143487881Y-81513400D01*
X143487881Y-81513402D01*
X143539277Y-81705211D01*
X143545716Y-81729243D01*
X143548039Y-81734224D01*
X143548039Y-81734225D01*
X143640151Y-81931762D01*
X143640154Y-81931767D01*
X143642477Y-81936749D01*
X143773802Y-82124300D01*
X143935700Y-82286198D01*
X143940208Y-82289355D01*
X143940211Y-82289357D01*
X144018389Y-82344098D01*
X144123251Y-82417523D01*
X144128233Y-82419846D01*
X144128238Y-82419849D01*
X144162457Y-82435805D01*
X144215742Y-82482722D01*
X144235203Y-82550999D01*
X144214661Y-82618959D01*
X144162457Y-82664195D01*
X144128238Y-82680151D01*
X144128233Y-82680154D01*
X144123251Y-82682477D01*
X144018389Y-82755902D01*
X143940211Y-82810643D01*
X143940208Y-82810645D01*
X143935700Y-82813802D01*
X143773802Y-82975700D01*
X143770645Y-82980208D01*
X143770643Y-82980211D01*
X143715902Y-83058389D01*
X143642477Y-83163251D01*
X143640154Y-83168233D01*
X143640151Y-83168238D01*
X143624525Y-83201749D01*
X143545716Y-83370757D01*
X143544294Y-83376065D01*
X143544293Y-83376067D01*
X143496520Y-83554357D01*
X143486457Y-83591913D01*
X143466502Y-83820000D01*
X143486457Y-84048087D01*
X143545716Y-84269243D01*
X143548039Y-84274224D01*
X143548039Y-84274225D01*
X143640151Y-84471762D01*
X143640154Y-84471767D01*
X143642477Y-84476749D01*
X143773802Y-84664300D01*
X143935700Y-84826198D01*
X143940208Y-84829355D01*
X143940211Y-84829357D01*
X144018389Y-84884098D01*
X144123251Y-84957523D01*
X144128233Y-84959846D01*
X144128238Y-84959849D01*
X144162457Y-84975805D01*
X144215742Y-85022722D01*
X144235203Y-85090999D01*
X144214661Y-85158959D01*
X144162457Y-85204195D01*
X144128238Y-85220151D01*
X144128233Y-85220154D01*
X144123251Y-85222477D01*
X144018389Y-85295902D01*
X143940211Y-85350643D01*
X143940208Y-85350645D01*
X143935700Y-85353802D01*
X143773802Y-85515700D01*
X143642477Y-85703251D01*
X143640154Y-85708233D01*
X143640151Y-85708238D01*
X143548039Y-85905775D01*
X143545716Y-85910757D01*
X143544294Y-85916065D01*
X143544293Y-85916067D01*
X143519222Y-86009633D01*
X143486457Y-86131913D01*
X143466502Y-86360000D01*
X143466981Y-86365475D01*
X143466981Y-86365485D01*
X143472574Y-86429411D01*
X143458586Y-86499016D01*
X143436149Y-86529488D01*
X141671265Y-88294372D01*
X141663498Y-88301515D01*
X141625101Y-88333963D01*
X141577405Y-88396347D01*
X141575523Y-88398748D01*
X141526302Y-88459967D01*
X141523264Y-88466088D01*
X141521912Y-88468202D01*
X141521591Y-88468661D01*
X141521239Y-88469225D01*
X141520975Y-88469706D01*
X141519665Y-88471869D01*
X141515517Y-88477294D01*
X141512631Y-88483483D01*
X141482331Y-88548461D01*
X141480996Y-88551235D01*
X141449113Y-88615462D01*
X141449112Y-88615466D01*
X141446080Y-88621573D01*
X141444429Y-88628195D01*
X141443556Y-88630568D01*
X141443348Y-88631067D01*
X141443122Y-88631705D01*
X141442969Y-88632226D01*
X141442152Y-88634624D01*
X141439267Y-88640812D01*
X141437779Y-88647470D01*
X141437775Y-88647481D01*
X141422134Y-88717456D01*
X141421426Y-88720452D01*
X141404082Y-88790015D01*
X141402431Y-88796637D01*
X141402241Y-88803455D01*
X141401896Y-88805972D01*
X141401703Y-88807047D01*
X141401038Y-88811841D01*
X141399909Y-88816890D01*
X141399600Y-88822417D01*
X141399600Y-88896219D01*
X141399551Y-88899737D01*
X141397393Y-88976990D01*
X141398672Y-88983694D01*
X141399194Y-88990184D01*
X141399600Y-89000290D01*
X141399600Y-104134778D01*
X141399158Y-104145322D01*
X141394952Y-104195409D01*
X141395854Y-104202169D01*
X141405340Y-104273255D01*
X141405708Y-104276294D01*
X141414189Y-104354368D01*
X141416367Y-104360840D01*
X141416910Y-104363310D01*
X141417006Y-104363853D01*
X141417153Y-104364487D01*
X141417306Y-104365012D01*
X141417912Y-104367479D01*
X141418815Y-104374246D01*
X141427697Y-104398648D01*
X141432199Y-104469502D01*
X141397680Y-104531542D01*
X141335100Y-104565071D01*
X141264326Y-104559444D01*
X141220200Y-104530837D01*
X140567305Y-103877942D01*
X140533279Y-103815630D01*
X140530400Y-103788847D01*
X140530400Y-86400222D01*
X140530842Y-86389678D01*
X140531668Y-86379847D01*
X140535048Y-86339591D01*
X140524661Y-86261747D01*
X140524291Y-86258690D01*
X140516548Y-86187420D01*
X140515811Y-86180632D01*
X140513633Y-86174160D01*
X140513090Y-86171690D01*
X140512993Y-86171139D01*
X140512847Y-86170513D01*
X140512694Y-86169987D01*
X140512088Y-86167520D01*
X140511185Y-86160753D01*
X140484335Y-86086984D01*
X140483318Y-86084080D01*
X140460439Y-86016096D01*
X140458264Y-86009633D01*
X140454751Y-86003787D01*
X140453685Y-86001480D01*
X140453483Y-86000990D01*
X140453186Y-86000367D01*
X140452921Y-85999881D01*
X140451810Y-85997624D01*
X140449477Y-85991212D01*
X140445823Y-85985454D01*
X140445821Y-85985450D01*
X140407403Y-85924912D01*
X140405786Y-85922295D01*
X140398854Y-85910757D01*
X140365339Y-85854980D01*
X140360653Y-85850024D01*
X140359107Y-85847988D01*
X140358486Y-85847095D01*
X140355572Y-85843242D01*
X140352801Y-85838875D01*
X140349112Y-85834749D01*
X140296945Y-85782582D01*
X140294491Y-85780060D01*
X140246060Y-85728845D01*
X140246058Y-85728843D01*
X140241373Y-85723889D01*
X140235731Y-85720055D01*
X140230761Y-85715825D01*
X140223329Y-85708966D01*
X138503851Y-83989488D01*
X138469825Y-83927176D01*
X138467426Y-83889411D01*
X138473019Y-83825485D01*
X138473019Y-83825475D01*
X138473498Y-83820000D01*
X138453543Y-83591913D01*
X138443480Y-83554357D01*
X138395707Y-83376067D01*
X138395706Y-83376065D01*
X138394284Y-83370757D01*
X138315475Y-83201749D01*
X138299849Y-83168238D01*
X138299846Y-83168233D01*
X138297523Y-83163251D01*
X138224098Y-83058389D01*
X138169357Y-82980211D01*
X138169355Y-82980208D01*
X138166198Y-82975700D01*
X138004300Y-82813802D01*
X137999792Y-82810645D01*
X137999789Y-82810643D01*
X137921611Y-82755902D01*
X137816749Y-82682477D01*
X137811767Y-82680154D01*
X137811762Y-82680151D01*
X137777543Y-82664195D01*
X137724258Y-82617278D01*
X137704797Y-82549001D01*
X137725339Y-82481041D01*
X137777543Y-82435805D01*
X137811762Y-82419849D01*
X137811767Y-82419846D01*
X137816749Y-82417523D01*
X137921611Y-82344098D01*
X137999789Y-82289357D01*
X137999792Y-82289355D01*
X138004300Y-82286198D01*
X138166198Y-82124300D01*
X138297523Y-81936749D01*
X138299846Y-81931767D01*
X138299849Y-81931762D01*
X138391961Y-81734225D01*
X138391961Y-81734224D01*
X138394284Y-81729243D01*
X138400724Y-81705211D01*
X138452119Y-81513402D01*
X138452119Y-81513400D01*
X138453543Y-81508087D01*
X138473498Y-81280000D01*
X138453543Y-81051913D01*
X138441630Y-81007452D01*
X138395707Y-80836067D01*
X138395706Y-80836065D01*
X138394284Y-80830757D01*
X138389710Y-80820947D01*
X138299849Y-80628238D01*
X138299846Y-80628233D01*
X138297523Y-80623251D01*
X138166198Y-80435700D01*
X138004300Y-80273802D01*
X137999789Y-80270643D01*
X137995576Y-80267108D01*
X137996527Y-80265974D01*
X137956529Y-80215929D01*
X137949224Y-80145310D01*
X137981258Y-80081951D01*
X138042462Y-80045970D01*
X138059517Y-80042918D01*
X138070316Y-80041745D01*
X138206705Y-79990615D01*
X138323261Y-79903261D01*
X138410615Y-79786705D01*
X138461745Y-79650316D01*
X138468500Y-79588134D01*
X138468500Y-78468503D01*
X143498606Y-78468503D01*
X143498942Y-78482599D01*
X143506884Y-78486000D01*
X144507885Y-78486000D01*
X144523124Y-78481525D01*
X144524329Y-78480135D01*
X144526000Y-78472452D01*
X144526000Y-78467885D01*
X145034000Y-78467885D01*
X145038475Y-78483124D01*
X145039865Y-78484329D01*
X145047548Y-78486000D01*
X146047967Y-78486000D01*
X146061498Y-78482027D01*
X146062727Y-78473478D01*
X146061244Y-78467942D01*
X147766860Y-78467942D01*
X147770030Y-78483031D01*
X147781493Y-78486000D01*
X149587885Y-78486000D01*
X149603124Y-78481525D01*
X149604329Y-78480135D01*
X149606000Y-78472452D01*
X149606000Y-78467885D01*
X150114000Y-78467885D01*
X150118475Y-78483124D01*
X150119865Y-78484329D01*
X150127548Y-78486000D01*
X151937495Y-78486000D01*
X151952486Y-78481598D01*
X151954541Y-78470315D01*
X151953669Y-78457519D01*
X151952508Y-78449047D01*
X151895962Y-78175998D01*
X151893658Y-78167744D01*
X151800579Y-77904897D01*
X151797183Y-77897049D01*
X151669286Y-77649254D01*
X151664858Y-77641942D01*
X151504515Y-77413798D01*
X151499133Y-77407152D01*
X151309318Y-77202886D01*
X151303078Y-77197027D01*
X151087296Y-77020411D01*
X151080324Y-77015456D01*
X150842560Y-76869754D01*
X150834990Y-76865796D01*
X150579657Y-76753714D01*
X150571597Y-76750812D01*
X150303432Y-76674424D01*
X150295054Y-76672642D01*
X150131935Y-76649427D01*
X150117949Y-76651458D01*
X150114000Y-76664943D01*
X150114000Y-78467885D01*
X149606000Y-78467885D01*
X149606000Y-76665332D01*
X149601956Y-76651561D01*
X149588417Y-76649532D01*
X149446621Y-76668200D01*
X149438223Y-76669893D01*
X149169274Y-76743469D01*
X149161179Y-76746288D01*
X148904694Y-76855688D01*
X148897071Y-76859572D01*
X148657806Y-77002768D01*
X148650777Y-77007653D01*
X148433153Y-77182004D01*
X148426864Y-77187787D01*
X148234913Y-77390061D01*
X148229460Y-77396654D01*
X148066747Y-77623092D01*
X148062230Y-77630377D01*
X147931757Y-77876799D01*
X147928271Y-77884627D01*
X147832446Y-78146481D01*
X147830057Y-78154704D01*
X147770654Y-78427151D01*
X147769405Y-78435607D01*
X147766860Y-78467942D01*
X146061244Y-78467942D01*
X146015236Y-78296239D01*
X146011490Y-78285947D01*
X145919414Y-78088489D01*
X145913931Y-78078993D01*
X145788972Y-77900533D01*
X145781916Y-77892125D01*
X145627875Y-77738084D01*
X145619467Y-77731028D01*
X145441007Y-77606069D01*
X145431511Y-77600586D01*
X145234053Y-77508510D01*
X145223761Y-77504764D01*
X145051497Y-77458606D01*
X145037401Y-77458942D01*
X145034000Y-77466884D01*
X145034000Y-78467885D01*
X144526000Y-78467885D01*
X144526000Y-77472033D01*
X144522027Y-77458502D01*
X144513478Y-77457273D01*
X144336239Y-77504764D01*
X144325947Y-77508510D01*
X144128489Y-77600586D01*
X144118993Y-77606069D01*
X143940533Y-77731028D01*
X143932125Y-77738084D01*
X143778084Y-77892125D01*
X143771028Y-77900533D01*
X143646069Y-78078993D01*
X143640586Y-78088489D01*
X143548510Y-78285947D01*
X143544764Y-78296239D01*
X143498606Y-78468503D01*
X138468500Y-78468503D01*
X138468500Y-77891866D01*
X138461745Y-77829684D01*
X138410615Y-77693295D01*
X138323261Y-77576739D01*
X138206705Y-77489385D01*
X138070316Y-77438255D01*
X138008134Y-77431500D01*
X136311866Y-77431500D01*
X136249684Y-77438255D01*
X136113295Y-77489385D01*
X135996739Y-77576739D01*
X135909385Y-77693295D01*
X135858255Y-77829684D01*
X135851500Y-77891866D01*
X135851500Y-79588134D01*
X135858255Y-79650316D01*
X135909385Y-79786705D01*
X135996739Y-79903261D01*
X136113295Y-79990615D01*
X136249684Y-80041745D01*
X136260474Y-80042917D01*
X136262606Y-80043803D01*
X136265222Y-80044425D01*
X136265121Y-80044848D01*
X136326035Y-80070155D01*
X136366463Y-80128517D01*
X136368922Y-80199471D01*
X136332629Y-80260490D01*
X136323969Y-80267489D01*
X136320207Y-80270646D01*
X136315700Y-80273802D01*
X136153802Y-80435700D01*
X136022477Y-80623251D01*
X136020154Y-80628233D01*
X136020151Y-80628238D01*
X135930290Y-80820947D01*
X135925716Y-80830757D01*
X135924294Y-80836065D01*
X135924293Y-80836067D01*
X135878370Y-81007452D01*
X135866457Y-81051913D01*
X135846502Y-81280000D01*
X135866457Y-81508087D01*
X135867881Y-81513400D01*
X135867881Y-81513402D01*
X135919277Y-81705211D01*
X135925716Y-81729243D01*
X135928039Y-81734224D01*
X135928039Y-81734225D01*
X136020151Y-81931762D01*
X136020154Y-81931767D01*
X136022477Y-81936749D01*
X136153802Y-82124300D01*
X136315700Y-82286198D01*
X136320208Y-82289355D01*
X136320211Y-82289357D01*
X136398389Y-82344098D01*
X136503251Y-82417523D01*
X136508233Y-82419846D01*
X136508238Y-82419849D01*
X136542457Y-82435805D01*
X136595742Y-82482722D01*
X136615203Y-82550999D01*
X136594661Y-82618959D01*
X136542457Y-82664195D01*
X136508238Y-82680151D01*
X136508233Y-82680154D01*
X136503251Y-82682477D01*
X136398389Y-82755902D01*
X136320211Y-82810643D01*
X136320208Y-82810645D01*
X136315700Y-82813802D01*
X136153802Y-82975700D01*
X136150645Y-82980208D01*
X136150643Y-82980211D01*
X136095902Y-83058389D01*
X136022477Y-83163251D01*
X136020154Y-83168233D01*
X136020151Y-83168238D01*
X136004525Y-83201749D01*
X135925716Y-83370757D01*
X135924294Y-83376065D01*
X135924293Y-83376067D01*
X135876520Y-83554357D01*
X135866457Y-83591913D01*
X135846502Y-83820000D01*
X135866457Y-84048087D01*
X135925716Y-84269243D01*
X135928039Y-84274224D01*
X135928039Y-84274225D01*
X136020151Y-84471762D01*
X136020154Y-84471767D01*
X136022477Y-84476749D01*
X136153802Y-84664300D01*
X136315700Y-84826198D01*
X136320208Y-84829355D01*
X136320211Y-84829357D01*
X136398389Y-84884098D01*
X136503251Y-84957523D01*
X136508233Y-84959846D01*
X136508238Y-84959849D01*
X136542457Y-84975805D01*
X136595742Y-85022722D01*
X136615203Y-85090999D01*
X136594661Y-85158959D01*
X136542457Y-85204195D01*
X136508238Y-85220151D01*
X136508233Y-85220154D01*
X136503251Y-85222477D01*
X136398389Y-85295902D01*
X136320211Y-85350643D01*
X136320208Y-85350645D01*
X136315700Y-85353802D01*
X136153802Y-85515700D01*
X136022477Y-85703251D01*
X136020154Y-85708233D01*
X136020151Y-85708238D01*
X135928039Y-85905775D01*
X135925716Y-85910757D01*
X135924294Y-85916065D01*
X135924293Y-85916067D01*
X135899222Y-86009633D01*
X135866457Y-86131913D01*
X135846502Y-86360000D01*
X135866457Y-86588087D01*
X135925716Y-86809243D01*
X135928039Y-86814224D01*
X135928039Y-86814225D01*
X136020151Y-87011762D01*
X136020154Y-87011767D01*
X136022477Y-87016749D01*
X136153802Y-87204300D01*
X136315700Y-87366198D01*
X136320208Y-87369355D01*
X136320211Y-87369357D01*
X136398389Y-87424098D01*
X136503251Y-87497523D01*
X136508233Y-87499846D01*
X136508238Y-87499849D01*
X136542457Y-87515805D01*
X136595742Y-87562722D01*
X136615203Y-87630999D01*
X136594661Y-87698959D01*
X136542457Y-87744195D01*
X136508238Y-87760151D01*
X136508233Y-87760154D01*
X136503251Y-87762477D01*
X136398389Y-87835902D01*
X136320211Y-87890643D01*
X136320208Y-87890645D01*
X136315700Y-87893802D01*
X136153802Y-88055700D01*
X136150645Y-88060208D01*
X136150643Y-88060211D01*
X136113436Y-88113348D01*
X136022477Y-88243251D01*
X136020154Y-88248233D01*
X136020151Y-88248238D01*
X135928039Y-88445775D01*
X135925716Y-88450757D01*
X135924294Y-88456065D01*
X135924293Y-88456067D01*
X135867881Y-88666598D01*
X135866457Y-88671913D01*
X135846502Y-88900000D01*
X135866457Y-89128087D01*
X135867881Y-89133400D01*
X135867881Y-89133402D01*
X135900186Y-89253963D01*
X135925716Y-89349243D01*
X135928039Y-89354224D01*
X135928039Y-89354225D01*
X136020151Y-89551762D01*
X136020154Y-89551767D01*
X136022477Y-89556749D01*
X136153802Y-89744300D01*
X136315700Y-89906198D01*
X136320207Y-89909354D01*
X136320211Y-89909357D01*
X136398389Y-89964098D01*
X136503251Y-90037523D01*
X136508233Y-90039846D01*
X136508238Y-90039849D01*
X136542457Y-90055805D01*
X136595742Y-90102722D01*
X136615203Y-90170999D01*
X136594661Y-90238959D01*
X136542457Y-90284195D01*
X136508238Y-90300151D01*
X136508233Y-90300154D01*
X136503251Y-90302477D01*
X136398389Y-90375902D01*
X136320211Y-90430643D01*
X136320208Y-90430645D01*
X136315700Y-90433802D01*
X136153802Y-90595700D01*
X136022477Y-90783251D01*
X136020154Y-90788233D01*
X136020151Y-90788238D01*
X135928039Y-90985775D01*
X135925716Y-90990757D01*
X135866457Y-91211913D01*
X135846502Y-91440000D01*
X135866457Y-91668087D01*
X135867881Y-91673400D01*
X135867881Y-91673402D01*
X135919277Y-91865211D01*
X135925716Y-91889243D01*
X135928039Y-91894224D01*
X135928039Y-91894225D01*
X136020151Y-92091762D01*
X136020154Y-92091767D01*
X136022477Y-92096749D01*
X136153802Y-92284300D01*
X136315700Y-92446198D01*
X136320208Y-92449355D01*
X136320211Y-92449357D01*
X136398389Y-92504098D01*
X136503251Y-92577523D01*
X136508233Y-92579846D01*
X136508238Y-92579849D01*
X136542457Y-92595805D01*
X136595742Y-92642722D01*
X136615203Y-92710999D01*
X136594661Y-92778959D01*
X136542457Y-92824195D01*
X136508238Y-92840151D01*
X136508233Y-92840154D01*
X136503251Y-92842477D01*
X136398389Y-92915902D01*
X136320211Y-92970643D01*
X136320208Y-92970645D01*
X136315700Y-92973802D01*
X136153802Y-93135700D01*
X136150645Y-93140208D01*
X136150643Y-93140211D01*
X136095902Y-93218389D01*
X136022477Y-93323251D01*
X136020154Y-93328233D01*
X136020151Y-93328238D01*
X136004525Y-93361749D01*
X135925716Y-93530757D01*
X135924294Y-93536065D01*
X135924293Y-93536067D01*
X135867881Y-93746598D01*
X135866457Y-93751913D01*
X135846502Y-93980000D01*
X135866457Y-94208087D01*
X135925716Y-94429243D01*
X135928039Y-94434224D01*
X135928039Y-94434225D01*
X136020151Y-94631762D01*
X136020154Y-94631767D01*
X136022477Y-94636749D01*
X136153802Y-94824300D01*
X136315700Y-94986198D01*
X136320208Y-94989355D01*
X136320211Y-94989357D01*
X136398389Y-95044098D01*
X136503251Y-95117523D01*
X136508233Y-95119846D01*
X136508238Y-95119849D01*
X136542457Y-95135805D01*
X136595742Y-95182722D01*
X136615203Y-95250999D01*
X136594661Y-95318959D01*
X136542457Y-95364195D01*
X136508238Y-95380151D01*
X136508233Y-95380154D01*
X136503251Y-95382477D01*
X136419499Y-95441121D01*
X136320211Y-95510643D01*
X136320208Y-95510645D01*
X136315700Y-95513802D01*
X136153802Y-95675700D01*
X136150645Y-95680208D01*
X136150643Y-95680211D01*
X136107994Y-95741121D01*
X136022477Y-95863251D01*
X136020154Y-95868233D01*
X136020151Y-95868238D01*
X135986843Y-95939669D01*
X135925716Y-96070757D01*
X135924294Y-96076065D01*
X135924293Y-96076067D01*
X135874128Y-96263285D01*
X135866457Y-96291913D01*
X135846502Y-96520000D01*
X135866457Y-96748087D01*
X135867881Y-96753400D01*
X135867881Y-96753402D01*
X135891296Y-96840785D01*
X135925716Y-96969243D01*
X135928039Y-96974224D01*
X135928039Y-96974225D01*
X136020151Y-97171762D01*
X136020154Y-97171767D01*
X136022477Y-97176749D01*
X136025634Y-97181257D01*
X136133037Y-97334644D01*
X136153802Y-97364300D01*
X136315700Y-97526198D01*
X136320208Y-97529355D01*
X136320211Y-97529357D01*
X136339841Y-97543102D01*
X136503251Y-97657523D01*
X136508233Y-97659846D01*
X136508238Y-97659849D01*
X136542457Y-97675805D01*
X136595742Y-97722722D01*
X136615203Y-97790999D01*
X136594661Y-97858959D01*
X136542457Y-97904195D01*
X136508238Y-97920151D01*
X136508233Y-97920154D01*
X136503251Y-97922477D01*
X136439657Y-97967006D01*
X136320211Y-98050643D01*
X136320208Y-98050645D01*
X136315700Y-98053802D01*
X136153802Y-98215700D01*
X136022477Y-98403251D01*
X136020154Y-98408233D01*
X136020151Y-98408238D01*
X135960625Y-98535894D01*
X135925716Y-98610757D01*
X135866457Y-98831913D01*
X135865978Y-98837393D01*
X135865976Y-98837404D01*
X135865454Y-98843365D01*
X135839590Y-98909483D01*
X135782085Y-98951121D01*
X135711198Y-98955060D01*
X135650839Y-98921476D01*
X134207305Y-97477942D01*
X134173279Y-97415630D01*
X134170400Y-97388847D01*
X134170400Y-97373975D01*
X134190402Y-97305854D01*
X134199526Y-97293406D01*
X134295149Y-97178431D01*
X134298840Y-97173993D01*
X134402876Y-96988223D01*
X134471316Y-96786605D01*
X134476131Y-96753402D01*
X134501337Y-96579561D01*
X134501337Y-96579559D01*
X134501869Y-96575891D01*
X134503463Y-96515000D01*
X134483981Y-96302976D01*
X134482413Y-96297416D01*
X134427754Y-96103611D01*
X134427753Y-96103609D01*
X134426186Y-96098052D01*
X134415345Y-96076067D01*
X134334570Y-95912273D01*
X134332015Y-95907092D01*
X134204622Y-95736491D01*
X134202382Y-95734420D01*
X134172047Y-95671212D01*
X134170400Y-95650907D01*
X134170400Y-92507288D01*
X134190402Y-92439167D01*
X134207305Y-92418193D01*
X134346198Y-92279300D01*
X134366172Y-92250775D01*
X134470865Y-92101257D01*
X134477523Y-92091749D01*
X134479846Y-92086767D01*
X134479849Y-92086762D01*
X134571961Y-91889225D01*
X134571961Y-91889224D01*
X134574284Y-91884243D01*
X134580593Y-91860700D01*
X134632119Y-91668402D01*
X134632119Y-91668400D01*
X134633543Y-91663087D01*
X134653498Y-91435000D01*
X134633543Y-91206913D01*
X134574284Y-90985757D01*
X134571961Y-90980775D01*
X134479849Y-90783238D01*
X134479846Y-90783233D01*
X134477523Y-90778251D01*
X134346198Y-90590700D01*
X134184300Y-90428802D01*
X134179792Y-90425645D01*
X134179789Y-90425643D01*
X134008398Y-90305634D01*
X133996749Y-90297477D01*
X133991767Y-90295154D01*
X133991762Y-90295151D01*
X133794225Y-90203039D01*
X133794224Y-90203039D01*
X133789243Y-90200716D01*
X133783935Y-90199294D01*
X133783933Y-90199293D01*
X133573402Y-90142881D01*
X133573400Y-90142881D01*
X133568087Y-90141457D01*
X133340000Y-90121502D01*
X133111913Y-90141457D01*
X133106600Y-90142881D01*
X133106598Y-90142881D01*
X132896067Y-90199293D01*
X132896065Y-90199294D01*
X132890757Y-90200716D01*
X132885776Y-90203039D01*
X132885775Y-90203039D01*
X132688238Y-90295151D01*
X132688233Y-90295154D01*
X132683251Y-90297477D01*
X132671602Y-90305634D01*
X132500211Y-90425643D01*
X132500208Y-90425645D01*
X132495700Y-90428802D01*
X132333802Y-90590700D01*
X132202477Y-90778251D01*
X132200154Y-90783233D01*
X132200151Y-90783238D01*
X132108039Y-90980775D01*
X132105716Y-90985757D01*
X132046457Y-91206913D01*
X132026502Y-91435000D01*
X132046457Y-91663087D01*
X132047881Y-91668400D01*
X132047881Y-91668402D01*
X132099408Y-91860700D01*
X132105716Y-91884243D01*
X132108039Y-91889224D01*
X132108039Y-91889225D01*
X132200151Y-92086762D01*
X132200154Y-92086767D01*
X132202477Y-92091749D01*
X132209135Y-92101257D01*
X132313829Y-92250775D01*
X132333802Y-92279300D01*
X132472695Y-92418193D01*
X132506721Y-92480505D01*
X132509600Y-92507288D01*
X132509600Y-93961000D01*
X132489598Y-94029121D01*
X132435942Y-94075614D01*
X132383600Y-94087000D01*
X132342115Y-94087000D01*
X132326876Y-94091475D01*
X132325671Y-94092865D01*
X132324000Y-94100548D01*
X132324000Y-95373000D01*
X132303998Y-95441121D01*
X132250342Y-95487614D01*
X132198000Y-95499000D01*
X130930116Y-95499000D01*
X130914877Y-95503475D01*
X130913672Y-95504865D01*
X130912001Y-95512548D01*
X130912001Y-95939669D01*
X130912371Y-95946490D01*
X130917895Y-95997352D01*
X130921521Y-96012604D01*
X130966676Y-96133054D01*
X130975214Y-96148649D01*
X131051715Y-96250724D01*
X131064276Y-96263285D01*
X131166351Y-96339786D01*
X131181946Y-96348324D01*
X131302394Y-96393478D01*
X131317649Y-96397105D01*
X131368514Y-96402631D01*
X131375327Y-96403000D01*
X131794103Y-96402999D01*
X131862223Y-96423001D01*
X131908717Y-96476656D01*
X131918821Y-96546930D01*
X131889328Y-96611511D01*
X131829602Y-96649895D01*
X131815442Y-96653179D01*
X131802310Y-96655436D01*
X131768874Y-96661181D01*
X131569116Y-96734875D01*
X131386134Y-96843739D01*
X131226054Y-96984125D01*
X131094238Y-97151333D01*
X131091549Y-97156444D01*
X131091547Y-97156447D01*
X131082316Y-97173993D01*
X130995100Y-97339762D01*
X130993386Y-97345283D01*
X130993384Y-97345287D01*
X130971542Y-97415630D01*
X130931961Y-97543102D01*
X130906936Y-97754544D01*
X130920861Y-97967006D01*
X130922282Y-97972602D01*
X130922283Y-97972607D01*
X130943894Y-98057699D01*
X130973272Y-98173372D01*
X131062411Y-98366731D01*
X131185296Y-98540609D01*
X131189431Y-98544637D01*
X131201523Y-98556417D01*
X131236360Y-98618279D01*
X131239600Y-98646670D01*
X131239600Y-100284778D01*
X131239158Y-100295322D01*
X131234952Y-100345409D01*
X131241874Y-100397278D01*
X131245340Y-100423255D01*
X131245708Y-100426294D01*
X131254189Y-100504368D01*
X131256367Y-100510840D01*
X131256910Y-100513310D01*
X131257006Y-100513853D01*
X131257153Y-100514487D01*
X131257306Y-100515012D01*
X131257912Y-100517479D01*
X131258815Y-100524246D01*
X131267697Y-100548648D01*
X131272199Y-100619502D01*
X131237680Y-100681542D01*
X131175100Y-100715071D01*
X131104326Y-100709444D01*
X131060200Y-100680837D01*
X130407305Y-100027942D01*
X130373279Y-99965630D01*
X130370400Y-99938847D01*
X130370400Y-94972885D01*
X130912000Y-94972885D01*
X130916475Y-94988124D01*
X130917865Y-94989329D01*
X130925548Y-94991000D01*
X131797885Y-94991000D01*
X131813124Y-94986525D01*
X131814329Y-94985135D01*
X131816000Y-94977452D01*
X131816000Y-94105116D01*
X131811525Y-94089877D01*
X131810135Y-94088672D01*
X131802452Y-94087001D01*
X131375331Y-94087001D01*
X131368510Y-94087371D01*
X131317648Y-94092895D01*
X131302396Y-94096521D01*
X131181946Y-94141676D01*
X131166351Y-94150214D01*
X131064276Y-94226715D01*
X131051715Y-94239276D01*
X130975214Y-94341351D01*
X130966676Y-94356946D01*
X130921522Y-94477394D01*
X130917895Y-94492649D01*
X130912369Y-94543514D01*
X130912000Y-94550328D01*
X130912000Y-94972885D01*
X130370400Y-94972885D01*
X130370400Y-81541522D01*
X132057273Y-81541522D01*
X132104764Y-81718761D01*
X132108510Y-81729053D01*
X132200586Y-81926511D01*
X132206069Y-81936007D01*
X132331028Y-82114467D01*
X132338084Y-82122875D01*
X132492125Y-82276916D01*
X132500533Y-82283972D01*
X132678993Y-82408931D01*
X132688489Y-82414414D01*
X132885947Y-82506490D01*
X132896239Y-82510236D01*
X133068503Y-82556394D01*
X133082599Y-82556058D01*
X133086000Y-82548116D01*
X133086000Y-82542967D01*
X133594000Y-82542967D01*
X133597973Y-82556498D01*
X133606522Y-82557727D01*
X133783761Y-82510236D01*
X133794053Y-82506490D01*
X133991511Y-82414414D01*
X134001007Y-82408931D01*
X134179467Y-82283972D01*
X134187875Y-82276916D01*
X134341916Y-82122875D01*
X134348972Y-82114467D01*
X134473931Y-81936007D01*
X134479414Y-81926511D01*
X134571490Y-81729053D01*
X134575236Y-81718761D01*
X134621394Y-81546497D01*
X134621058Y-81532401D01*
X134613116Y-81529000D01*
X133612115Y-81529000D01*
X133596876Y-81533475D01*
X133595671Y-81534865D01*
X133594000Y-81542548D01*
X133594000Y-82542967D01*
X133086000Y-82542967D01*
X133086000Y-81547115D01*
X133081525Y-81531876D01*
X133080135Y-81530671D01*
X133072452Y-81529000D01*
X132072033Y-81529000D01*
X132058502Y-81532973D01*
X132057273Y-81541522D01*
X130370400Y-81541522D01*
X130370400Y-81003503D01*
X132058606Y-81003503D01*
X132058942Y-81017599D01*
X132066884Y-81021000D01*
X133067885Y-81021000D01*
X133083124Y-81016525D01*
X133084329Y-81015135D01*
X133086000Y-81007452D01*
X133086000Y-81002885D01*
X133594000Y-81002885D01*
X133598475Y-81018124D01*
X133599865Y-81019329D01*
X133607548Y-81021000D01*
X134607967Y-81021000D01*
X134621498Y-81017027D01*
X134622727Y-81008478D01*
X134575236Y-80831239D01*
X134571490Y-80820947D01*
X134479414Y-80623489D01*
X134473931Y-80613993D01*
X134348972Y-80435533D01*
X134341916Y-80427125D01*
X134187875Y-80273084D01*
X134179467Y-80266028D01*
X134001007Y-80141069D01*
X133991511Y-80135586D01*
X133794053Y-80043510D01*
X133783761Y-80039764D01*
X133611497Y-79993606D01*
X133597401Y-79993942D01*
X133594000Y-80001884D01*
X133594000Y-81002885D01*
X133086000Y-81002885D01*
X133086000Y-80007033D01*
X133082027Y-79993502D01*
X133073478Y-79992273D01*
X132896239Y-80039764D01*
X132885947Y-80043510D01*
X132688489Y-80135586D01*
X132678993Y-80141069D01*
X132500533Y-80266028D01*
X132492125Y-80273084D01*
X132338084Y-80427125D01*
X132331028Y-80435533D01*
X132206069Y-80613993D01*
X132200586Y-80623489D01*
X132108510Y-80820947D01*
X132104764Y-80831239D01*
X132058606Y-81003503D01*
X130370400Y-81003503D01*
X130370400Y-74930000D01*
X130766502Y-74930000D01*
X130786457Y-75158087D01*
X130787881Y-75163400D01*
X130787881Y-75163402D01*
X130797031Y-75197548D01*
X130845716Y-75379243D01*
X130848039Y-75384224D01*
X130848039Y-75384225D01*
X130940151Y-75581762D01*
X130940154Y-75581767D01*
X130942477Y-75586749D01*
X131073802Y-75774300D01*
X131235700Y-75936198D01*
X131240208Y-75939355D01*
X131240211Y-75939357D01*
X131318389Y-75994098D01*
X131423251Y-76067523D01*
X131428233Y-76069846D01*
X131428238Y-76069849D01*
X131624765Y-76161490D01*
X131630757Y-76164284D01*
X131636065Y-76165706D01*
X131636067Y-76165707D01*
X131846598Y-76222119D01*
X131846600Y-76222119D01*
X131851913Y-76223543D01*
X132080000Y-76243498D01*
X132308087Y-76223543D01*
X132313400Y-76222119D01*
X132313402Y-76222119D01*
X132523933Y-76165707D01*
X132523935Y-76165706D01*
X132529243Y-76164284D01*
X132535235Y-76161490D01*
X132731762Y-76069849D01*
X132731767Y-76069846D01*
X132736749Y-76067523D01*
X132841611Y-75994098D01*
X132919789Y-75939357D01*
X132919792Y-75939355D01*
X132924300Y-75936198D01*
X133086198Y-75774300D01*
X133217523Y-75586749D01*
X133219846Y-75581767D01*
X133219849Y-75581762D01*
X133311961Y-75384225D01*
X133311961Y-75384224D01*
X133314284Y-75379243D01*
X133362970Y-75197548D01*
X133363245Y-75196522D01*
X140957273Y-75196522D01*
X141004764Y-75373761D01*
X141008510Y-75384053D01*
X141100586Y-75581511D01*
X141106069Y-75591007D01*
X141231028Y-75769467D01*
X141238084Y-75777875D01*
X141392125Y-75931916D01*
X141400533Y-75938972D01*
X141578993Y-76063931D01*
X141588489Y-76069414D01*
X141785947Y-76161490D01*
X141796239Y-76165236D01*
X141968503Y-76211394D01*
X141982599Y-76211058D01*
X141986000Y-76203116D01*
X141986000Y-76197967D01*
X142494000Y-76197967D01*
X142497973Y-76211498D01*
X142506522Y-76212727D01*
X142683761Y-76165236D01*
X142694053Y-76161490D01*
X142891511Y-76069414D01*
X142901007Y-76063931D01*
X143079467Y-75938972D01*
X143087875Y-75931916D01*
X143241916Y-75777875D01*
X143248972Y-75769467D01*
X143373931Y-75591007D01*
X143379414Y-75581511D01*
X143471490Y-75384053D01*
X143475236Y-75373761D01*
X143521394Y-75201497D01*
X143521058Y-75187401D01*
X143513116Y-75184000D01*
X142512115Y-75184000D01*
X142496876Y-75188475D01*
X142495671Y-75189865D01*
X142494000Y-75197548D01*
X142494000Y-76197967D01*
X141986000Y-76197967D01*
X141986000Y-75202115D01*
X141981525Y-75186876D01*
X141980135Y-75185671D01*
X141972452Y-75184000D01*
X140972033Y-75184000D01*
X140958502Y-75187973D01*
X140957273Y-75196522D01*
X133363245Y-75196522D01*
X133372119Y-75163402D01*
X133372119Y-75163400D01*
X133373543Y-75158087D01*
X133393498Y-74930000D01*
X133373543Y-74701913D01*
X133363244Y-74663478D01*
X133361911Y-74658503D01*
X140958606Y-74658503D01*
X140958942Y-74672599D01*
X140966884Y-74676000D01*
X141967885Y-74676000D01*
X141983124Y-74671525D01*
X141984329Y-74670135D01*
X141986000Y-74662452D01*
X141986000Y-74657885D01*
X142494000Y-74657885D01*
X142498475Y-74673124D01*
X142499865Y-74674329D01*
X142507548Y-74676000D01*
X143507967Y-74676000D01*
X143521498Y-74672027D01*
X143522727Y-74663478D01*
X143475236Y-74486239D01*
X143471490Y-74475947D01*
X143379414Y-74278489D01*
X143373931Y-74268993D01*
X143248972Y-74090533D01*
X143241916Y-74082125D01*
X143087875Y-73928084D01*
X143079467Y-73921028D01*
X142901007Y-73796069D01*
X142891511Y-73790586D01*
X142694053Y-73698510D01*
X142683761Y-73694764D01*
X142511497Y-73648606D01*
X142497401Y-73648942D01*
X142494000Y-73656884D01*
X142494000Y-74657885D01*
X141986000Y-74657885D01*
X141986000Y-73662033D01*
X141982027Y-73648502D01*
X141973478Y-73647273D01*
X141796239Y-73694764D01*
X141785947Y-73698510D01*
X141588489Y-73790586D01*
X141578993Y-73796069D01*
X141400533Y-73921028D01*
X141392125Y-73928084D01*
X141238084Y-74082125D01*
X141231028Y-74090533D01*
X141106069Y-74268993D01*
X141100586Y-74278489D01*
X141008510Y-74475947D01*
X141004764Y-74486239D01*
X140958606Y-74658503D01*
X133361911Y-74658503D01*
X133315707Y-74486067D01*
X133315706Y-74486065D01*
X133314284Y-74480757D01*
X133219966Y-74278489D01*
X133219849Y-74278238D01*
X133219846Y-74278233D01*
X133217523Y-74273251D01*
X133086198Y-74085700D01*
X132924300Y-73923802D01*
X132919792Y-73920645D01*
X132919789Y-73920643D01*
X132841611Y-73865902D01*
X132736749Y-73792477D01*
X132731767Y-73790154D01*
X132731762Y-73790151D01*
X132534225Y-73698039D01*
X132534224Y-73698039D01*
X132529243Y-73695716D01*
X132523935Y-73694294D01*
X132523933Y-73694293D01*
X132313402Y-73637881D01*
X132313400Y-73637881D01*
X132308087Y-73636457D01*
X132080000Y-73616502D01*
X131851913Y-73636457D01*
X131846600Y-73637881D01*
X131846598Y-73637881D01*
X131636067Y-73694293D01*
X131636065Y-73694294D01*
X131630757Y-73695716D01*
X131625776Y-73698039D01*
X131625775Y-73698039D01*
X131428238Y-73790151D01*
X131428233Y-73790154D01*
X131423251Y-73792477D01*
X131318389Y-73865902D01*
X131240211Y-73920643D01*
X131240208Y-73920645D01*
X131235700Y-73923802D01*
X131073802Y-74085700D01*
X130942477Y-74273251D01*
X130940154Y-74278233D01*
X130940151Y-74278238D01*
X130940034Y-74278489D01*
X130845716Y-74480757D01*
X130844294Y-74486065D01*
X130844293Y-74486067D01*
X130796756Y-74663478D01*
X130786457Y-74701913D01*
X130766502Y-74930000D01*
X130370400Y-74930000D01*
X130370400Y-71120000D01*
X130766502Y-71120000D01*
X130786457Y-71348087D01*
X130845716Y-71569243D01*
X130848039Y-71574224D01*
X130848039Y-71574225D01*
X130940151Y-71771762D01*
X130940154Y-71771767D01*
X130942477Y-71776749D01*
X131073802Y-71964300D01*
X131235700Y-72126198D01*
X131240208Y-72129355D01*
X131240211Y-72129357D01*
X131246842Y-72134000D01*
X131423251Y-72257523D01*
X131428233Y-72259846D01*
X131428238Y-72259849D01*
X131625775Y-72351961D01*
X131630757Y-72354284D01*
X131636065Y-72355706D01*
X131636067Y-72355707D01*
X131846598Y-72412119D01*
X131846600Y-72412119D01*
X131851913Y-72413543D01*
X132080000Y-72433498D01*
X132308087Y-72413543D01*
X132313400Y-72412119D01*
X132313402Y-72412119D01*
X132523933Y-72355707D01*
X132523935Y-72355706D01*
X132529243Y-72354284D01*
X132534225Y-72351961D01*
X132731762Y-72259849D01*
X132731767Y-72259846D01*
X132736749Y-72257523D01*
X132913158Y-72134000D01*
X132919789Y-72129357D01*
X132919792Y-72129355D01*
X132924300Y-72126198D01*
X133086198Y-71964300D01*
X133217523Y-71776749D01*
X133219846Y-71771767D01*
X133219849Y-71771762D01*
X133311961Y-71574225D01*
X133311961Y-71574224D01*
X133314284Y-71569243D01*
X133373543Y-71348087D01*
X133393498Y-71120000D01*
X133373543Y-70891913D01*
X133336469Y-70753552D01*
X133315707Y-70676067D01*
X133315706Y-70676065D01*
X133314284Y-70670757D01*
X133311354Y-70664474D01*
X133219849Y-70468238D01*
X133219846Y-70468233D01*
X133217523Y-70463251D01*
X133086198Y-70275700D01*
X132924300Y-70113802D01*
X132919792Y-70110645D01*
X132919789Y-70110643D01*
X132829914Y-70047712D01*
X132736749Y-69982477D01*
X132731767Y-69980154D01*
X132731762Y-69980151D01*
X132534225Y-69888039D01*
X132534224Y-69888039D01*
X132529243Y-69885716D01*
X132523935Y-69884294D01*
X132523933Y-69884293D01*
X132313402Y-69827881D01*
X132313400Y-69827881D01*
X132308087Y-69826457D01*
X132080000Y-69806502D01*
X131851913Y-69826457D01*
X131846600Y-69827881D01*
X131846598Y-69827881D01*
X131636067Y-69884293D01*
X131636065Y-69884294D01*
X131630757Y-69885716D01*
X131625776Y-69888039D01*
X131625775Y-69888039D01*
X131428238Y-69980151D01*
X131428233Y-69980154D01*
X131423251Y-69982477D01*
X131330086Y-70047712D01*
X131240211Y-70110643D01*
X131240208Y-70110645D01*
X131235700Y-70113802D01*
X131073802Y-70275700D01*
X130942477Y-70463251D01*
X130940154Y-70468233D01*
X130940151Y-70468238D01*
X130848646Y-70664474D01*
X130845716Y-70670757D01*
X130844294Y-70676065D01*
X130844293Y-70676067D01*
X130823531Y-70753552D01*
X130786457Y-70891913D01*
X130766502Y-71120000D01*
X130370400Y-71120000D01*
X130370400Y-64706062D01*
X131398493Y-64706062D01*
X131407789Y-64718077D01*
X131458994Y-64753931D01*
X131468489Y-64759414D01*
X131665947Y-64851490D01*
X131676239Y-64855236D01*
X131886688Y-64911625D01*
X131897481Y-64913528D01*
X132114525Y-64932517D01*
X132125475Y-64932517D01*
X132342519Y-64913528D01*
X132353312Y-64911625D01*
X132563761Y-64855236D01*
X132574053Y-64851490D01*
X132771511Y-64759414D01*
X132781006Y-64753931D01*
X132833048Y-64717491D01*
X132841424Y-64707012D01*
X132834356Y-64693566D01*
X132132812Y-63992022D01*
X132118868Y-63984408D01*
X132117035Y-63984539D01*
X132110420Y-63988790D01*
X131404923Y-64694287D01*
X131398493Y-64706062D01*
X130370400Y-64706062D01*
X130370400Y-63625475D01*
X130807483Y-63625475D01*
X130826472Y-63842519D01*
X130828375Y-63853312D01*
X130884764Y-64063761D01*
X130888510Y-64074053D01*
X130980586Y-64271511D01*
X130986069Y-64281006D01*
X131022509Y-64333048D01*
X131032988Y-64341424D01*
X131046434Y-64334356D01*
X131747978Y-63632812D01*
X131754356Y-63621132D01*
X132484408Y-63621132D01*
X132484539Y-63622965D01*
X132488790Y-63629580D01*
X133194287Y-64335077D01*
X133206062Y-64341507D01*
X133218077Y-64332211D01*
X133253934Y-64281002D01*
X133260591Y-64269472D01*
X133311973Y-64220479D01*
X133381687Y-64207042D01*
X133447598Y-64233429D01*
X133478829Y-64269472D01*
X133480153Y-64271765D01*
X133482477Y-64276749D01*
X133515941Y-64324540D01*
X133564327Y-64393642D01*
X133613802Y-64464300D01*
X133775700Y-64626198D01*
X133780208Y-64629355D01*
X133780211Y-64629357D01*
X133858389Y-64684098D01*
X133963251Y-64757523D01*
X133968233Y-64759846D01*
X133968238Y-64759849D01*
X134164765Y-64851490D01*
X134170757Y-64854284D01*
X134176065Y-64855706D01*
X134176067Y-64855707D01*
X134386598Y-64912119D01*
X134386600Y-64912119D01*
X134391913Y-64913543D01*
X134620000Y-64933498D01*
X134625475Y-64933019D01*
X134625485Y-64933019D01*
X134689411Y-64927426D01*
X134759016Y-64941414D01*
X134789488Y-64963851D01*
X136424372Y-66598735D01*
X136431515Y-66606502D01*
X136463963Y-66644899D01*
X136526347Y-66692595D01*
X136528748Y-66694477D01*
X136589967Y-66743698D01*
X136596081Y-66746734D01*
X136598218Y-66748100D01*
X136598666Y-66748414D01*
X136599224Y-66748761D01*
X136599691Y-66749018D01*
X136601877Y-66750342D01*
X136607294Y-66754483D01*
X136613476Y-66757366D01*
X136613478Y-66757367D01*
X136678457Y-66787667D01*
X136681200Y-66788987D01*
X136751573Y-66823921D01*
X136758195Y-66825572D01*
X136760579Y-66826449D01*
X136761074Y-66826655D01*
X136761704Y-66826878D01*
X136762245Y-66827037D01*
X136764622Y-66827846D01*
X136770812Y-66830733D01*
X136843905Y-66847071D01*
X136847440Y-66847861D01*
X136850436Y-66848570D01*
X136920015Y-66865918D01*
X136926637Y-66867569D01*
X136933456Y-66867759D01*
X136935973Y-66868104D01*
X136937051Y-66868298D01*
X136941845Y-66868963D01*
X136946890Y-66870091D01*
X136952417Y-66870400D01*
X137026219Y-66870400D01*
X137029737Y-66870449D01*
X137106990Y-66872607D01*
X137113694Y-66871328D01*
X137120184Y-66870806D01*
X137130290Y-66870400D01*
X141283600Y-66870400D01*
X141351721Y-66890402D01*
X141398214Y-66944058D01*
X141409600Y-66996400D01*
X141409600Y-70047712D01*
X141389598Y-70115833D01*
X141372695Y-70136807D01*
X141233802Y-70275700D01*
X141102477Y-70463251D01*
X141100154Y-70468233D01*
X141100151Y-70468238D01*
X141008646Y-70664474D01*
X141005716Y-70670757D01*
X141004294Y-70676065D01*
X141004293Y-70676067D01*
X140983531Y-70753552D01*
X140946457Y-70891913D01*
X140926502Y-71120000D01*
X140946457Y-71348087D01*
X141005716Y-71569243D01*
X141008039Y-71574224D01*
X141008039Y-71574225D01*
X141100151Y-71771762D01*
X141100154Y-71771767D01*
X141102477Y-71776749D01*
X141233802Y-71964300D01*
X141395700Y-72126198D01*
X141400208Y-72129355D01*
X141400211Y-72129357D01*
X141406842Y-72134000D01*
X141583251Y-72257523D01*
X141588233Y-72259846D01*
X141588238Y-72259849D01*
X141785775Y-72351961D01*
X141790757Y-72354284D01*
X141796065Y-72355706D01*
X141796067Y-72355707D01*
X142006598Y-72412119D01*
X142006600Y-72412119D01*
X142011913Y-72413543D01*
X142240000Y-72433498D01*
X142468087Y-72413543D01*
X142473400Y-72412119D01*
X142473402Y-72412119D01*
X142683933Y-72355707D01*
X142683935Y-72355706D01*
X142689243Y-72354284D01*
X142694225Y-72351961D01*
X142891762Y-72259849D01*
X142891767Y-72259846D01*
X142896749Y-72257523D01*
X143073158Y-72134000D01*
X143079789Y-72129357D01*
X143079792Y-72129355D01*
X143084300Y-72126198D01*
X143246198Y-71964300D01*
X143377523Y-71776749D01*
X143379846Y-71771767D01*
X143379849Y-71771762D01*
X143471961Y-71574225D01*
X143471961Y-71574224D01*
X143474284Y-71569243D01*
X143533543Y-71348087D01*
X143553498Y-71120000D01*
X143533543Y-70891913D01*
X143496469Y-70753552D01*
X143475707Y-70676067D01*
X143475706Y-70676065D01*
X143474284Y-70670757D01*
X143471354Y-70664474D01*
X143379849Y-70468238D01*
X143379846Y-70468233D01*
X143377523Y-70463251D01*
X143246198Y-70275700D01*
X143107305Y-70136807D01*
X143073279Y-70074495D01*
X143070400Y-70047712D01*
X143070400Y-68217936D01*
X143090402Y-68149815D01*
X143144058Y-68103322D01*
X143214332Y-68093218D01*
X143235683Y-68098341D01*
X143240812Y-68100733D01*
X143247475Y-68102222D01*
X143247480Y-68102224D01*
X143317456Y-68117866D01*
X143320452Y-68118574D01*
X143390015Y-68135918D01*
X143396637Y-68137569D01*
X143403455Y-68137759D01*
X143405972Y-68138104D01*
X143407047Y-68138297D01*
X143411841Y-68138962D01*
X143416890Y-68140091D01*
X143422417Y-68140400D01*
X143496219Y-68140400D01*
X143499737Y-68140449D01*
X143576990Y-68142607D01*
X143583694Y-68141328D01*
X143590184Y-68140806D01*
X143600290Y-68140400D01*
X154899778Y-68140400D01*
X154910323Y-68140842D01*
X154960409Y-68145048D01*
X155038284Y-68134657D01*
X155041294Y-68134292D01*
X155119368Y-68125811D01*
X155125840Y-68123633D01*
X155128310Y-68123090D01*
X155128853Y-68122994D01*
X155129487Y-68122847D01*
X155130012Y-68122694D01*
X155132478Y-68122088D01*
X155139246Y-68121185D01*
X155145662Y-68118850D01*
X155145665Y-68118849D01*
X155213020Y-68094334D01*
X155215925Y-68093316D01*
X155216216Y-68093218D01*
X155290367Y-68068264D01*
X155296219Y-68064748D01*
X155298523Y-68063683D01*
X155299026Y-68063476D01*
X155299634Y-68063186D01*
X155300116Y-68062923D01*
X155302380Y-68061809D01*
X155308788Y-68059477D01*
X155375125Y-68017379D01*
X155377692Y-68015794D01*
X155439169Y-67978855D01*
X155439171Y-67978853D01*
X155445020Y-67975339D01*
X155449981Y-67970647D01*
X155452000Y-67969115D01*
X155452900Y-67968490D01*
X155456754Y-67965575D01*
X155461124Y-67962802D01*
X155465251Y-67959112D01*
X155517418Y-67906945D01*
X155519940Y-67904491D01*
X155571155Y-67856060D01*
X155571157Y-67856058D01*
X155576111Y-67851373D01*
X155579945Y-67845731D01*
X155584175Y-67840761D01*
X155591034Y-67833329D01*
X155645474Y-67778889D01*
X155707786Y-67744863D01*
X155758070Y-67744195D01*
X156005783Y-67791224D01*
X156005791Y-67791225D01*
X156010374Y-67792095D01*
X156140958Y-67797226D01*
X156266875Y-67802174D01*
X156266881Y-67802174D01*
X156271543Y-67802357D01*
X156350977Y-67793657D01*
X156526707Y-67774412D01*
X156526712Y-67774411D01*
X156531360Y-67773902D01*
X156535884Y-67772711D01*
X156779594Y-67708548D01*
X156779596Y-67708547D01*
X156784117Y-67707357D01*
X157024262Y-67604182D01*
X157246519Y-67466646D01*
X157250082Y-67463629D01*
X157250087Y-67463626D01*
X157442439Y-67300787D01*
X157442440Y-67300786D01*
X157446005Y-67297768D01*
X157466736Y-67274128D01*
X157615257Y-67104774D01*
X157615261Y-67104769D01*
X157618339Y-67101259D01*
X157759733Y-66881437D01*
X157867083Y-66643129D01*
X157879604Y-66598735D01*
X157936760Y-66396076D01*
X157936761Y-66396073D01*
X157938030Y-66391572D01*
X157954832Y-66259493D01*
X157970616Y-66135421D01*
X157970616Y-66135417D01*
X157971014Y-66132291D01*
X157973431Y-66040000D01*
X157954061Y-65779348D01*
X157942725Y-65729248D01*
X157897408Y-65528980D01*
X157896377Y-65524423D01*
X157879279Y-65480455D01*
X157803340Y-65285176D01*
X157803339Y-65285173D01*
X157801647Y-65280823D01*
X157671951Y-65053902D01*
X157510138Y-64848643D01*
X157319763Y-64669557D01*
X157123107Y-64533131D01*
X157108851Y-64523241D01*
X157108848Y-64523239D01*
X157105009Y-64520576D01*
X157100816Y-64518508D01*
X156874781Y-64407040D01*
X156874778Y-64407039D01*
X156870593Y-64404975D01*
X156824449Y-64390204D01*
X156626123Y-64326720D01*
X156621665Y-64325293D01*
X156363693Y-64283279D01*
X156249942Y-64281790D01*
X156107022Y-64279919D01*
X156107019Y-64279919D01*
X156102345Y-64279858D01*
X155843362Y-64315104D01*
X155838876Y-64316412D01*
X155838874Y-64316412D01*
X155789491Y-64330806D01*
X155592433Y-64388243D01*
X155588180Y-64390203D01*
X155588179Y-64390204D01*
X155551659Y-64407040D01*
X155355072Y-64497668D01*
X155316067Y-64523241D01*
X155140404Y-64638410D01*
X155140399Y-64638414D01*
X155136491Y-64640976D01*
X154941494Y-64815018D01*
X154774363Y-65015970D01*
X154771934Y-65019973D01*
X154656866Y-65209600D01*
X154638771Y-65239419D01*
X154537697Y-65480455D01*
X154473359Y-65733783D01*
X154447173Y-65993839D01*
X154447397Y-65998505D01*
X154447397Y-65998511D01*
X154450033Y-66053377D01*
X154459713Y-66254908D01*
X154474455Y-66329020D01*
X154468127Y-66399732D01*
X154424573Y-66455800D01*
X154350876Y-66479600D01*
X143906153Y-66479600D01*
X143838032Y-66459598D01*
X143817058Y-66442695D01*
X143538187Y-66163824D01*
X143504161Y-66101512D01*
X143501972Y-66061557D01*
X143502832Y-66053377D01*
X143503476Y-66047250D01*
X143485106Y-65845404D01*
X143427881Y-65650971D01*
X143402593Y-65602598D01*
X143380931Y-65561163D01*
X143333981Y-65471355D01*
X143206981Y-65313399D01*
X143051719Y-65183119D01*
X143046327Y-65180155D01*
X143046323Y-65180152D01*
X142879506Y-65088444D01*
X142874109Y-65085477D01*
X142680916Y-65024193D01*
X142674799Y-65023507D01*
X142674795Y-65023506D01*
X142600652Y-65015190D01*
X142523183Y-65006500D01*
X141963996Y-65006500D01*
X141813287Y-65021277D01*
X141619258Y-65079858D01*
X141440302Y-65175010D01*
X141435525Y-65178906D01*
X141432662Y-65181241D01*
X141430883Y-65181990D01*
X141430394Y-65182315D01*
X141430332Y-65182222D01*
X141367231Y-65208796D01*
X141353024Y-65209600D01*
X137436153Y-65209600D01*
X137368032Y-65189598D01*
X137347058Y-65172695D01*
X135963851Y-63789488D01*
X135929825Y-63727176D01*
X135927426Y-63689411D01*
X135933019Y-63625485D01*
X135933019Y-63625475D01*
X135933498Y-63620000D01*
X135913543Y-63391913D01*
X135876981Y-63255461D01*
X135855707Y-63176067D01*
X135855706Y-63176065D01*
X135854284Y-63170757D01*
X135851959Y-63165770D01*
X135767329Y-62984278D01*
X135756668Y-62914087D01*
X135785648Y-62849274D01*
X135792429Y-62841934D01*
X139502593Y-59131770D01*
X139564905Y-59097744D01*
X139596305Y-59094950D01*
X139776673Y-59101564D01*
X139776677Y-59101564D01*
X139781837Y-59101753D01*
X139786957Y-59101097D01*
X139786959Y-59101097D01*
X139998288Y-59074025D01*
X139998289Y-59074025D01*
X140003416Y-59073368D01*
X140008366Y-59071883D01*
X140212429Y-59010661D01*
X140212434Y-59010659D01*
X140217384Y-59009174D01*
X140417994Y-58910896D01*
X140599860Y-58781173D01*
X140654165Y-58727058D01*
X140698587Y-58682790D01*
X140758096Y-58623489D01*
X140793315Y-58574477D01*
X140888453Y-58442077D01*
X140889640Y-58442930D01*
X140936960Y-58399362D01*
X141006897Y-58387145D01*
X141072338Y-58414678D01*
X141100166Y-58446511D01*
X141157694Y-58540388D01*
X141163777Y-58548699D01*
X141303213Y-58709667D01*
X141310580Y-58716883D01*
X141474434Y-58852916D01*
X141482881Y-58858831D01*
X141666756Y-58966279D01*
X141676042Y-58970729D01*
X141875001Y-59046703D01*
X141884899Y-59049579D01*
X141988250Y-59070606D01*
X142002299Y-59069410D01*
X142006000Y-59059065D01*
X142006000Y-56423102D01*
X142002082Y-56409758D01*
X141987806Y-56407771D01*
X141949324Y-56413660D01*
X141939288Y-56416051D01*
X141736868Y-56482212D01*
X141727359Y-56486209D01*
X141538463Y-56584542D01*
X141529738Y-56590036D01*
X141359433Y-56717905D01*
X141351726Y-56724748D01*
X141204590Y-56878717D01*
X141198109Y-56886722D01*
X141093498Y-57040074D01*
X141038587Y-57085076D01*
X140968062Y-57093247D01*
X140904315Y-57061993D01*
X140883618Y-57037509D01*
X140802822Y-56912617D01*
X140802820Y-56912614D01*
X140800014Y-56908277D01*
X140649670Y-56743051D01*
X140645619Y-56739852D01*
X140645615Y-56739848D01*
X140478414Y-56607800D01*
X140478410Y-56607798D01*
X140474359Y-56604598D01*
X140438028Y-56584542D01*
X140411666Y-56569990D01*
X140278789Y-56496638D01*
X140273920Y-56494914D01*
X140273916Y-56494912D01*
X140073087Y-56423795D01*
X140073083Y-56423794D01*
X140068212Y-56422069D01*
X140063119Y-56421162D01*
X140063116Y-56421161D01*
X139853373Y-56383800D01*
X139853367Y-56383799D01*
X139848284Y-56382894D01*
X139774452Y-56381992D01*
X139630081Y-56380228D01*
X139630079Y-56380228D01*
X139624911Y-56380165D01*
X139404091Y-56413955D01*
X139191756Y-56483357D01*
X139118757Y-56521358D01*
X139025050Y-56570139D01*
X138993607Y-56586507D01*
X138989474Y-56589610D01*
X138989471Y-56589612D01*
X138819100Y-56717530D01*
X138814965Y-56720635D01*
X138775525Y-56761907D01*
X138721280Y-56818671D01*
X138660629Y-56882138D01*
X138657715Y-56886410D01*
X138657714Y-56886411D01*
X138552898Y-57040066D01*
X138497987Y-57085069D01*
X138427462Y-57093240D01*
X138363715Y-57061986D01*
X138343018Y-57037502D01*
X138262426Y-56912926D01*
X138256136Y-56904757D01*
X138112806Y-56747240D01*
X138105273Y-56740215D01*
X137938139Y-56608222D01*
X137929552Y-56602517D01*
X137743117Y-56499599D01*
X137733705Y-56495369D01*
X137532959Y-56424280D01*
X137522988Y-56421646D01*
X137451837Y-56408972D01*
X137438540Y-56410432D01*
X137434000Y-56424989D01*
X137434000Y-57868000D01*
X137413998Y-57936121D01*
X137360342Y-57982614D01*
X137308000Y-57994000D01*
X135863225Y-57994000D01*
X135849694Y-57997973D01*
X135848257Y-58007966D01*
X135878565Y-58142446D01*
X135881645Y-58152275D01*
X135961770Y-58349603D01*
X135966413Y-58358794D01*
X136077694Y-58540388D01*
X136083777Y-58548699D01*
X136223213Y-58709667D01*
X136230580Y-58716883D01*
X136394434Y-58852916D01*
X136402881Y-58858831D01*
X136586756Y-58966279D01*
X136596042Y-58970729D01*
X136795001Y-59046703D01*
X136804899Y-59049579D01*
X136933378Y-59075718D01*
X136996144Y-59108900D01*
X137031006Y-59170748D01*
X137026897Y-59241625D01*
X136997353Y-59288284D01*
X134061265Y-62224372D01*
X134053498Y-62231515D01*
X134015101Y-62263963D01*
X133967405Y-62326347D01*
X133965523Y-62328748D01*
X133916302Y-62389967D01*
X133913264Y-62396088D01*
X133911912Y-62398202D01*
X133911591Y-62398661D01*
X133911239Y-62399225D01*
X133910975Y-62399706D01*
X133909665Y-62401869D01*
X133905517Y-62407294D01*
X133902631Y-62413483D01*
X133872331Y-62478461D01*
X133870997Y-62481232D01*
X133836080Y-62551573D01*
X133833473Y-62550279D01*
X133794906Y-62600353D01*
X133780214Y-62610641D01*
X133775700Y-62613802D01*
X133613802Y-62775700D01*
X133610645Y-62780208D01*
X133610643Y-62780211D01*
X133545994Y-62872540D01*
X133482477Y-62963251D01*
X133480153Y-62968235D01*
X133478829Y-62970528D01*
X133427447Y-63019521D01*
X133357733Y-63032957D01*
X133291822Y-63006571D01*
X133260591Y-62970528D01*
X133253934Y-62958998D01*
X133217491Y-62906952D01*
X133207012Y-62898576D01*
X133193566Y-62905644D01*
X132492022Y-63607188D01*
X132484408Y-63621132D01*
X131754356Y-63621132D01*
X131755592Y-63618868D01*
X131755461Y-63617035D01*
X131751210Y-63610420D01*
X131045713Y-62904923D01*
X131033938Y-62898493D01*
X131021923Y-62907789D01*
X130986069Y-62958994D01*
X130980586Y-62968489D01*
X130888510Y-63165947D01*
X130884764Y-63176239D01*
X130828375Y-63386688D01*
X130826472Y-63397481D01*
X130807483Y-63614525D01*
X130807483Y-63625475D01*
X130370400Y-63625475D01*
X130370400Y-62532988D01*
X131398576Y-62532988D01*
X131405644Y-62546434D01*
X132107188Y-63247978D01*
X132121132Y-63255592D01*
X132122965Y-63255461D01*
X132129580Y-63251210D01*
X132835077Y-62545713D01*
X132841507Y-62533938D01*
X132832211Y-62521923D01*
X132781006Y-62486069D01*
X132771511Y-62480586D01*
X132574053Y-62388510D01*
X132563761Y-62384764D01*
X132353312Y-62328375D01*
X132342519Y-62326472D01*
X132125475Y-62307483D01*
X132114525Y-62307483D01*
X131897481Y-62326472D01*
X131886688Y-62328375D01*
X131676239Y-62384764D01*
X131665947Y-62388510D01*
X131468489Y-62480586D01*
X131458994Y-62486069D01*
X131406952Y-62522509D01*
X131398576Y-62532988D01*
X130370400Y-62532988D01*
X130370400Y-58816153D01*
X130390402Y-58748032D01*
X130407305Y-58727058D01*
X131660180Y-57474183D01*
X135844389Y-57474183D01*
X135845912Y-57482607D01*
X135858292Y-57486000D01*
X136907885Y-57486000D01*
X136923124Y-57481525D01*
X136924329Y-57480135D01*
X136926000Y-57472452D01*
X136926000Y-56423102D01*
X136922082Y-56409758D01*
X136907806Y-56407771D01*
X136869324Y-56413660D01*
X136859288Y-56416051D01*
X136656868Y-56482212D01*
X136647359Y-56486209D01*
X136458463Y-56584542D01*
X136449738Y-56590036D01*
X136279433Y-56717905D01*
X136271726Y-56724748D01*
X136124590Y-56878717D01*
X136118104Y-56886727D01*
X135998098Y-57062649D01*
X135993000Y-57071623D01*
X135903338Y-57264783D01*
X135899775Y-57274470D01*
X135844389Y-57474183D01*
X131660180Y-57474183D01*
X134292058Y-54842305D01*
X134354370Y-54808279D01*
X134381153Y-54805400D01*
X145653847Y-54805400D01*
X145721968Y-54825402D01*
X145742942Y-54842305D01*
X146472695Y-55572058D01*
X146506721Y-55634370D01*
X146509600Y-55661153D01*
X146509600Y-56261088D01*
X146489598Y-56329209D01*
X146435942Y-56375702D01*
X146397210Y-56386351D01*
X146394800Y-56386613D01*
X146379684Y-56388255D01*
X146243295Y-56439385D01*
X146126739Y-56526739D01*
X146039385Y-56643295D01*
X146036233Y-56651703D01*
X145994919Y-56761907D01*
X145952277Y-56818671D01*
X145885716Y-56843371D01*
X145816367Y-56828163D01*
X145783743Y-56802476D01*
X145733151Y-56746875D01*
X145733142Y-56746866D01*
X145729670Y-56743051D01*
X145725619Y-56739852D01*
X145725615Y-56739848D01*
X145558414Y-56607800D01*
X145558410Y-56607798D01*
X145554359Y-56604598D01*
X145518028Y-56584542D01*
X145491666Y-56569990D01*
X145358789Y-56496638D01*
X145353920Y-56494914D01*
X145353916Y-56494912D01*
X145153087Y-56423795D01*
X145153083Y-56423794D01*
X145148212Y-56422069D01*
X145143119Y-56421162D01*
X145143116Y-56421161D01*
X144933373Y-56383800D01*
X144933367Y-56383799D01*
X144928284Y-56382894D01*
X144854452Y-56381992D01*
X144710081Y-56380228D01*
X144710079Y-56380228D01*
X144704911Y-56380165D01*
X144484091Y-56413955D01*
X144271756Y-56483357D01*
X144198757Y-56521358D01*
X144105050Y-56570139D01*
X144073607Y-56586507D01*
X144069474Y-56589610D01*
X144069471Y-56589612D01*
X143899100Y-56717530D01*
X143894965Y-56720635D01*
X143855525Y-56761907D01*
X143801280Y-56818671D01*
X143740629Y-56882138D01*
X143737715Y-56886410D01*
X143737714Y-56886411D01*
X143632898Y-57040066D01*
X143577987Y-57085069D01*
X143507462Y-57093240D01*
X143443715Y-57061986D01*
X143423018Y-57037502D01*
X143342426Y-56912926D01*
X143336136Y-56904757D01*
X143192806Y-56747240D01*
X143185273Y-56740215D01*
X143018139Y-56608222D01*
X143009552Y-56602517D01*
X142823117Y-56499599D01*
X142813705Y-56495369D01*
X142612959Y-56424280D01*
X142602988Y-56421646D01*
X142531837Y-56408972D01*
X142518540Y-56410432D01*
X142514000Y-56424989D01*
X142514000Y-59058517D01*
X142518064Y-59072359D01*
X142531478Y-59074393D01*
X142538184Y-59073534D01*
X142548262Y-59071392D01*
X142752255Y-59010191D01*
X142761842Y-59006433D01*
X142953095Y-58912739D01*
X142961945Y-58907464D01*
X143135328Y-58783792D01*
X143143200Y-58777139D01*
X143294052Y-58626812D01*
X143300730Y-58618965D01*
X143428022Y-58441819D01*
X143429279Y-58442722D01*
X143476373Y-58399362D01*
X143546311Y-58387145D01*
X143611751Y-58414678D01*
X143639579Y-58446511D01*
X143699987Y-58545088D01*
X143846250Y-58713938D01*
X143850225Y-58717238D01*
X143850228Y-58717241D01*
X143924085Y-58778558D01*
X143963720Y-58837461D01*
X143969600Y-58875502D01*
X143969600Y-60543847D01*
X143949598Y-60611968D01*
X143932695Y-60632942D01*
X142136042Y-62429595D01*
X142073730Y-62463621D01*
X142046947Y-62466500D01*
X141441866Y-62466500D01*
X141379684Y-62473255D01*
X141243295Y-62524385D01*
X141126739Y-62611739D01*
X141039385Y-62728295D01*
X140988255Y-62864684D01*
X140981500Y-62926866D01*
X140981500Y-64073134D01*
X140988255Y-64135316D01*
X141039385Y-64271705D01*
X141126739Y-64388261D01*
X141243295Y-64475615D01*
X141379684Y-64526745D01*
X141441866Y-64533500D01*
X143038134Y-64533500D01*
X143100316Y-64526745D01*
X143236705Y-64475615D01*
X143353261Y-64388261D01*
X143440615Y-64271705D01*
X143491745Y-64135316D01*
X143498500Y-64073134D01*
X143498500Y-63468053D01*
X143518502Y-63399932D01*
X143535405Y-63378958D01*
X144690905Y-62223458D01*
X144753217Y-62189432D01*
X144824032Y-62194497D01*
X144869095Y-62223458D01*
X146704372Y-64058735D01*
X146711515Y-64066502D01*
X146743963Y-64104899D01*
X146806387Y-64152625D01*
X146808745Y-64154475D01*
X146869967Y-64203698D01*
X146876081Y-64206733D01*
X146878202Y-64208089D01*
X146878652Y-64208404D01*
X146879222Y-64208759D01*
X146879706Y-64209025D01*
X146881869Y-64210335D01*
X146887294Y-64214483D01*
X146893483Y-64217369D01*
X146958461Y-64247669D01*
X146961235Y-64249004D01*
X147025462Y-64280887D01*
X147025466Y-64280888D01*
X147031573Y-64283920D01*
X147038195Y-64285571D01*
X147040568Y-64286444D01*
X147041067Y-64286652D01*
X147041705Y-64286878D01*
X147042226Y-64287031D01*
X147044624Y-64287848D01*
X147050812Y-64290733D01*
X147057469Y-64292221D01*
X147057472Y-64292222D01*
X147127488Y-64307872D01*
X147130484Y-64308581D01*
X147161893Y-64316412D01*
X147206637Y-64327568D01*
X147213458Y-64327758D01*
X147215966Y-64328102D01*
X147217056Y-64328298D01*
X147221837Y-64328962D01*
X147226890Y-64330091D01*
X147232417Y-64330400D01*
X147306233Y-64330400D01*
X147309752Y-64330449D01*
X147386990Y-64332607D01*
X147393694Y-64331328D01*
X147400184Y-64330806D01*
X147410290Y-64330400D01*
X147625500Y-64330400D01*
X147693621Y-64350402D01*
X147740114Y-64404058D01*
X147751500Y-64456400D01*
X147751500Y-65148134D01*
X147758255Y-65210316D01*
X147809385Y-65346705D01*
X147896739Y-65463261D01*
X148013295Y-65550615D01*
X148149684Y-65601745D01*
X148211866Y-65608500D01*
X151508134Y-65608500D01*
X151570316Y-65601745D01*
X151706705Y-65550615D01*
X151823261Y-65463261D01*
X151910615Y-65346705D01*
X151961745Y-65210316D01*
X151968500Y-65148134D01*
X151968500Y-61851866D01*
X151961745Y-61789684D01*
X151910615Y-61653295D01*
X151823261Y-61536739D01*
X151706705Y-61449385D01*
X151570316Y-61398255D01*
X151508134Y-61391500D01*
X148211866Y-61391500D01*
X148149684Y-61398255D01*
X148013295Y-61449385D01*
X147896739Y-61536739D01*
X147809385Y-61653295D01*
X147758255Y-61789684D01*
X147751500Y-61851866D01*
X147751500Y-62452947D01*
X147731498Y-62521068D01*
X147677842Y-62567561D01*
X147607568Y-62577665D01*
X147542988Y-62548171D01*
X147536405Y-62542042D01*
X146093496Y-61099133D01*
X155165612Y-61099133D01*
X155174325Y-61110653D01*
X155272018Y-61182284D01*
X155279928Y-61187227D01*
X155502890Y-61304533D01*
X155511453Y-61308256D01*
X155749304Y-61391318D01*
X155758313Y-61393732D01*
X156005842Y-61440727D01*
X156015098Y-61441781D01*
X156266857Y-61451673D01*
X156276171Y-61451347D01*
X156526615Y-61423920D01*
X156535792Y-61422219D01*
X156779431Y-61358074D01*
X156788251Y-61355037D01*
X157019736Y-61255583D01*
X157028008Y-61251276D01*
X157242249Y-61118700D01*
X157249188Y-61113658D01*
X157257518Y-61101019D01*
X157251456Y-61090666D01*
X156222812Y-60062022D01*
X156208868Y-60054408D01*
X156207035Y-60054539D01*
X156200420Y-60058790D01*
X155172270Y-61086940D01*
X155165612Y-61099133D01*
X146093496Y-61099133D01*
X145667305Y-60672942D01*
X145633279Y-60610630D01*
X145630400Y-60583847D01*
X145630400Y-59648523D01*
X154447898Y-59648523D01*
X154459987Y-59900175D01*
X154461124Y-59909435D01*
X154510274Y-60156535D01*
X154512768Y-60165528D01*
X154597900Y-60402639D01*
X154601700Y-60411174D01*
X154720946Y-60633101D01*
X154725957Y-60640968D01*
X154789446Y-60725990D01*
X154800704Y-60734439D01*
X154813123Y-60727667D01*
X155837978Y-59702812D01*
X155844356Y-59691132D01*
X156574408Y-59691132D01*
X156574539Y-59692965D01*
X156578790Y-59699580D01*
X157609913Y-60730703D01*
X157622293Y-60737463D01*
X157630634Y-60731219D01*
X157756765Y-60535127D01*
X157761212Y-60526936D01*
X157864691Y-60297222D01*
X157867882Y-60288455D01*
X157936269Y-60045976D01*
X157938129Y-60036834D01*
X157970116Y-59785396D01*
X157970597Y-59779108D01*
X157972847Y-59693160D01*
X157972696Y-59686851D01*
X157953912Y-59434074D01*
X157952536Y-59424868D01*
X157896929Y-59179126D01*
X157894205Y-59170215D01*
X157802888Y-58935392D01*
X157798877Y-58926983D01*
X157673854Y-58708240D01*
X157668643Y-58700514D01*
X157631391Y-58653261D01*
X157619466Y-58644790D01*
X157607934Y-58651276D01*
X156582022Y-59677188D01*
X156574408Y-59691132D01*
X155844356Y-59691132D01*
X155845592Y-59688868D01*
X155845461Y-59687035D01*
X155841210Y-59680420D01*
X154811321Y-58650531D01*
X154798013Y-58643264D01*
X154787974Y-58650386D01*
X154777761Y-58662666D01*
X154772346Y-58670258D01*
X154641646Y-58885646D01*
X154637408Y-58893963D01*
X154539981Y-59126299D01*
X154537020Y-59135149D01*
X154475006Y-59379331D01*
X154473384Y-59388528D01*
X154448143Y-59639198D01*
X154447898Y-59648523D01*
X145630400Y-59648523D01*
X145630400Y-58880903D01*
X145650402Y-58812782D01*
X145675071Y-58784665D01*
X145675648Y-58784177D01*
X145679860Y-58781173D01*
X145788091Y-58673319D01*
X145850462Y-58639404D01*
X145921268Y-58644592D01*
X145978030Y-58687238D01*
X145995012Y-58718341D01*
X146017201Y-58777529D01*
X146039385Y-58836705D01*
X146126739Y-58953261D01*
X146243295Y-59040615D01*
X146379684Y-59091745D01*
X146441866Y-59098500D01*
X148238134Y-59098500D01*
X148300316Y-59091745D01*
X148436705Y-59040615D01*
X148553261Y-58953261D01*
X148640615Y-58836705D01*
X148691745Y-58700316D01*
X148693649Y-58682790D01*
X148720892Y-58617228D01*
X148779256Y-58576803D01*
X148818912Y-58570400D01*
X150499778Y-58570400D01*
X150510323Y-58570842D01*
X150560409Y-58575048D01*
X150638284Y-58564657D01*
X150641294Y-58564292D01*
X150719368Y-58555811D01*
X150725840Y-58553633D01*
X150728310Y-58553090D01*
X150728853Y-58552994D01*
X150729487Y-58552847D01*
X150730012Y-58552694D01*
X150732478Y-58552088D01*
X150739246Y-58551185D01*
X150745662Y-58548850D01*
X150745665Y-58548849D01*
X150813020Y-58524334D01*
X150815925Y-58523316D01*
X150890367Y-58498264D01*
X150896219Y-58494748D01*
X150898523Y-58493683D01*
X150899026Y-58493476D01*
X150899634Y-58493186D01*
X150900116Y-58492923D01*
X150902380Y-58491809D01*
X150908788Y-58489477D01*
X150975125Y-58447379D01*
X150977692Y-58445794D01*
X151039169Y-58408855D01*
X151039171Y-58408853D01*
X151045020Y-58405339D01*
X151049981Y-58400647D01*
X151052000Y-58399115D01*
X151052900Y-58398490D01*
X151056754Y-58395575D01*
X151061124Y-58392802D01*
X151065251Y-58389112D01*
X151117418Y-58336945D01*
X151119940Y-58334492D01*
X151169456Y-58287667D01*
X151187771Y-58278803D01*
X155163216Y-58278803D01*
X155167789Y-58288579D01*
X156197188Y-59317978D01*
X156211132Y-59325592D01*
X156212965Y-59325461D01*
X156219580Y-59321210D01*
X157248419Y-58292371D01*
X157254803Y-58280681D01*
X157245391Y-58268570D01*
X157108593Y-58173670D01*
X157100565Y-58168942D01*
X156874593Y-58057505D01*
X156865960Y-58054017D01*
X156625998Y-57977205D01*
X156616938Y-57975029D01*
X156368260Y-57934529D01*
X156358973Y-57933717D01*
X156107053Y-57930419D01*
X156097742Y-57930989D01*
X155848097Y-57964964D01*
X155838978Y-57966902D01*
X155597098Y-58037404D01*
X155588367Y-58040667D01*
X155359558Y-58146151D01*
X155351406Y-58150670D01*
X155172353Y-58268062D01*
X155163216Y-58278803D01*
X151187771Y-58278803D01*
X151237949Y-58254519D01*
X151389883Y-58232490D01*
X151395347Y-58230635D01*
X151395352Y-58230634D01*
X151577327Y-58168862D01*
X151577332Y-58168860D01*
X151582799Y-58167004D01*
X151588653Y-58163726D01*
X151648551Y-58130181D01*
X151717989Y-58091294D01*
X152553066Y-58091294D01*
X152562948Y-58103783D01*
X152594239Y-58124691D01*
X152604349Y-58130181D01*
X152780835Y-58206005D01*
X152791778Y-58209560D01*
X152979120Y-58251952D01*
X152990530Y-58253454D01*
X153182469Y-58260995D01*
X153193951Y-58260393D01*
X153384045Y-58232832D01*
X153395240Y-58230144D01*
X153577131Y-58168400D01*
X153587628Y-58163726D01*
X153698032Y-58101898D01*
X153707895Y-58091821D01*
X153704940Y-58084151D01*
X153142811Y-57522021D01*
X153128868Y-57514408D01*
X153127034Y-57514539D01*
X153120420Y-57518790D01*
X152559259Y-58079952D01*
X152553066Y-58091294D01*
X151717989Y-58091294D01*
X151760551Y-58067458D01*
X151917186Y-57937186D01*
X152047458Y-57780551D01*
X152047745Y-57780039D01*
X152101506Y-57736292D01*
X152162704Y-57727084D01*
X152184321Y-57729226D01*
X152199676Y-57721113D01*
X152757979Y-57162811D01*
X152764356Y-57151132D01*
X153494408Y-57151132D01*
X153494539Y-57152966D01*
X153498790Y-57159580D01*
X154060239Y-57721028D01*
X154072614Y-57727785D01*
X154079194Y-57722859D01*
X154143726Y-57607628D01*
X154148400Y-57597131D01*
X154210144Y-57415240D01*
X154212832Y-57404045D01*
X154240689Y-57211911D01*
X154241319Y-57204528D01*
X154242650Y-57153704D01*
X154242407Y-57146305D01*
X154224643Y-56952975D01*
X154222545Y-56941654D01*
X154170408Y-56756791D01*
X154166283Y-56746044D01*
X154082163Y-56575465D01*
X154074869Y-56569990D01*
X154062449Y-56576762D01*
X153502021Y-57137189D01*
X153494408Y-57151132D01*
X152764356Y-57151132D01*
X152765592Y-57148868D01*
X152765461Y-57147034D01*
X152761210Y-57140420D01*
X152198538Y-56577749D01*
X152184601Y-56570139D01*
X152154552Y-56572288D01*
X152085178Y-56557197D01*
X152044604Y-56521998D01*
X151960758Y-56409715D01*
X151960758Y-56409714D01*
X151957305Y-56405091D01*
X151867646Y-56322211D01*
X151811943Y-56270719D01*
X151811940Y-56270717D01*
X151807703Y-56266800D01*
X151715580Y-56208675D01*
X152552788Y-56208675D01*
X152556275Y-56217064D01*
X153117189Y-56777979D01*
X153131132Y-56785592D01*
X153132966Y-56785461D01*
X153139580Y-56781210D01*
X153700285Y-56220504D01*
X153707042Y-56208129D01*
X153701012Y-56200073D01*
X153640061Y-56161616D01*
X153629813Y-56156395D01*
X153451401Y-56085216D01*
X153440373Y-56081949D01*
X153251982Y-56044476D01*
X153240535Y-56043273D01*
X153048477Y-56040759D01*
X153036997Y-56041662D01*
X152847697Y-56074190D01*
X152836577Y-56077170D01*
X152656365Y-56143653D01*
X152645991Y-56148601D01*
X152562385Y-56198342D01*
X152552788Y-56208675D01*
X151715580Y-56208675D01*
X151701947Y-56200073D01*
X151640288Y-56161169D01*
X151640283Y-56161167D01*
X151635404Y-56158088D01*
X151446180Y-56082595D01*
X151271663Y-56047881D01*
X151252032Y-56043976D01*
X151252031Y-56043976D01*
X151246366Y-56042849D01*
X151240592Y-56042773D01*
X151240588Y-56042773D01*
X151137452Y-56041424D01*
X151042655Y-56040183D01*
X151036958Y-56041162D01*
X151036957Y-56041162D01*
X151017671Y-56044476D01*
X150841870Y-56074684D01*
X150650734Y-56145198D01*
X150645773Y-56148150D01*
X150645772Y-56148150D01*
X150529939Y-56217064D01*
X150475649Y-56249363D01*
X150322478Y-56383690D01*
X150318911Y-56388215D01*
X150318906Y-56388220D01*
X150241658Y-56486209D01*
X150196351Y-56543681D01*
X150193662Y-56548792D01*
X150193660Y-56548795D01*
X150178946Y-56576762D01*
X150101492Y-56723978D01*
X150099777Y-56729501D01*
X150099775Y-56729506D01*
X150071376Y-56820964D01*
X150032073Y-56880090D01*
X149967044Y-56908580D01*
X149951044Y-56909600D01*
X148818912Y-56909600D01*
X148750791Y-56889598D01*
X148704298Y-56835942D01*
X148693649Y-56797210D01*
X148692598Y-56787539D01*
X148691745Y-56779684D01*
X148640615Y-56643295D01*
X148553261Y-56526739D01*
X148436705Y-56439385D01*
X148300316Y-56388255D01*
X148285200Y-56386613D01*
X148282790Y-56386351D01*
X148217228Y-56359108D01*
X148176803Y-56300744D01*
X148170400Y-56261088D01*
X148170400Y-55305222D01*
X148170842Y-55294678D01*
X148174477Y-55251389D01*
X148175048Y-55244591D01*
X148164661Y-55166747D01*
X148164291Y-55163690D01*
X148156548Y-55092420D01*
X148155811Y-55085632D01*
X148153633Y-55079160D01*
X148153090Y-55076690D01*
X148152993Y-55076139D01*
X148152847Y-55075513D01*
X148152694Y-55074987D01*
X148152088Y-55072520D01*
X148151185Y-55065753D01*
X148124335Y-54991984D01*
X148123318Y-54989080D01*
X148100439Y-54921096D01*
X148098264Y-54914633D01*
X148094751Y-54908787D01*
X148093685Y-54906480D01*
X148093483Y-54905990D01*
X148093186Y-54905367D01*
X148092921Y-54904881D01*
X148091810Y-54902624D01*
X148089477Y-54896212D01*
X148085823Y-54890454D01*
X148085821Y-54890450D01*
X148047403Y-54829912D01*
X148045786Y-54827295D01*
X148008851Y-54765825D01*
X148005339Y-54759980D01*
X148000653Y-54755024D01*
X147999107Y-54752988D01*
X147998486Y-54752095D01*
X147995572Y-54748242D01*
X147992801Y-54743875D01*
X147989112Y-54739749D01*
X147936945Y-54687582D01*
X147934491Y-54685060D01*
X147886060Y-54633845D01*
X147886058Y-54633843D01*
X147881373Y-54628889D01*
X147875731Y-54625055D01*
X147870761Y-54620825D01*
X147863329Y-54613966D01*
X146665628Y-53416265D01*
X146658485Y-53408498D01*
X146633833Y-53379326D01*
X146626037Y-53370101D01*
X146563644Y-53322398D01*
X146561232Y-53320507D01*
X146500033Y-53271302D01*
X146493912Y-53268264D01*
X146491798Y-53266912D01*
X146491339Y-53266591D01*
X146490775Y-53266239D01*
X146490294Y-53265975D01*
X146488131Y-53264665D01*
X146482706Y-53260517D01*
X146411537Y-53227330D01*
X146408765Y-53225996D01*
X146344538Y-53194113D01*
X146344534Y-53194112D01*
X146338427Y-53191080D01*
X146331805Y-53189429D01*
X146329432Y-53188556D01*
X146328933Y-53188348D01*
X146328295Y-53188122D01*
X146327774Y-53187969D01*
X146325376Y-53187152D01*
X146319188Y-53184267D01*
X146312530Y-53182779D01*
X146312519Y-53182775D01*
X146242544Y-53167134D01*
X146239548Y-53166426D01*
X146169985Y-53149082D01*
X146169984Y-53149082D01*
X146163363Y-53147431D01*
X146156545Y-53147241D01*
X146154028Y-53146896D01*
X146152953Y-53146703D01*
X146148159Y-53146038D01*
X146143110Y-53144909D01*
X146137583Y-53144600D01*
X146063781Y-53144600D01*
X146060263Y-53144551D01*
X146059783Y-53144538D01*
X145983010Y-53142393D01*
X145976306Y-53143672D01*
X145969816Y-53144194D01*
X145959710Y-53144600D01*
X134025222Y-53144600D01*
X134014678Y-53144158D01*
X134004847Y-53143332D01*
X133964591Y-53139952D01*
X133957831Y-53140854D01*
X133957830Y-53140854D01*
X133886747Y-53150339D01*
X133883690Y-53150709D01*
X133869525Y-53152248D01*
X133805632Y-53159189D01*
X133799160Y-53161367D01*
X133796690Y-53161910D01*
X133796139Y-53162007D01*
X133795513Y-53162153D01*
X133794987Y-53162306D01*
X133792520Y-53162912D01*
X133785753Y-53163815D01*
X133718970Y-53188122D01*
X133711986Y-53190664D01*
X133709082Y-53191681D01*
X133634633Y-53216736D01*
X133628787Y-53220249D01*
X133626480Y-53221315D01*
X133625990Y-53221517D01*
X133625367Y-53221814D01*
X133624881Y-53222079D01*
X133622623Y-53223190D01*
X133616212Y-53225523D01*
X133610458Y-53229175D01*
X133610447Y-53229180D01*
X133549939Y-53267580D01*
X133547320Y-53269198D01*
X133485828Y-53306146D01*
X133485821Y-53306151D01*
X133479980Y-53309661D01*
X133475023Y-53314349D01*
X133472998Y-53315886D01*
X133472115Y-53316500D01*
X133468244Y-53319427D01*
X133463876Y-53322199D01*
X133459749Y-53325888D01*
X133407582Y-53378055D01*
X133405060Y-53380509D01*
X133348889Y-53433627D01*
X133345055Y-53439269D01*
X133340825Y-53444239D01*
X133333966Y-53451671D01*
X128981265Y-57804372D01*
X128973498Y-57811515D01*
X128935101Y-57843963D01*
X128887405Y-57906347D01*
X128885523Y-57908748D01*
X128836302Y-57969967D01*
X128833264Y-57976088D01*
X128831912Y-57978202D01*
X128831591Y-57978661D01*
X128831239Y-57979225D01*
X128830975Y-57979706D01*
X128829665Y-57981869D01*
X128825517Y-57987294D01*
X128822631Y-57993483D01*
X128792331Y-58058461D01*
X128790996Y-58061235D01*
X128759113Y-58125462D01*
X128759112Y-58125466D01*
X128756080Y-58131573D01*
X128754429Y-58138195D01*
X128753556Y-58140568D01*
X128753348Y-58141067D01*
X128753122Y-58141705D01*
X128752969Y-58142226D01*
X128752152Y-58144624D01*
X128749267Y-58150812D01*
X128747779Y-58157470D01*
X128747775Y-58157481D01*
X128732134Y-58227456D01*
X128731426Y-58230452D01*
X128723811Y-58260995D01*
X128712431Y-58306637D01*
X128712241Y-58313455D01*
X128711896Y-58315972D01*
X128711703Y-58317047D01*
X128711038Y-58321841D01*
X128709909Y-58326890D01*
X128709600Y-58332417D01*
X128709600Y-58406219D01*
X128709551Y-58409737D01*
X128707393Y-58486990D01*
X128708672Y-58493694D01*
X128709194Y-58500184D01*
X128709600Y-58510290D01*
X128709600Y-100294778D01*
X128709158Y-100305322D01*
X128704952Y-100355409D01*
X124968500Y-100355409D01*
X124968500Y-50932703D01*
X127430743Y-50932703D01*
X127468268Y-51217734D01*
X127544129Y-51495036D01*
X127656923Y-51759476D01*
X127804561Y-52006161D01*
X127984313Y-52230528D01*
X128192851Y-52428423D01*
X128426317Y-52596186D01*
X128430112Y-52598195D01*
X128430113Y-52598196D01*
X128451869Y-52609715D01*
X128680392Y-52730712D01*
X128950373Y-52829511D01*
X129231264Y-52890755D01*
X129259841Y-52893004D01*
X129454282Y-52908307D01*
X129454291Y-52908307D01*
X129456739Y-52908500D01*
X129612271Y-52908500D01*
X129614407Y-52908354D01*
X129614418Y-52908354D01*
X129822548Y-52894165D01*
X129822554Y-52894164D01*
X129826825Y-52893873D01*
X129831020Y-52893004D01*
X129831022Y-52893004D01*
X129967583Y-52864724D01*
X130108342Y-52835574D01*
X130379343Y-52739607D01*
X130634812Y-52607750D01*
X130638313Y-52605289D01*
X130638317Y-52605287D01*
X130752417Y-52525096D01*
X130870023Y-52442441D01*
X131080622Y-52246740D01*
X131262713Y-52024268D01*
X131412927Y-51779142D01*
X131528483Y-51515898D01*
X131607244Y-51239406D01*
X131647751Y-50954784D01*
X131647845Y-50936951D01*
X131647867Y-50932703D01*
X151560743Y-50932703D01*
X151598268Y-51217734D01*
X151674129Y-51495036D01*
X151786923Y-51759476D01*
X151934561Y-52006161D01*
X152114313Y-52230528D01*
X152322851Y-52428423D01*
X152556317Y-52596186D01*
X152560112Y-52598195D01*
X152560113Y-52598196D01*
X152581869Y-52609715D01*
X152810392Y-52730712D01*
X153080373Y-52829511D01*
X153361264Y-52890755D01*
X153389841Y-52893004D01*
X153584282Y-52908307D01*
X153584291Y-52908307D01*
X153586739Y-52908500D01*
X153742271Y-52908500D01*
X153744407Y-52908354D01*
X153744418Y-52908354D01*
X153952548Y-52894165D01*
X153952554Y-52894164D01*
X153956825Y-52893873D01*
X153961020Y-52893004D01*
X153961022Y-52893004D01*
X154097583Y-52864724D01*
X154238342Y-52835574D01*
X154509343Y-52739607D01*
X154764812Y-52607750D01*
X154768313Y-52605289D01*
X154768317Y-52605287D01*
X154882417Y-52525096D01*
X155000023Y-52442441D01*
X155210622Y-52246740D01*
X155392713Y-52024268D01*
X155542927Y-51779142D01*
X155658483Y-51515898D01*
X155737244Y-51239406D01*
X155777751Y-50954784D01*
X155777845Y-50936951D01*
X155779235Y-50671583D01*
X155779235Y-50671576D01*
X155779257Y-50667297D01*
X155741732Y-50382266D01*
X155665871Y-50104964D01*
X155553077Y-49840524D01*
X155405439Y-49593839D01*
X155225687Y-49369472D01*
X155058315Y-49210642D01*
X155020258Y-49174527D01*
X155020255Y-49174525D01*
X155017149Y-49171577D01*
X154783683Y-49003814D01*
X154761843Y-48992250D01*
X154738654Y-48979972D01*
X154529608Y-48869288D01*
X154259627Y-48770489D01*
X153978736Y-48709245D01*
X153947685Y-48706801D01*
X153755718Y-48691693D01*
X153755709Y-48691693D01*
X153753261Y-48691500D01*
X153597729Y-48691500D01*
X153595593Y-48691646D01*
X153595582Y-48691646D01*
X153387452Y-48705835D01*
X153387446Y-48705836D01*
X153383175Y-48706127D01*
X153378980Y-48706996D01*
X153378978Y-48706996D01*
X153242417Y-48735276D01*
X153101658Y-48764426D01*
X152830657Y-48860393D01*
X152575188Y-48992250D01*
X152571687Y-48994711D01*
X152571683Y-48994713D01*
X152561594Y-49001804D01*
X152339977Y-49157559D01*
X152129378Y-49353260D01*
X151947287Y-49575732D01*
X151797073Y-49820858D01*
X151681517Y-50084102D01*
X151602756Y-50360594D01*
X151562249Y-50645216D01*
X151562227Y-50649505D01*
X151562226Y-50649512D01*
X151560765Y-50928417D01*
X151560743Y-50932703D01*
X131647867Y-50932703D01*
X131649235Y-50671583D01*
X131649235Y-50671576D01*
X131649257Y-50667297D01*
X131611732Y-50382266D01*
X131535871Y-50104964D01*
X131423077Y-49840524D01*
X131275439Y-49593839D01*
X131095687Y-49369472D01*
X130928315Y-49210642D01*
X130890258Y-49174527D01*
X130890255Y-49174525D01*
X130887149Y-49171577D01*
X130653683Y-49003814D01*
X130631843Y-48992250D01*
X130608654Y-48979972D01*
X130399608Y-48869288D01*
X130129627Y-48770489D01*
X129848736Y-48709245D01*
X129817685Y-48706801D01*
X129625718Y-48691693D01*
X129625709Y-48691693D01*
X129623261Y-48691500D01*
X129467729Y-48691500D01*
X129465593Y-48691646D01*
X129465582Y-48691646D01*
X129257452Y-48705835D01*
X129257446Y-48705836D01*
X129253175Y-48706127D01*
X129248980Y-48706996D01*
X129248978Y-48706996D01*
X129112417Y-48735276D01*
X128971658Y-48764426D01*
X128700657Y-48860393D01*
X128445188Y-48992250D01*
X128441687Y-48994711D01*
X128441683Y-48994713D01*
X128431594Y-49001804D01*
X128209977Y-49157559D01*
X127999378Y-49353260D01*
X127817287Y-49575732D01*
X127667073Y-49820858D01*
X127551517Y-50084102D01*
X127472756Y-50360594D01*
X127432249Y-50645216D01*
X127432227Y-50649505D01*
X127432226Y-50649512D01*
X127430765Y-50928417D01*
X127430743Y-50932703D01*
X124968500Y-50932703D01*
X124968500Y-49741500D01*
X124988502Y-49673379D01*
X124993700Y-49665900D01*
X128486450Y-45008900D01*
X128543324Y-44966405D01*
X128587250Y-44958500D01*
X154622750Y-44958500D01*
X154690871Y-44978502D01*
G37*
%TD.AperFunction*%
%TD*%
M02*
