M48
; DRILL file {KiCad (6.0.9)} date Mon Jul  8 19:13:22 2024
; FORMAT={-:-/ absolute / inch / decimal}
; #@! TF.CreationDate,2024-07-08T19:13:22-04:00
; #@! TF.GenerationSoftware,Kicad,Pcbnew,(6.0.9)
; #@! TF.FileFunction,Plated,1,2,PTH
FMAT,2
INCH
; #@! TA.AperFunction,Plated,PTH,ComponentDrill
T1C0.0236
; #@! TA.AperFunction,Plated,PTH,ComponentDrill
T2C0.0295
; #@! TA.AperFunction,Plated,PTH,ComponentDrill
T3C0.0315
; #@! TA.AperFunction,Plated,PTH,ComponentDrill
T4C0.0394
; #@! TA.AperFunction,Plated,PTH,ComponentDrill
T5C0.0630
%
G90
G05
T1
X5.95Y-2.25
X6.0287Y-2.25
T2
X5.1996Y-3.7498
X5.1996Y-3.8498
X5.2496Y-3.7998
X5.6Y-2.5
X5.6Y-2.6
T3
X5.2Y-2.8
X5.2Y-2.95
X5.2016Y-2.5047
X5.2496Y-3.1998
X5.2496Y-3.5998
X5.3Y-2.5047
X5.4Y-3.1
X5.4Y-3.2
X5.4Y-3.3
X5.4Y-3.4
X5.4Y-3.5
X5.4Y-3.6
X5.4Y-3.7
X5.4Y-3.8
X5.4Y-3.9
X5.4Y-4.0
X5.6Y-2.8
X5.6Y-2.95
X5.7Y-3.1
X5.7Y-3.2
X5.7Y-3.3
X5.7Y-3.4
X5.7Y-3.5
X5.7Y-3.6
X5.7Y-3.7
X5.7Y-3.8
X5.7Y-3.9
X5.7Y-4.0
X5.8996Y-3.2498
X5.8996Y-3.6498
T4
X5.2496Y-3.9998
X5.2496Y-4.0998
X5.3992Y-4.201
X5.4008Y-2.2732
X5.4992Y-4.201
X5.5008Y-2.2732
X5.5992Y-4.201
X5.6008Y-2.2732
X5.6992Y-4.201
X5.7008Y-2.2732
X5.7992Y-4.201
X5.8008Y-2.2732
X5.8992Y-4.201
X5.9992Y-4.201
T5
X5.9Y-2.5
X5.9Y-3.1
T0
M30
