%TF.GenerationSoftware,KiCad,Pcbnew,(6.0.9)*%
%TF.CreationDate,2024-07-08T19:13:13-04:00*%
%TF.ProjectId,PantryLED,50616e74-7279-44c4-9544-2e6b69636164,rev?*%
%TF.SameCoordinates,Original*%
%TF.FileFunction,Soldermask,Top*%
%TF.FilePolarity,Negative*%
%FSLAX46Y46*%
G04 Gerber Fmt 4.6, Leading zero omitted, Abs format (unit mm)*
G04 Created by KiCad (PCBNEW (6.0.9)) date 2024-07-08 19:13:13*
%MOMM*%
%LPD*%
G01*
G04 APERTURE LIST*
%ADD10R,1.700000X1.700000*%
%ADD11O,1.700000X1.700000*%
%ADD12R,3.200000X3.200000*%
%ADD13O,3.200000X3.200000*%
%ADD14C,3.200000*%
%ADD15C,2.500000*%
%ADD16C,1.600000*%
%ADD17O,1.600000X1.600000*%
%ADD18R,1.300000X1.300000*%
%ADD19C,1.300000*%
%ADD20R,1.500000X1.050000*%
%ADD21O,1.500000X1.050000*%
%ADD22C,1.200000*%
%ADD23R,1.600000X1.600000*%
G04 APERTURE END LIST*
D10*
%TO.C,J1*%
X152380000Y-106705000D03*
D11*
X149840000Y-106705000D03*
X147300000Y-106705000D03*
X144760000Y-106705000D03*
X142220000Y-106705000D03*
X139680000Y-106705000D03*
X137140000Y-106705000D03*
%TD*%
D12*
%TO.C,D1*%
X149860000Y-63500000D03*
D13*
X149860000Y-78740000D03*
%TD*%
D14*
%TO.C,H3*%
X129540000Y-113030000D03*
%TD*%
%TO.C,H4*%
X153670000Y-50800000D03*
%TD*%
D10*
%TO.C,D2*%
X133340000Y-104135000D03*
D11*
X133340000Y-101595000D03*
%TD*%
D10*
%TO.C,U1*%
X147340000Y-57740000D03*
D11*
X144800000Y-57740000D03*
X142260000Y-57740000D03*
X139720000Y-57740000D03*
X137180000Y-57740000D03*
%TD*%
D15*
%TO.C,TP3*%
X156210000Y-59690000D03*
%TD*%
%TO.C,TP2*%
X156210000Y-72390000D03*
%TD*%
D16*
%TO.C,R2*%
X149850000Y-82545000D03*
D17*
X149850000Y-92705000D03*
%TD*%
D16*
%TO.C,R1*%
X133340000Y-91435000D03*
D17*
X133340000Y-81275000D03*
%TD*%
D18*
%TO.C,U2*%
X132070000Y-95245000D03*
D19*
X133340000Y-96515000D03*
X132070000Y-97785000D03*
%TD*%
D15*
%TO.C,TP1*%
X156210000Y-66040000D03*
%TD*%
D14*
%TO.C,H1*%
X129540000Y-50800000D03*
%TD*%
%TO.C,H2*%
X153670000Y-113030000D03*
%TD*%
D16*
%TO.C,C2*%
X134620000Y-63620000D03*
X132120000Y-63620000D03*
%TD*%
D20*
%TO.C,L1*%
X142240000Y-63500000D03*
D21*
X142240000Y-66040000D03*
%TD*%
D22*
%TO.C,C1*%
X151130000Y-57150000D03*
X153130000Y-57150000D03*
%TD*%
D16*
%TO.C,R3*%
X142240000Y-71120000D03*
D17*
X132080000Y-71120000D03*
%TD*%
D16*
%TO.C,R4*%
X132080000Y-74930000D03*
D17*
X142240000Y-74930000D03*
%TD*%
D23*
%TO.C,U3*%
X137160000Y-78740000D03*
D17*
X137160000Y-81280000D03*
X137160000Y-83820000D03*
X137160000Y-86360000D03*
X137160000Y-88900000D03*
X137160000Y-91440000D03*
X137160000Y-93980000D03*
X137160000Y-96520000D03*
X137160000Y-99060000D03*
X137160000Y-101600000D03*
X144780000Y-101600000D03*
X144780000Y-99060000D03*
X144780000Y-96520000D03*
X144780000Y-93980000D03*
X144780000Y-91440000D03*
X144780000Y-88900000D03*
X144780000Y-86360000D03*
X144780000Y-83820000D03*
X144780000Y-81280000D03*
X144780000Y-78740000D03*
%TD*%
M02*
