%TF.GenerationSoftware,KiCad,Pcbnew,(6.0.9)*%
%TF.CreationDate,2024-07-08T19:13:21-04:00*%
%TF.ProjectId,PantryLED,50616e74-7279-44c4-9544-2e6b69636164,rev?*%
%TF.SameCoordinates,Original*%
%TF.FileFunction,Drillmap*%
%TF.FilePolarity,Positive*%
%FSLAX45Y45*%
G04 Gerber Fmt 4.5, Leading zero omitted, Abs format (unit mm)*
G04 Created by KiCad (PCBNEW (6.0.9)) date 2024-07-08 19:13:21*
%MOMM*%
%LPD*%
G01*
G04 APERTURE LIST*
%ADD10C,0.200000*%
%ADD11C,0.060000*%
%ADD12C,0.075000*%
%ADD13C,0.080000*%
%ADD14C,0.100000*%
%ADD15C,0.160000*%
G04 APERTURE END LIST*
D10*
X15875000Y-4953000D02*
X15875000Y-11430000D01*
X15494000Y-11938000D01*
X12827000Y-11938000D01*
X12446000Y-11430000D01*
X12446000Y-4953000D01*
X12827000Y-4445000D01*
X15494000Y-4445000D01*
X15875000Y-4953000D01*
D11*
X15083000Y-5685000D02*
X15143000Y-5745000D01*
X15143000Y-5685000D02*
X15083000Y-5745000D01*
X15283000Y-5685000D02*
X15343000Y-5745000D01*
X15343000Y-5685000D02*
X15283000Y-5745000D01*
D12*
X13244500Y-9524500D02*
G75*
G03*
X13244500Y-9524500I-37500J0D01*
G01*
X13244500Y-9778500D02*
G75*
G03*
X13244500Y-9778500I-37500J0D01*
G01*
X13371500Y-9651500D02*
G75*
G03*
X13371500Y-9651500I-37500J0D01*
G01*
X14261500Y-6350000D02*
G75*
G03*
X14261500Y-6350000I-37500J0D01*
G01*
X14261500Y-6604000D02*
G75*
G03*
X14261500Y-6604000I-37500J0D01*
G01*
D13*
X13208000Y-7072000D02*
X13208000Y-7152000D01*
X13168000Y-7112000D02*
X13248000Y-7112000D01*
X13208000Y-7453000D02*
X13208000Y-7533000D01*
X13168000Y-7493000D02*
X13248000Y-7493000D01*
X13212000Y-6322000D02*
X13212000Y-6402000D01*
X13172000Y-6362000D02*
X13252000Y-6362000D01*
X13334000Y-8087500D02*
X13334000Y-8167500D01*
X13294000Y-8127500D02*
X13374000Y-8127500D01*
X13334000Y-9103500D02*
X13334000Y-9183500D01*
X13294000Y-9143500D02*
X13374000Y-9143500D01*
X13462000Y-6322000D02*
X13462000Y-6402000D01*
X13422000Y-6362000D02*
X13502000Y-6362000D01*
X13716000Y-7834000D02*
X13716000Y-7914000D01*
X13676000Y-7874000D02*
X13756000Y-7874000D01*
X13716000Y-8088000D02*
X13716000Y-8168000D01*
X13676000Y-8128000D02*
X13756000Y-8128000D01*
X13716000Y-8342000D02*
X13716000Y-8422000D01*
X13676000Y-8382000D02*
X13756000Y-8382000D01*
X13716000Y-8596000D02*
X13716000Y-8676000D01*
X13676000Y-8636000D02*
X13756000Y-8636000D01*
X13716000Y-8850000D02*
X13716000Y-8930000D01*
X13676000Y-8890000D02*
X13756000Y-8890000D01*
X13716000Y-9104000D02*
X13716000Y-9184000D01*
X13676000Y-9144000D02*
X13756000Y-9144000D01*
X13716000Y-9358000D02*
X13716000Y-9438000D01*
X13676000Y-9398000D02*
X13756000Y-9398000D01*
X13716000Y-9612000D02*
X13716000Y-9692000D01*
X13676000Y-9652000D02*
X13756000Y-9652000D01*
X13716000Y-9866000D02*
X13716000Y-9946000D01*
X13676000Y-9906000D02*
X13756000Y-9906000D01*
X13716000Y-10120000D02*
X13716000Y-10200000D01*
X13676000Y-10160000D02*
X13756000Y-10160000D01*
X14224000Y-7072000D02*
X14224000Y-7152000D01*
X14184000Y-7112000D02*
X14264000Y-7112000D01*
X14224000Y-7453000D02*
X14224000Y-7533000D01*
X14184000Y-7493000D02*
X14264000Y-7493000D01*
X14478000Y-7834000D02*
X14478000Y-7914000D01*
X14438000Y-7874000D02*
X14518000Y-7874000D01*
X14478000Y-8088000D02*
X14478000Y-8168000D01*
X14438000Y-8128000D02*
X14518000Y-8128000D01*
X14478000Y-8342000D02*
X14478000Y-8422000D01*
X14438000Y-8382000D02*
X14518000Y-8382000D01*
X14478000Y-8596000D02*
X14478000Y-8676000D01*
X14438000Y-8636000D02*
X14518000Y-8636000D01*
X14478000Y-8850000D02*
X14478000Y-8930000D01*
X14438000Y-8890000D02*
X14518000Y-8890000D01*
X14478000Y-9104000D02*
X14478000Y-9184000D01*
X14438000Y-9144000D02*
X14518000Y-9144000D01*
X14478000Y-9358000D02*
X14478000Y-9438000D01*
X14438000Y-9398000D02*
X14518000Y-9398000D01*
X14478000Y-9612000D02*
X14478000Y-9692000D01*
X14438000Y-9652000D02*
X14518000Y-9652000D01*
X14478000Y-9866000D02*
X14478000Y-9946000D01*
X14438000Y-9906000D02*
X14518000Y-9906000D01*
X14478000Y-10120000D02*
X14478000Y-10200000D01*
X14438000Y-10160000D02*
X14518000Y-10160000D01*
X14985000Y-8214500D02*
X14985000Y-8294500D01*
X14945000Y-8254500D02*
X15025000Y-8254500D01*
X14985000Y-9230500D02*
X14985000Y-9310500D01*
X14945000Y-9270500D02*
X15025000Y-9270500D01*
D14*
X13369356Y-10194856D02*
X13369356Y-10124144D01*
X13298644Y-10124144D01*
X13298644Y-10194856D01*
X13369356Y-10194856D01*
X13369356Y-10448856D02*
X13369356Y-10378144D01*
X13298644Y-10378144D01*
X13298644Y-10448856D01*
X13369356Y-10448856D01*
X13749356Y-10705856D02*
X13749356Y-10635144D01*
X13678644Y-10635144D01*
X13678644Y-10705856D01*
X13749356Y-10705856D01*
X13753356Y-5809356D02*
X13753356Y-5738644D01*
X13682644Y-5738644D01*
X13682644Y-5809356D01*
X13753356Y-5809356D01*
X14003356Y-10705856D02*
X14003356Y-10635144D01*
X13932644Y-10635144D01*
X13932644Y-10705856D01*
X14003356Y-10705856D01*
X14007356Y-5809356D02*
X14007356Y-5738644D01*
X13936644Y-5738644D01*
X13936644Y-5809356D01*
X14007356Y-5809356D01*
X14257356Y-10705856D02*
X14257356Y-10635144D01*
X14186644Y-10635144D01*
X14186644Y-10705856D01*
X14257356Y-10705856D01*
X14261356Y-5809356D02*
X14261356Y-5738644D01*
X14190644Y-5738644D01*
X14190644Y-5809356D01*
X14261356Y-5809356D01*
X14511356Y-10705856D02*
X14511356Y-10635144D01*
X14440644Y-10635144D01*
X14440644Y-10705856D01*
X14511356Y-10705856D01*
X14515356Y-5809356D02*
X14515356Y-5738644D01*
X14444644Y-5738644D01*
X14444644Y-5809356D01*
X14515356Y-5809356D01*
X14765356Y-10705856D02*
X14765356Y-10635144D01*
X14694644Y-10635144D01*
X14694644Y-10705856D01*
X14765356Y-10705856D01*
X14769356Y-5809356D02*
X14769356Y-5738644D01*
X14698644Y-5738644D01*
X14698644Y-5809356D01*
X14769356Y-5809356D01*
X15019356Y-10705856D02*
X15019356Y-10635144D01*
X14948644Y-10635144D01*
X14948644Y-10705856D01*
X15019356Y-10705856D01*
X15273356Y-10705856D02*
X15273356Y-10635144D01*
X15202644Y-10635144D01*
X15202644Y-10705856D01*
X15273356Y-10705856D01*
D15*
X14986000Y-6430000D02*
X15066000Y-6350000D01*
X14986000Y-6270000D01*
X14906000Y-6350000D01*
X14986000Y-6430000D01*
X14986000Y-7954000D02*
X15066000Y-7874000D01*
X14986000Y-7794000D01*
X14906000Y-7874000D01*
X14986000Y-7954000D01*
D10*
X12693619Y-12258476D02*
X12693619Y-12058476D01*
X12741238Y-12058476D01*
X12769809Y-12068000D01*
X12788857Y-12087048D01*
X12798381Y-12106095D01*
X12807905Y-12144190D01*
X12807905Y-12172762D01*
X12798381Y-12210857D01*
X12788857Y-12229905D01*
X12769809Y-12248952D01*
X12741238Y-12258476D01*
X12693619Y-12258476D01*
X12893619Y-12258476D02*
X12893619Y-12125143D01*
X12893619Y-12163238D02*
X12903143Y-12144190D01*
X12912667Y-12134667D01*
X12931714Y-12125143D01*
X12950762Y-12125143D01*
X13017428Y-12258476D02*
X13017428Y-12125143D01*
X13017428Y-12058476D02*
X13007905Y-12068000D01*
X13017428Y-12077524D01*
X13026952Y-12068000D01*
X13017428Y-12058476D01*
X13017428Y-12077524D01*
X13141238Y-12258476D02*
X13122190Y-12248952D01*
X13112667Y-12229905D01*
X13112667Y-12058476D01*
X13246000Y-12258476D02*
X13226952Y-12248952D01*
X13217428Y-12229905D01*
X13217428Y-12058476D01*
X13474571Y-12258476D02*
X13474571Y-12058476D01*
X13541238Y-12201333D01*
X13607905Y-12058476D01*
X13607905Y-12258476D01*
X13788857Y-12258476D02*
X13788857Y-12153714D01*
X13779333Y-12134667D01*
X13760286Y-12125143D01*
X13722190Y-12125143D01*
X13703143Y-12134667D01*
X13788857Y-12248952D02*
X13769809Y-12258476D01*
X13722190Y-12258476D01*
X13703143Y-12248952D01*
X13693619Y-12229905D01*
X13693619Y-12210857D01*
X13703143Y-12191809D01*
X13722190Y-12182286D01*
X13769809Y-12182286D01*
X13788857Y-12172762D01*
X13884095Y-12125143D02*
X13884095Y-12325143D01*
X13884095Y-12134667D02*
X13903143Y-12125143D01*
X13941238Y-12125143D01*
X13960286Y-12134667D01*
X13969809Y-12144190D01*
X13979333Y-12163238D01*
X13979333Y-12220381D01*
X13969809Y-12239428D01*
X13960286Y-12248952D01*
X13941238Y-12258476D01*
X13903143Y-12258476D01*
X13884095Y-12248952D01*
X14065048Y-12239428D02*
X14074571Y-12248952D01*
X14065048Y-12258476D01*
X14055524Y-12248952D01*
X14065048Y-12239428D01*
X14065048Y-12258476D01*
X14065048Y-12134667D02*
X14074571Y-12144190D01*
X14065048Y-12153714D01*
X14055524Y-12144190D01*
X14065048Y-12134667D01*
X14065048Y-12153714D01*
D11*
X12376000Y-12558000D02*
X12436000Y-12618000D01*
X12436000Y-12558000D02*
X12376000Y-12618000D01*
D10*
X12731714Y-12478476D02*
X12750762Y-12478476D01*
X12769809Y-12488000D01*
X12779333Y-12497524D01*
X12788857Y-12516571D01*
X12798381Y-12554667D01*
X12798381Y-12602286D01*
X12788857Y-12640381D01*
X12779333Y-12659428D01*
X12769809Y-12668952D01*
X12750762Y-12678476D01*
X12731714Y-12678476D01*
X12712667Y-12668952D01*
X12703143Y-12659428D01*
X12693619Y-12640381D01*
X12684095Y-12602286D01*
X12684095Y-12554667D01*
X12693619Y-12516571D01*
X12703143Y-12497524D01*
X12712667Y-12488000D01*
X12731714Y-12478476D01*
X12884095Y-12659428D02*
X12893619Y-12668952D01*
X12884095Y-12678476D01*
X12874571Y-12668952D01*
X12884095Y-12659428D01*
X12884095Y-12678476D01*
X13065048Y-12478476D02*
X13026952Y-12478476D01*
X13007905Y-12488000D01*
X12998381Y-12497524D01*
X12979333Y-12526095D01*
X12969809Y-12564190D01*
X12969809Y-12640381D01*
X12979333Y-12659428D01*
X12988857Y-12668952D01*
X13007905Y-12678476D01*
X13046000Y-12678476D01*
X13065048Y-12668952D01*
X13074571Y-12659428D01*
X13084095Y-12640381D01*
X13084095Y-12592762D01*
X13074571Y-12573714D01*
X13065048Y-12564190D01*
X13046000Y-12554667D01*
X13007905Y-12554667D01*
X12988857Y-12564190D01*
X12979333Y-12573714D01*
X12969809Y-12592762D01*
X13207905Y-12478476D02*
X13226952Y-12478476D01*
X13246000Y-12488000D01*
X13255524Y-12497524D01*
X13265048Y-12516571D01*
X13274571Y-12554667D01*
X13274571Y-12602286D01*
X13265048Y-12640381D01*
X13255524Y-12659428D01*
X13246000Y-12668952D01*
X13226952Y-12678476D01*
X13207905Y-12678476D01*
X13188857Y-12668952D01*
X13179333Y-12659428D01*
X13169809Y-12640381D01*
X13160286Y-12602286D01*
X13160286Y-12554667D01*
X13169809Y-12516571D01*
X13179333Y-12497524D01*
X13188857Y-12488000D01*
X13207905Y-12478476D01*
X13398381Y-12478476D02*
X13417428Y-12478476D01*
X13436476Y-12488000D01*
X13446000Y-12497524D01*
X13455524Y-12516571D01*
X13465048Y-12554667D01*
X13465048Y-12602286D01*
X13455524Y-12640381D01*
X13446000Y-12659428D01*
X13436476Y-12668952D01*
X13417428Y-12678476D01*
X13398381Y-12678476D01*
X13379333Y-12668952D01*
X13369809Y-12659428D01*
X13360286Y-12640381D01*
X13350762Y-12602286D01*
X13350762Y-12554667D01*
X13360286Y-12516571D01*
X13369809Y-12497524D01*
X13379333Y-12488000D01*
X13398381Y-12478476D01*
X13550762Y-12678476D02*
X13550762Y-12545143D01*
X13550762Y-12564190D02*
X13560286Y-12554667D01*
X13579333Y-12545143D01*
X13607905Y-12545143D01*
X13626952Y-12554667D01*
X13636476Y-12573714D01*
X13636476Y-12678476D01*
X13636476Y-12573714D02*
X13646000Y-12554667D01*
X13665048Y-12545143D01*
X13693619Y-12545143D01*
X13712667Y-12554667D01*
X13722190Y-12573714D01*
X13722190Y-12678476D01*
X13817428Y-12678476D02*
X13817428Y-12545143D01*
X13817428Y-12564190D02*
X13826952Y-12554667D01*
X13846000Y-12545143D01*
X13874571Y-12545143D01*
X13893619Y-12554667D01*
X13903143Y-12573714D01*
X13903143Y-12678476D01*
X13903143Y-12573714D02*
X13912667Y-12554667D01*
X13931714Y-12545143D01*
X13960286Y-12545143D01*
X13979333Y-12554667D01*
X13988857Y-12573714D01*
X13988857Y-12678476D01*
X14379333Y-12468952D02*
X14207905Y-12726095D01*
X14636476Y-12478476D02*
X14655524Y-12478476D01*
X14674571Y-12488000D01*
X14684095Y-12497524D01*
X14693619Y-12516571D01*
X14703143Y-12554667D01*
X14703143Y-12602286D01*
X14693619Y-12640381D01*
X14684095Y-12659428D01*
X14674571Y-12668952D01*
X14655524Y-12678476D01*
X14636476Y-12678476D01*
X14617428Y-12668952D01*
X14607905Y-12659428D01*
X14598381Y-12640381D01*
X14588857Y-12602286D01*
X14588857Y-12554667D01*
X14598381Y-12516571D01*
X14607905Y-12497524D01*
X14617428Y-12488000D01*
X14636476Y-12478476D01*
X14788857Y-12659428D02*
X14798381Y-12668952D01*
X14788857Y-12678476D01*
X14779333Y-12668952D01*
X14788857Y-12659428D01*
X14788857Y-12678476D01*
X14922190Y-12478476D02*
X14941238Y-12478476D01*
X14960286Y-12488000D01*
X14969809Y-12497524D01*
X14979333Y-12516571D01*
X14988857Y-12554667D01*
X14988857Y-12602286D01*
X14979333Y-12640381D01*
X14969809Y-12659428D01*
X14960286Y-12668952D01*
X14941238Y-12678476D01*
X14922190Y-12678476D01*
X14903143Y-12668952D01*
X14893619Y-12659428D01*
X14884095Y-12640381D01*
X14874571Y-12602286D01*
X14874571Y-12554667D01*
X14884095Y-12516571D01*
X14893619Y-12497524D01*
X14903143Y-12488000D01*
X14922190Y-12478476D01*
X15065048Y-12497524D02*
X15074571Y-12488000D01*
X15093619Y-12478476D01*
X15141238Y-12478476D01*
X15160286Y-12488000D01*
X15169809Y-12497524D01*
X15179333Y-12516571D01*
X15179333Y-12535619D01*
X15169809Y-12564190D01*
X15055524Y-12678476D01*
X15179333Y-12678476D01*
X15246000Y-12478476D02*
X15369809Y-12478476D01*
X15303143Y-12554667D01*
X15331714Y-12554667D01*
X15350762Y-12564190D01*
X15360286Y-12573714D01*
X15369809Y-12592762D01*
X15369809Y-12640381D01*
X15360286Y-12659428D01*
X15350762Y-12668952D01*
X15331714Y-12678476D01*
X15274571Y-12678476D01*
X15255524Y-12668952D01*
X15246000Y-12659428D01*
X15541238Y-12478476D02*
X15503143Y-12478476D01*
X15484095Y-12488000D01*
X15474571Y-12497524D01*
X15455524Y-12526095D01*
X15446000Y-12564190D01*
X15446000Y-12640381D01*
X15455524Y-12659428D01*
X15465048Y-12668952D01*
X15484095Y-12678476D01*
X15522190Y-12678476D01*
X15541238Y-12668952D01*
X15550762Y-12659428D01*
X15560286Y-12640381D01*
X15560286Y-12592762D01*
X15550762Y-12573714D01*
X15541238Y-12564190D01*
X15522190Y-12554667D01*
X15484095Y-12554667D01*
X15465048Y-12564190D01*
X15455524Y-12573714D01*
X15446000Y-12592762D01*
X15636476Y-12478476D02*
X15636476Y-12516571D01*
X15712667Y-12478476D02*
X15712667Y-12516571D01*
X16007905Y-12754667D02*
X15998381Y-12745143D01*
X15979333Y-12716571D01*
X15969809Y-12697524D01*
X15960286Y-12668952D01*
X15950762Y-12621333D01*
X15950762Y-12583238D01*
X15960286Y-12535619D01*
X15969809Y-12507048D01*
X15979333Y-12488000D01*
X15998381Y-12459428D01*
X16007905Y-12449905D01*
X16074571Y-12497524D02*
X16084095Y-12488000D01*
X16103143Y-12478476D01*
X16150762Y-12478476D01*
X16169809Y-12488000D01*
X16179333Y-12497524D01*
X16188857Y-12516571D01*
X16188857Y-12535619D01*
X16179333Y-12564190D01*
X16065048Y-12678476D01*
X16188857Y-12678476D01*
X16426952Y-12678476D02*
X16426952Y-12478476D01*
X16512667Y-12678476D02*
X16512667Y-12573714D01*
X16503143Y-12554667D01*
X16484095Y-12545143D01*
X16455524Y-12545143D01*
X16436476Y-12554667D01*
X16426952Y-12564190D01*
X16636476Y-12678476D02*
X16617428Y-12668952D01*
X16607905Y-12659428D01*
X16598381Y-12640381D01*
X16598381Y-12583238D01*
X16607905Y-12564190D01*
X16617428Y-12554667D01*
X16636476Y-12545143D01*
X16665048Y-12545143D01*
X16684095Y-12554667D01*
X16693619Y-12564190D01*
X16703143Y-12583238D01*
X16703143Y-12640381D01*
X16693619Y-12659428D01*
X16684095Y-12668952D01*
X16665048Y-12678476D01*
X16636476Y-12678476D01*
X16817429Y-12678476D02*
X16798381Y-12668952D01*
X16788857Y-12649905D01*
X16788857Y-12478476D01*
X16969810Y-12668952D02*
X16950762Y-12678476D01*
X16912667Y-12678476D01*
X16893619Y-12668952D01*
X16884095Y-12649905D01*
X16884095Y-12573714D01*
X16893619Y-12554667D01*
X16912667Y-12545143D01*
X16950762Y-12545143D01*
X16969810Y-12554667D01*
X16979333Y-12573714D01*
X16979333Y-12592762D01*
X16884095Y-12611809D01*
X17055524Y-12668952D02*
X17074571Y-12678476D01*
X17112667Y-12678476D01*
X17131714Y-12668952D01*
X17141238Y-12649905D01*
X17141238Y-12640381D01*
X17131714Y-12621333D01*
X17112667Y-12611809D01*
X17084095Y-12611809D01*
X17065048Y-12602286D01*
X17055524Y-12583238D01*
X17055524Y-12573714D01*
X17065048Y-12554667D01*
X17084095Y-12545143D01*
X17112667Y-12545143D01*
X17131714Y-12554667D01*
X17207905Y-12754667D02*
X17217429Y-12745143D01*
X17236476Y-12716571D01*
X17246000Y-12697524D01*
X17255524Y-12668952D01*
X17265048Y-12621333D01*
X17265048Y-12583238D01*
X17255524Y-12535619D01*
X17246000Y-12507048D01*
X17236476Y-12488000D01*
X17217429Y-12459428D01*
X17207905Y-12449905D01*
D12*
X12436000Y-12852000D02*
G75*
G03*
X12436000Y-12852000I-37500J0D01*
G01*
D10*
X12731714Y-12742476D02*
X12750762Y-12742476D01*
X12769809Y-12752000D01*
X12779333Y-12761524D01*
X12788857Y-12780571D01*
X12798381Y-12818667D01*
X12798381Y-12866286D01*
X12788857Y-12904381D01*
X12779333Y-12923428D01*
X12769809Y-12932952D01*
X12750762Y-12942476D01*
X12731714Y-12942476D01*
X12712667Y-12932952D01*
X12703143Y-12923428D01*
X12693619Y-12904381D01*
X12684095Y-12866286D01*
X12684095Y-12818667D01*
X12693619Y-12780571D01*
X12703143Y-12761524D01*
X12712667Y-12752000D01*
X12731714Y-12742476D01*
X12884095Y-12923428D02*
X12893619Y-12932952D01*
X12884095Y-12942476D01*
X12874571Y-12932952D01*
X12884095Y-12923428D01*
X12884095Y-12942476D01*
X12960286Y-12742476D02*
X13093619Y-12742476D01*
X13007905Y-12942476D01*
X13265048Y-12742476D02*
X13169809Y-12742476D01*
X13160286Y-12837714D01*
X13169809Y-12828190D01*
X13188857Y-12818667D01*
X13236476Y-12818667D01*
X13255524Y-12828190D01*
X13265048Y-12837714D01*
X13274571Y-12856762D01*
X13274571Y-12904381D01*
X13265048Y-12923428D01*
X13255524Y-12932952D01*
X13236476Y-12942476D01*
X13188857Y-12942476D01*
X13169809Y-12932952D01*
X13160286Y-12923428D01*
X13398381Y-12742476D02*
X13417428Y-12742476D01*
X13436476Y-12752000D01*
X13446000Y-12761524D01*
X13455524Y-12780571D01*
X13465048Y-12818667D01*
X13465048Y-12866286D01*
X13455524Y-12904381D01*
X13446000Y-12923428D01*
X13436476Y-12932952D01*
X13417428Y-12942476D01*
X13398381Y-12942476D01*
X13379333Y-12932952D01*
X13369809Y-12923428D01*
X13360286Y-12904381D01*
X13350762Y-12866286D01*
X13350762Y-12818667D01*
X13360286Y-12780571D01*
X13369809Y-12761524D01*
X13379333Y-12752000D01*
X13398381Y-12742476D01*
X13550762Y-12942476D02*
X13550762Y-12809143D01*
X13550762Y-12828190D02*
X13560286Y-12818667D01*
X13579333Y-12809143D01*
X13607905Y-12809143D01*
X13626952Y-12818667D01*
X13636476Y-12837714D01*
X13636476Y-12942476D01*
X13636476Y-12837714D02*
X13646000Y-12818667D01*
X13665048Y-12809143D01*
X13693619Y-12809143D01*
X13712667Y-12818667D01*
X13722190Y-12837714D01*
X13722190Y-12942476D01*
X13817428Y-12942476D02*
X13817428Y-12809143D01*
X13817428Y-12828190D02*
X13826952Y-12818667D01*
X13846000Y-12809143D01*
X13874571Y-12809143D01*
X13893619Y-12818667D01*
X13903143Y-12837714D01*
X13903143Y-12942476D01*
X13903143Y-12837714D02*
X13912667Y-12818667D01*
X13931714Y-12809143D01*
X13960286Y-12809143D01*
X13979333Y-12818667D01*
X13988857Y-12837714D01*
X13988857Y-12942476D01*
X14379333Y-12732952D02*
X14207905Y-12990095D01*
X14636476Y-12742476D02*
X14655524Y-12742476D01*
X14674571Y-12752000D01*
X14684095Y-12761524D01*
X14693619Y-12780571D01*
X14703143Y-12818667D01*
X14703143Y-12866286D01*
X14693619Y-12904381D01*
X14684095Y-12923428D01*
X14674571Y-12932952D01*
X14655524Y-12942476D01*
X14636476Y-12942476D01*
X14617428Y-12932952D01*
X14607905Y-12923428D01*
X14598381Y-12904381D01*
X14588857Y-12866286D01*
X14588857Y-12818667D01*
X14598381Y-12780571D01*
X14607905Y-12761524D01*
X14617428Y-12752000D01*
X14636476Y-12742476D01*
X14788857Y-12923428D02*
X14798381Y-12932952D01*
X14788857Y-12942476D01*
X14779333Y-12932952D01*
X14788857Y-12923428D01*
X14788857Y-12942476D01*
X14922190Y-12742476D02*
X14941238Y-12742476D01*
X14960286Y-12752000D01*
X14969809Y-12761524D01*
X14979333Y-12780571D01*
X14988857Y-12818667D01*
X14988857Y-12866286D01*
X14979333Y-12904381D01*
X14969809Y-12923428D01*
X14960286Y-12932952D01*
X14941238Y-12942476D01*
X14922190Y-12942476D01*
X14903143Y-12932952D01*
X14893619Y-12923428D01*
X14884095Y-12904381D01*
X14874571Y-12866286D01*
X14874571Y-12818667D01*
X14884095Y-12780571D01*
X14893619Y-12761524D01*
X14903143Y-12752000D01*
X14922190Y-12742476D01*
X15065048Y-12761524D02*
X15074571Y-12752000D01*
X15093619Y-12742476D01*
X15141238Y-12742476D01*
X15160286Y-12752000D01*
X15169809Y-12761524D01*
X15179333Y-12780571D01*
X15179333Y-12799619D01*
X15169809Y-12828190D01*
X15055524Y-12942476D01*
X15179333Y-12942476D01*
X15274571Y-12942476D02*
X15312667Y-12942476D01*
X15331714Y-12932952D01*
X15341238Y-12923428D01*
X15360286Y-12894857D01*
X15369809Y-12856762D01*
X15369809Y-12780571D01*
X15360286Y-12761524D01*
X15350762Y-12752000D01*
X15331714Y-12742476D01*
X15293619Y-12742476D01*
X15274571Y-12752000D01*
X15265048Y-12761524D01*
X15255524Y-12780571D01*
X15255524Y-12828190D01*
X15265048Y-12847238D01*
X15274571Y-12856762D01*
X15293619Y-12866286D01*
X15331714Y-12866286D01*
X15350762Y-12856762D01*
X15360286Y-12847238D01*
X15369809Y-12828190D01*
X15550762Y-12742476D02*
X15455524Y-12742476D01*
X15446000Y-12837714D01*
X15455524Y-12828190D01*
X15474571Y-12818667D01*
X15522190Y-12818667D01*
X15541238Y-12828190D01*
X15550762Y-12837714D01*
X15560286Y-12856762D01*
X15560286Y-12904381D01*
X15550762Y-12923428D01*
X15541238Y-12932952D01*
X15522190Y-12942476D01*
X15474571Y-12942476D01*
X15455524Y-12932952D01*
X15446000Y-12923428D01*
X15636476Y-12742476D02*
X15636476Y-12780571D01*
X15712667Y-12742476D02*
X15712667Y-12780571D01*
X16007905Y-13018667D02*
X15998381Y-13009143D01*
X15979333Y-12980571D01*
X15969809Y-12961524D01*
X15960286Y-12932952D01*
X15950762Y-12885333D01*
X15950762Y-12847238D01*
X15960286Y-12799619D01*
X15969809Y-12771048D01*
X15979333Y-12752000D01*
X15998381Y-12723428D01*
X16007905Y-12713905D01*
X16179333Y-12742476D02*
X16084095Y-12742476D01*
X16074571Y-12837714D01*
X16084095Y-12828190D01*
X16103143Y-12818667D01*
X16150762Y-12818667D01*
X16169809Y-12828190D01*
X16179333Y-12837714D01*
X16188857Y-12856762D01*
X16188857Y-12904381D01*
X16179333Y-12923428D01*
X16169809Y-12932952D01*
X16150762Y-12942476D01*
X16103143Y-12942476D01*
X16084095Y-12932952D01*
X16074571Y-12923428D01*
X16426952Y-12942476D02*
X16426952Y-12742476D01*
X16512667Y-12942476D02*
X16512667Y-12837714D01*
X16503143Y-12818667D01*
X16484095Y-12809143D01*
X16455524Y-12809143D01*
X16436476Y-12818667D01*
X16426952Y-12828190D01*
X16636476Y-12942476D02*
X16617428Y-12932952D01*
X16607905Y-12923428D01*
X16598381Y-12904381D01*
X16598381Y-12847238D01*
X16607905Y-12828190D01*
X16617428Y-12818667D01*
X16636476Y-12809143D01*
X16665048Y-12809143D01*
X16684095Y-12818667D01*
X16693619Y-12828190D01*
X16703143Y-12847238D01*
X16703143Y-12904381D01*
X16693619Y-12923428D01*
X16684095Y-12932952D01*
X16665048Y-12942476D01*
X16636476Y-12942476D01*
X16817429Y-12942476D02*
X16798381Y-12932952D01*
X16788857Y-12913905D01*
X16788857Y-12742476D01*
X16969810Y-12932952D02*
X16950762Y-12942476D01*
X16912667Y-12942476D01*
X16893619Y-12932952D01*
X16884095Y-12913905D01*
X16884095Y-12837714D01*
X16893619Y-12818667D01*
X16912667Y-12809143D01*
X16950762Y-12809143D01*
X16969810Y-12818667D01*
X16979333Y-12837714D01*
X16979333Y-12856762D01*
X16884095Y-12875809D01*
X17055524Y-12932952D02*
X17074571Y-12942476D01*
X17112667Y-12942476D01*
X17131714Y-12932952D01*
X17141238Y-12913905D01*
X17141238Y-12904381D01*
X17131714Y-12885333D01*
X17112667Y-12875809D01*
X17084095Y-12875809D01*
X17065048Y-12866286D01*
X17055524Y-12847238D01*
X17055524Y-12837714D01*
X17065048Y-12818667D01*
X17084095Y-12809143D01*
X17112667Y-12809143D01*
X17131714Y-12818667D01*
X17207905Y-13018667D02*
X17217429Y-13009143D01*
X17236476Y-12980571D01*
X17246000Y-12961524D01*
X17255524Y-12932952D01*
X17265048Y-12885333D01*
X17265048Y-12847238D01*
X17255524Y-12799619D01*
X17246000Y-12771048D01*
X17236476Y-12752000D01*
X17217429Y-12723428D01*
X17207905Y-12713905D01*
D13*
X12396000Y-13076000D02*
X12396000Y-13156000D01*
X12356000Y-13116000D02*
X12436000Y-13116000D01*
D10*
X12731714Y-13006476D02*
X12750762Y-13006476D01*
X12769809Y-13016000D01*
X12779333Y-13025524D01*
X12788857Y-13044571D01*
X12798381Y-13082667D01*
X12798381Y-13130286D01*
X12788857Y-13168381D01*
X12779333Y-13187428D01*
X12769809Y-13196952D01*
X12750762Y-13206476D01*
X12731714Y-13206476D01*
X12712667Y-13196952D01*
X12703143Y-13187428D01*
X12693619Y-13168381D01*
X12684095Y-13130286D01*
X12684095Y-13082667D01*
X12693619Y-13044571D01*
X12703143Y-13025524D01*
X12712667Y-13016000D01*
X12731714Y-13006476D01*
X12884095Y-13187428D02*
X12893619Y-13196952D01*
X12884095Y-13206476D01*
X12874571Y-13196952D01*
X12884095Y-13187428D01*
X12884095Y-13206476D01*
X13007905Y-13092190D02*
X12988857Y-13082667D01*
X12979333Y-13073143D01*
X12969809Y-13054095D01*
X12969809Y-13044571D01*
X12979333Y-13025524D01*
X12988857Y-13016000D01*
X13007905Y-13006476D01*
X13046000Y-13006476D01*
X13065048Y-13016000D01*
X13074571Y-13025524D01*
X13084095Y-13044571D01*
X13084095Y-13054095D01*
X13074571Y-13073143D01*
X13065048Y-13082667D01*
X13046000Y-13092190D01*
X13007905Y-13092190D01*
X12988857Y-13101714D01*
X12979333Y-13111238D01*
X12969809Y-13130286D01*
X12969809Y-13168381D01*
X12979333Y-13187428D01*
X12988857Y-13196952D01*
X13007905Y-13206476D01*
X13046000Y-13206476D01*
X13065048Y-13196952D01*
X13074571Y-13187428D01*
X13084095Y-13168381D01*
X13084095Y-13130286D01*
X13074571Y-13111238D01*
X13065048Y-13101714D01*
X13046000Y-13092190D01*
X13207905Y-13006476D02*
X13226952Y-13006476D01*
X13246000Y-13016000D01*
X13255524Y-13025524D01*
X13265048Y-13044571D01*
X13274571Y-13082667D01*
X13274571Y-13130286D01*
X13265048Y-13168381D01*
X13255524Y-13187428D01*
X13246000Y-13196952D01*
X13226952Y-13206476D01*
X13207905Y-13206476D01*
X13188857Y-13196952D01*
X13179333Y-13187428D01*
X13169809Y-13168381D01*
X13160286Y-13130286D01*
X13160286Y-13082667D01*
X13169809Y-13044571D01*
X13179333Y-13025524D01*
X13188857Y-13016000D01*
X13207905Y-13006476D01*
X13398381Y-13006476D02*
X13417428Y-13006476D01*
X13436476Y-13016000D01*
X13446000Y-13025524D01*
X13455524Y-13044571D01*
X13465048Y-13082667D01*
X13465048Y-13130286D01*
X13455524Y-13168381D01*
X13446000Y-13187428D01*
X13436476Y-13196952D01*
X13417428Y-13206476D01*
X13398381Y-13206476D01*
X13379333Y-13196952D01*
X13369809Y-13187428D01*
X13360286Y-13168381D01*
X13350762Y-13130286D01*
X13350762Y-13082667D01*
X13360286Y-13044571D01*
X13369809Y-13025524D01*
X13379333Y-13016000D01*
X13398381Y-13006476D01*
X13550762Y-13206476D02*
X13550762Y-13073143D01*
X13550762Y-13092190D02*
X13560286Y-13082667D01*
X13579333Y-13073143D01*
X13607905Y-13073143D01*
X13626952Y-13082667D01*
X13636476Y-13101714D01*
X13636476Y-13206476D01*
X13636476Y-13101714D02*
X13646000Y-13082667D01*
X13665048Y-13073143D01*
X13693619Y-13073143D01*
X13712667Y-13082667D01*
X13722190Y-13101714D01*
X13722190Y-13206476D01*
X13817428Y-13206476D02*
X13817428Y-13073143D01*
X13817428Y-13092190D02*
X13826952Y-13082667D01*
X13846000Y-13073143D01*
X13874571Y-13073143D01*
X13893619Y-13082667D01*
X13903143Y-13101714D01*
X13903143Y-13206476D01*
X13903143Y-13101714D02*
X13912667Y-13082667D01*
X13931714Y-13073143D01*
X13960286Y-13073143D01*
X13979333Y-13082667D01*
X13988857Y-13101714D01*
X13988857Y-13206476D01*
X14379333Y-12996952D02*
X14207905Y-13254095D01*
X14636476Y-13006476D02*
X14655524Y-13006476D01*
X14674571Y-13016000D01*
X14684095Y-13025524D01*
X14693619Y-13044571D01*
X14703143Y-13082667D01*
X14703143Y-13130286D01*
X14693619Y-13168381D01*
X14684095Y-13187428D01*
X14674571Y-13196952D01*
X14655524Y-13206476D01*
X14636476Y-13206476D01*
X14617428Y-13196952D01*
X14607905Y-13187428D01*
X14598381Y-13168381D01*
X14588857Y-13130286D01*
X14588857Y-13082667D01*
X14598381Y-13044571D01*
X14607905Y-13025524D01*
X14617428Y-13016000D01*
X14636476Y-13006476D01*
X14788857Y-13187428D02*
X14798381Y-13196952D01*
X14788857Y-13206476D01*
X14779333Y-13196952D01*
X14788857Y-13187428D01*
X14788857Y-13206476D01*
X14922190Y-13006476D02*
X14941238Y-13006476D01*
X14960286Y-13016000D01*
X14969809Y-13025524D01*
X14979333Y-13044571D01*
X14988857Y-13082667D01*
X14988857Y-13130286D01*
X14979333Y-13168381D01*
X14969809Y-13187428D01*
X14960286Y-13196952D01*
X14941238Y-13206476D01*
X14922190Y-13206476D01*
X14903143Y-13196952D01*
X14893619Y-13187428D01*
X14884095Y-13168381D01*
X14874571Y-13130286D01*
X14874571Y-13082667D01*
X14884095Y-13044571D01*
X14893619Y-13025524D01*
X14903143Y-13016000D01*
X14922190Y-13006476D01*
X15055524Y-13006476D02*
X15179333Y-13006476D01*
X15112667Y-13082667D01*
X15141238Y-13082667D01*
X15160286Y-13092190D01*
X15169809Y-13101714D01*
X15179333Y-13120762D01*
X15179333Y-13168381D01*
X15169809Y-13187428D01*
X15160286Y-13196952D01*
X15141238Y-13206476D01*
X15084095Y-13206476D01*
X15065048Y-13196952D01*
X15055524Y-13187428D01*
X15369809Y-13206476D02*
X15255524Y-13206476D01*
X15312667Y-13206476D02*
X15312667Y-13006476D01*
X15293619Y-13035048D01*
X15274571Y-13054095D01*
X15255524Y-13063619D01*
X15550762Y-13006476D02*
X15455524Y-13006476D01*
X15446000Y-13101714D01*
X15455524Y-13092190D01*
X15474571Y-13082667D01*
X15522190Y-13082667D01*
X15541238Y-13092190D01*
X15550762Y-13101714D01*
X15560286Y-13120762D01*
X15560286Y-13168381D01*
X15550762Y-13187428D01*
X15541238Y-13196952D01*
X15522190Y-13206476D01*
X15474571Y-13206476D01*
X15455524Y-13196952D01*
X15446000Y-13187428D01*
X15636476Y-13006476D02*
X15636476Y-13044571D01*
X15712667Y-13006476D02*
X15712667Y-13044571D01*
X16007905Y-13282667D02*
X15998381Y-13273143D01*
X15979333Y-13244571D01*
X15969809Y-13225524D01*
X15960286Y-13196952D01*
X15950762Y-13149333D01*
X15950762Y-13111238D01*
X15960286Y-13063619D01*
X15969809Y-13035048D01*
X15979333Y-13016000D01*
X15998381Y-12987428D01*
X16007905Y-12977905D01*
X16065048Y-13006476D02*
X16188857Y-13006476D01*
X16122190Y-13082667D01*
X16150762Y-13082667D01*
X16169809Y-13092190D01*
X16179333Y-13101714D01*
X16188857Y-13120762D01*
X16188857Y-13168381D01*
X16179333Y-13187428D01*
X16169809Y-13196952D01*
X16150762Y-13206476D01*
X16093619Y-13206476D01*
X16074571Y-13196952D01*
X16065048Y-13187428D01*
X16312667Y-13006476D02*
X16331714Y-13006476D01*
X16350762Y-13016000D01*
X16360286Y-13025524D01*
X16369809Y-13044571D01*
X16379333Y-13082667D01*
X16379333Y-13130286D01*
X16369809Y-13168381D01*
X16360286Y-13187428D01*
X16350762Y-13196952D01*
X16331714Y-13206476D01*
X16312667Y-13206476D01*
X16293619Y-13196952D01*
X16284095Y-13187428D01*
X16274571Y-13168381D01*
X16265048Y-13130286D01*
X16265048Y-13082667D01*
X16274571Y-13044571D01*
X16284095Y-13025524D01*
X16293619Y-13016000D01*
X16312667Y-13006476D01*
X16617428Y-13206476D02*
X16617428Y-13006476D01*
X16703143Y-13206476D02*
X16703143Y-13101714D01*
X16693619Y-13082667D01*
X16674571Y-13073143D01*
X16646000Y-13073143D01*
X16626952Y-13082667D01*
X16617428Y-13092190D01*
X16826952Y-13206476D02*
X16807905Y-13196952D01*
X16798381Y-13187428D01*
X16788857Y-13168381D01*
X16788857Y-13111238D01*
X16798381Y-13092190D01*
X16807905Y-13082667D01*
X16826952Y-13073143D01*
X16855524Y-13073143D01*
X16874571Y-13082667D01*
X16884095Y-13092190D01*
X16893619Y-13111238D01*
X16893619Y-13168381D01*
X16884095Y-13187428D01*
X16874571Y-13196952D01*
X16855524Y-13206476D01*
X16826952Y-13206476D01*
X17007905Y-13206476D02*
X16988857Y-13196952D01*
X16979333Y-13177905D01*
X16979333Y-13006476D01*
X17160286Y-13196952D02*
X17141238Y-13206476D01*
X17103143Y-13206476D01*
X17084095Y-13196952D01*
X17074571Y-13177905D01*
X17074571Y-13101714D01*
X17084095Y-13082667D01*
X17103143Y-13073143D01*
X17141238Y-13073143D01*
X17160286Y-13082667D01*
X17169810Y-13101714D01*
X17169810Y-13120762D01*
X17074571Y-13139809D01*
X17246000Y-13196952D02*
X17265048Y-13206476D01*
X17303143Y-13206476D01*
X17322190Y-13196952D01*
X17331714Y-13177905D01*
X17331714Y-13168381D01*
X17322190Y-13149333D01*
X17303143Y-13139809D01*
X17274571Y-13139809D01*
X17255524Y-13130286D01*
X17246000Y-13111238D01*
X17246000Y-13101714D01*
X17255524Y-13082667D01*
X17274571Y-13073143D01*
X17303143Y-13073143D01*
X17322190Y-13082667D01*
X17398381Y-13282667D02*
X17407905Y-13273143D01*
X17426952Y-13244571D01*
X17436476Y-13225524D01*
X17446000Y-13196952D01*
X17455524Y-13149333D01*
X17455524Y-13111238D01*
X17446000Y-13063619D01*
X17436476Y-13035048D01*
X17426952Y-13016000D01*
X17407905Y-12987428D01*
X17398381Y-12977905D01*
D14*
X12421356Y-13415356D02*
X12421356Y-13344644D01*
X12350644Y-13344644D01*
X12350644Y-13415356D01*
X12421356Y-13415356D01*
D10*
X12798381Y-13470476D02*
X12684095Y-13470476D01*
X12741238Y-13470476D02*
X12741238Y-13270476D01*
X12722190Y-13299048D01*
X12703143Y-13318095D01*
X12684095Y-13327619D01*
X12884095Y-13451428D02*
X12893619Y-13460952D01*
X12884095Y-13470476D01*
X12874571Y-13460952D01*
X12884095Y-13451428D01*
X12884095Y-13470476D01*
X13017428Y-13270476D02*
X13036476Y-13270476D01*
X13055524Y-13280000D01*
X13065048Y-13289524D01*
X13074571Y-13308571D01*
X13084095Y-13346667D01*
X13084095Y-13394286D01*
X13074571Y-13432381D01*
X13065048Y-13451428D01*
X13055524Y-13460952D01*
X13036476Y-13470476D01*
X13017428Y-13470476D01*
X12998381Y-13460952D01*
X12988857Y-13451428D01*
X12979333Y-13432381D01*
X12969809Y-13394286D01*
X12969809Y-13346667D01*
X12979333Y-13308571D01*
X12988857Y-13289524D01*
X12998381Y-13280000D01*
X13017428Y-13270476D01*
X13207905Y-13270476D02*
X13226952Y-13270476D01*
X13246000Y-13280000D01*
X13255524Y-13289524D01*
X13265048Y-13308571D01*
X13274571Y-13346667D01*
X13274571Y-13394286D01*
X13265048Y-13432381D01*
X13255524Y-13451428D01*
X13246000Y-13460952D01*
X13226952Y-13470476D01*
X13207905Y-13470476D01*
X13188857Y-13460952D01*
X13179333Y-13451428D01*
X13169809Y-13432381D01*
X13160286Y-13394286D01*
X13160286Y-13346667D01*
X13169809Y-13308571D01*
X13179333Y-13289524D01*
X13188857Y-13280000D01*
X13207905Y-13270476D01*
X13398381Y-13270476D02*
X13417428Y-13270476D01*
X13436476Y-13280000D01*
X13446000Y-13289524D01*
X13455524Y-13308571D01*
X13465048Y-13346667D01*
X13465048Y-13394286D01*
X13455524Y-13432381D01*
X13446000Y-13451428D01*
X13436476Y-13460952D01*
X13417428Y-13470476D01*
X13398381Y-13470476D01*
X13379333Y-13460952D01*
X13369809Y-13451428D01*
X13360286Y-13432381D01*
X13350762Y-13394286D01*
X13350762Y-13346667D01*
X13360286Y-13308571D01*
X13369809Y-13289524D01*
X13379333Y-13280000D01*
X13398381Y-13270476D01*
X13550762Y-13470476D02*
X13550762Y-13337143D01*
X13550762Y-13356190D02*
X13560286Y-13346667D01*
X13579333Y-13337143D01*
X13607905Y-13337143D01*
X13626952Y-13346667D01*
X13636476Y-13365714D01*
X13636476Y-13470476D01*
X13636476Y-13365714D02*
X13646000Y-13346667D01*
X13665048Y-13337143D01*
X13693619Y-13337143D01*
X13712667Y-13346667D01*
X13722190Y-13365714D01*
X13722190Y-13470476D01*
X13817428Y-13470476D02*
X13817428Y-13337143D01*
X13817428Y-13356190D02*
X13826952Y-13346667D01*
X13846000Y-13337143D01*
X13874571Y-13337143D01*
X13893619Y-13346667D01*
X13903143Y-13365714D01*
X13903143Y-13470476D01*
X13903143Y-13365714D02*
X13912667Y-13346667D01*
X13931714Y-13337143D01*
X13960286Y-13337143D01*
X13979333Y-13346667D01*
X13988857Y-13365714D01*
X13988857Y-13470476D01*
X14379333Y-13260952D02*
X14207905Y-13518095D01*
X14636476Y-13270476D02*
X14655524Y-13270476D01*
X14674571Y-13280000D01*
X14684095Y-13289524D01*
X14693619Y-13308571D01*
X14703143Y-13346667D01*
X14703143Y-13394286D01*
X14693619Y-13432381D01*
X14684095Y-13451428D01*
X14674571Y-13460952D01*
X14655524Y-13470476D01*
X14636476Y-13470476D01*
X14617428Y-13460952D01*
X14607905Y-13451428D01*
X14598381Y-13432381D01*
X14588857Y-13394286D01*
X14588857Y-13346667D01*
X14598381Y-13308571D01*
X14607905Y-13289524D01*
X14617428Y-13280000D01*
X14636476Y-13270476D01*
X14788857Y-13451428D02*
X14798381Y-13460952D01*
X14788857Y-13470476D01*
X14779333Y-13460952D01*
X14788857Y-13451428D01*
X14788857Y-13470476D01*
X14922190Y-13270476D02*
X14941238Y-13270476D01*
X14960286Y-13280000D01*
X14969809Y-13289524D01*
X14979333Y-13308571D01*
X14988857Y-13346667D01*
X14988857Y-13394286D01*
X14979333Y-13432381D01*
X14969809Y-13451428D01*
X14960286Y-13460952D01*
X14941238Y-13470476D01*
X14922190Y-13470476D01*
X14903143Y-13460952D01*
X14893619Y-13451428D01*
X14884095Y-13432381D01*
X14874571Y-13394286D01*
X14874571Y-13346667D01*
X14884095Y-13308571D01*
X14893619Y-13289524D01*
X14903143Y-13280000D01*
X14922190Y-13270476D01*
X15055524Y-13270476D02*
X15179333Y-13270476D01*
X15112667Y-13346667D01*
X15141238Y-13346667D01*
X15160286Y-13356190D01*
X15169809Y-13365714D01*
X15179333Y-13384762D01*
X15179333Y-13432381D01*
X15169809Y-13451428D01*
X15160286Y-13460952D01*
X15141238Y-13470476D01*
X15084095Y-13470476D01*
X15065048Y-13460952D01*
X15055524Y-13451428D01*
X15274571Y-13470476D02*
X15312667Y-13470476D01*
X15331714Y-13460952D01*
X15341238Y-13451428D01*
X15360286Y-13422857D01*
X15369809Y-13384762D01*
X15369809Y-13308571D01*
X15360286Y-13289524D01*
X15350762Y-13280000D01*
X15331714Y-13270476D01*
X15293619Y-13270476D01*
X15274571Y-13280000D01*
X15265048Y-13289524D01*
X15255524Y-13308571D01*
X15255524Y-13356190D01*
X15265048Y-13375238D01*
X15274571Y-13384762D01*
X15293619Y-13394286D01*
X15331714Y-13394286D01*
X15350762Y-13384762D01*
X15360286Y-13375238D01*
X15369809Y-13356190D01*
X15541238Y-13337143D02*
X15541238Y-13470476D01*
X15493619Y-13260952D02*
X15446000Y-13403809D01*
X15569809Y-13403809D01*
X15636476Y-13270476D02*
X15636476Y-13308571D01*
X15712667Y-13270476D02*
X15712667Y-13308571D01*
X16007905Y-13546667D02*
X15998381Y-13537143D01*
X15979333Y-13508571D01*
X15969809Y-13489524D01*
X15960286Y-13460952D01*
X15950762Y-13413333D01*
X15950762Y-13375238D01*
X15960286Y-13327619D01*
X15969809Y-13299048D01*
X15979333Y-13280000D01*
X15998381Y-13251428D01*
X16007905Y-13241905D01*
X16188857Y-13470476D02*
X16074571Y-13470476D01*
X16131714Y-13470476D02*
X16131714Y-13270476D01*
X16112667Y-13299048D01*
X16093619Y-13318095D01*
X16074571Y-13327619D01*
X16360286Y-13337143D02*
X16360286Y-13470476D01*
X16312667Y-13260952D02*
X16265048Y-13403809D01*
X16388857Y-13403809D01*
X16617428Y-13470476D02*
X16617428Y-13270476D01*
X16703143Y-13470476D02*
X16703143Y-13365714D01*
X16693619Y-13346667D01*
X16674571Y-13337143D01*
X16646000Y-13337143D01*
X16626952Y-13346667D01*
X16617428Y-13356190D01*
X16826952Y-13470476D02*
X16807905Y-13460952D01*
X16798381Y-13451428D01*
X16788857Y-13432381D01*
X16788857Y-13375238D01*
X16798381Y-13356190D01*
X16807905Y-13346667D01*
X16826952Y-13337143D01*
X16855524Y-13337143D01*
X16874571Y-13346667D01*
X16884095Y-13356190D01*
X16893619Y-13375238D01*
X16893619Y-13432381D01*
X16884095Y-13451428D01*
X16874571Y-13460952D01*
X16855524Y-13470476D01*
X16826952Y-13470476D01*
X17007905Y-13470476D02*
X16988857Y-13460952D01*
X16979333Y-13441905D01*
X16979333Y-13270476D01*
X17160286Y-13460952D02*
X17141238Y-13470476D01*
X17103143Y-13470476D01*
X17084095Y-13460952D01*
X17074571Y-13441905D01*
X17074571Y-13365714D01*
X17084095Y-13346667D01*
X17103143Y-13337143D01*
X17141238Y-13337143D01*
X17160286Y-13346667D01*
X17169810Y-13365714D01*
X17169810Y-13384762D01*
X17074571Y-13403809D01*
X17246000Y-13460952D02*
X17265048Y-13470476D01*
X17303143Y-13470476D01*
X17322190Y-13460952D01*
X17331714Y-13441905D01*
X17331714Y-13432381D01*
X17322190Y-13413333D01*
X17303143Y-13403809D01*
X17274571Y-13403809D01*
X17255524Y-13394286D01*
X17246000Y-13375238D01*
X17246000Y-13365714D01*
X17255524Y-13346667D01*
X17274571Y-13337143D01*
X17303143Y-13337143D01*
X17322190Y-13346667D01*
X17398381Y-13546667D02*
X17407905Y-13537143D01*
X17426952Y-13508571D01*
X17436476Y-13489524D01*
X17446000Y-13460952D01*
X17455524Y-13413333D01*
X17455524Y-13375238D01*
X17446000Y-13327619D01*
X17436476Y-13299048D01*
X17426952Y-13280000D01*
X17407905Y-13251428D01*
X17398381Y-13241905D01*
D15*
X12356000Y-13724000D02*
X12436000Y-13644000D01*
X12356000Y-13564000D01*
X12276000Y-13644000D01*
X12356000Y-13724000D01*
D10*
X12798381Y-13734476D02*
X12684095Y-13734476D01*
X12741238Y-13734476D02*
X12741238Y-13534476D01*
X12722190Y-13563048D01*
X12703143Y-13582095D01*
X12684095Y-13591619D01*
X12884095Y-13715428D02*
X12893619Y-13724952D01*
X12884095Y-13734476D01*
X12874571Y-13724952D01*
X12884095Y-13715428D01*
X12884095Y-13734476D01*
X13065048Y-13534476D02*
X13026952Y-13534476D01*
X13007905Y-13544000D01*
X12998381Y-13553524D01*
X12979333Y-13582095D01*
X12969809Y-13620190D01*
X12969809Y-13696381D01*
X12979333Y-13715428D01*
X12988857Y-13724952D01*
X13007905Y-13734476D01*
X13046000Y-13734476D01*
X13065048Y-13724952D01*
X13074571Y-13715428D01*
X13084095Y-13696381D01*
X13084095Y-13648762D01*
X13074571Y-13629714D01*
X13065048Y-13620190D01*
X13046000Y-13610667D01*
X13007905Y-13610667D01*
X12988857Y-13620190D01*
X12979333Y-13629714D01*
X12969809Y-13648762D01*
X13207905Y-13534476D02*
X13226952Y-13534476D01*
X13246000Y-13544000D01*
X13255524Y-13553524D01*
X13265048Y-13572571D01*
X13274571Y-13610667D01*
X13274571Y-13658286D01*
X13265048Y-13696381D01*
X13255524Y-13715428D01*
X13246000Y-13724952D01*
X13226952Y-13734476D01*
X13207905Y-13734476D01*
X13188857Y-13724952D01*
X13179333Y-13715428D01*
X13169809Y-13696381D01*
X13160286Y-13658286D01*
X13160286Y-13610667D01*
X13169809Y-13572571D01*
X13179333Y-13553524D01*
X13188857Y-13544000D01*
X13207905Y-13534476D01*
X13398381Y-13534476D02*
X13417428Y-13534476D01*
X13436476Y-13544000D01*
X13446000Y-13553524D01*
X13455524Y-13572571D01*
X13465048Y-13610667D01*
X13465048Y-13658286D01*
X13455524Y-13696381D01*
X13446000Y-13715428D01*
X13436476Y-13724952D01*
X13417428Y-13734476D01*
X13398381Y-13734476D01*
X13379333Y-13724952D01*
X13369809Y-13715428D01*
X13360286Y-13696381D01*
X13350762Y-13658286D01*
X13350762Y-13610667D01*
X13360286Y-13572571D01*
X13369809Y-13553524D01*
X13379333Y-13544000D01*
X13398381Y-13534476D01*
X13550762Y-13734476D02*
X13550762Y-13601143D01*
X13550762Y-13620190D02*
X13560286Y-13610667D01*
X13579333Y-13601143D01*
X13607905Y-13601143D01*
X13626952Y-13610667D01*
X13636476Y-13629714D01*
X13636476Y-13734476D01*
X13636476Y-13629714D02*
X13646000Y-13610667D01*
X13665048Y-13601143D01*
X13693619Y-13601143D01*
X13712667Y-13610667D01*
X13722190Y-13629714D01*
X13722190Y-13734476D01*
X13817428Y-13734476D02*
X13817428Y-13601143D01*
X13817428Y-13620190D02*
X13826952Y-13610667D01*
X13846000Y-13601143D01*
X13874571Y-13601143D01*
X13893619Y-13610667D01*
X13903143Y-13629714D01*
X13903143Y-13734476D01*
X13903143Y-13629714D02*
X13912667Y-13610667D01*
X13931714Y-13601143D01*
X13960286Y-13601143D01*
X13979333Y-13610667D01*
X13988857Y-13629714D01*
X13988857Y-13734476D01*
X14379333Y-13524952D02*
X14207905Y-13782095D01*
X14636476Y-13534476D02*
X14655524Y-13534476D01*
X14674571Y-13544000D01*
X14684095Y-13553524D01*
X14693619Y-13572571D01*
X14703143Y-13610667D01*
X14703143Y-13658286D01*
X14693619Y-13696381D01*
X14684095Y-13715428D01*
X14674571Y-13724952D01*
X14655524Y-13734476D01*
X14636476Y-13734476D01*
X14617428Y-13724952D01*
X14607905Y-13715428D01*
X14598381Y-13696381D01*
X14588857Y-13658286D01*
X14588857Y-13610667D01*
X14598381Y-13572571D01*
X14607905Y-13553524D01*
X14617428Y-13544000D01*
X14636476Y-13534476D01*
X14788857Y-13715428D02*
X14798381Y-13724952D01*
X14788857Y-13734476D01*
X14779333Y-13724952D01*
X14788857Y-13715428D01*
X14788857Y-13734476D01*
X14922190Y-13534476D02*
X14941238Y-13534476D01*
X14960286Y-13544000D01*
X14969809Y-13553524D01*
X14979333Y-13572571D01*
X14988857Y-13610667D01*
X14988857Y-13658286D01*
X14979333Y-13696381D01*
X14969809Y-13715428D01*
X14960286Y-13724952D01*
X14941238Y-13734476D01*
X14922190Y-13734476D01*
X14903143Y-13724952D01*
X14893619Y-13715428D01*
X14884095Y-13696381D01*
X14874571Y-13658286D01*
X14874571Y-13610667D01*
X14884095Y-13572571D01*
X14893619Y-13553524D01*
X14903143Y-13544000D01*
X14922190Y-13534476D01*
X15160286Y-13534476D02*
X15122190Y-13534476D01*
X15103143Y-13544000D01*
X15093619Y-13553524D01*
X15074571Y-13582095D01*
X15065048Y-13620190D01*
X15065048Y-13696381D01*
X15074571Y-13715428D01*
X15084095Y-13724952D01*
X15103143Y-13734476D01*
X15141238Y-13734476D01*
X15160286Y-13724952D01*
X15169809Y-13715428D01*
X15179333Y-13696381D01*
X15179333Y-13648762D01*
X15169809Y-13629714D01*
X15160286Y-13620190D01*
X15141238Y-13610667D01*
X15103143Y-13610667D01*
X15084095Y-13620190D01*
X15074571Y-13629714D01*
X15065048Y-13648762D01*
X15246000Y-13534476D02*
X15369809Y-13534476D01*
X15303143Y-13610667D01*
X15331714Y-13610667D01*
X15350762Y-13620190D01*
X15360286Y-13629714D01*
X15369809Y-13648762D01*
X15369809Y-13696381D01*
X15360286Y-13715428D01*
X15350762Y-13724952D01*
X15331714Y-13734476D01*
X15274571Y-13734476D01*
X15255524Y-13724952D01*
X15246000Y-13715428D01*
X15493619Y-13534476D02*
X15512667Y-13534476D01*
X15531714Y-13544000D01*
X15541238Y-13553524D01*
X15550762Y-13572571D01*
X15560286Y-13610667D01*
X15560286Y-13658286D01*
X15550762Y-13696381D01*
X15541238Y-13715428D01*
X15531714Y-13724952D01*
X15512667Y-13734476D01*
X15493619Y-13734476D01*
X15474571Y-13724952D01*
X15465048Y-13715428D01*
X15455524Y-13696381D01*
X15446000Y-13658286D01*
X15446000Y-13610667D01*
X15455524Y-13572571D01*
X15465048Y-13553524D01*
X15474571Y-13544000D01*
X15493619Y-13534476D01*
X15636476Y-13534476D02*
X15636476Y-13572571D01*
X15712667Y-13534476D02*
X15712667Y-13572571D01*
X16007905Y-13810667D02*
X15998381Y-13801143D01*
X15979333Y-13772571D01*
X15969809Y-13753524D01*
X15960286Y-13724952D01*
X15950762Y-13677333D01*
X15950762Y-13639238D01*
X15960286Y-13591619D01*
X15969809Y-13563048D01*
X15979333Y-13544000D01*
X15998381Y-13515428D01*
X16007905Y-13505905D01*
X16074571Y-13553524D02*
X16084095Y-13544000D01*
X16103143Y-13534476D01*
X16150762Y-13534476D01*
X16169809Y-13544000D01*
X16179333Y-13553524D01*
X16188857Y-13572571D01*
X16188857Y-13591619D01*
X16179333Y-13620190D01*
X16065048Y-13734476D01*
X16188857Y-13734476D01*
X16426952Y-13734476D02*
X16426952Y-13534476D01*
X16512667Y-13734476D02*
X16512667Y-13629714D01*
X16503143Y-13610667D01*
X16484095Y-13601143D01*
X16455524Y-13601143D01*
X16436476Y-13610667D01*
X16426952Y-13620190D01*
X16636476Y-13734476D02*
X16617428Y-13724952D01*
X16607905Y-13715428D01*
X16598381Y-13696381D01*
X16598381Y-13639238D01*
X16607905Y-13620190D01*
X16617428Y-13610667D01*
X16636476Y-13601143D01*
X16665048Y-13601143D01*
X16684095Y-13610667D01*
X16693619Y-13620190D01*
X16703143Y-13639238D01*
X16703143Y-13696381D01*
X16693619Y-13715428D01*
X16684095Y-13724952D01*
X16665048Y-13734476D01*
X16636476Y-13734476D01*
X16817429Y-13734476D02*
X16798381Y-13724952D01*
X16788857Y-13705905D01*
X16788857Y-13534476D01*
X16969810Y-13724952D02*
X16950762Y-13734476D01*
X16912667Y-13734476D01*
X16893619Y-13724952D01*
X16884095Y-13705905D01*
X16884095Y-13629714D01*
X16893619Y-13610667D01*
X16912667Y-13601143D01*
X16950762Y-13601143D01*
X16969810Y-13610667D01*
X16979333Y-13629714D01*
X16979333Y-13648762D01*
X16884095Y-13667809D01*
X17055524Y-13724952D02*
X17074571Y-13734476D01*
X17112667Y-13734476D01*
X17131714Y-13724952D01*
X17141238Y-13705905D01*
X17141238Y-13696381D01*
X17131714Y-13677333D01*
X17112667Y-13667809D01*
X17084095Y-13667809D01*
X17065048Y-13658286D01*
X17055524Y-13639238D01*
X17055524Y-13629714D01*
X17065048Y-13610667D01*
X17084095Y-13601143D01*
X17112667Y-13601143D01*
X17131714Y-13610667D01*
X17207905Y-13810667D02*
X17217429Y-13801143D01*
X17236476Y-13772571D01*
X17246000Y-13753524D01*
X17255524Y-13724952D01*
X17265048Y-13677333D01*
X17265048Y-13639238D01*
X17255524Y-13591619D01*
X17246000Y-13563048D01*
X17236476Y-13544000D01*
X17217429Y-13515428D01*
X17207905Y-13505905D01*
M02*
