%TF.GenerationSoftware,KiCad,Pcbnew,(6.0.9)*%
%TF.CreationDate,2024-07-08T19:13:13-04:00*%
%TF.ProjectId,PantryLED,50616e74-7279-44c4-9544-2e6b69636164,rev?*%
%TF.SameCoordinates,Original*%
%TF.FileFunction,Copper,L2,Bot*%
%TF.FilePolarity,Positive*%
%FSLAX46Y46*%
G04 Gerber Fmt 4.6, Leading zero omitted, Abs format (unit mm)*
G04 Created by KiCad (PCBNEW (6.0.9)) date 2024-07-08 19:13:13*
%MOMM*%
%LPD*%
G01*
G04 APERTURE LIST*
%TA.AperFunction,ComponentPad*%
%ADD10R,1.700000X1.700000*%
%TD*%
%TA.AperFunction,ComponentPad*%
%ADD11O,1.700000X1.700000*%
%TD*%
%TA.AperFunction,ComponentPad*%
%ADD12R,3.200000X3.200000*%
%TD*%
%TA.AperFunction,ComponentPad*%
%ADD13O,3.200000X3.200000*%
%TD*%
%TA.AperFunction,ComponentPad*%
%ADD14C,1.600000*%
%TD*%
%TA.AperFunction,ComponentPad*%
%ADD15O,1.600000X1.600000*%
%TD*%
%TA.AperFunction,ComponentPad*%
%ADD16R,1.300000X1.300000*%
%TD*%
%TA.AperFunction,ComponentPad*%
%ADD17C,1.300000*%
%TD*%
%TA.AperFunction,ComponentPad*%
%ADD18R,1.500000X1.050000*%
%TD*%
%TA.AperFunction,ComponentPad*%
%ADD19O,1.500000X1.050000*%
%TD*%
%TA.AperFunction,ComponentPad*%
%ADD20C,1.200000*%
%TD*%
%TA.AperFunction,ComponentPad*%
%ADD21R,1.600000X1.600000*%
%TD*%
G04 APERTURE END LIST*
D10*
%TO.P,J1,1,Pin_1*%
%TO.N,GND*%
X152380000Y-106705000D03*
D11*
%TO.P,J1,2,Pin_2*%
%TO.N,+3.3V*%
X149840000Y-106705000D03*
%TO.P,J1,3,Pin_3*%
%TO.N,SBWTDIO*%
X147300000Y-106705000D03*
%TO.P,J1,4,Pin_4*%
%TO.N,SBWTCK*%
X144760000Y-106705000D03*
%TO.P,J1,5,Pin_5*%
%TO.N,Net-(U3-Pad3)*%
X142220000Y-106705000D03*
%TO.P,J1,6,Pin_6*%
%TO.N,GND*%
X139680000Y-106705000D03*
%TO.P,J1,7,Pin_7*%
%TO.N,+12V*%
X137140000Y-106705000D03*
%TD*%
D12*
%TO.P,D1,1,K*%
%TO.N,Net-(D1-Pad1)*%
X149860000Y-63500000D03*
D13*
%TO.P,D1,2,A*%
%TO.N,GND*%
X149860000Y-78740000D03*
%TD*%
D10*
%TO.P,D2,1,K*%
%TO.N,+12V*%
X133340000Y-104135000D03*
D11*
%TO.P,D2,2,A*%
%TO.N,Net-(D2-Pad2)*%
X133340000Y-101595000D03*
%TD*%
D10*
%TO.P,U1,1,VIN*%
%TO.N,+12V*%
X147340000Y-57740000D03*
D11*
%TO.P,U1,2,OUT*%
%TO.N,Net-(D1-Pad1)*%
X144800000Y-57740000D03*
%TO.P,U1,3,GND*%
%TO.N,GND*%
X142260000Y-57740000D03*
%TO.P,U1,4,FB*%
%TO.N,+5V*%
X139720000Y-57740000D03*
%TO.P,U1,5,~{ON}/OFF*%
%TO.N,GND*%
X137180000Y-57740000D03*
%TD*%
D14*
%TO.P,R2,1*%
%TO.N,+3.3V*%
X149850000Y-82545000D03*
D15*
%TO.P,R2,2*%
%TO.N,SBWTDIO*%
X149850000Y-92705000D03*
%TD*%
D14*
%TO.P,R1,1*%
%TO.N,Net-(R1-Pad1)*%
X133340000Y-91435000D03*
D15*
%TO.P,R1,2*%
%TO.N,GND*%
X133340000Y-81275000D03*
%TD*%
D16*
%TO.P,U2,1,S*%
%TO.N,GND*%
X132070000Y-95245000D03*
D17*
%TO.P,U2,2,G*%
%TO.N,Net-(R1-Pad1)*%
X133340000Y-96515000D03*
%TO.P,U2,3,D*%
%TO.N,Net-(D2-Pad2)*%
X132070000Y-97785000D03*
%TD*%
D14*
%TO.P,C2,1*%
%TO.N,+5V*%
X134620000Y-63620000D03*
%TO.P,C2,2*%
%TO.N,GND*%
X132120000Y-63620000D03*
%TD*%
D18*
%TO.P,L1,1,1*%
%TO.N,Net-(D1-Pad1)*%
X142240000Y-63500000D03*
D19*
%TO.P,L1,2,2*%
%TO.N,+5V*%
X142240000Y-66040000D03*
%TD*%
D20*
%TO.P,C1,1*%
%TO.N,+12V*%
X151130000Y-57150000D03*
%TO.P,C1,2*%
%TO.N,GND*%
X153130000Y-57150000D03*
%TD*%
D14*
%TO.P,R3,1*%
%TO.N,+5V*%
X142240000Y-71120000D03*
D15*
%TO.P,R3,2*%
%TO.N,+3.3V*%
X132080000Y-71120000D03*
%TD*%
D14*
%TO.P,R4,1*%
%TO.N,+3.3V*%
X132080000Y-74930000D03*
D15*
%TO.P,R4,2*%
%TO.N,GND*%
X142240000Y-74930000D03*
%TD*%
D21*
%TO.P,U3,1,DVCC*%
%TO.N,+3.3V*%
X137160000Y-78740000D03*
D15*
%TO.P,U3,2,TA0CLK/ACLK/P1.0*%
%TO.N,unconnected-(U3-Pad2)*%
X137160000Y-81280000D03*
%TO.P,U3,3,TA0.0/P1.1*%
%TO.N,Net-(U3-Pad3)*%
X137160000Y-83820000D03*
%TO.P,U3,4,TA0.1/P1.2*%
%TO.N,unconnected-(U3-Pad4)*%
X137160000Y-86360000D03*
%TO.P,U3,5,P1.3*%
%TO.N,unconnected-(U3-Pad5)*%
X137160000Y-88900000D03*
%TO.P,U3,6,SMCLK/TCK/TA0.2/P1.4*%
%TO.N,unconnected-(U3-Pad6)*%
X137160000Y-91440000D03*
%TO.P,U3,7,TMS/TA0.0/P1.5*%
%TO.N,unconnected-(U3-Pad7)*%
X137160000Y-93980000D03*
%TO.P,U3,8,P2.0*%
%TO.N,unconnected-(U3-Pad8)*%
X137160000Y-96520000D03*
%TO.P,U3,9,P2.1*%
%TO.N,unconnected-(U3-Pad9)*%
X137160000Y-99060000D03*
%TO.P,U3,10,P2.2*%
%TO.N,Net-(R1-Pad1)*%
X137160000Y-101600000D03*
%TO.P,U3,11,P2.3*%
%TO.N,unconnected-(U3-Pad11)*%
X144780000Y-101600000D03*
%TO.P,U3,12,P2.4*%
%TO.N,unconnected-(U3-Pad12)*%
X144780000Y-99060000D03*
%TO.P,U3,13,P2.5*%
%TO.N,unconnected-(U3-Pad13)*%
X144780000Y-96520000D03*
%TO.P,U3,14,SDO/SCL/TDI/TCLK/TA0.1/P1.6*%
%TO.N,unconnected-(U3-Pad14)*%
X144780000Y-93980000D03*
%TO.P,U3,15,SDI/SDA/TDO/TDI/P1.7*%
%TO.N,unconnected-(U3-Pad15)*%
X144780000Y-91440000D03*
%TO.P,U3,16,~{RST}/NMI/SBWTDIO*%
%TO.N,SBWTDIO*%
X144780000Y-88900000D03*
%TO.P,U3,17,SBWTCK/TEST*%
%TO.N,SBWTCK*%
X144780000Y-86360000D03*
%TO.P,U3,18,P2.7/XOUT*%
%TO.N,unconnected-(U3-Pad18)*%
X144780000Y-83820000D03*
%TO.P,U3,19,P2.6/XIN/TA0.1*%
%TO.N,unconnected-(U3-Pad19)*%
X144780000Y-81280000D03*
%TO.P,U3,20,DVSS*%
%TO.N,GND*%
X144780000Y-78740000D03*
%TD*%
%TA.AperFunction,Conductor*%
%TO.N,+3.3V*%
G36*
X154690871Y-44978502D02*
G01*
X154723550Y-45008900D01*
X158216300Y-49665899D01*
X158241171Y-49732397D01*
X158241500Y-49741499D01*
X158241500Y-114088500D01*
X158221498Y-114156621D01*
X158216300Y-114164100D01*
X154723550Y-118821100D01*
X154666676Y-118863595D01*
X154622750Y-118871500D01*
X128587250Y-118871500D01*
X128519129Y-118851498D01*
X128486450Y-118821100D01*
X124993700Y-114164101D01*
X124968829Y-114097603D01*
X124968500Y-114088501D01*
X124968500Y-113162703D01*
X127430743Y-113162703D01*
X127468268Y-113447734D01*
X127544129Y-113725036D01*
X127656923Y-113989476D01*
X127804561Y-114236161D01*
X127984313Y-114460528D01*
X128001397Y-114476740D01*
X128154224Y-114621767D01*
X128192851Y-114658423D01*
X128426317Y-114826186D01*
X128430112Y-114828195D01*
X128430113Y-114828196D01*
X128451869Y-114839715D01*
X128680392Y-114960712D01*
X128950373Y-115059511D01*
X129231264Y-115120755D01*
X129259841Y-115123004D01*
X129454282Y-115138307D01*
X129454291Y-115138307D01*
X129456739Y-115138500D01*
X129612271Y-115138500D01*
X129614407Y-115138354D01*
X129614418Y-115138354D01*
X129822548Y-115124165D01*
X129822554Y-115124164D01*
X129826825Y-115123873D01*
X129831020Y-115123004D01*
X129831022Y-115123004D01*
X129967584Y-115094723D01*
X130108342Y-115065574D01*
X130379343Y-114969607D01*
X130634812Y-114837750D01*
X130638313Y-114835289D01*
X130638317Y-114835287D01*
X130752418Y-114755095D01*
X130870023Y-114672441D01*
X131080622Y-114476740D01*
X131262713Y-114254268D01*
X131412927Y-114009142D01*
X131528483Y-113745898D01*
X131607244Y-113469406D01*
X131647751Y-113184784D01*
X131647845Y-113166951D01*
X131647867Y-113162703D01*
X151560743Y-113162703D01*
X151598268Y-113447734D01*
X151674129Y-113725036D01*
X151786923Y-113989476D01*
X151934561Y-114236161D01*
X152114313Y-114460528D01*
X152131397Y-114476740D01*
X152284224Y-114621767D01*
X152322851Y-114658423D01*
X152556317Y-114826186D01*
X152560112Y-114828195D01*
X152560113Y-114828196D01*
X152581869Y-114839715D01*
X152810392Y-114960712D01*
X153080373Y-115059511D01*
X153361264Y-115120755D01*
X153389841Y-115123004D01*
X153584282Y-115138307D01*
X153584291Y-115138307D01*
X153586739Y-115138500D01*
X153742271Y-115138500D01*
X153744407Y-115138354D01*
X153744418Y-115138354D01*
X153952548Y-115124165D01*
X153952554Y-115124164D01*
X153956825Y-115123873D01*
X153961020Y-115123004D01*
X153961022Y-115123004D01*
X154097584Y-115094723D01*
X154238342Y-115065574D01*
X154509343Y-114969607D01*
X154764812Y-114837750D01*
X154768313Y-114835289D01*
X154768317Y-114835287D01*
X154882418Y-114755095D01*
X155000023Y-114672441D01*
X155210622Y-114476740D01*
X155392713Y-114254268D01*
X155542927Y-114009142D01*
X155658483Y-113745898D01*
X155737244Y-113469406D01*
X155777751Y-113184784D01*
X155777845Y-113166951D01*
X155779235Y-112901583D01*
X155779235Y-112901576D01*
X155779257Y-112897297D01*
X155741732Y-112612266D01*
X155665871Y-112334964D01*
X155553077Y-112070524D01*
X155405439Y-111823839D01*
X155225687Y-111599472D01*
X155017149Y-111401577D01*
X154783683Y-111233814D01*
X154761843Y-111222250D01*
X154738654Y-111209972D01*
X154529608Y-111099288D01*
X154259627Y-111000489D01*
X153978736Y-110939245D01*
X153947685Y-110936801D01*
X153755718Y-110921693D01*
X153755709Y-110921693D01*
X153753261Y-110921500D01*
X153597729Y-110921500D01*
X153595593Y-110921646D01*
X153595582Y-110921646D01*
X153387452Y-110935835D01*
X153387446Y-110935836D01*
X153383175Y-110936127D01*
X153378980Y-110936996D01*
X153378978Y-110936996D01*
X153242417Y-110965276D01*
X153101658Y-110994426D01*
X152830657Y-111090393D01*
X152575188Y-111222250D01*
X152571687Y-111224711D01*
X152571683Y-111224713D01*
X152561594Y-111231804D01*
X152339977Y-111387559D01*
X152129378Y-111583260D01*
X151947287Y-111805732D01*
X151797073Y-112050858D01*
X151681517Y-112314102D01*
X151602756Y-112590594D01*
X151562249Y-112875216D01*
X151562227Y-112879505D01*
X151562226Y-112879512D01*
X151560765Y-113158417D01*
X151560743Y-113162703D01*
X131647867Y-113162703D01*
X131649235Y-112901583D01*
X131649235Y-112901576D01*
X131649257Y-112897297D01*
X131611732Y-112612266D01*
X131535871Y-112334964D01*
X131423077Y-112070524D01*
X131275439Y-111823839D01*
X131095687Y-111599472D01*
X130887149Y-111401577D01*
X130653683Y-111233814D01*
X130631843Y-111222250D01*
X130608654Y-111209972D01*
X130399608Y-111099288D01*
X130129627Y-111000489D01*
X129848736Y-110939245D01*
X129817685Y-110936801D01*
X129625718Y-110921693D01*
X129625709Y-110921693D01*
X129623261Y-110921500D01*
X129467729Y-110921500D01*
X129465593Y-110921646D01*
X129465582Y-110921646D01*
X129257452Y-110935835D01*
X129257446Y-110935836D01*
X129253175Y-110936127D01*
X129248980Y-110936996D01*
X129248978Y-110936996D01*
X129112417Y-110965276D01*
X128971658Y-110994426D01*
X128700657Y-111090393D01*
X128445188Y-111222250D01*
X128441687Y-111224711D01*
X128441683Y-111224713D01*
X128431594Y-111231804D01*
X128209977Y-111387559D01*
X127999378Y-111583260D01*
X127817287Y-111805732D01*
X127667073Y-112050858D01*
X127551517Y-112314102D01*
X127472756Y-112590594D01*
X127432249Y-112875216D01*
X127432227Y-112879505D01*
X127432226Y-112879512D01*
X127430765Y-113158417D01*
X127430743Y-113162703D01*
X124968500Y-113162703D01*
X124968500Y-106671695D01*
X135777251Y-106671695D01*
X135790110Y-106894715D01*
X135791247Y-106899761D01*
X135791248Y-106899767D01*
X135812275Y-106993069D01*
X135839222Y-107112639D01*
X135923266Y-107319616D01*
X135974942Y-107403944D01*
X136037291Y-107505688D01*
X136039987Y-107510088D01*
X136186250Y-107678938D01*
X136358126Y-107821632D01*
X136551000Y-107934338D01*
X136759692Y-108014030D01*
X136764760Y-108015061D01*
X136764763Y-108015062D01*
X136859862Y-108034410D01*
X136978597Y-108058567D01*
X136983772Y-108058757D01*
X136983774Y-108058757D01*
X137196673Y-108066564D01*
X137196677Y-108066564D01*
X137201837Y-108066753D01*
X137206957Y-108066097D01*
X137206959Y-108066097D01*
X137418288Y-108039025D01*
X137418289Y-108039025D01*
X137423416Y-108038368D01*
X137428366Y-108036883D01*
X137632429Y-107975661D01*
X137632434Y-107975659D01*
X137637384Y-107974174D01*
X137837994Y-107875896D01*
X138019860Y-107746173D01*
X138178096Y-107588489D01*
X138237594Y-107505689D01*
X138308453Y-107407077D01*
X138309776Y-107408028D01*
X138356645Y-107364857D01*
X138426580Y-107352625D01*
X138492026Y-107380144D01*
X138519875Y-107411994D01*
X138579987Y-107510088D01*
X138726250Y-107678938D01*
X138898126Y-107821632D01*
X139091000Y-107934338D01*
X139299692Y-108014030D01*
X139304760Y-108015061D01*
X139304763Y-108015062D01*
X139399862Y-108034410D01*
X139518597Y-108058567D01*
X139523772Y-108058757D01*
X139523774Y-108058757D01*
X139736673Y-108066564D01*
X139736677Y-108066564D01*
X139741837Y-108066753D01*
X139746957Y-108066097D01*
X139746959Y-108066097D01*
X139958288Y-108039025D01*
X139958289Y-108039025D01*
X139963416Y-108038368D01*
X139968366Y-108036883D01*
X140172429Y-107975661D01*
X140172434Y-107975659D01*
X140177384Y-107974174D01*
X140377994Y-107875896D01*
X140559860Y-107746173D01*
X140718096Y-107588489D01*
X140777594Y-107505689D01*
X140848453Y-107407077D01*
X140849776Y-107408028D01*
X140896645Y-107364857D01*
X140966580Y-107352625D01*
X141032026Y-107380144D01*
X141059875Y-107411994D01*
X141119987Y-107510088D01*
X141266250Y-107678938D01*
X141438126Y-107821632D01*
X141631000Y-107934338D01*
X141839692Y-108014030D01*
X141844760Y-108015061D01*
X141844763Y-108015062D01*
X141939862Y-108034410D01*
X142058597Y-108058567D01*
X142063772Y-108058757D01*
X142063774Y-108058757D01*
X142276673Y-108066564D01*
X142276677Y-108066564D01*
X142281837Y-108066753D01*
X142286957Y-108066097D01*
X142286959Y-108066097D01*
X142498288Y-108039025D01*
X142498289Y-108039025D01*
X142503416Y-108038368D01*
X142508366Y-108036883D01*
X142712429Y-107975661D01*
X142712434Y-107975659D01*
X142717384Y-107974174D01*
X142917994Y-107875896D01*
X143099860Y-107746173D01*
X143258096Y-107588489D01*
X143317594Y-107505689D01*
X143388453Y-107407077D01*
X143389776Y-107408028D01*
X143436645Y-107364857D01*
X143506580Y-107352625D01*
X143572026Y-107380144D01*
X143599875Y-107411994D01*
X143659987Y-107510088D01*
X143806250Y-107678938D01*
X143978126Y-107821632D01*
X144171000Y-107934338D01*
X144379692Y-108014030D01*
X144384760Y-108015061D01*
X144384763Y-108015062D01*
X144479862Y-108034410D01*
X144598597Y-108058567D01*
X144603772Y-108058757D01*
X144603774Y-108058757D01*
X144816673Y-108066564D01*
X144816677Y-108066564D01*
X144821837Y-108066753D01*
X144826957Y-108066097D01*
X144826959Y-108066097D01*
X145038288Y-108039025D01*
X145038289Y-108039025D01*
X145043416Y-108038368D01*
X145048366Y-108036883D01*
X145252429Y-107975661D01*
X145252434Y-107975659D01*
X145257384Y-107974174D01*
X145457994Y-107875896D01*
X145639860Y-107746173D01*
X145798096Y-107588489D01*
X145857594Y-107505689D01*
X145928453Y-107407077D01*
X145929776Y-107408028D01*
X145976645Y-107364857D01*
X146046580Y-107352625D01*
X146112026Y-107380144D01*
X146139875Y-107411994D01*
X146199987Y-107510088D01*
X146346250Y-107678938D01*
X146518126Y-107821632D01*
X146711000Y-107934338D01*
X146919692Y-108014030D01*
X146924760Y-108015061D01*
X146924763Y-108015062D01*
X147019862Y-108034410D01*
X147138597Y-108058567D01*
X147143772Y-108058757D01*
X147143774Y-108058757D01*
X147356673Y-108066564D01*
X147356677Y-108066564D01*
X147361837Y-108066753D01*
X147366957Y-108066097D01*
X147366959Y-108066097D01*
X147578288Y-108039025D01*
X147578289Y-108039025D01*
X147583416Y-108038368D01*
X147588366Y-108036883D01*
X147792429Y-107975661D01*
X147792434Y-107975659D01*
X147797384Y-107974174D01*
X147997994Y-107875896D01*
X148179860Y-107746173D01*
X148338096Y-107588489D01*
X148397594Y-107505689D01*
X148468453Y-107407077D01*
X148469640Y-107407930D01*
X148516960Y-107364362D01*
X148586897Y-107352145D01*
X148652338Y-107379678D01*
X148680166Y-107411511D01*
X148737694Y-107505388D01*
X148743777Y-107513699D01*
X148883213Y-107674667D01*
X148890580Y-107681883D01*
X149054434Y-107817916D01*
X149062881Y-107823831D01*
X149246756Y-107931279D01*
X149256042Y-107935729D01*
X149455001Y-108011703D01*
X149464899Y-108014579D01*
X149568250Y-108035606D01*
X149582299Y-108034410D01*
X149586000Y-108024065D01*
X149586000Y-108023517D01*
X150094000Y-108023517D01*
X150098064Y-108037359D01*
X150111478Y-108039393D01*
X150118184Y-108038534D01*
X150128262Y-108036392D01*
X150332255Y-107975191D01*
X150341842Y-107971433D01*
X150533095Y-107877739D01*
X150541945Y-107872464D01*
X150715328Y-107748792D01*
X150723193Y-107742145D01*
X150827897Y-107637805D01*
X150890268Y-107603889D01*
X150961075Y-107609077D01*
X151017837Y-107651723D01*
X151034819Y-107682826D01*
X151079385Y-107801705D01*
X151166739Y-107918261D01*
X151283295Y-108005615D01*
X151419684Y-108056745D01*
X151481866Y-108063500D01*
X153278134Y-108063500D01*
X153340316Y-108056745D01*
X153476705Y-108005615D01*
X153593261Y-107918261D01*
X153680615Y-107801705D01*
X153731745Y-107665316D01*
X153738500Y-107603134D01*
X153738500Y-105806866D01*
X153731745Y-105744684D01*
X153680615Y-105608295D01*
X153593261Y-105491739D01*
X153476705Y-105404385D01*
X153340316Y-105353255D01*
X153278134Y-105346500D01*
X151481866Y-105346500D01*
X151419684Y-105353255D01*
X151283295Y-105404385D01*
X151166739Y-105491739D01*
X151079385Y-105608295D01*
X151076233Y-105616703D01*
X151076232Y-105616705D01*
X151034722Y-105727433D01*
X150992081Y-105784198D01*
X150925519Y-105808898D01*
X150856170Y-105793691D01*
X150823546Y-105768004D01*
X150772799Y-105712234D01*
X150765273Y-105705215D01*
X150598139Y-105573222D01*
X150589552Y-105567517D01*
X150403117Y-105464599D01*
X150393705Y-105460369D01*
X150192959Y-105389280D01*
X150182988Y-105386646D01*
X150111837Y-105373972D01*
X150098540Y-105375432D01*
X150094000Y-105389989D01*
X150094000Y-108023517D01*
X149586000Y-108023517D01*
X149586000Y-105388102D01*
X149582082Y-105374758D01*
X149567806Y-105372771D01*
X149529324Y-105378660D01*
X149519288Y-105381051D01*
X149316868Y-105447212D01*
X149307359Y-105451209D01*
X149118463Y-105549542D01*
X149109738Y-105555036D01*
X148939433Y-105682905D01*
X148931726Y-105689748D01*
X148784590Y-105843717D01*
X148778109Y-105851722D01*
X148673498Y-106005074D01*
X148618587Y-106050076D01*
X148548062Y-106058247D01*
X148484315Y-106026993D01*
X148463618Y-106002509D01*
X148382822Y-105877617D01*
X148382820Y-105877614D01*
X148380014Y-105873277D01*
X148229670Y-105708051D01*
X148225619Y-105704852D01*
X148225615Y-105704848D01*
X148058414Y-105572800D01*
X148058410Y-105572798D01*
X148054359Y-105569598D01*
X148018028Y-105549542D01*
X148002136Y-105540769D01*
X147858789Y-105461638D01*
X147853920Y-105459914D01*
X147853916Y-105459912D01*
X147653087Y-105388795D01*
X147653083Y-105388794D01*
X147648212Y-105387069D01*
X147643119Y-105386162D01*
X147643116Y-105386161D01*
X147433373Y-105348800D01*
X147433367Y-105348799D01*
X147428284Y-105347894D01*
X147354452Y-105346992D01*
X147210081Y-105345228D01*
X147210079Y-105345228D01*
X147204911Y-105345165D01*
X146984091Y-105378955D01*
X146771756Y-105448357D01*
X146573607Y-105551507D01*
X146569474Y-105554610D01*
X146569471Y-105554612D01*
X146486771Y-105616705D01*
X146394965Y-105685635D01*
X146240629Y-105847138D01*
X146133201Y-106004621D01*
X146078293Y-106049621D01*
X146007768Y-106057792D01*
X145944021Y-106026538D01*
X145923324Y-106002054D01*
X145842822Y-105877617D01*
X145842820Y-105877614D01*
X145840014Y-105873277D01*
X145689670Y-105708051D01*
X145685619Y-105704852D01*
X145685615Y-105704848D01*
X145518414Y-105572800D01*
X145518410Y-105572798D01*
X145514359Y-105569598D01*
X145478028Y-105549542D01*
X145462136Y-105540769D01*
X145318789Y-105461638D01*
X145313920Y-105459914D01*
X145313916Y-105459912D01*
X145113087Y-105388795D01*
X145113083Y-105388794D01*
X145108212Y-105387069D01*
X145103119Y-105386162D01*
X145103116Y-105386161D01*
X144893373Y-105348800D01*
X144893367Y-105348799D01*
X144888284Y-105347894D01*
X144814452Y-105346992D01*
X144670081Y-105345228D01*
X144670079Y-105345228D01*
X144664911Y-105345165D01*
X144444091Y-105378955D01*
X144231756Y-105448357D01*
X144033607Y-105551507D01*
X144029474Y-105554610D01*
X144029471Y-105554612D01*
X143946771Y-105616705D01*
X143854965Y-105685635D01*
X143700629Y-105847138D01*
X143593201Y-106004621D01*
X143538293Y-106049621D01*
X143467768Y-106057792D01*
X143404021Y-106026538D01*
X143383324Y-106002054D01*
X143302822Y-105877617D01*
X143302820Y-105877614D01*
X143300014Y-105873277D01*
X143149670Y-105708051D01*
X143145619Y-105704852D01*
X143145615Y-105704848D01*
X142978414Y-105572800D01*
X142978410Y-105572798D01*
X142974359Y-105569598D01*
X142938028Y-105549542D01*
X142922136Y-105540769D01*
X142778789Y-105461638D01*
X142773920Y-105459914D01*
X142773916Y-105459912D01*
X142573087Y-105388795D01*
X142573083Y-105388794D01*
X142568212Y-105387069D01*
X142563119Y-105386162D01*
X142563116Y-105386161D01*
X142353373Y-105348800D01*
X142353367Y-105348799D01*
X142348284Y-105347894D01*
X142274452Y-105346992D01*
X142130081Y-105345228D01*
X142130079Y-105345228D01*
X142124911Y-105345165D01*
X141904091Y-105378955D01*
X141691756Y-105448357D01*
X141493607Y-105551507D01*
X141489474Y-105554610D01*
X141489471Y-105554612D01*
X141406771Y-105616705D01*
X141314965Y-105685635D01*
X141160629Y-105847138D01*
X141053201Y-106004621D01*
X140998293Y-106049621D01*
X140927768Y-106057792D01*
X140864021Y-106026538D01*
X140843324Y-106002054D01*
X140762822Y-105877617D01*
X140762820Y-105877614D01*
X140760014Y-105873277D01*
X140609670Y-105708051D01*
X140605619Y-105704852D01*
X140605615Y-105704848D01*
X140438414Y-105572800D01*
X140438410Y-105572798D01*
X140434359Y-105569598D01*
X140398028Y-105549542D01*
X140382136Y-105540769D01*
X140238789Y-105461638D01*
X140233920Y-105459914D01*
X140233916Y-105459912D01*
X140033087Y-105388795D01*
X140033083Y-105388794D01*
X140028212Y-105387069D01*
X140023119Y-105386162D01*
X140023116Y-105386161D01*
X139813373Y-105348800D01*
X139813367Y-105348799D01*
X139808284Y-105347894D01*
X139734452Y-105346992D01*
X139590081Y-105345228D01*
X139590079Y-105345228D01*
X139584911Y-105345165D01*
X139364091Y-105378955D01*
X139151756Y-105448357D01*
X138953607Y-105551507D01*
X138949474Y-105554610D01*
X138949471Y-105554612D01*
X138866771Y-105616705D01*
X138774965Y-105685635D01*
X138620629Y-105847138D01*
X138513201Y-106004621D01*
X138458293Y-106049621D01*
X138387768Y-106057792D01*
X138324021Y-106026538D01*
X138303324Y-106002054D01*
X138222822Y-105877617D01*
X138222820Y-105877614D01*
X138220014Y-105873277D01*
X138069670Y-105708051D01*
X138065619Y-105704852D01*
X138065615Y-105704848D01*
X137898414Y-105572800D01*
X137898410Y-105572798D01*
X137894359Y-105569598D01*
X137858028Y-105549542D01*
X137842136Y-105540769D01*
X137698789Y-105461638D01*
X137693920Y-105459914D01*
X137693916Y-105459912D01*
X137493087Y-105388795D01*
X137493083Y-105388794D01*
X137488212Y-105387069D01*
X137483119Y-105386162D01*
X137483116Y-105386161D01*
X137273373Y-105348800D01*
X137273367Y-105348799D01*
X137268284Y-105347894D01*
X137194452Y-105346992D01*
X137050081Y-105345228D01*
X137050079Y-105345228D01*
X137044911Y-105345165D01*
X136824091Y-105378955D01*
X136611756Y-105448357D01*
X136413607Y-105551507D01*
X136409474Y-105554610D01*
X136409471Y-105554612D01*
X136326771Y-105616705D01*
X136234965Y-105685635D01*
X136080629Y-105847138D01*
X135954743Y-106031680D01*
X135860688Y-106234305D01*
X135800989Y-106449570D01*
X135777251Y-106671695D01*
X124968500Y-106671695D01*
X124968500Y-101561695D01*
X131977251Y-101561695D01*
X131977548Y-101566848D01*
X131977548Y-101566851D01*
X131983011Y-101661590D01*
X131990110Y-101784715D01*
X131991247Y-101789761D01*
X131991248Y-101789767D01*
X131998649Y-101822607D01*
X132039222Y-102002639D01*
X132123266Y-102209616D01*
X132239987Y-102400088D01*
X132386250Y-102568938D01*
X132390230Y-102572242D01*
X132394981Y-102576187D01*
X132434616Y-102635090D01*
X132436113Y-102706071D01*
X132398997Y-102766593D01*
X132358724Y-102791112D01*
X132243295Y-102834385D01*
X132126739Y-102921739D01*
X132039385Y-103038295D01*
X131988255Y-103174684D01*
X131981500Y-103236866D01*
X131981500Y-105033134D01*
X131988255Y-105095316D01*
X132039385Y-105231705D01*
X132126739Y-105348261D01*
X132243295Y-105435615D01*
X132379684Y-105486745D01*
X132441866Y-105493500D01*
X134238134Y-105493500D01*
X134300316Y-105486745D01*
X134436705Y-105435615D01*
X134553261Y-105348261D01*
X134640615Y-105231705D01*
X134691745Y-105095316D01*
X134698500Y-105033134D01*
X134698500Y-103236866D01*
X134691745Y-103174684D01*
X134640615Y-103038295D01*
X134553261Y-102921739D01*
X134436705Y-102834385D01*
X134424132Y-102829672D01*
X134318203Y-102789960D01*
X134261439Y-102747318D01*
X134236739Y-102680756D01*
X134251947Y-102611408D01*
X134273493Y-102582727D01*
X134374435Y-102482137D01*
X134378096Y-102478489D01*
X134437594Y-102395689D01*
X134505435Y-102301277D01*
X134508453Y-102297077D01*
X134526157Y-102261257D01*
X134605136Y-102101453D01*
X134605137Y-102101451D01*
X134607430Y-102096811D01*
X134672370Y-101883069D01*
X134701529Y-101661590D01*
X134703034Y-101600000D01*
X135846502Y-101600000D01*
X135866457Y-101828087D01*
X135925716Y-102049243D01*
X135928039Y-102054224D01*
X135928039Y-102054225D01*
X136020151Y-102251762D01*
X136020154Y-102251767D01*
X136022477Y-102256749D01*
X136025634Y-102261257D01*
X136125577Y-102403990D01*
X136153802Y-102444300D01*
X136315700Y-102606198D01*
X136320208Y-102609355D01*
X136320211Y-102609357D01*
X136398389Y-102664098D01*
X136503251Y-102737523D01*
X136508233Y-102739846D01*
X136508238Y-102739849D01*
X136704214Y-102831233D01*
X136710757Y-102834284D01*
X136716065Y-102835706D01*
X136716067Y-102835707D01*
X136926598Y-102892119D01*
X136926600Y-102892119D01*
X136931913Y-102893543D01*
X137160000Y-102913498D01*
X137388087Y-102893543D01*
X137393400Y-102892119D01*
X137393402Y-102892119D01*
X137603933Y-102835707D01*
X137603935Y-102835706D01*
X137609243Y-102834284D01*
X137615786Y-102831233D01*
X137811762Y-102739849D01*
X137811767Y-102739846D01*
X137816749Y-102737523D01*
X137921611Y-102664098D01*
X137999789Y-102609357D01*
X137999792Y-102609355D01*
X138004300Y-102606198D01*
X138166198Y-102444300D01*
X138194424Y-102403990D01*
X138294366Y-102261257D01*
X138297523Y-102256749D01*
X138299846Y-102251767D01*
X138299849Y-102251762D01*
X138391961Y-102054225D01*
X138391961Y-102054224D01*
X138394284Y-102049243D01*
X138453543Y-101828087D01*
X138473498Y-101600000D01*
X143466502Y-101600000D01*
X143486457Y-101828087D01*
X143545716Y-102049243D01*
X143548039Y-102054224D01*
X143548039Y-102054225D01*
X143640151Y-102251762D01*
X143640154Y-102251767D01*
X143642477Y-102256749D01*
X143645634Y-102261257D01*
X143745577Y-102403990D01*
X143773802Y-102444300D01*
X143935700Y-102606198D01*
X143940208Y-102609355D01*
X143940211Y-102609357D01*
X144018389Y-102664098D01*
X144123251Y-102737523D01*
X144128233Y-102739846D01*
X144128238Y-102739849D01*
X144324214Y-102831233D01*
X144330757Y-102834284D01*
X144336065Y-102835706D01*
X144336067Y-102835707D01*
X144546598Y-102892119D01*
X144546600Y-102892119D01*
X144551913Y-102893543D01*
X144780000Y-102913498D01*
X145008087Y-102893543D01*
X145013400Y-102892119D01*
X145013402Y-102892119D01*
X145223933Y-102835707D01*
X145223935Y-102835706D01*
X145229243Y-102834284D01*
X145235786Y-102831233D01*
X145431762Y-102739849D01*
X145431767Y-102739846D01*
X145436749Y-102737523D01*
X145541611Y-102664098D01*
X145619789Y-102609357D01*
X145619792Y-102609355D01*
X145624300Y-102606198D01*
X145786198Y-102444300D01*
X145814424Y-102403990D01*
X145914366Y-102261257D01*
X145917523Y-102256749D01*
X145919846Y-102251767D01*
X145919849Y-102251762D01*
X146011961Y-102054225D01*
X146011961Y-102054224D01*
X146014284Y-102049243D01*
X146073543Y-101828087D01*
X146093498Y-101600000D01*
X146073543Y-101371913D01*
X146014284Y-101150757D01*
X145921062Y-100950840D01*
X145919849Y-100948238D01*
X145919846Y-100948233D01*
X145917523Y-100943251D01*
X145844098Y-100838389D01*
X145789357Y-100760211D01*
X145789355Y-100760208D01*
X145786198Y-100755700D01*
X145624300Y-100593802D01*
X145619792Y-100590645D01*
X145619789Y-100590643D01*
X145541611Y-100535902D01*
X145436749Y-100462477D01*
X145431767Y-100460154D01*
X145431762Y-100460151D01*
X145397543Y-100444195D01*
X145344258Y-100397278D01*
X145324797Y-100329001D01*
X145345339Y-100261041D01*
X145397543Y-100215805D01*
X145431762Y-100199849D01*
X145431767Y-100199846D01*
X145436749Y-100197523D01*
X145541611Y-100124098D01*
X145619789Y-100069357D01*
X145619792Y-100069355D01*
X145624300Y-100066198D01*
X145786198Y-99904300D01*
X145917523Y-99716749D01*
X145919846Y-99711767D01*
X145919849Y-99711762D01*
X146011961Y-99514225D01*
X146011961Y-99514224D01*
X146014284Y-99509243D01*
X146073543Y-99288087D01*
X146093498Y-99060000D01*
X146073543Y-98831913D01*
X146014284Y-98610757D01*
X146010786Y-98603255D01*
X145919849Y-98408238D01*
X145919846Y-98408233D01*
X145917523Y-98403251D01*
X145786198Y-98215700D01*
X145624300Y-98053802D01*
X145619792Y-98050645D01*
X145619789Y-98050643D01*
X145500343Y-97967006D01*
X145436749Y-97922477D01*
X145431767Y-97920154D01*
X145431762Y-97920151D01*
X145397543Y-97904195D01*
X145344258Y-97857278D01*
X145324797Y-97789001D01*
X145345339Y-97721041D01*
X145397543Y-97675805D01*
X145431762Y-97659849D01*
X145431767Y-97659846D01*
X145436749Y-97657523D01*
X145600159Y-97543102D01*
X145619789Y-97529357D01*
X145619792Y-97529355D01*
X145624300Y-97526198D01*
X145786198Y-97364300D01*
X145804829Y-97337693D01*
X145914366Y-97181257D01*
X145917523Y-97176749D01*
X145919846Y-97171767D01*
X145919849Y-97171762D01*
X146011961Y-96974225D01*
X146011961Y-96974224D01*
X146014284Y-96969243D01*
X146048705Y-96840785D01*
X146072119Y-96753402D01*
X146072119Y-96753400D01*
X146073543Y-96748087D01*
X146093498Y-96520000D01*
X146073543Y-96291913D01*
X146014284Y-96070757D01*
X145983769Y-96005316D01*
X145919849Y-95868238D01*
X145919846Y-95868233D01*
X145917523Y-95863251D01*
X145832002Y-95741114D01*
X145789357Y-95680211D01*
X145789355Y-95680208D01*
X145786198Y-95675700D01*
X145624300Y-95513802D01*
X145619792Y-95510645D01*
X145619789Y-95510643D01*
X145541611Y-95455902D01*
X145436749Y-95382477D01*
X145431767Y-95380154D01*
X145431762Y-95380151D01*
X145397543Y-95364195D01*
X145344258Y-95317278D01*
X145324797Y-95249001D01*
X145345339Y-95181041D01*
X145397543Y-95135805D01*
X145431762Y-95119849D01*
X145431767Y-95119846D01*
X145436749Y-95117523D01*
X145541611Y-95044098D01*
X145619789Y-94989357D01*
X145619792Y-94989355D01*
X145624300Y-94986198D01*
X145786198Y-94824300D01*
X145917523Y-94636749D01*
X145919846Y-94631767D01*
X145919849Y-94631762D01*
X146011961Y-94434225D01*
X146011961Y-94434224D01*
X146014284Y-94429243D01*
X146067206Y-94231739D01*
X146072119Y-94213402D01*
X146072119Y-94213400D01*
X146073543Y-94208087D01*
X146093498Y-93980000D01*
X146073543Y-93751913D01*
X146063480Y-93714357D01*
X146015707Y-93536067D01*
X146015706Y-93536065D01*
X146014284Y-93530757D01*
X145935475Y-93361749D01*
X145919849Y-93328238D01*
X145919846Y-93328233D01*
X145917523Y-93323251D01*
X145844098Y-93218389D01*
X145789357Y-93140211D01*
X145789355Y-93140208D01*
X145786198Y-93135700D01*
X145624300Y-92973802D01*
X145619792Y-92970645D01*
X145619789Y-92970643D01*
X145541611Y-92915902D01*
X145436749Y-92842477D01*
X145431767Y-92840154D01*
X145431762Y-92840151D01*
X145397543Y-92824195D01*
X145344258Y-92777278D01*
X145324797Y-92709001D01*
X145326006Y-92705000D01*
X148536502Y-92705000D01*
X148556457Y-92933087D01*
X148557881Y-92938400D01*
X148557881Y-92938402D01*
X148567367Y-92973802D01*
X148615716Y-93154243D01*
X148618039Y-93159224D01*
X148618039Y-93159225D01*
X148710151Y-93356762D01*
X148710154Y-93356767D01*
X148712477Y-93361749D01*
X148715634Y-93366257D01*
X148827330Y-93525775D01*
X148843802Y-93549300D01*
X149005700Y-93711198D01*
X149010208Y-93714355D01*
X149010211Y-93714357D01*
X149056256Y-93746598D01*
X149193251Y-93842523D01*
X149198233Y-93844846D01*
X149198238Y-93844849D01*
X149395775Y-93936961D01*
X149400757Y-93939284D01*
X149406065Y-93940706D01*
X149406067Y-93940707D01*
X149616598Y-93997119D01*
X149616600Y-93997119D01*
X149621913Y-93998543D01*
X149850000Y-94018498D01*
X150078087Y-93998543D01*
X150083400Y-93997119D01*
X150083402Y-93997119D01*
X150293933Y-93940707D01*
X150293935Y-93940706D01*
X150299243Y-93939284D01*
X150304225Y-93936961D01*
X150501762Y-93844849D01*
X150501767Y-93844846D01*
X150506749Y-93842523D01*
X150643744Y-93746598D01*
X150689789Y-93714357D01*
X150689792Y-93714355D01*
X150694300Y-93711198D01*
X150856198Y-93549300D01*
X150872671Y-93525775D01*
X150984366Y-93366257D01*
X150987523Y-93361749D01*
X150989846Y-93356767D01*
X150989849Y-93356762D01*
X151081961Y-93159225D01*
X151081961Y-93159224D01*
X151084284Y-93154243D01*
X151132634Y-92973802D01*
X151142119Y-92938402D01*
X151142119Y-92938400D01*
X151143543Y-92933087D01*
X151163498Y-92705000D01*
X151143543Y-92476913D01*
X151142119Y-92471598D01*
X151085707Y-92261067D01*
X151085706Y-92261065D01*
X151084284Y-92255757D01*
X151010138Y-92096749D01*
X150989849Y-92053238D01*
X150989846Y-92053233D01*
X150987523Y-92048251D01*
X150876184Y-91889243D01*
X150859357Y-91865211D01*
X150859355Y-91865208D01*
X150856198Y-91860700D01*
X150694300Y-91698802D01*
X150689792Y-91695645D01*
X150689789Y-91695643D01*
X150611611Y-91640902D01*
X150506749Y-91567477D01*
X150501767Y-91565154D01*
X150501762Y-91565151D01*
X150304225Y-91473039D01*
X150304224Y-91473039D01*
X150299243Y-91470716D01*
X150293935Y-91469294D01*
X150293933Y-91469293D01*
X150083402Y-91412881D01*
X150083400Y-91412881D01*
X150078087Y-91411457D01*
X149850000Y-91391502D01*
X149621913Y-91411457D01*
X149616600Y-91412881D01*
X149616598Y-91412881D01*
X149406067Y-91469293D01*
X149406065Y-91469294D01*
X149400757Y-91470716D01*
X149395776Y-91473039D01*
X149395775Y-91473039D01*
X149198238Y-91565151D01*
X149198233Y-91565154D01*
X149193251Y-91567477D01*
X149088389Y-91640902D01*
X149010211Y-91695643D01*
X149010208Y-91695645D01*
X149005700Y-91698802D01*
X148843802Y-91860700D01*
X148840645Y-91865208D01*
X148840643Y-91865211D01*
X148823816Y-91889243D01*
X148712477Y-92048251D01*
X148710154Y-92053233D01*
X148710151Y-92053238D01*
X148689862Y-92096749D01*
X148615716Y-92255757D01*
X148614294Y-92261065D01*
X148614293Y-92261067D01*
X148557881Y-92471598D01*
X148556457Y-92476913D01*
X148536502Y-92705000D01*
X145326006Y-92705000D01*
X145345339Y-92641041D01*
X145397543Y-92595805D01*
X145431762Y-92579849D01*
X145431767Y-92579846D01*
X145436749Y-92577523D01*
X145541611Y-92504098D01*
X145619789Y-92449357D01*
X145619792Y-92449355D01*
X145624300Y-92446198D01*
X145786198Y-92284300D01*
X145917523Y-92096749D01*
X145919846Y-92091767D01*
X145919849Y-92091762D01*
X146011961Y-91894225D01*
X146011961Y-91894224D01*
X146014284Y-91889243D01*
X146020724Y-91865211D01*
X146072119Y-91673402D01*
X146072119Y-91673400D01*
X146073543Y-91668087D01*
X146093498Y-91440000D01*
X146073543Y-91211913D01*
X146014284Y-90990757D01*
X146011961Y-90985775D01*
X145919849Y-90788238D01*
X145919846Y-90788233D01*
X145917523Y-90783251D01*
X145786198Y-90595700D01*
X145624300Y-90433802D01*
X145619792Y-90430645D01*
X145619789Y-90430643D01*
X145541611Y-90375902D01*
X145436749Y-90302477D01*
X145431767Y-90300154D01*
X145431762Y-90300151D01*
X145397543Y-90284195D01*
X145344258Y-90237278D01*
X145324797Y-90169001D01*
X145345339Y-90101041D01*
X145397543Y-90055805D01*
X145431762Y-90039849D01*
X145431767Y-90039846D01*
X145436749Y-90037523D01*
X145541611Y-89964098D01*
X145619789Y-89909357D01*
X145619792Y-89909355D01*
X145624300Y-89906198D01*
X145786198Y-89744300D01*
X145917523Y-89556749D01*
X145919846Y-89551767D01*
X145919849Y-89551762D01*
X146011961Y-89354225D01*
X146011961Y-89354224D01*
X146014284Y-89349243D01*
X146073543Y-89128087D01*
X146093498Y-88900000D01*
X146073543Y-88671913D01*
X146014284Y-88450757D01*
X146011961Y-88445775D01*
X145919849Y-88248238D01*
X145919846Y-88248233D01*
X145917523Y-88243251D01*
X145786198Y-88055700D01*
X145624300Y-87893802D01*
X145619792Y-87890645D01*
X145619789Y-87890643D01*
X145541611Y-87835902D01*
X145436749Y-87762477D01*
X145431767Y-87760154D01*
X145431762Y-87760151D01*
X145397543Y-87744195D01*
X145344258Y-87697278D01*
X145324797Y-87629001D01*
X145345339Y-87561041D01*
X145397543Y-87515805D01*
X145431762Y-87499849D01*
X145431767Y-87499846D01*
X145436749Y-87497523D01*
X145541611Y-87424098D01*
X145619789Y-87369357D01*
X145619792Y-87369355D01*
X145624300Y-87366198D01*
X145786198Y-87204300D01*
X145917523Y-87016749D01*
X145919846Y-87011767D01*
X145919849Y-87011762D01*
X146011961Y-86814225D01*
X146011961Y-86814224D01*
X146014284Y-86809243D01*
X146073543Y-86588087D01*
X146093498Y-86360000D01*
X146073543Y-86131913D01*
X146014284Y-85910757D01*
X146011961Y-85905775D01*
X145919849Y-85708238D01*
X145919846Y-85708233D01*
X145917523Y-85703251D01*
X145786198Y-85515700D01*
X145624300Y-85353802D01*
X145619792Y-85350645D01*
X145619789Y-85350643D01*
X145541611Y-85295902D01*
X145436749Y-85222477D01*
X145431767Y-85220154D01*
X145431762Y-85220151D01*
X145397543Y-85204195D01*
X145344258Y-85157278D01*
X145324797Y-85089001D01*
X145345339Y-85021041D01*
X145397543Y-84975805D01*
X145431762Y-84959849D01*
X145431767Y-84959846D01*
X145436749Y-84957523D01*
X145541611Y-84884098D01*
X145619789Y-84829357D01*
X145619792Y-84829355D01*
X145624300Y-84826198D01*
X145786198Y-84664300D01*
X145917523Y-84476749D01*
X145919846Y-84471767D01*
X145919849Y-84471762D01*
X146011961Y-84274225D01*
X146011961Y-84274224D01*
X146014284Y-84269243D01*
X146073543Y-84048087D01*
X146093498Y-83820000D01*
X146076968Y-83631062D01*
X149128493Y-83631062D01*
X149137789Y-83643077D01*
X149188994Y-83678931D01*
X149198489Y-83684414D01*
X149395947Y-83776490D01*
X149406239Y-83780236D01*
X149616688Y-83836625D01*
X149627481Y-83838528D01*
X149844525Y-83857517D01*
X149855475Y-83857517D01*
X150072519Y-83838528D01*
X150083312Y-83836625D01*
X150293761Y-83780236D01*
X150304053Y-83776490D01*
X150501511Y-83684414D01*
X150511006Y-83678931D01*
X150563048Y-83642491D01*
X150571424Y-83632012D01*
X150564356Y-83618566D01*
X149862812Y-82917022D01*
X149848868Y-82909408D01*
X149847035Y-82909539D01*
X149840420Y-82913790D01*
X149134923Y-83619287D01*
X149128493Y-83631062D01*
X146076968Y-83631062D01*
X146073543Y-83591913D01*
X146014284Y-83370757D01*
X145965633Y-83266424D01*
X145919849Y-83168238D01*
X145919846Y-83168233D01*
X145917523Y-83163251D01*
X145802550Y-82999053D01*
X145789357Y-82980211D01*
X145789355Y-82980208D01*
X145786198Y-82975700D01*
X145624300Y-82813802D01*
X145619792Y-82810645D01*
X145619789Y-82810643D01*
X145541611Y-82755902D01*
X145436749Y-82682477D01*
X145431767Y-82680154D01*
X145431762Y-82680151D01*
X145397543Y-82664195D01*
X145344258Y-82617278D01*
X145325217Y-82550475D01*
X148537483Y-82550475D01*
X148556472Y-82767519D01*
X148558375Y-82778312D01*
X148614764Y-82988761D01*
X148618510Y-82999053D01*
X148710586Y-83196511D01*
X148716069Y-83206006D01*
X148752509Y-83258048D01*
X148762988Y-83266424D01*
X148776434Y-83259356D01*
X149477978Y-82557812D01*
X149484356Y-82546132D01*
X150214408Y-82546132D01*
X150214539Y-82547965D01*
X150218790Y-82554580D01*
X150924287Y-83260077D01*
X150936062Y-83266507D01*
X150948077Y-83257211D01*
X150983931Y-83206006D01*
X150989414Y-83196511D01*
X151081490Y-82999053D01*
X151085236Y-82988761D01*
X151141625Y-82778312D01*
X151143528Y-82767519D01*
X151162517Y-82550475D01*
X151162517Y-82539525D01*
X151143528Y-82322481D01*
X151141625Y-82311688D01*
X151085236Y-82101239D01*
X151081490Y-82090947D01*
X150989414Y-81893489D01*
X150983931Y-81883994D01*
X150947491Y-81831952D01*
X150937012Y-81823576D01*
X150923566Y-81830644D01*
X150222022Y-82532188D01*
X150214408Y-82546132D01*
X149484356Y-82546132D01*
X149485592Y-82543868D01*
X149485461Y-82542035D01*
X149481210Y-82535420D01*
X148775713Y-81829923D01*
X148763938Y-81823493D01*
X148751923Y-81832789D01*
X148716069Y-81883994D01*
X148710586Y-81893489D01*
X148618510Y-82090947D01*
X148614764Y-82101239D01*
X148558375Y-82311688D01*
X148556472Y-82322481D01*
X148537483Y-82539525D01*
X148537483Y-82550475D01*
X145325217Y-82550475D01*
X145324797Y-82549001D01*
X145345339Y-82481041D01*
X145397543Y-82435805D01*
X145431762Y-82419849D01*
X145431767Y-82419846D01*
X145436749Y-82417523D01*
X145587897Y-82311688D01*
X145619789Y-82289357D01*
X145619792Y-82289355D01*
X145624300Y-82286198D01*
X145786198Y-82124300D01*
X145917523Y-81936749D01*
X145919846Y-81931767D01*
X145919849Y-81931762D01*
X146011961Y-81734225D01*
X146011961Y-81734224D01*
X146014284Y-81729243D01*
X146073543Y-81508087D01*
X146077926Y-81457988D01*
X149128576Y-81457988D01*
X149135644Y-81471434D01*
X149837188Y-82172978D01*
X149851132Y-82180592D01*
X149852965Y-82180461D01*
X149859580Y-82176210D01*
X150565077Y-81470713D01*
X150571507Y-81458938D01*
X150562211Y-81446923D01*
X150511006Y-81411069D01*
X150501511Y-81405586D01*
X150304053Y-81313510D01*
X150293761Y-81309764D01*
X150083312Y-81253375D01*
X150072519Y-81251472D01*
X149855475Y-81232483D01*
X149844525Y-81232483D01*
X149627481Y-81251472D01*
X149616688Y-81253375D01*
X149406239Y-81309764D01*
X149395947Y-81313510D01*
X149198489Y-81405586D01*
X149188994Y-81411069D01*
X149136952Y-81447509D01*
X149128576Y-81457988D01*
X146077926Y-81457988D01*
X146093498Y-81280000D01*
X146073543Y-81051913D01*
X146070779Y-81041598D01*
X146015707Y-80836067D01*
X146015706Y-80836065D01*
X146014284Y-80830757D01*
X146011961Y-80825775D01*
X145919849Y-80628238D01*
X145919846Y-80628233D01*
X145917523Y-80623251D01*
X145796070Y-80449798D01*
X145789357Y-80440211D01*
X145789355Y-80440208D01*
X145786198Y-80435700D01*
X145624300Y-80273802D01*
X145619792Y-80270645D01*
X145619789Y-80270643D01*
X145541045Y-80215506D01*
X145436749Y-80142477D01*
X145431767Y-80140154D01*
X145431762Y-80140151D01*
X145397543Y-80124195D01*
X145344258Y-80077278D01*
X145324797Y-80009001D01*
X145345339Y-79941041D01*
X145397543Y-79895805D01*
X145431762Y-79879849D01*
X145431767Y-79879846D01*
X145436749Y-79877523D01*
X145578805Y-79778054D01*
X145619789Y-79749357D01*
X145619792Y-79749355D01*
X145624300Y-79746198D01*
X145786198Y-79584300D01*
X145917523Y-79396749D01*
X145919846Y-79391767D01*
X145919849Y-79391762D01*
X146011961Y-79194225D01*
X146011961Y-79194224D01*
X146014284Y-79189243D01*
X146062970Y-79007548D01*
X146072119Y-78973402D01*
X146072119Y-78973400D01*
X146073543Y-78968087D01*
X146093498Y-78740000D01*
X146091562Y-78717869D01*
X147746689Y-78717869D01*
X147763238Y-79004883D01*
X147764063Y-79009088D01*
X147764064Y-79009096D01*
X147796010Y-79171921D01*
X147818586Y-79286995D01*
X147819973Y-79291045D01*
X147819974Y-79291050D01*
X147854456Y-79391762D01*
X147911710Y-79558986D01*
X147913637Y-79562817D01*
X148007457Y-79749357D01*
X148040885Y-79815822D01*
X148149793Y-79974284D01*
X148197661Y-80043932D01*
X148203721Y-80052750D01*
X148206608Y-80055923D01*
X148206609Y-80055924D01*
X148283689Y-80140634D01*
X148397206Y-80265388D01*
X148400501Y-80268143D01*
X148400502Y-80268144D01*
X148600898Y-80435700D01*
X148617759Y-80449798D01*
X148861298Y-80602571D01*
X149123318Y-80720877D01*
X149127437Y-80722097D01*
X149394857Y-80801311D01*
X149394862Y-80801312D01*
X149398970Y-80802529D01*
X149403204Y-80803177D01*
X149403209Y-80803178D01*
X149583441Y-80830757D01*
X149683153Y-80846015D01*
X149829485Y-80848314D01*
X149966317Y-80850464D01*
X149966323Y-80850464D01*
X149970608Y-80850531D01*
X149974860Y-80850016D01*
X149974868Y-80850016D01*
X150251756Y-80816508D01*
X150251761Y-80816507D01*
X150256017Y-80815992D01*
X150534097Y-80743039D01*
X150799704Y-80633021D01*
X151047922Y-80487974D01*
X151274159Y-80310582D01*
X151309802Y-80273802D01*
X151439318Y-80140151D01*
X151474227Y-80104128D01*
X151476760Y-80100680D01*
X151476764Y-80100675D01*
X151641887Y-79875886D01*
X151644425Y-79872431D01*
X151769348Y-79642352D01*
X151779554Y-79623555D01*
X151779555Y-79623553D01*
X151781604Y-79619779D01*
X151864177Y-79401257D01*
X151881707Y-79354866D01*
X151881708Y-79354862D01*
X151883225Y-79350848D01*
X151947407Y-79070613D01*
X151953036Y-79007548D01*
X151972743Y-78786726D01*
X151972743Y-78786724D01*
X151972963Y-78784260D01*
X151973427Y-78740000D01*
X151958251Y-78517393D01*
X151954165Y-78457452D01*
X151954164Y-78457446D01*
X151953873Y-78453175D01*
X151949336Y-78431264D01*
X151896443Y-78175855D01*
X151895574Y-78171658D01*
X151799607Y-77900657D01*
X151713487Y-77733802D01*
X151669715Y-77648995D01*
X151669715Y-77648994D01*
X151667750Y-77645188D01*
X151654488Y-77626317D01*
X151568727Y-77504293D01*
X151502441Y-77409977D01*
X151306740Y-77199378D01*
X151084268Y-77017287D01*
X150839142Y-76867073D01*
X150821048Y-76859130D01*
X150579830Y-76753243D01*
X150575898Y-76751517D01*
X150549963Y-76744129D01*
X150303534Y-76673932D01*
X150303535Y-76673932D01*
X150299406Y-76672756D01*
X150086704Y-76642485D01*
X150019036Y-76632854D01*
X150019034Y-76632854D01*
X150014784Y-76632249D01*
X150010495Y-76632227D01*
X150010488Y-76632226D01*
X149731583Y-76630765D01*
X149731576Y-76630765D01*
X149727297Y-76630743D01*
X149723053Y-76631302D01*
X149723049Y-76631302D01*
X149597660Y-76647810D01*
X149442266Y-76668268D01*
X149438126Y-76669401D01*
X149438124Y-76669401D01*
X149361311Y-76690415D01*
X149164964Y-76744129D01*
X149161016Y-76745813D01*
X148904476Y-76855237D01*
X148904472Y-76855239D01*
X148900524Y-76856923D01*
X148775960Y-76931473D01*
X148657521Y-77002357D01*
X148657517Y-77002360D01*
X148653839Y-77004561D01*
X148429472Y-77184313D01*
X148231577Y-77392851D01*
X148063814Y-77626317D01*
X147929288Y-77880392D01*
X147830489Y-78150373D01*
X147769245Y-78431264D01*
X147746689Y-78717869D01*
X146091562Y-78717869D01*
X146073543Y-78511913D01*
X146065028Y-78480135D01*
X146015707Y-78296067D01*
X146015706Y-78296065D01*
X146014284Y-78290757D01*
X145950777Y-78154565D01*
X145919849Y-78088238D01*
X145919846Y-78088233D01*
X145917523Y-78083251D01*
X145844098Y-77978389D01*
X145789357Y-77900211D01*
X145789355Y-77900208D01*
X145786198Y-77895700D01*
X145624300Y-77733802D01*
X145619792Y-77730645D01*
X145619789Y-77730643D01*
X145497746Y-77645188D01*
X145436749Y-77602477D01*
X145431767Y-77600154D01*
X145431762Y-77600151D01*
X145234225Y-77508039D01*
X145234224Y-77508039D01*
X145229243Y-77505716D01*
X145223935Y-77504294D01*
X145223933Y-77504293D01*
X145013402Y-77447881D01*
X145013400Y-77447881D01*
X145008087Y-77446457D01*
X144780000Y-77426502D01*
X144551913Y-77446457D01*
X144546600Y-77447881D01*
X144546598Y-77447881D01*
X144336067Y-77504293D01*
X144336065Y-77504294D01*
X144330757Y-77505716D01*
X144325776Y-77508039D01*
X144325775Y-77508039D01*
X144128238Y-77600151D01*
X144128233Y-77600154D01*
X144123251Y-77602477D01*
X144062254Y-77645188D01*
X143940211Y-77730643D01*
X143940208Y-77730645D01*
X143935700Y-77733802D01*
X143773802Y-77895700D01*
X143770645Y-77900208D01*
X143770643Y-77900211D01*
X143715902Y-77978389D01*
X143642477Y-78083251D01*
X143640154Y-78088233D01*
X143640151Y-78088238D01*
X143609223Y-78154565D01*
X143545716Y-78290757D01*
X143544294Y-78296065D01*
X143544293Y-78296067D01*
X143494972Y-78480135D01*
X143486457Y-78511913D01*
X143466502Y-78740000D01*
X143486457Y-78968087D01*
X143487881Y-78973400D01*
X143487881Y-78973402D01*
X143497031Y-79007548D01*
X143545716Y-79189243D01*
X143548039Y-79194224D01*
X143548039Y-79194225D01*
X143640151Y-79391762D01*
X143640154Y-79391767D01*
X143642477Y-79396749D01*
X143773802Y-79584300D01*
X143935700Y-79746198D01*
X143940208Y-79749355D01*
X143940211Y-79749357D01*
X143981195Y-79778054D01*
X144123251Y-79877523D01*
X144128233Y-79879846D01*
X144128238Y-79879849D01*
X144162457Y-79895805D01*
X144215742Y-79942722D01*
X144235203Y-80010999D01*
X144214661Y-80078959D01*
X144162457Y-80124195D01*
X144128238Y-80140151D01*
X144128233Y-80140154D01*
X144123251Y-80142477D01*
X144018955Y-80215506D01*
X143940211Y-80270643D01*
X143940208Y-80270645D01*
X143935700Y-80273802D01*
X143773802Y-80435700D01*
X143770645Y-80440208D01*
X143770643Y-80440211D01*
X143763930Y-80449798D01*
X143642477Y-80623251D01*
X143640154Y-80628233D01*
X143640151Y-80628238D01*
X143548039Y-80825775D01*
X143545716Y-80830757D01*
X143544294Y-80836065D01*
X143544293Y-80836067D01*
X143489221Y-81041598D01*
X143486457Y-81051913D01*
X143466502Y-81280000D01*
X143486457Y-81508087D01*
X143545716Y-81729243D01*
X143548039Y-81734224D01*
X143548039Y-81734225D01*
X143640151Y-81931762D01*
X143640154Y-81931767D01*
X143642477Y-81936749D01*
X143773802Y-82124300D01*
X143935700Y-82286198D01*
X143940208Y-82289355D01*
X143940211Y-82289357D01*
X143972103Y-82311688D01*
X144123251Y-82417523D01*
X144128233Y-82419846D01*
X144128238Y-82419849D01*
X144162457Y-82435805D01*
X144215742Y-82482722D01*
X144235203Y-82550999D01*
X144214661Y-82618959D01*
X144162457Y-82664195D01*
X144128238Y-82680151D01*
X144128233Y-82680154D01*
X144123251Y-82682477D01*
X144018389Y-82755902D01*
X143940211Y-82810643D01*
X143940208Y-82810645D01*
X143935700Y-82813802D01*
X143773802Y-82975700D01*
X143770645Y-82980208D01*
X143770643Y-82980211D01*
X143757450Y-82999053D01*
X143642477Y-83163251D01*
X143640154Y-83168233D01*
X143640151Y-83168238D01*
X143594367Y-83266424D01*
X143545716Y-83370757D01*
X143486457Y-83591913D01*
X143466502Y-83820000D01*
X143486457Y-84048087D01*
X143545716Y-84269243D01*
X143548039Y-84274224D01*
X143548039Y-84274225D01*
X143640151Y-84471762D01*
X143640154Y-84471767D01*
X143642477Y-84476749D01*
X143773802Y-84664300D01*
X143935700Y-84826198D01*
X143940208Y-84829355D01*
X143940211Y-84829357D01*
X144018389Y-84884098D01*
X144123251Y-84957523D01*
X144128233Y-84959846D01*
X144128238Y-84959849D01*
X144162457Y-84975805D01*
X144215742Y-85022722D01*
X144235203Y-85090999D01*
X144214661Y-85158959D01*
X144162457Y-85204195D01*
X144128238Y-85220151D01*
X144128233Y-85220154D01*
X144123251Y-85222477D01*
X144018389Y-85295902D01*
X143940211Y-85350643D01*
X143940208Y-85350645D01*
X143935700Y-85353802D01*
X143773802Y-85515700D01*
X143642477Y-85703251D01*
X143640154Y-85708233D01*
X143640151Y-85708238D01*
X143548039Y-85905775D01*
X143545716Y-85910757D01*
X143486457Y-86131913D01*
X143466502Y-86360000D01*
X143486457Y-86588087D01*
X143545716Y-86809243D01*
X143548039Y-86814224D01*
X143548039Y-86814225D01*
X143640151Y-87011762D01*
X143640154Y-87011767D01*
X143642477Y-87016749D01*
X143773802Y-87204300D01*
X143935700Y-87366198D01*
X143940208Y-87369355D01*
X143940211Y-87369357D01*
X144018389Y-87424098D01*
X144123251Y-87497523D01*
X144128233Y-87499846D01*
X144128238Y-87499849D01*
X144162457Y-87515805D01*
X144215742Y-87562722D01*
X144235203Y-87630999D01*
X144214661Y-87698959D01*
X144162457Y-87744195D01*
X144128238Y-87760151D01*
X144128233Y-87760154D01*
X144123251Y-87762477D01*
X144018389Y-87835902D01*
X143940211Y-87890643D01*
X143940208Y-87890645D01*
X143935700Y-87893802D01*
X143773802Y-88055700D01*
X143642477Y-88243251D01*
X143640154Y-88248233D01*
X143640151Y-88248238D01*
X143548039Y-88445775D01*
X143545716Y-88450757D01*
X143486457Y-88671913D01*
X143466502Y-88900000D01*
X143486457Y-89128087D01*
X143545716Y-89349243D01*
X143548039Y-89354224D01*
X143548039Y-89354225D01*
X143640151Y-89551762D01*
X143640154Y-89551767D01*
X143642477Y-89556749D01*
X143773802Y-89744300D01*
X143935700Y-89906198D01*
X143940208Y-89909355D01*
X143940211Y-89909357D01*
X144018389Y-89964098D01*
X144123251Y-90037523D01*
X144128233Y-90039846D01*
X144128238Y-90039849D01*
X144162457Y-90055805D01*
X144215742Y-90102722D01*
X144235203Y-90170999D01*
X144214661Y-90238959D01*
X144162457Y-90284195D01*
X144128238Y-90300151D01*
X144128233Y-90300154D01*
X144123251Y-90302477D01*
X144018389Y-90375902D01*
X143940211Y-90430643D01*
X143940208Y-90430645D01*
X143935700Y-90433802D01*
X143773802Y-90595700D01*
X143642477Y-90783251D01*
X143640154Y-90788233D01*
X143640151Y-90788238D01*
X143548039Y-90985775D01*
X143545716Y-90990757D01*
X143486457Y-91211913D01*
X143466502Y-91440000D01*
X143486457Y-91668087D01*
X143487881Y-91673400D01*
X143487881Y-91673402D01*
X143539277Y-91865211D01*
X143545716Y-91889243D01*
X143548039Y-91894224D01*
X143548039Y-91894225D01*
X143640151Y-92091762D01*
X143640154Y-92091767D01*
X143642477Y-92096749D01*
X143773802Y-92284300D01*
X143935700Y-92446198D01*
X143940208Y-92449355D01*
X143940211Y-92449357D01*
X144018389Y-92504098D01*
X144123251Y-92577523D01*
X144128233Y-92579846D01*
X144128238Y-92579849D01*
X144162457Y-92595805D01*
X144215742Y-92642722D01*
X144235203Y-92710999D01*
X144214661Y-92778959D01*
X144162457Y-92824195D01*
X144128238Y-92840151D01*
X144128233Y-92840154D01*
X144123251Y-92842477D01*
X144018389Y-92915902D01*
X143940211Y-92970643D01*
X143940208Y-92970645D01*
X143935700Y-92973802D01*
X143773802Y-93135700D01*
X143770645Y-93140208D01*
X143770643Y-93140211D01*
X143715902Y-93218389D01*
X143642477Y-93323251D01*
X143640154Y-93328233D01*
X143640151Y-93328238D01*
X143624525Y-93361749D01*
X143545716Y-93530757D01*
X143544294Y-93536065D01*
X143544293Y-93536067D01*
X143496520Y-93714357D01*
X143486457Y-93751913D01*
X143466502Y-93980000D01*
X143486457Y-94208087D01*
X143487881Y-94213400D01*
X143487881Y-94213402D01*
X143492795Y-94231739D01*
X143545716Y-94429243D01*
X143548039Y-94434224D01*
X143548039Y-94434225D01*
X143640151Y-94631762D01*
X143640154Y-94631767D01*
X143642477Y-94636749D01*
X143773802Y-94824300D01*
X143935700Y-94986198D01*
X143940208Y-94989355D01*
X143940211Y-94989357D01*
X144018389Y-95044098D01*
X144123251Y-95117523D01*
X144128233Y-95119846D01*
X144128238Y-95119849D01*
X144162457Y-95135805D01*
X144215742Y-95182722D01*
X144235203Y-95250999D01*
X144214661Y-95318959D01*
X144162457Y-95364195D01*
X144128238Y-95380151D01*
X144128233Y-95380154D01*
X144123251Y-95382477D01*
X144018389Y-95455902D01*
X143940211Y-95510643D01*
X143940208Y-95510645D01*
X143935700Y-95513802D01*
X143773802Y-95675700D01*
X143770645Y-95680208D01*
X143770643Y-95680211D01*
X143727998Y-95741114D01*
X143642477Y-95863251D01*
X143640154Y-95868233D01*
X143640151Y-95868238D01*
X143576231Y-96005316D01*
X143545716Y-96070757D01*
X143486457Y-96291913D01*
X143466502Y-96520000D01*
X143486457Y-96748087D01*
X143487881Y-96753400D01*
X143487881Y-96753402D01*
X143511296Y-96840785D01*
X143545716Y-96969243D01*
X143548039Y-96974224D01*
X143548039Y-96974225D01*
X143640151Y-97171762D01*
X143640154Y-97171767D01*
X143642477Y-97176749D01*
X143645634Y-97181257D01*
X143755172Y-97337693D01*
X143773802Y-97364300D01*
X143935700Y-97526198D01*
X143940208Y-97529355D01*
X143940211Y-97529357D01*
X143959841Y-97543102D01*
X144123251Y-97657523D01*
X144128233Y-97659846D01*
X144128238Y-97659849D01*
X144162457Y-97675805D01*
X144215742Y-97722722D01*
X144235203Y-97790999D01*
X144214661Y-97858959D01*
X144162457Y-97904195D01*
X144128238Y-97920151D01*
X144128233Y-97920154D01*
X144123251Y-97922477D01*
X144059657Y-97967006D01*
X143940211Y-98050643D01*
X143940208Y-98050645D01*
X143935700Y-98053802D01*
X143773802Y-98215700D01*
X143642477Y-98403251D01*
X143640154Y-98408233D01*
X143640151Y-98408238D01*
X143549214Y-98603255D01*
X143545716Y-98610757D01*
X143486457Y-98831913D01*
X143466502Y-99060000D01*
X143486457Y-99288087D01*
X143545716Y-99509243D01*
X143548039Y-99514224D01*
X143548039Y-99514225D01*
X143640151Y-99711762D01*
X143640154Y-99711767D01*
X143642477Y-99716749D01*
X143773802Y-99904300D01*
X143935700Y-100066198D01*
X143940208Y-100069355D01*
X143940211Y-100069357D01*
X144018389Y-100124098D01*
X144123251Y-100197523D01*
X144128233Y-100199846D01*
X144128238Y-100199849D01*
X144162457Y-100215805D01*
X144215742Y-100262722D01*
X144235203Y-100330999D01*
X144214661Y-100398959D01*
X144162457Y-100444195D01*
X144128238Y-100460151D01*
X144128233Y-100460154D01*
X144123251Y-100462477D01*
X144018389Y-100535902D01*
X143940211Y-100590643D01*
X143940208Y-100590645D01*
X143935700Y-100593802D01*
X143773802Y-100755700D01*
X143770645Y-100760208D01*
X143770643Y-100760211D01*
X143715902Y-100838389D01*
X143642477Y-100943251D01*
X143640154Y-100948233D01*
X143640151Y-100948238D01*
X143638938Y-100950840D01*
X143545716Y-101150757D01*
X143486457Y-101371913D01*
X143466502Y-101600000D01*
X138473498Y-101600000D01*
X138453543Y-101371913D01*
X138394284Y-101150757D01*
X138301062Y-100950840D01*
X138299849Y-100948238D01*
X138299846Y-100948233D01*
X138297523Y-100943251D01*
X138224098Y-100838389D01*
X138169357Y-100760211D01*
X138169355Y-100760208D01*
X138166198Y-100755700D01*
X138004300Y-100593802D01*
X137999792Y-100590645D01*
X137999789Y-100590643D01*
X137921611Y-100535902D01*
X137816749Y-100462477D01*
X137811767Y-100460154D01*
X137811762Y-100460151D01*
X137777543Y-100444195D01*
X137724258Y-100397278D01*
X137704797Y-100329001D01*
X137725339Y-100261041D01*
X137777543Y-100215805D01*
X137811762Y-100199849D01*
X137811767Y-100199846D01*
X137816749Y-100197523D01*
X137921611Y-100124098D01*
X137999789Y-100069357D01*
X137999792Y-100069355D01*
X138004300Y-100066198D01*
X138166198Y-99904300D01*
X138297523Y-99716749D01*
X138299846Y-99711767D01*
X138299849Y-99711762D01*
X138391961Y-99514225D01*
X138391961Y-99514224D01*
X138394284Y-99509243D01*
X138453543Y-99288087D01*
X138473498Y-99060000D01*
X138453543Y-98831913D01*
X138394284Y-98610757D01*
X138390786Y-98603255D01*
X138299849Y-98408238D01*
X138299846Y-98408233D01*
X138297523Y-98403251D01*
X138166198Y-98215700D01*
X138004300Y-98053802D01*
X137999792Y-98050645D01*
X137999789Y-98050643D01*
X137880343Y-97967006D01*
X137816749Y-97922477D01*
X137811767Y-97920154D01*
X137811762Y-97920151D01*
X137777543Y-97904195D01*
X137724258Y-97857278D01*
X137704797Y-97789001D01*
X137725339Y-97721041D01*
X137777543Y-97675805D01*
X137811762Y-97659849D01*
X137811767Y-97659846D01*
X137816749Y-97657523D01*
X137980159Y-97543102D01*
X137999789Y-97529357D01*
X137999792Y-97529355D01*
X138004300Y-97526198D01*
X138166198Y-97364300D01*
X138184829Y-97337693D01*
X138294366Y-97181257D01*
X138297523Y-97176749D01*
X138299846Y-97171767D01*
X138299849Y-97171762D01*
X138391961Y-96974225D01*
X138391961Y-96974224D01*
X138394284Y-96969243D01*
X138428705Y-96840785D01*
X138452119Y-96753402D01*
X138452119Y-96753400D01*
X138453543Y-96748087D01*
X138473498Y-96520000D01*
X138453543Y-96291913D01*
X138394284Y-96070757D01*
X138363769Y-96005316D01*
X138299849Y-95868238D01*
X138299846Y-95868233D01*
X138297523Y-95863251D01*
X138212002Y-95741114D01*
X138169357Y-95680211D01*
X138169355Y-95680208D01*
X138166198Y-95675700D01*
X138004300Y-95513802D01*
X137999792Y-95510645D01*
X137999789Y-95510643D01*
X137921611Y-95455902D01*
X137816749Y-95382477D01*
X137811767Y-95380154D01*
X137811762Y-95380151D01*
X137777543Y-95364195D01*
X137724258Y-95317278D01*
X137704797Y-95249001D01*
X137725339Y-95181041D01*
X137777543Y-95135805D01*
X137811762Y-95119849D01*
X137811767Y-95119846D01*
X137816749Y-95117523D01*
X137921611Y-95044098D01*
X137999789Y-94989357D01*
X137999792Y-94989355D01*
X138004300Y-94986198D01*
X138166198Y-94824300D01*
X138297523Y-94636749D01*
X138299846Y-94631767D01*
X138299849Y-94631762D01*
X138391961Y-94434225D01*
X138391961Y-94434224D01*
X138394284Y-94429243D01*
X138447206Y-94231739D01*
X138452119Y-94213402D01*
X138452119Y-94213400D01*
X138453543Y-94208087D01*
X138473498Y-93980000D01*
X138453543Y-93751913D01*
X138443480Y-93714357D01*
X138395707Y-93536067D01*
X138395706Y-93536065D01*
X138394284Y-93530757D01*
X138315475Y-93361749D01*
X138299849Y-93328238D01*
X138299846Y-93328233D01*
X138297523Y-93323251D01*
X138224098Y-93218389D01*
X138169357Y-93140211D01*
X138169355Y-93140208D01*
X138166198Y-93135700D01*
X138004300Y-92973802D01*
X137999792Y-92970645D01*
X137999789Y-92970643D01*
X137921611Y-92915902D01*
X137816749Y-92842477D01*
X137811767Y-92840154D01*
X137811762Y-92840151D01*
X137777543Y-92824195D01*
X137724258Y-92777278D01*
X137704797Y-92709001D01*
X137725339Y-92641041D01*
X137777543Y-92595805D01*
X137811762Y-92579849D01*
X137811767Y-92579846D01*
X137816749Y-92577523D01*
X137921611Y-92504098D01*
X137999789Y-92449357D01*
X137999792Y-92449355D01*
X138004300Y-92446198D01*
X138166198Y-92284300D01*
X138297523Y-92096749D01*
X138299846Y-92091767D01*
X138299849Y-92091762D01*
X138391961Y-91894225D01*
X138391961Y-91894224D01*
X138394284Y-91889243D01*
X138400724Y-91865211D01*
X138452119Y-91673402D01*
X138452119Y-91673400D01*
X138453543Y-91668087D01*
X138473498Y-91440000D01*
X138453543Y-91211913D01*
X138394284Y-90990757D01*
X138391961Y-90985775D01*
X138299849Y-90788238D01*
X138299846Y-90788233D01*
X138297523Y-90783251D01*
X138166198Y-90595700D01*
X138004300Y-90433802D01*
X137999792Y-90430645D01*
X137999789Y-90430643D01*
X137921611Y-90375902D01*
X137816749Y-90302477D01*
X137811767Y-90300154D01*
X137811762Y-90300151D01*
X137777543Y-90284195D01*
X137724258Y-90237278D01*
X137704797Y-90169001D01*
X137725339Y-90101041D01*
X137777543Y-90055805D01*
X137811762Y-90039849D01*
X137811767Y-90039846D01*
X137816749Y-90037523D01*
X137921611Y-89964098D01*
X137999789Y-89909357D01*
X137999792Y-89909355D01*
X138004300Y-89906198D01*
X138166198Y-89744300D01*
X138297523Y-89556749D01*
X138299846Y-89551767D01*
X138299849Y-89551762D01*
X138391961Y-89354225D01*
X138391961Y-89354224D01*
X138394284Y-89349243D01*
X138453543Y-89128087D01*
X138473498Y-88900000D01*
X138453543Y-88671913D01*
X138394284Y-88450757D01*
X138391961Y-88445775D01*
X138299849Y-88248238D01*
X138299846Y-88248233D01*
X138297523Y-88243251D01*
X138166198Y-88055700D01*
X138004300Y-87893802D01*
X137999792Y-87890645D01*
X137999789Y-87890643D01*
X137921611Y-87835902D01*
X137816749Y-87762477D01*
X137811767Y-87760154D01*
X137811762Y-87760151D01*
X137777543Y-87744195D01*
X137724258Y-87697278D01*
X137704797Y-87629001D01*
X137725339Y-87561041D01*
X137777543Y-87515805D01*
X137811762Y-87499849D01*
X137811767Y-87499846D01*
X137816749Y-87497523D01*
X137921611Y-87424098D01*
X137999789Y-87369357D01*
X137999792Y-87369355D01*
X138004300Y-87366198D01*
X138166198Y-87204300D01*
X138297523Y-87016749D01*
X138299846Y-87011767D01*
X138299849Y-87011762D01*
X138391961Y-86814225D01*
X138391961Y-86814224D01*
X138394284Y-86809243D01*
X138453543Y-86588087D01*
X138473498Y-86360000D01*
X138453543Y-86131913D01*
X138394284Y-85910757D01*
X138391961Y-85905775D01*
X138299849Y-85708238D01*
X138299846Y-85708233D01*
X138297523Y-85703251D01*
X138166198Y-85515700D01*
X138004300Y-85353802D01*
X137999792Y-85350645D01*
X137999789Y-85350643D01*
X137921611Y-85295902D01*
X137816749Y-85222477D01*
X137811767Y-85220154D01*
X137811762Y-85220151D01*
X137777543Y-85204195D01*
X137724258Y-85157278D01*
X137704797Y-85089001D01*
X137725339Y-85021041D01*
X137777543Y-84975805D01*
X137811762Y-84959849D01*
X137811767Y-84959846D01*
X137816749Y-84957523D01*
X137921611Y-84884098D01*
X137999789Y-84829357D01*
X137999792Y-84829355D01*
X138004300Y-84826198D01*
X138166198Y-84664300D01*
X138297523Y-84476749D01*
X138299846Y-84471767D01*
X138299849Y-84471762D01*
X138391961Y-84274225D01*
X138391961Y-84274224D01*
X138394284Y-84269243D01*
X138453543Y-84048087D01*
X138473498Y-83820000D01*
X138453543Y-83591913D01*
X138394284Y-83370757D01*
X138345633Y-83266424D01*
X138299849Y-83168238D01*
X138299846Y-83168233D01*
X138297523Y-83163251D01*
X138182550Y-82999053D01*
X138169357Y-82980211D01*
X138169355Y-82980208D01*
X138166198Y-82975700D01*
X138004300Y-82813802D01*
X137999792Y-82810645D01*
X137999789Y-82810643D01*
X137921611Y-82755902D01*
X137816749Y-82682477D01*
X137811767Y-82680154D01*
X137811762Y-82680151D01*
X137777543Y-82664195D01*
X137724258Y-82617278D01*
X137704797Y-82549001D01*
X137725339Y-82481041D01*
X137777543Y-82435805D01*
X137811762Y-82419849D01*
X137811767Y-82419846D01*
X137816749Y-82417523D01*
X137967897Y-82311688D01*
X137999789Y-82289357D01*
X137999792Y-82289355D01*
X138004300Y-82286198D01*
X138166198Y-82124300D01*
X138297523Y-81936749D01*
X138299846Y-81931767D01*
X138299849Y-81931762D01*
X138391961Y-81734225D01*
X138391961Y-81734224D01*
X138394284Y-81729243D01*
X138453543Y-81508087D01*
X138473498Y-81280000D01*
X138453543Y-81051913D01*
X138450779Y-81041598D01*
X138395707Y-80836067D01*
X138395706Y-80836065D01*
X138394284Y-80830757D01*
X138391961Y-80825775D01*
X138299849Y-80628238D01*
X138299846Y-80628233D01*
X138297523Y-80623251D01*
X138176070Y-80449798D01*
X138169357Y-80440211D01*
X138169355Y-80440208D01*
X138166198Y-80435700D01*
X138004300Y-80273802D01*
X137999789Y-80270643D01*
X137995576Y-80267108D01*
X137996388Y-80266140D01*
X137955910Y-80215506D01*
X137948596Y-80144887D01*
X137980624Y-80081524D01*
X138041823Y-80045536D01*
X138058901Y-80042480D01*
X138062352Y-80042105D01*
X138077604Y-80038479D01*
X138198054Y-79993324D01*
X138213649Y-79984786D01*
X138315724Y-79908285D01*
X138328285Y-79895724D01*
X138404786Y-79793649D01*
X138413324Y-79778054D01*
X138458478Y-79657606D01*
X138462105Y-79642351D01*
X138467631Y-79591486D01*
X138468000Y-79584672D01*
X138468000Y-79012115D01*
X138463525Y-78996876D01*
X138462135Y-78995671D01*
X138454452Y-78994000D01*
X135870116Y-78994000D01*
X135854877Y-78998475D01*
X135853672Y-78999865D01*
X135852001Y-79007548D01*
X135852001Y-79584669D01*
X135852371Y-79591490D01*
X135857895Y-79642352D01*
X135861521Y-79657604D01*
X135906676Y-79778054D01*
X135915214Y-79793649D01*
X135991715Y-79895724D01*
X136004276Y-79908285D01*
X136106351Y-79984786D01*
X136121946Y-79993324D01*
X136242394Y-80038478D01*
X136257643Y-80042104D01*
X136261096Y-80042479D01*
X136263606Y-80043522D01*
X136265331Y-80043932D01*
X136265265Y-80044211D01*
X136326659Y-80069719D01*
X136367088Y-80128080D01*
X136369546Y-80199034D01*
X136333253Y-80260054D01*
X136321760Y-80269344D01*
X136320214Y-80270641D01*
X136315700Y-80273802D01*
X136153802Y-80435700D01*
X136150645Y-80440208D01*
X136150643Y-80440211D01*
X136143930Y-80449798D01*
X136022477Y-80623251D01*
X136020154Y-80628233D01*
X136020151Y-80628238D01*
X135928039Y-80825775D01*
X135925716Y-80830757D01*
X135924294Y-80836065D01*
X135924293Y-80836067D01*
X135869221Y-81041598D01*
X135866457Y-81051913D01*
X135846502Y-81280000D01*
X135866457Y-81508087D01*
X135925716Y-81729243D01*
X135928039Y-81734224D01*
X135928039Y-81734225D01*
X136020151Y-81931762D01*
X136020154Y-81931767D01*
X136022477Y-81936749D01*
X136153802Y-82124300D01*
X136315700Y-82286198D01*
X136320208Y-82289355D01*
X136320211Y-82289357D01*
X136352103Y-82311688D01*
X136503251Y-82417523D01*
X136508233Y-82419846D01*
X136508238Y-82419849D01*
X136542457Y-82435805D01*
X136595742Y-82482722D01*
X136615203Y-82550999D01*
X136594661Y-82618959D01*
X136542457Y-82664195D01*
X136508238Y-82680151D01*
X136508233Y-82680154D01*
X136503251Y-82682477D01*
X136398389Y-82755902D01*
X136320211Y-82810643D01*
X136320208Y-82810645D01*
X136315700Y-82813802D01*
X136153802Y-82975700D01*
X136150645Y-82980208D01*
X136150643Y-82980211D01*
X136137450Y-82999053D01*
X136022477Y-83163251D01*
X136020154Y-83168233D01*
X136020151Y-83168238D01*
X135974367Y-83266424D01*
X135925716Y-83370757D01*
X135866457Y-83591913D01*
X135846502Y-83820000D01*
X135866457Y-84048087D01*
X135925716Y-84269243D01*
X135928039Y-84274224D01*
X135928039Y-84274225D01*
X136020151Y-84471762D01*
X136020154Y-84471767D01*
X136022477Y-84476749D01*
X136153802Y-84664300D01*
X136315700Y-84826198D01*
X136320208Y-84829355D01*
X136320211Y-84829357D01*
X136398389Y-84884098D01*
X136503251Y-84957523D01*
X136508233Y-84959846D01*
X136508238Y-84959849D01*
X136542457Y-84975805D01*
X136595742Y-85022722D01*
X136615203Y-85090999D01*
X136594661Y-85158959D01*
X136542457Y-85204195D01*
X136508238Y-85220151D01*
X136508233Y-85220154D01*
X136503251Y-85222477D01*
X136398389Y-85295902D01*
X136320211Y-85350643D01*
X136320208Y-85350645D01*
X136315700Y-85353802D01*
X136153802Y-85515700D01*
X136022477Y-85703251D01*
X136020154Y-85708233D01*
X136020151Y-85708238D01*
X135928039Y-85905775D01*
X135925716Y-85910757D01*
X135866457Y-86131913D01*
X135846502Y-86360000D01*
X135866457Y-86588087D01*
X135925716Y-86809243D01*
X135928039Y-86814224D01*
X135928039Y-86814225D01*
X136020151Y-87011762D01*
X136020154Y-87011767D01*
X136022477Y-87016749D01*
X136153802Y-87204300D01*
X136315700Y-87366198D01*
X136320208Y-87369355D01*
X136320211Y-87369357D01*
X136398389Y-87424098D01*
X136503251Y-87497523D01*
X136508233Y-87499846D01*
X136508238Y-87499849D01*
X136542457Y-87515805D01*
X136595742Y-87562722D01*
X136615203Y-87630999D01*
X136594661Y-87698959D01*
X136542457Y-87744195D01*
X136508238Y-87760151D01*
X136508233Y-87760154D01*
X136503251Y-87762477D01*
X136398389Y-87835902D01*
X136320211Y-87890643D01*
X136320208Y-87890645D01*
X136315700Y-87893802D01*
X136153802Y-88055700D01*
X136022477Y-88243251D01*
X136020154Y-88248233D01*
X136020151Y-88248238D01*
X135928039Y-88445775D01*
X135925716Y-88450757D01*
X135866457Y-88671913D01*
X135846502Y-88900000D01*
X135866457Y-89128087D01*
X135925716Y-89349243D01*
X135928039Y-89354224D01*
X135928039Y-89354225D01*
X136020151Y-89551762D01*
X136020154Y-89551767D01*
X136022477Y-89556749D01*
X136153802Y-89744300D01*
X136315700Y-89906198D01*
X136320208Y-89909355D01*
X136320211Y-89909357D01*
X136398389Y-89964098D01*
X136503251Y-90037523D01*
X136508233Y-90039846D01*
X136508238Y-90039849D01*
X136542457Y-90055805D01*
X136595742Y-90102722D01*
X136615203Y-90170999D01*
X136594661Y-90238959D01*
X136542457Y-90284195D01*
X136508238Y-90300151D01*
X136508233Y-90300154D01*
X136503251Y-90302477D01*
X136398389Y-90375902D01*
X136320211Y-90430643D01*
X136320208Y-90430645D01*
X136315700Y-90433802D01*
X136153802Y-90595700D01*
X136022477Y-90783251D01*
X136020154Y-90788233D01*
X136020151Y-90788238D01*
X135928039Y-90985775D01*
X135925716Y-90990757D01*
X135866457Y-91211913D01*
X135846502Y-91440000D01*
X135866457Y-91668087D01*
X135867881Y-91673400D01*
X135867881Y-91673402D01*
X135919277Y-91865211D01*
X135925716Y-91889243D01*
X135928039Y-91894224D01*
X135928039Y-91894225D01*
X136020151Y-92091762D01*
X136020154Y-92091767D01*
X136022477Y-92096749D01*
X136153802Y-92284300D01*
X136315700Y-92446198D01*
X136320208Y-92449355D01*
X136320211Y-92449357D01*
X136398389Y-92504098D01*
X136503251Y-92577523D01*
X136508233Y-92579846D01*
X136508238Y-92579849D01*
X136542457Y-92595805D01*
X136595742Y-92642722D01*
X136615203Y-92710999D01*
X136594661Y-92778959D01*
X136542457Y-92824195D01*
X136508238Y-92840151D01*
X136508233Y-92840154D01*
X136503251Y-92842477D01*
X136398389Y-92915902D01*
X136320211Y-92970643D01*
X136320208Y-92970645D01*
X136315700Y-92973802D01*
X136153802Y-93135700D01*
X136150645Y-93140208D01*
X136150643Y-93140211D01*
X136095902Y-93218389D01*
X136022477Y-93323251D01*
X136020154Y-93328233D01*
X136020151Y-93328238D01*
X136004525Y-93361749D01*
X135925716Y-93530757D01*
X135924294Y-93536065D01*
X135924293Y-93536067D01*
X135876520Y-93714357D01*
X135866457Y-93751913D01*
X135846502Y-93980000D01*
X135866457Y-94208087D01*
X135867881Y-94213400D01*
X135867881Y-94213402D01*
X135872795Y-94231739D01*
X135925716Y-94429243D01*
X135928039Y-94434224D01*
X135928039Y-94434225D01*
X136020151Y-94631762D01*
X136020154Y-94631767D01*
X136022477Y-94636749D01*
X136153802Y-94824300D01*
X136315700Y-94986198D01*
X136320208Y-94989355D01*
X136320211Y-94989357D01*
X136398389Y-95044098D01*
X136503251Y-95117523D01*
X136508233Y-95119846D01*
X136508238Y-95119849D01*
X136542457Y-95135805D01*
X136595742Y-95182722D01*
X136615203Y-95250999D01*
X136594661Y-95318959D01*
X136542457Y-95364195D01*
X136508238Y-95380151D01*
X136508233Y-95380154D01*
X136503251Y-95382477D01*
X136398389Y-95455902D01*
X136320211Y-95510643D01*
X136320208Y-95510645D01*
X136315700Y-95513802D01*
X136153802Y-95675700D01*
X136150645Y-95680208D01*
X136150643Y-95680211D01*
X136107998Y-95741114D01*
X136022477Y-95863251D01*
X136020154Y-95868233D01*
X136020151Y-95868238D01*
X135956231Y-96005316D01*
X135925716Y-96070757D01*
X135866457Y-96291913D01*
X135846502Y-96520000D01*
X135866457Y-96748087D01*
X135867881Y-96753400D01*
X135867881Y-96753402D01*
X135891296Y-96840785D01*
X135925716Y-96969243D01*
X135928039Y-96974224D01*
X135928039Y-96974225D01*
X136020151Y-97171762D01*
X136020154Y-97171767D01*
X136022477Y-97176749D01*
X136025634Y-97181257D01*
X136135172Y-97337693D01*
X136153802Y-97364300D01*
X136315700Y-97526198D01*
X136320208Y-97529355D01*
X136320211Y-97529357D01*
X136339841Y-97543102D01*
X136503251Y-97657523D01*
X136508233Y-97659846D01*
X136508238Y-97659849D01*
X136542457Y-97675805D01*
X136595742Y-97722722D01*
X136615203Y-97790999D01*
X136594661Y-97858959D01*
X136542457Y-97904195D01*
X136508238Y-97920151D01*
X136508233Y-97920154D01*
X136503251Y-97922477D01*
X136439657Y-97967006D01*
X136320211Y-98050643D01*
X136320208Y-98050645D01*
X136315700Y-98053802D01*
X136153802Y-98215700D01*
X136022477Y-98403251D01*
X136020154Y-98408233D01*
X136020151Y-98408238D01*
X135929214Y-98603255D01*
X135925716Y-98610757D01*
X135866457Y-98831913D01*
X135846502Y-99060000D01*
X135866457Y-99288087D01*
X135925716Y-99509243D01*
X135928039Y-99514224D01*
X135928039Y-99514225D01*
X136020151Y-99711762D01*
X136020154Y-99711767D01*
X136022477Y-99716749D01*
X136153802Y-99904300D01*
X136315700Y-100066198D01*
X136320208Y-100069355D01*
X136320211Y-100069357D01*
X136398389Y-100124098D01*
X136503251Y-100197523D01*
X136508233Y-100199846D01*
X136508238Y-100199849D01*
X136542457Y-100215805D01*
X136595742Y-100262722D01*
X136615203Y-100330999D01*
X136594661Y-100398959D01*
X136542457Y-100444195D01*
X136508238Y-100460151D01*
X136508233Y-100460154D01*
X136503251Y-100462477D01*
X136398389Y-100535902D01*
X136320211Y-100590643D01*
X136320208Y-100590645D01*
X136315700Y-100593802D01*
X136153802Y-100755700D01*
X136150645Y-100760208D01*
X136150643Y-100760211D01*
X136095902Y-100838389D01*
X136022477Y-100943251D01*
X136020154Y-100948233D01*
X136020151Y-100948238D01*
X136018938Y-100950840D01*
X135925716Y-101150757D01*
X135866457Y-101371913D01*
X135846502Y-101600000D01*
X134703034Y-101600000D01*
X134703156Y-101595000D01*
X134684852Y-101372361D01*
X134630431Y-101155702D01*
X134541354Y-100950840D01*
X134420014Y-100763277D01*
X134269670Y-100598051D01*
X134265619Y-100594852D01*
X134265615Y-100594848D01*
X134098414Y-100462800D01*
X134098410Y-100462798D01*
X134094359Y-100459598D01*
X134066457Y-100444195D01*
X133924291Y-100365716D01*
X133898789Y-100351638D01*
X133893920Y-100349914D01*
X133893916Y-100349912D01*
X133693087Y-100278795D01*
X133693083Y-100278794D01*
X133688212Y-100277069D01*
X133683119Y-100276162D01*
X133683116Y-100276161D01*
X133473373Y-100238800D01*
X133473367Y-100238799D01*
X133468284Y-100237894D01*
X133394452Y-100236992D01*
X133250081Y-100235228D01*
X133250079Y-100235228D01*
X133244911Y-100235165D01*
X133024091Y-100268955D01*
X132811756Y-100338357D01*
X132613607Y-100441507D01*
X132609474Y-100444610D01*
X132609471Y-100444612D01*
X132439100Y-100572530D01*
X132434965Y-100575635D01*
X132280629Y-100737138D01*
X132154743Y-100921680D01*
X132060688Y-101124305D01*
X132000989Y-101339570D01*
X131977251Y-101561695D01*
X124968500Y-101561695D01*
X124968500Y-97754544D01*
X130906936Y-97754544D01*
X130920861Y-97967006D01*
X130922282Y-97972602D01*
X130922283Y-97972607D01*
X130971851Y-98167777D01*
X130973272Y-98173372D01*
X130975689Y-98178615D01*
X131012389Y-98258223D01*
X131062411Y-98366731D01*
X131185296Y-98540609D01*
X131337809Y-98689181D01*
X131342605Y-98692386D01*
X131342608Y-98692388D01*
X131414088Y-98740149D01*
X131514843Y-98807471D01*
X131520146Y-98809749D01*
X131520149Y-98809751D01*
X131559362Y-98826598D01*
X131710470Y-98891519D01*
X131786316Y-98908681D01*
X131912501Y-98937234D01*
X131912506Y-98937235D01*
X131918138Y-98938509D01*
X131923909Y-98938736D01*
X131923911Y-98938736D01*
X131985252Y-98941146D01*
X132130891Y-98946869D01*
X132136600Y-98946041D01*
X132136604Y-98946041D01*
X132335890Y-98917145D01*
X132335894Y-98917144D01*
X132341605Y-98916316D01*
X132543223Y-98847876D01*
X132728993Y-98743840D01*
X132892693Y-98607693D01*
X133028840Y-98443993D01*
X133132876Y-98258223D01*
X133201316Y-98056605D01*
X133202181Y-98050643D01*
X133231337Y-97849561D01*
X133231337Y-97849559D01*
X133231869Y-97845891D01*
X133233122Y-97798026D01*
X133254900Y-97730452D01*
X133309754Y-97685379D01*
X133364026Y-97675420D01*
X133400891Y-97676869D01*
X133406599Y-97676041D01*
X133406605Y-97676041D01*
X133605890Y-97647145D01*
X133605894Y-97647144D01*
X133611605Y-97646316D01*
X133813223Y-97577876D01*
X133998993Y-97473840D01*
X134162693Y-97337693D01*
X134298840Y-97173993D01*
X134402876Y-96988223D01*
X134471316Y-96786605D01*
X134476131Y-96753402D01*
X134501337Y-96579561D01*
X134501337Y-96579559D01*
X134501869Y-96575891D01*
X134503463Y-96515000D01*
X134483981Y-96302976D01*
X134482413Y-96297416D01*
X134427754Y-96103611D01*
X134427753Y-96103609D01*
X134426186Y-96098052D01*
X134415345Y-96076067D01*
X134334570Y-95912273D01*
X134332015Y-95907092D01*
X134204622Y-95736491D01*
X134048271Y-95591963D01*
X133868201Y-95478347D01*
X133670441Y-95399449D01*
X133664781Y-95398323D01*
X133664777Y-95398322D01*
X133467282Y-95359038D01*
X133467280Y-95359038D01*
X133461615Y-95357911D01*
X133455840Y-95357835D01*
X133455836Y-95357835D01*
X133352850Y-95356487D01*
X133284997Y-95335595D01*
X133239211Y-95281335D01*
X133228500Y-95230498D01*
X133228500Y-94546866D01*
X133221745Y-94484684D01*
X133170615Y-94348295D01*
X133083261Y-94231739D01*
X132966705Y-94144385D01*
X132830316Y-94093255D01*
X132768134Y-94086500D01*
X131371866Y-94086500D01*
X131309684Y-94093255D01*
X131173295Y-94144385D01*
X131056739Y-94231739D01*
X130969385Y-94348295D01*
X130918255Y-94484684D01*
X130911500Y-94546866D01*
X130911500Y-95943134D01*
X130918255Y-96005316D01*
X130969385Y-96141705D01*
X131056739Y-96258261D01*
X131173295Y-96345615D01*
X131309684Y-96396745D01*
X131371866Y-96403500D01*
X131791190Y-96403500D01*
X131859311Y-96423502D01*
X131905804Y-96477158D01*
X131915908Y-96547432D01*
X131886414Y-96612012D01*
X131826688Y-96650396D01*
X131812528Y-96653680D01*
X131774564Y-96660203D01*
X131774561Y-96660204D01*
X131768874Y-96661181D01*
X131569116Y-96734875D01*
X131386134Y-96843739D01*
X131226054Y-96984125D01*
X131094238Y-97151333D01*
X131091549Y-97156444D01*
X131091547Y-97156447D01*
X131082316Y-97173993D01*
X130995100Y-97339762D01*
X130993386Y-97345283D01*
X130993384Y-97345287D01*
X130952592Y-97476659D01*
X130931961Y-97543102D01*
X130906936Y-97754544D01*
X124968500Y-97754544D01*
X124968500Y-91435000D01*
X132026502Y-91435000D01*
X132046457Y-91663087D01*
X132047881Y-91668400D01*
X132047881Y-91668402D01*
X132099408Y-91860700D01*
X132105716Y-91884243D01*
X132108039Y-91889224D01*
X132108039Y-91889225D01*
X132200151Y-92086762D01*
X132200154Y-92086767D01*
X132202477Y-92091749D01*
X132209135Y-92101257D01*
X132313829Y-92250775D01*
X132333802Y-92279300D01*
X132495700Y-92441198D01*
X132500208Y-92444355D01*
X132500211Y-92444357D01*
X132546706Y-92476913D01*
X132683251Y-92572523D01*
X132688233Y-92574846D01*
X132688238Y-92574849D01*
X132830189Y-92641041D01*
X132890757Y-92669284D01*
X132896065Y-92670706D01*
X132896067Y-92670707D01*
X133106598Y-92727119D01*
X133106600Y-92727119D01*
X133111913Y-92728543D01*
X133340000Y-92748498D01*
X133568087Y-92728543D01*
X133573400Y-92727119D01*
X133573402Y-92727119D01*
X133783933Y-92670707D01*
X133783935Y-92670706D01*
X133789243Y-92669284D01*
X133849811Y-92641041D01*
X133991762Y-92574849D01*
X133991767Y-92574846D01*
X133996749Y-92572523D01*
X134133294Y-92476913D01*
X134179789Y-92444357D01*
X134179792Y-92444355D01*
X134184300Y-92441198D01*
X134346198Y-92279300D01*
X134366172Y-92250775D01*
X134470865Y-92101257D01*
X134477523Y-92091749D01*
X134479846Y-92086767D01*
X134479849Y-92086762D01*
X134571961Y-91889225D01*
X134571961Y-91889224D01*
X134574284Y-91884243D01*
X134580593Y-91860700D01*
X134632119Y-91668402D01*
X134632119Y-91668400D01*
X134633543Y-91663087D01*
X134653498Y-91435000D01*
X134633543Y-91206913D01*
X134574284Y-90985757D01*
X134571961Y-90980775D01*
X134479849Y-90783238D01*
X134479846Y-90783233D01*
X134477523Y-90778251D01*
X134346198Y-90590700D01*
X134184300Y-90428802D01*
X134179792Y-90425645D01*
X134179789Y-90425643D01*
X134008398Y-90305634D01*
X133996749Y-90297477D01*
X133991767Y-90295154D01*
X133991762Y-90295151D01*
X133794225Y-90203039D01*
X133794224Y-90203039D01*
X133789243Y-90200716D01*
X133783935Y-90199294D01*
X133783933Y-90199293D01*
X133573402Y-90142881D01*
X133573400Y-90142881D01*
X133568087Y-90141457D01*
X133340000Y-90121502D01*
X133111913Y-90141457D01*
X133106600Y-90142881D01*
X133106598Y-90142881D01*
X132896067Y-90199293D01*
X132896065Y-90199294D01*
X132890757Y-90200716D01*
X132885776Y-90203039D01*
X132885775Y-90203039D01*
X132688238Y-90295151D01*
X132688233Y-90295154D01*
X132683251Y-90297477D01*
X132671602Y-90305634D01*
X132500211Y-90425643D01*
X132500208Y-90425645D01*
X132495700Y-90428802D01*
X132333802Y-90590700D01*
X132202477Y-90778251D01*
X132200154Y-90783233D01*
X132200151Y-90783238D01*
X132108039Y-90980775D01*
X132105716Y-90985757D01*
X132046457Y-91206913D01*
X132026502Y-91435000D01*
X124968500Y-91435000D01*
X124968500Y-81275000D01*
X132026502Y-81275000D01*
X132046457Y-81503087D01*
X132105716Y-81724243D01*
X132108039Y-81729224D01*
X132108039Y-81729225D01*
X132200151Y-81926762D01*
X132200154Y-81926767D01*
X132202477Y-81931749D01*
X132209135Y-81941257D01*
X132321156Y-82101239D01*
X132333802Y-82119300D01*
X132495700Y-82281198D01*
X132500208Y-82284355D01*
X132500211Y-82284357D01*
X132507352Y-82289357D01*
X132683251Y-82412523D01*
X132688233Y-82414846D01*
X132688238Y-82414849D01*
X132830189Y-82481041D01*
X132890757Y-82509284D01*
X132896065Y-82510706D01*
X132896067Y-82510707D01*
X133106598Y-82567119D01*
X133106600Y-82567119D01*
X133111913Y-82568543D01*
X133340000Y-82588498D01*
X133568087Y-82568543D01*
X133573400Y-82567119D01*
X133573402Y-82567119D01*
X133783933Y-82510707D01*
X133783935Y-82510706D01*
X133789243Y-82509284D01*
X133849811Y-82481041D01*
X133991762Y-82414849D01*
X133991767Y-82414846D01*
X133996749Y-82412523D01*
X134172648Y-82289357D01*
X134179789Y-82284357D01*
X134179792Y-82284355D01*
X134184300Y-82281198D01*
X134346198Y-82119300D01*
X134358845Y-82101239D01*
X134470865Y-81941257D01*
X134477523Y-81931749D01*
X134479846Y-81926767D01*
X134479849Y-81926762D01*
X134571961Y-81729225D01*
X134571961Y-81729224D01*
X134574284Y-81724243D01*
X134633543Y-81503087D01*
X134653498Y-81275000D01*
X134633543Y-81046913D01*
X134574284Y-80825757D01*
X134536219Y-80744126D01*
X134479849Y-80623238D01*
X134479846Y-80623233D01*
X134477523Y-80618251D01*
X134359571Y-80449798D01*
X134349357Y-80435211D01*
X134349355Y-80435208D01*
X134346198Y-80430700D01*
X134184300Y-80268802D01*
X134179792Y-80265645D01*
X134179789Y-80265643D01*
X134008398Y-80145634D01*
X133996749Y-80137477D01*
X133991767Y-80135154D01*
X133991762Y-80135151D01*
X133794225Y-80043039D01*
X133794224Y-80043039D01*
X133789243Y-80040716D01*
X133783935Y-80039294D01*
X133783933Y-80039293D01*
X133573402Y-79982881D01*
X133573400Y-79982881D01*
X133568087Y-79981457D01*
X133340000Y-79961502D01*
X133111913Y-79981457D01*
X133106600Y-79982881D01*
X133106598Y-79982881D01*
X132896067Y-80039293D01*
X132896065Y-80039294D01*
X132890757Y-80040716D01*
X132885776Y-80043039D01*
X132885775Y-80043039D01*
X132688238Y-80135151D01*
X132688233Y-80135154D01*
X132683251Y-80137477D01*
X132671602Y-80145634D01*
X132500211Y-80265643D01*
X132500208Y-80265645D01*
X132495700Y-80268802D01*
X132333802Y-80430700D01*
X132330645Y-80435208D01*
X132330643Y-80435211D01*
X132320429Y-80449798D01*
X132202477Y-80618251D01*
X132200154Y-80623233D01*
X132200151Y-80623238D01*
X132143781Y-80744126D01*
X132105716Y-80825757D01*
X132046457Y-81046913D01*
X132026502Y-81275000D01*
X124968500Y-81275000D01*
X124968500Y-78467885D01*
X135852000Y-78467885D01*
X135856475Y-78483124D01*
X135857865Y-78484329D01*
X135865548Y-78486000D01*
X136887885Y-78486000D01*
X136903124Y-78481525D01*
X136904329Y-78480135D01*
X136906000Y-78472452D01*
X136906000Y-78467885D01*
X137414000Y-78467885D01*
X137418475Y-78483124D01*
X137419865Y-78484329D01*
X137427548Y-78486000D01*
X138449884Y-78486000D01*
X138465123Y-78481525D01*
X138466328Y-78480135D01*
X138467999Y-78472452D01*
X138467999Y-77895331D01*
X138467629Y-77888510D01*
X138462105Y-77837648D01*
X138458479Y-77822396D01*
X138413324Y-77701946D01*
X138404786Y-77686351D01*
X138328285Y-77584276D01*
X138315724Y-77571715D01*
X138213649Y-77495214D01*
X138198054Y-77486676D01*
X138077606Y-77441522D01*
X138062351Y-77437895D01*
X138011486Y-77432369D01*
X138004672Y-77432000D01*
X137432115Y-77432000D01*
X137416876Y-77436475D01*
X137415671Y-77437865D01*
X137414000Y-77445548D01*
X137414000Y-78467885D01*
X136906000Y-78467885D01*
X136906000Y-77450116D01*
X136901525Y-77434877D01*
X136900135Y-77433672D01*
X136892452Y-77432001D01*
X136315331Y-77432001D01*
X136308510Y-77432371D01*
X136257648Y-77437895D01*
X136242396Y-77441521D01*
X136121946Y-77486676D01*
X136106351Y-77495214D01*
X136004276Y-77571715D01*
X135991715Y-77584276D01*
X135915214Y-77686351D01*
X135906676Y-77701946D01*
X135861522Y-77822394D01*
X135857895Y-77837649D01*
X135852369Y-77888514D01*
X135852000Y-77895328D01*
X135852000Y-78467885D01*
X124968500Y-78467885D01*
X124968500Y-76016062D01*
X131358493Y-76016062D01*
X131367789Y-76028077D01*
X131418994Y-76063931D01*
X131428489Y-76069414D01*
X131625947Y-76161490D01*
X131636239Y-76165236D01*
X131846688Y-76221625D01*
X131857481Y-76223528D01*
X132074525Y-76242517D01*
X132085475Y-76242517D01*
X132302519Y-76223528D01*
X132313312Y-76221625D01*
X132523761Y-76165236D01*
X132534053Y-76161490D01*
X132731511Y-76069414D01*
X132741006Y-76063931D01*
X132793048Y-76027491D01*
X132801424Y-76017012D01*
X132794356Y-76003566D01*
X132092812Y-75302022D01*
X132078868Y-75294408D01*
X132077035Y-75294539D01*
X132070420Y-75298790D01*
X131364923Y-76004287D01*
X131358493Y-76016062D01*
X124968500Y-76016062D01*
X124968500Y-74935475D01*
X130767483Y-74935475D01*
X130786472Y-75152519D01*
X130788375Y-75163312D01*
X130844764Y-75373761D01*
X130848510Y-75384053D01*
X130940586Y-75581511D01*
X130946069Y-75591006D01*
X130982509Y-75643048D01*
X130992988Y-75651424D01*
X131006434Y-75644356D01*
X131707978Y-74942812D01*
X131714356Y-74931132D01*
X132444408Y-74931132D01*
X132444539Y-74932965D01*
X132448790Y-74939580D01*
X133154287Y-75645077D01*
X133166062Y-75651507D01*
X133178077Y-75642211D01*
X133213931Y-75591006D01*
X133219414Y-75581511D01*
X133311490Y-75384053D01*
X133315236Y-75373761D01*
X133371625Y-75163312D01*
X133373528Y-75152519D01*
X133392517Y-74935475D01*
X133392517Y-74930000D01*
X140926502Y-74930000D01*
X140946457Y-75158087D01*
X140947881Y-75163400D01*
X140947881Y-75163402D01*
X140985025Y-75302022D01*
X141005716Y-75379243D01*
X141008039Y-75384224D01*
X141008039Y-75384225D01*
X141100151Y-75581762D01*
X141100154Y-75581767D01*
X141102477Y-75586749D01*
X141233802Y-75774300D01*
X141395700Y-75936198D01*
X141400208Y-75939355D01*
X141400211Y-75939357D01*
X141478389Y-75994098D01*
X141583251Y-76067523D01*
X141588233Y-76069846D01*
X141588238Y-76069849D01*
X141784765Y-76161490D01*
X141790757Y-76164284D01*
X141796065Y-76165706D01*
X141796067Y-76165707D01*
X142006598Y-76222119D01*
X142006600Y-76222119D01*
X142011913Y-76223543D01*
X142240000Y-76243498D01*
X142468087Y-76223543D01*
X142473400Y-76222119D01*
X142473402Y-76222119D01*
X142683933Y-76165707D01*
X142683935Y-76165706D01*
X142689243Y-76164284D01*
X142695235Y-76161490D01*
X142891762Y-76069849D01*
X142891767Y-76069846D01*
X142896749Y-76067523D01*
X143001611Y-75994098D01*
X143079789Y-75939357D01*
X143079792Y-75939355D01*
X143084300Y-75936198D01*
X143246198Y-75774300D01*
X143377523Y-75586749D01*
X143379846Y-75581767D01*
X143379849Y-75581762D01*
X143471961Y-75384225D01*
X143471961Y-75384224D01*
X143474284Y-75379243D01*
X143494976Y-75302022D01*
X143532119Y-75163402D01*
X143532119Y-75163400D01*
X143533543Y-75158087D01*
X143553498Y-74930000D01*
X143533543Y-74701913D01*
X143496981Y-74565461D01*
X143475707Y-74486067D01*
X143475706Y-74486065D01*
X143474284Y-74480757D01*
X143379966Y-74278489D01*
X143379849Y-74278238D01*
X143379846Y-74278233D01*
X143377523Y-74273251D01*
X143246198Y-74085700D01*
X143084300Y-73923802D01*
X143079792Y-73920645D01*
X143079789Y-73920643D01*
X142953920Y-73832509D01*
X142896749Y-73792477D01*
X142891767Y-73790154D01*
X142891762Y-73790151D01*
X142694225Y-73698039D01*
X142694224Y-73698039D01*
X142689243Y-73695716D01*
X142683935Y-73694294D01*
X142683933Y-73694293D01*
X142473402Y-73637881D01*
X142473400Y-73637881D01*
X142468087Y-73636457D01*
X142240000Y-73616502D01*
X142011913Y-73636457D01*
X142006600Y-73637881D01*
X142006598Y-73637881D01*
X141796067Y-73694293D01*
X141796065Y-73694294D01*
X141790757Y-73695716D01*
X141785776Y-73698039D01*
X141785775Y-73698039D01*
X141588238Y-73790151D01*
X141588233Y-73790154D01*
X141583251Y-73792477D01*
X141526080Y-73832509D01*
X141400211Y-73920643D01*
X141400208Y-73920645D01*
X141395700Y-73923802D01*
X141233802Y-74085700D01*
X141102477Y-74273251D01*
X141100154Y-74278233D01*
X141100151Y-74278238D01*
X141100034Y-74278489D01*
X141005716Y-74480757D01*
X141004294Y-74486065D01*
X141004293Y-74486067D01*
X140983019Y-74565461D01*
X140946457Y-74701913D01*
X140926502Y-74930000D01*
X133392517Y-74930000D01*
X133392517Y-74924525D01*
X133373528Y-74707481D01*
X133371625Y-74696688D01*
X133315236Y-74486239D01*
X133311490Y-74475947D01*
X133219414Y-74278489D01*
X133213931Y-74268994D01*
X133177491Y-74216952D01*
X133167012Y-74208576D01*
X133153566Y-74215644D01*
X132452022Y-74917188D01*
X132444408Y-74931132D01*
X131714356Y-74931132D01*
X131715592Y-74928868D01*
X131715461Y-74927035D01*
X131711210Y-74920420D01*
X131005713Y-74214923D01*
X130993938Y-74208493D01*
X130981923Y-74217789D01*
X130946069Y-74268994D01*
X130940586Y-74278489D01*
X130848510Y-74475947D01*
X130844764Y-74486239D01*
X130788375Y-74696688D01*
X130786472Y-74707481D01*
X130767483Y-74924525D01*
X130767483Y-74935475D01*
X124968500Y-74935475D01*
X124968500Y-73842988D01*
X131358576Y-73842988D01*
X131365644Y-73856434D01*
X132067188Y-74557978D01*
X132081132Y-74565592D01*
X132082965Y-74565461D01*
X132089580Y-74561210D01*
X132795077Y-73855713D01*
X132801507Y-73843938D01*
X132792211Y-73831923D01*
X132741006Y-73796069D01*
X132731511Y-73790586D01*
X132534053Y-73698510D01*
X132523761Y-73694764D01*
X132313312Y-73638375D01*
X132302519Y-73636472D01*
X132085475Y-73617483D01*
X132074525Y-73617483D01*
X131857481Y-73636472D01*
X131846688Y-73638375D01*
X131636239Y-73694764D01*
X131625947Y-73698510D01*
X131428489Y-73790586D01*
X131418994Y-73796069D01*
X131366952Y-73832509D01*
X131358576Y-73842988D01*
X124968500Y-73842988D01*
X124968500Y-71386522D01*
X130797273Y-71386522D01*
X130844764Y-71563761D01*
X130848510Y-71574053D01*
X130940586Y-71771511D01*
X130946069Y-71781007D01*
X131071028Y-71959467D01*
X131078084Y-71967875D01*
X131232125Y-72121916D01*
X131240533Y-72128972D01*
X131418993Y-72253931D01*
X131428489Y-72259414D01*
X131625947Y-72351490D01*
X131636239Y-72355236D01*
X131808503Y-72401394D01*
X131822599Y-72401058D01*
X131826000Y-72393116D01*
X131826000Y-72387967D01*
X132334000Y-72387967D01*
X132337973Y-72401498D01*
X132346522Y-72402727D01*
X132523761Y-72355236D01*
X132534053Y-72351490D01*
X132731511Y-72259414D01*
X132741007Y-72253931D01*
X132919467Y-72128972D01*
X132927875Y-72121916D01*
X133081916Y-71967875D01*
X133088972Y-71959467D01*
X133213931Y-71781007D01*
X133219414Y-71771511D01*
X133311490Y-71574053D01*
X133315236Y-71563761D01*
X133361394Y-71391497D01*
X133361058Y-71377401D01*
X133353116Y-71374000D01*
X132352115Y-71374000D01*
X132336876Y-71378475D01*
X132335671Y-71379865D01*
X132334000Y-71387548D01*
X132334000Y-72387967D01*
X131826000Y-72387967D01*
X131826000Y-71392115D01*
X131821525Y-71376876D01*
X131820135Y-71375671D01*
X131812452Y-71374000D01*
X130812033Y-71374000D01*
X130798502Y-71377973D01*
X130797273Y-71386522D01*
X124968500Y-71386522D01*
X124968500Y-71120000D01*
X140926502Y-71120000D01*
X140946457Y-71348087D01*
X140947881Y-71353400D01*
X140947881Y-71353402D01*
X140957031Y-71387548D01*
X141005716Y-71569243D01*
X141008039Y-71574224D01*
X141008039Y-71574225D01*
X141100151Y-71771762D01*
X141100154Y-71771767D01*
X141102477Y-71776749D01*
X141233802Y-71964300D01*
X141395700Y-72126198D01*
X141400208Y-72129355D01*
X141400211Y-72129357D01*
X141478389Y-72184098D01*
X141583251Y-72257523D01*
X141588233Y-72259846D01*
X141588238Y-72259849D01*
X141784765Y-72351490D01*
X141790757Y-72354284D01*
X141796065Y-72355706D01*
X141796067Y-72355707D01*
X142006598Y-72412119D01*
X142006600Y-72412119D01*
X142011913Y-72413543D01*
X142240000Y-72433498D01*
X142468087Y-72413543D01*
X142473400Y-72412119D01*
X142473402Y-72412119D01*
X142683933Y-72355707D01*
X142683935Y-72355706D01*
X142689243Y-72354284D01*
X142695235Y-72351490D01*
X142891762Y-72259849D01*
X142891767Y-72259846D01*
X142896749Y-72257523D01*
X143001611Y-72184098D01*
X143079789Y-72129357D01*
X143079792Y-72129355D01*
X143084300Y-72126198D01*
X143246198Y-71964300D01*
X143377523Y-71776749D01*
X143379846Y-71771767D01*
X143379849Y-71771762D01*
X143471961Y-71574225D01*
X143471961Y-71574224D01*
X143474284Y-71569243D01*
X143522970Y-71387548D01*
X143532119Y-71353402D01*
X143532119Y-71353400D01*
X143533543Y-71348087D01*
X143553498Y-71120000D01*
X143533543Y-70891913D01*
X143523244Y-70853478D01*
X143475707Y-70676067D01*
X143475706Y-70676065D01*
X143474284Y-70670757D01*
X143379966Y-70468489D01*
X143379849Y-70468238D01*
X143379846Y-70468233D01*
X143377523Y-70463251D01*
X143246198Y-70275700D01*
X143084300Y-70113802D01*
X143079792Y-70110645D01*
X143079789Y-70110643D01*
X143001611Y-70055902D01*
X142896749Y-69982477D01*
X142891767Y-69980154D01*
X142891762Y-69980151D01*
X142694225Y-69888039D01*
X142694224Y-69888039D01*
X142689243Y-69885716D01*
X142683935Y-69884294D01*
X142683933Y-69884293D01*
X142473402Y-69827881D01*
X142473400Y-69827881D01*
X142468087Y-69826457D01*
X142240000Y-69806502D01*
X142011913Y-69826457D01*
X142006600Y-69827881D01*
X142006598Y-69827881D01*
X141796067Y-69884293D01*
X141796065Y-69884294D01*
X141790757Y-69885716D01*
X141785776Y-69888039D01*
X141785775Y-69888039D01*
X141588238Y-69980151D01*
X141588233Y-69980154D01*
X141583251Y-69982477D01*
X141478389Y-70055902D01*
X141400211Y-70110643D01*
X141400208Y-70110645D01*
X141395700Y-70113802D01*
X141233802Y-70275700D01*
X141102477Y-70463251D01*
X141100154Y-70468233D01*
X141100151Y-70468238D01*
X141100034Y-70468489D01*
X141005716Y-70670757D01*
X141004294Y-70676065D01*
X141004293Y-70676067D01*
X140956756Y-70853478D01*
X140946457Y-70891913D01*
X140926502Y-71120000D01*
X124968500Y-71120000D01*
X124968500Y-70848503D01*
X130798606Y-70848503D01*
X130798942Y-70862599D01*
X130806884Y-70866000D01*
X131807885Y-70866000D01*
X131823124Y-70861525D01*
X131824329Y-70860135D01*
X131826000Y-70852452D01*
X131826000Y-70847885D01*
X132334000Y-70847885D01*
X132338475Y-70863124D01*
X132339865Y-70864329D01*
X132347548Y-70866000D01*
X133347967Y-70866000D01*
X133361498Y-70862027D01*
X133362727Y-70853478D01*
X133315236Y-70676239D01*
X133311490Y-70665947D01*
X133219414Y-70468489D01*
X133213931Y-70458993D01*
X133088972Y-70280533D01*
X133081916Y-70272125D01*
X132927875Y-70118084D01*
X132919467Y-70111028D01*
X132741007Y-69986069D01*
X132731511Y-69980586D01*
X132534053Y-69888510D01*
X132523761Y-69884764D01*
X132351497Y-69838606D01*
X132337401Y-69838942D01*
X132334000Y-69846884D01*
X132334000Y-70847885D01*
X131826000Y-70847885D01*
X131826000Y-69852033D01*
X131822027Y-69838502D01*
X131813478Y-69837273D01*
X131636239Y-69884764D01*
X131625947Y-69888510D01*
X131428489Y-69980586D01*
X131418993Y-69986069D01*
X131240533Y-70111028D01*
X131232125Y-70118084D01*
X131078084Y-70272125D01*
X131071028Y-70280533D01*
X130946069Y-70458993D01*
X130940586Y-70468489D01*
X130848510Y-70665947D01*
X130844764Y-70676239D01*
X130798606Y-70848503D01*
X124968500Y-70848503D01*
X124968500Y-66032750D01*
X140976524Y-66032750D01*
X140994894Y-66234596D01*
X141052119Y-66429029D01*
X141054972Y-66434486D01*
X141054973Y-66434489D01*
X141059127Y-66442435D01*
X141146019Y-66608645D01*
X141149879Y-66613445D01*
X141149879Y-66613446D01*
X141155729Y-66620722D01*
X141273019Y-66766601D01*
X141428281Y-66896881D01*
X141433673Y-66899845D01*
X141433677Y-66899848D01*
X141600494Y-66991556D01*
X141605891Y-66994523D01*
X141799084Y-67055807D01*
X141805201Y-67056493D01*
X141805205Y-67056494D01*
X141879348Y-67064810D01*
X141956817Y-67073500D01*
X142516004Y-67073500D01*
X142666713Y-67058723D01*
X142860742Y-67000142D01*
X143039698Y-66904990D01*
X143196763Y-66776890D01*
X143209246Y-66761801D01*
X143322027Y-66625472D01*
X143322029Y-66625469D01*
X143325956Y-66620722D01*
X143422356Y-66442435D01*
X143482290Y-66248820D01*
X143503476Y-66047250D01*
X143485106Y-65845404D01*
X143427881Y-65650971D01*
X143423951Y-65643452D01*
X143380931Y-65561163D01*
X143333981Y-65471355D01*
X143328630Y-65464699D01*
X143233760Y-65346705D01*
X143206981Y-65313399D01*
X143051719Y-65183119D01*
X143046327Y-65180155D01*
X143046323Y-65180152D01*
X142988082Y-65148134D01*
X147751500Y-65148134D01*
X147758255Y-65210316D01*
X147809385Y-65346705D01*
X147896739Y-65463261D01*
X148013295Y-65550615D01*
X148149684Y-65601745D01*
X148211866Y-65608500D01*
X151508134Y-65608500D01*
X151570316Y-65601745D01*
X151706705Y-65550615D01*
X151823261Y-65463261D01*
X151910615Y-65346705D01*
X151961745Y-65210316D01*
X151968500Y-65148134D01*
X151968500Y-61851866D01*
X151961745Y-61789684D01*
X151910615Y-61653295D01*
X151823261Y-61536739D01*
X151706705Y-61449385D01*
X151570316Y-61398255D01*
X151508134Y-61391500D01*
X148211866Y-61391500D01*
X148149684Y-61398255D01*
X148013295Y-61449385D01*
X147896739Y-61536739D01*
X147809385Y-61653295D01*
X147758255Y-61789684D01*
X147751500Y-61851866D01*
X147751500Y-65148134D01*
X142988082Y-65148134D01*
X142879506Y-65088444D01*
X142874109Y-65085477D01*
X142680916Y-65024193D01*
X142674799Y-65023507D01*
X142674795Y-65023506D01*
X142600652Y-65015190D01*
X142523183Y-65006500D01*
X141963996Y-65006500D01*
X141813287Y-65021277D01*
X141619258Y-65079858D01*
X141440302Y-65175010D01*
X141283237Y-65303110D01*
X141279310Y-65307857D01*
X141279308Y-65307859D01*
X141157973Y-65454528D01*
X141157971Y-65454531D01*
X141154044Y-65459278D01*
X141057644Y-65637565D01*
X140997710Y-65831180D01*
X140976524Y-66032750D01*
X124968500Y-66032750D01*
X124968500Y-63620000D01*
X130806502Y-63620000D01*
X130826457Y-63848087D01*
X130885716Y-64069243D01*
X130888039Y-64074224D01*
X130888039Y-64074225D01*
X130980151Y-64271762D01*
X130980154Y-64271767D01*
X130982477Y-64276749D01*
X131113802Y-64464300D01*
X131275700Y-64626198D01*
X131280208Y-64629355D01*
X131280211Y-64629357D01*
X131358389Y-64684098D01*
X131463251Y-64757523D01*
X131468233Y-64759846D01*
X131468238Y-64759849D01*
X131665775Y-64851961D01*
X131670757Y-64854284D01*
X131676065Y-64855706D01*
X131676067Y-64855707D01*
X131886598Y-64912119D01*
X131886600Y-64912119D01*
X131891913Y-64913543D01*
X132120000Y-64933498D01*
X132348087Y-64913543D01*
X132353400Y-64912119D01*
X132353402Y-64912119D01*
X132563933Y-64855707D01*
X132563935Y-64855706D01*
X132569243Y-64854284D01*
X132574225Y-64851961D01*
X132771762Y-64759849D01*
X132771767Y-64759846D01*
X132776749Y-64757523D01*
X132881611Y-64684098D01*
X132959789Y-64629357D01*
X132959792Y-64629355D01*
X132964300Y-64626198D01*
X133126198Y-64464300D01*
X133175674Y-64393642D01*
X133254369Y-64281253D01*
X133257523Y-64276749D01*
X133259846Y-64271767D01*
X133260882Y-64269973D01*
X133312266Y-64220981D01*
X133381979Y-64207546D01*
X133447890Y-64233934D01*
X133479118Y-64269973D01*
X133480154Y-64271767D01*
X133482477Y-64276749D01*
X133485631Y-64281253D01*
X133564327Y-64393642D01*
X133613802Y-64464300D01*
X133775700Y-64626198D01*
X133780208Y-64629355D01*
X133780211Y-64629357D01*
X133858389Y-64684098D01*
X133963251Y-64757523D01*
X133968233Y-64759846D01*
X133968238Y-64759849D01*
X134165775Y-64851961D01*
X134170757Y-64854284D01*
X134176065Y-64855706D01*
X134176067Y-64855707D01*
X134386598Y-64912119D01*
X134386600Y-64912119D01*
X134391913Y-64913543D01*
X134620000Y-64933498D01*
X134848087Y-64913543D01*
X134853400Y-64912119D01*
X134853402Y-64912119D01*
X135063933Y-64855707D01*
X135063935Y-64855706D01*
X135069243Y-64854284D01*
X135074225Y-64851961D01*
X135271762Y-64759849D01*
X135271767Y-64759846D01*
X135276749Y-64757523D01*
X135381611Y-64684098D01*
X135459789Y-64629357D01*
X135459792Y-64629355D01*
X135464300Y-64626198D01*
X135626198Y-64464300D01*
X135757523Y-64276749D01*
X135759846Y-64271767D01*
X135759849Y-64271762D01*
X135851961Y-64074225D01*
X135851961Y-64074224D01*
X135852469Y-64073134D01*
X140981500Y-64073134D01*
X140988255Y-64135316D01*
X141039385Y-64271705D01*
X141126739Y-64388261D01*
X141243295Y-64475615D01*
X141379684Y-64526745D01*
X141441866Y-64533500D01*
X143038134Y-64533500D01*
X143100316Y-64526745D01*
X143236705Y-64475615D01*
X143353261Y-64388261D01*
X143440615Y-64271705D01*
X143491745Y-64135316D01*
X143498500Y-64073134D01*
X143498500Y-62926866D01*
X143491745Y-62864684D01*
X143440615Y-62728295D01*
X143353261Y-62611739D01*
X143236705Y-62524385D01*
X143100316Y-62473255D01*
X143038134Y-62466500D01*
X141441866Y-62466500D01*
X141379684Y-62473255D01*
X141243295Y-62524385D01*
X141126739Y-62611739D01*
X141039385Y-62728295D01*
X140988255Y-62864684D01*
X140981500Y-62926866D01*
X140981500Y-64073134D01*
X135852469Y-64073134D01*
X135854284Y-64069243D01*
X135913543Y-63848087D01*
X135933498Y-63620000D01*
X135913543Y-63391913D01*
X135854284Y-63170757D01*
X135760683Y-62970027D01*
X135759849Y-62968238D01*
X135759846Y-62968233D01*
X135757523Y-62963251D01*
X135626198Y-62775700D01*
X135464300Y-62613802D01*
X135459792Y-62610645D01*
X135459789Y-62610643D01*
X135381611Y-62555902D01*
X135276749Y-62482477D01*
X135271767Y-62480154D01*
X135271762Y-62480151D01*
X135074225Y-62388039D01*
X135074224Y-62388039D01*
X135069243Y-62385716D01*
X135063935Y-62384294D01*
X135063933Y-62384293D01*
X134853402Y-62327881D01*
X134853400Y-62327881D01*
X134848087Y-62326457D01*
X134620000Y-62306502D01*
X134391913Y-62326457D01*
X134386600Y-62327881D01*
X134386598Y-62327881D01*
X134176067Y-62384293D01*
X134176065Y-62384294D01*
X134170757Y-62385716D01*
X134165776Y-62388039D01*
X134165775Y-62388039D01*
X133968238Y-62480151D01*
X133968233Y-62480154D01*
X133963251Y-62482477D01*
X133858389Y-62555902D01*
X133780211Y-62610643D01*
X133780208Y-62610645D01*
X133775700Y-62613802D01*
X133613802Y-62775700D01*
X133610645Y-62780208D01*
X133610643Y-62780211D01*
X133545994Y-62872540D01*
X133482477Y-62963251D01*
X133480154Y-62968233D01*
X133479118Y-62970027D01*
X133427734Y-63019019D01*
X133358021Y-63032454D01*
X133292110Y-63006066D01*
X133260882Y-62970027D01*
X133259846Y-62968233D01*
X133257523Y-62963251D01*
X133194006Y-62872540D01*
X133129357Y-62780211D01*
X133129355Y-62780208D01*
X133126198Y-62775700D01*
X132964300Y-62613802D01*
X132959792Y-62610645D01*
X132959789Y-62610643D01*
X132881611Y-62555902D01*
X132776749Y-62482477D01*
X132771767Y-62480154D01*
X132771762Y-62480151D01*
X132574225Y-62388039D01*
X132574224Y-62388039D01*
X132569243Y-62385716D01*
X132563935Y-62384294D01*
X132563933Y-62384293D01*
X132353402Y-62327881D01*
X132353400Y-62327881D01*
X132348087Y-62326457D01*
X132120000Y-62306502D01*
X131891913Y-62326457D01*
X131886600Y-62327881D01*
X131886598Y-62327881D01*
X131676067Y-62384293D01*
X131676065Y-62384294D01*
X131670757Y-62385716D01*
X131665776Y-62388039D01*
X131665775Y-62388039D01*
X131468238Y-62480151D01*
X131468233Y-62480154D01*
X131463251Y-62482477D01*
X131358389Y-62555902D01*
X131280211Y-62610643D01*
X131280208Y-62610645D01*
X131275700Y-62613802D01*
X131113802Y-62775700D01*
X130982477Y-62963251D01*
X130980154Y-62968233D01*
X130980151Y-62968238D01*
X130979317Y-62970027D01*
X130885716Y-63170757D01*
X130826457Y-63391913D01*
X130806502Y-63620000D01*
X124968500Y-63620000D01*
X124968500Y-57706695D01*
X135817251Y-57706695D01*
X135817548Y-57711848D01*
X135817548Y-57711851D01*
X135822844Y-57803699D01*
X135830110Y-57929715D01*
X135831247Y-57934761D01*
X135831248Y-57934767D01*
X135848458Y-58011130D01*
X135879222Y-58147639D01*
X135963266Y-58354616D01*
X136000685Y-58415678D01*
X136077291Y-58540688D01*
X136079987Y-58545088D01*
X136226250Y-58713938D01*
X136398126Y-58856632D01*
X136591000Y-58969338D01*
X136799692Y-59049030D01*
X136804760Y-59050061D01*
X136804763Y-59050062D01*
X136912017Y-59071883D01*
X137018597Y-59093567D01*
X137023772Y-59093757D01*
X137023774Y-59093757D01*
X137236673Y-59101564D01*
X137236677Y-59101564D01*
X137241837Y-59101753D01*
X137246957Y-59101097D01*
X137246959Y-59101097D01*
X137458288Y-59074025D01*
X137458289Y-59074025D01*
X137463416Y-59073368D01*
X137468366Y-59071883D01*
X137672429Y-59010661D01*
X137672434Y-59010659D01*
X137677384Y-59009174D01*
X137877994Y-58910896D01*
X138059860Y-58781173D01*
X138218096Y-58623489D01*
X138277594Y-58540689D01*
X138348453Y-58442077D01*
X138349776Y-58443028D01*
X138396645Y-58399857D01*
X138466580Y-58387625D01*
X138532026Y-58415144D01*
X138559875Y-58446994D01*
X138619987Y-58545088D01*
X138766250Y-58713938D01*
X138938126Y-58856632D01*
X139131000Y-58969338D01*
X139339692Y-59049030D01*
X139344760Y-59050061D01*
X139344763Y-59050062D01*
X139452017Y-59071883D01*
X139558597Y-59093567D01*
X139563772Y-59093757D01*
X139563774Y-59093757D01*
X139776673Y-59101564D01*
X139776677Y-59101564D01*
X139781837Y-59101753D01*
X139786957Y-59101097D01*
X139786959Y-59101097D01*
X139998288Y-59074025D01*
X139998289Y-59074025D01*
X140003416Y-59073368D01*
X140008366Y-59071883D01*
X140212429Y-59010661D01*
X140212434Y-59010659D01*
X140217384Y-59009174D01*
X140417994Y-58910896D01*
X140599860Y-58781173D01*
X140758096Y-58623489D01*
X140817594Y-58540689D01*
X140888453Y-58442077D01*
X140889776Y-58443028D01*
X140936645Y-58399857D01*
X141006580Y-58387625D01*
X141072026Y-58415144D01*
X141099875Y-58446994D01*
X141159987Y-58545088D01*
X141306250Y-58713938D01*
X141478126Y-58856632D01*
X141671000Y-58969338D01*
X141879692Y-59049030D01*
X141884760Y-59050061D01*
X141884763Y-59050062D01*
X141992017Y-59071883D01*
X142098597Y-59093567D01*
X142103772Y-59093757D01*
X142103774Y-59093757D01*
X142316673Y-59101564D01*
X142316677Y-59101564D01*
X142321837Y-59101753D01*
X142326957Y-59101097D01*
X142326959Y-59101097D01*
X142538288Y-59074025D01*
X142538289Y-59074025D01*
X142543416Y-59073368D01*
X142548366Y-59071883D01*
X142752429Y-59010661D01*
X142752434Y-59010659D01*
X142757384Y-59009174D01*
X142957994Y-58910896D01*
X143139860Y-58781173D01*
X143298096Y-58623489D01*
X143357594Y-58540689D01*
X143428453Y-58442077D01*
X143429776Y-58443028D01*
X143476645Y-58399857D01*
X143546580Y-58387625D01*
X143612026Y-58415144D01*
X143639875Y-58446994D01*
X143699987Y-58545088D01*
X143846250Y-58713938D01*
X144018126Y-58856632D01*
X144211000Y-58969338D01*
X144419692Y-59049030D01*
X144424760Y-59050061D01*
X144424763Y-59050062D01*
X144532017Y-59071883D01*
X144638597Y-59093567D01*
X144643772Y-59093757D01*
X144643774Y-59093757D01*
X144856673Y-59101564D01*
X144856677Y-59101564D01*
X144861837Y-59101753D01*
X144866957Y-59101097D01*
X144866959Y-59101097D01*
X145078288Y-59074025D01*
X145078289Y-59074025D01*
X145083416Y-59073368D01*
X145088366Y-59071883D01*
X145292429Y-59010661D01*
X145292434Y-59010659D01*
X145297384Y-59009174D01*
X145497994Y-58910896D01*
X145679860Y-58781173D01*
X145788091Y-58673319D01*
X145850462Y-58639404D01*
X145921268Y-58644592D01*
X145978030Y-58687238D01*
X145995012Y-58718341D01*
X146039385Y-58836705D01*
X146126739Y-58953261D01*
X146243295Y-59040615D01*
X146379684Y-59091745D01*
X146441866Y-59098500D01*
X148238134Y-59098500D01*
X148300316Y-59091745D01*
X148436705Y-59040615D01*
X148553261Y-58953261D01*
X148640615Y-58836705D01*
X148691745Y-58700316D01*
X148698500Y-58638134D01*
X148698500Y-57120859D01*
X150017132Y-57120859D01*
X150030457Y-57324151D01*
X150080605Y-57521610D01*
X150165898Y-57706624D01*
X150283479Y-57872997D01*
X150429410Y-58015157D01*
X150434206Y-58018362D01*
X150434209Y-58018364D01*
X150502149Y-58063760D01*
X150598803Y-58128342D01*
X150604106Y-58130620D01*
X150604109Y-58130622D01*
X150693115Y-58168862D01*
X150785987Y-58208763D01*
X150858817Y-58225243D01*
X150979055Y-58252450D01*
X150979060Y-58252451D01*
X150984692Y-58253725D01*
X150990463Y-58253952D01*
X150990465Y-58253952D01*
X151053470Y-58256427D01*
X151188263Y-58261723D01*
X151389883Y-58232490D01*
X151395347Y-58230635D01*
X151395352Y-58230634D01*
X151577327Y-58168862D01*
X151577332Y-58168860D01*
X151582799Y-58167004D01*
X151760551Y-58067458D01*
X151917186Y-57937186D01*
X152034733Y-57795851D01*
X152093670Y-57756267D01*
X152164652Y-57754831D01*
X152225143Y-57791998D01*
X152234503Y-57803699D01*
X152280145Y-57868280D01*
X152283479Y-57872997D01*
X152429410Y-58015157D01*
X152434206Y-58018362D01*
X152434209Y-58018364D01*
X152502149Y-58063760D01*
X152598803Y-58128342D01*
X152604106Y-58130620D01*
X152604109Y-58130622D01*
X152693115Y-58168862D01*
X152785987Y-58208763D01*
X152858817Y-58225243D01*
X152979055Y-58252450D01*
X152979060Y-58252451D01*
X152984692Y-58253725D01*
X152990463Y-58253952D01*
X152990465Y-58253952D01*
X153053470Y-58256427D01*
X153188263Y-58261723D01*
X153389883Y-58232490D01*
X153395347Y-58230635D01*
X153395352Y-58230634D01*
X153577327Y-58168862D01*
X153577332Y-58168860D01*
X153582799Y-58167004D01*
X153760551Y-58067458D01*
X153917186Y-57937186D01*
X154047458Y-57780551D01*
X154147004Y-57602799D01*
X154148860Y-57597332D01*
X154148862Y-57597327D01*
X154210634Y-57415352D01*
X154210635Y-57415347D01*
X154212490Y-57409883D01*
X154241723Y-57208263D01*
X154243249Y-57150000D01*
X154224608Y-56947126D01*
X154193963Y-56838469D01*
X154170875Y-56756606D01*
X154170874Y-56756604D01*
X154169307Y-56751047D01*
X154163785Y-56739848D01*
X154081756Y-56573510D01*
X154079201Y-56568329D01*
X154063603Y-56547440D01*
X153960758Y-56409715D01*
X153960758Y-56409714D01*
X153957305Y-56405091D01*
X153807703Y-56266800D01*
X153761675Y-56237759D01*
X153640288Y-56161169D01*
X153640283Y-56161167D01*
X153635404Y-56158088D01*
X153446180Y-56082595D01*
X153246366Y-56042849D01*
X153240592Y-56042773D01*
X153240588Y-56042773D01*
X153137452Y-56041424D01*
X153042655Y-56040183D01*
X153036958Y-56041162D01*
X153036957Y-56041162D01*
X152847567Y-56073705D01*
X152841870Y-56074684D01*
X152650734Y-56145198D01*
X152475649Y-56249363D01*
X152322478Y-56383690D01*
X152228395Y-56503034D01*
X152170515Y-56544146D01*
X152099595Y-56547440D01*
X152038152Y-56511869D01*
X152028488Y-56500416D01*
X151960758Y-56409715D01*
X151960758Y-56409714D01*
X151957305Y-56405091D01*
X151807703Y-56266800D01*
X151761675Y-56237759D01*
X151640288Y-56161169D01*
X151640283Y-56161167D01*
X151635404Y-56158088D01*
X151446180Y-56082595D01*
X151246366Y-56042849D01*
X151240592Y-56042773D01*
X151240588Y-56042773D01*
X151137452Y-56041424D01*
X151042655Y-56040183D01*
X151036958Y-56041162D01*
X151036957Y-56041162D01*
X150847567Y-56073705D01*
X150841870Y-56074684D01*
X150650734Y-56145198D01*
X150475649Y-56249363D01*
X150322478Y-56383690D01*
X150318911Y-56388215D01*
X150318906Y-56388220D01*
X150234797Y-56494912D01*
X150196351Y-56543681D01*
X150101492Y-56723978D01*
X150041078Y-56918543D01*
X150017132Y-57120859D01*
X148698500Y-57120859D01*
X148698500Y-56841866D01*
X148691745Y-56779684D01*
X148640615Y-56643295D01*
X148553261Y-56526739D01*
X148436705Y-56439385D01*
X148300316Y-56388255D01*
X148238134Y-56381500D01*
X146441866Y-56381500D01*
X146379684Y-56388255D01*
X146243295Y-56439385D01*
X146126739Y-56526739D01*
X146039385Y-56643295D01*
X146036233Y-56651703D01*
X145994919Y-56761907D01*
X145952277Y-56818671D01*
X145885716Y-56843371D01*
X145816367Y-56828163D01*
X145783743Y-56802476D01*
X145733151Y-56746875D01*
X145733142Y-56746866D01*
X145729670Y-56743051D01*
X145725619Y-56739852D01*
X145725615Y-56739848D01*
X145558414Y-56607800D01*
X145558410Y-56607798D01*
X145554359Y-56604598D01*
X145358789Y-56496638D01*
X145353920Y-56494914D01*
X145353916Y-56494912D01*
X145153087Y-56423795D01*
X145153083Y-56423794D01*
X145148212Y-56422069D01*
X145143119Y-56421162D01*
X145143116Y-56421161D01*
X144933373Y-56383800D01*
X144933367Y-56383799D01*
X144928284Y-56382894D01*
X144854452Y-56381992D01*
X144710081Y-56380228D01*
X144710079Y-56380228D01*
X144704911Y-56380165D01*
X144484091Y-56413955D01*
X144271756Y-56483357D01*
X144241443Y-56499137D01*
X144108527Y-56568329D01*
X144073607Y-56586507D01*
X144069474Y-56589610D01*
X144069471Y-56589612D01*
X143899100Y-56717530D01*
X143894965Y-56720635D01*
X143865903Y-56751047D01*
X143801280Y-56818671D01*
X143740629Y-56882138D01*
X143633201Y-57039621D01*
X143578293Y-57084621D01*
X143507768Y-57092792D01*
X143444021Y-57061538D01*
X143423324Y-57037054D01*
X143342822Y-56912617D01*
X143342820Y-56912614D01*
X143340014Y-56908277D01*
X143189670Y-56743051D01*
X143185619Y-56739852D01*
X143185615Y-56739848D01*
X143018414Y-56607800D01*
X143018410Y-56607798D01*
X143014359Y-56604598D01*
X142818789Y-56496638D01*
X142813920Y-56494914D01*
X142813916Y-56494912D01*
X142613087Y-56423795D01*
X142613083Y-56423794D01*
X142608212Y-56422069D01*
X142603119Y-56421162D01*
X142603116Y-56421161D01*
X142393373Y-56383800D01*
X142393367Y-56383799D01*
X142388284Y-56382894D01*
X142314452Y-56381992D01*
X142170081Y-56380228D01*
X142170079Y-56380228D01*
X142164911Y-56380165D01*
X141944091Y-56413955D01*
X141731756Y-56483357D01*
X141701443Y-56499137D01*
X141568527Y-56568329D01*
X141533607Y-56586507D01*
X141529474Y-56589610D01*
X141529471Y-56589612D01*
X141359100Y-56717530D01*
X141354965Y-56720635D01*
X141325903Y-56751047D01*
X141261280Y-56818671D01*
X141200629Y-56882138D01*
X141093201Y-57039621D01*
X141038293Y-57084621D01*
X140967768Y-57092792D01*
X140904021Y-57061538D01*
X140883324Y-57037054D01*
X140802822Y-56912617D01*
X140802820Y-56912614D01*
X140800014Y-56908277D01*
X140649670Y-56743051D01*
X140645619Y-56739852D01*
X140645615Y-56739848D01*
X140478414Y-56607800D01*
X140478410Y-56607798D01*
X140474359Y-56604598D01*
X140278789Y-56496638D01*
X140273920Y-56494914D01*
X140273916Y-56494912D01*
X140073087Y-56423795D01*
X140073083Y-56423794D01*
X140068212Y-56422069D01*
X140063119Y-56421162D01*
X140063116Y-56421161D01*
X139853373Y-56383800D01*
X139853367Y-56383799D01*
X139848284Y-56382894D01*
X139774452Y-56381992D01*
X139630081Y-56380228D01*
X139630079Y-56380228D01*
X139624911Y-56380165D01*
X139404091Y-56413955D01*
X139191756Y-56483357D01*
X139161443Y-56499137D01*
X139028527Y-56568329D01*
X138993607Y-56586507D01*
X138989474Y-56589610D01*
X138989471Y-56589612D01*
X138819100Y-56717530D01*
X138814965Y-56720635D01*
X138785903Y-56751047D01*
X138721280Y-56818671D01*
X138660629Y-56882138D01*
X138553201Y-57039621D01*
X138498293Y-57084621D01*
X138427768Y-57092792D01*
X138364021Y-57061538D01*
X138343324Y-57037054D01*
X138262822Y-56912617D01*
X138262820Y-56912614D01*
X138260014Y-56908277D01*
X138109670Y-56743051D01*
X138105619Y-56739852D01*
X138105615Y-56739848D01*
X137938414Y-56607800D01*
X137938410Y-56607798D01*
X137934359Y-56604598D01*
X137738789Y-56496638D01*
X137733920Y-56494914D01*
X137733916Y-56494912D01*
X137533087Y-56423795D01*
X137533083Y-56423794D01*
X137528212Y-56422069D01*
X137523119Y-56421162D01*
X137523116Y-56421161D01*
X137313373Y-56383800D01*
X137313367Y-56383799D01*
X137308284Y-56382894D01*
X137234452Y-56381992D01*
X137090081Y-56380228D01*
X137090079Y-56380228D01*
X137084911Y-56380165D01*
X136864091Y-56413955D01*
X136651756Y-56483357D01*
X136621443Y-56499137D01*
X136488527Y-56568329D01*
X136453607Y-56586507D01*
X136449474Y-56589610D01*
X136449471Y-56589612D01*
X136279100Y-56717530D01*
X136274965Y-56720635D01*
X136245903Y-56751047D01*
X136181280Y-56818671D01*
X136120629Y-56882138D01*
X135994743Y-57066680D01*
X135956067Y-57150000D01*
X135929023Y-57208263D01*
X135900688Y-57269305D01*
X135840989Y-57484570D01*
X135817251Y-57706695D01*
X124968500Y-57706695D01*
X124968500Y-50932703D01*
X127430743Y-50932703D01*
X127468268Y-51217734D01*
X127544129Y-51495036D01*
X127656923Y-51759476D01*
X127804561Y-52006161D01*
X127984313Y-52230528D01*
X128192851Y-52428423D01*
X128426317Y-52596186D01*
X128430112Y-52598195D01*
X128430113Y-52598196D01*
X128451869Y-52609715D01*
X128680392Y-52730712D01*
X128950373Y-52829511D01*
X129231264Y-52890755D01*
X129259841Y-52893004D01*
X129454282Y-52908307D01*
X129454291Y-52908307D01*
X129456739Y-52908500D01*
X129612271Y-52908500D01*
X129614407Y-52908354D01*
X129614418Y-52908354D01*
X129822548Y-52894165D01*
X129822554Y-52894164D01*
X129826825Y-52893873D01*
X129831020Y-52893004D01*
X129831022Y-52893004D01*
X129967583Y-52864724D01*
X130108342Y-52835574D01*
X130379343Y-52739607D01*
X130634812Y-52607750D01*
X130638313Y-52605289D01*
X130638317Y-52605287D01*
X130752417Y-52525096D01*
X130870023Y-52442441D01*
X131080622Y-52246740D01*
X131262713Y-52024268D01*
X131412927Y-51779142D01*
X131528483Y-51515898D01*
X131607244Y-51239406D01*
X131647751Y-50954784D01*
X131647845Y-50936951D01*
X131647867Y-50932703D01*
X151560743Y-50932703D01*
X151598268Y-51217734D01*
X151674129Y-51495036D01*
X151786923Y-51759476D01*
X151934561Y-52006161D01*
X152114313Y-52230528D01*
X152322851Y-52428423D01*
X152556317Y-52596186D01*
X152560112Y-52598195D01*
X152560113Y-52598196D01*
X152581869Y-52609715D01*
X152810392Y-52730712D01*
X153080373Y-52829511D01*
X153361264Y-52890755D01*
X153389841Y-52893004D01*
X153584282Y-52908307D01*
X153584291Y-52908307D01*
X153586739Y-52908500D01*
X153742271Y-52908500D01*
X153744407Y-52908354D01*
X153744418Y-52908354D01*
X153952548Y-52894165D01*
X153952554Y-52894164D01*
X153956825Y-52893873D01*
X153961020Y-52893004D01*
X153961022Y-52893004D01*
X154097583Y-52864724D01*
X154238342Y-52835574D01*
X154509343Y-52739607D01*
X154764812Y-52607750D01*
X154768313Y-52605289D01*
X154768317Y-52605287D01*
X154882417Y-52525096D01*
X155000023Y-52442441D01*
X155210622Y-52246740D01*
X155392713Y-52024268D01*
X155542927Y-51779142D01*
X155658483Y-51515898D01*
X155737244Y-51239406D01*
X155777751Y-50954784D01*
X155777845Y-50936951D01*
X155779235Y-50671583D01*
X155779235Y-50671576D01*
X155779257Y-50667297D01*
X155741732Y-50382266D01*
X155665871Y-50104964D01*
X155553077Y-49840524D01*
X155405439Y-49593839D01*
X155225687Y-49369472D01*
X155058315Y-49210642D01*
X155020258Y-49174527D01*
X155020255Y-49174525D01*
X155017149Y-49171577D01*
X154783683Y-49003814D01*
X154761843Y-48992250D01*
X154738654Y-48979972D01*
X154529608Y-48869288D01*
X154259627Y-48770489D01*
X153978736Y-48709245D01*
X153947685Y-48706801D01*
X153755718Y-48691693D01*
X153755709Y-48691693D01*
X153753261Y-48691500D01*
X153597729Y-48691500D01*
X153595593Y-48691646D01*
X153595582Y-48691646D01*
X153387452Y-48705835D01*
X153387446Y-48705836D01*
X153383175Y-48706127D01*
X153378980Y-48706996D01*
X153378978Y-48706996D01*
X153242417Y-48735276D01*
X153101658Y-48764426D01*
X152830657Y-48860393D01*
X152575188Y-48992250D01*
X152571687Y-48994711D01*
X152571683Y-48994713D01*
X152561594Y-49001804D01*
X152339977Y-49157559D01*
X152129378Y-49353260D01*
X151947287Y-49575732D01*
X151797073Y-49820858D01*
X151681517Y-50084102D01*
X151602756Y-50360594D01*
X151562249Y-50645216D01*
X151562227Y-50649505D01*
X151562226Y-50649512D01*
X151560765Y-50928417D01*
X151560743Y-50932703D01*
X131647867Y-50932703D01*
X131649235Y-50671583D01*
X131649235Y-50671576D01*
X131649257Y-50667297D01*
X131611732Y-50382266D01*
X131535871Y-50104964D01*
X131423077Y-49840524D01*
X131275439Y-49593839D01*
X131095687Y-49369472D01*
X130928315Y-49210642D01*
X130890258Y-49174527D01*
X130890255Y-49174525D01*
X130887149Y-49171577D01*
X130653683Y-49003814D01*
X130631843Y-48992250D01*
X130608654Y-48979972D01*
X130399608Y-48869288D01*
X130129627Y-48770489D01*
X129848736Y-48709245D01*
X129817685Y-48706801D01*
X129625718Y-48691693D01*
X129625709Y-48691693D01*
X129623261Y-48691500D01*
X129467729Y-48691500D01*
X129465593Y-48691646D01*
X129465582Y-48691646D01*
X129257452Y-48705835D01*
X129257446Y-48705836D01*
X129253175Y-48706127D01*
X129248980Y-48706996D01*
X129248978Y-48706996D01*
X129112417Y-48735276D01*
X128971658Y-48764426D01*
X128700657Y-48860393D01*
X128445188Y-48992250D01*
X128441687Y-48994711D01*
X128441683Y-48994713D01*
X128431594Y-49001804D01*
X128209977Y-49157559D01*
X127999378Y-49353260D01*
X127817287Y-49575732D01*
X127667073Y-49820858D01*
X127551517Y-50084102D01*
X127472756Y-50360594D01*
X127432249Y-50645216D01*
X127432227Y-50649505D01*
X127432226Y-50649512D01*
X127430765Y-50928417D01*
X127430743Y-50932703D01*
X124968500Y-50932703D01*
X124968500Y-49741500D01*
X124988502Y-49673379D01*
X124993700Y-49665900D01*
X128486450Y-45008900D01*
X128543324Y-44966405D01*
X128587250Y-44958500D01*
X154622750Y-44958500D01*
X154690871Y-44978502D01*
G37*
%TD.AperFunction*%
%TD*%
M02*
