%TF.GenerationSoftware,KiCad,Pcbnew,(6.0.9)*%
%TF.CreationDate,2024-07-08T19:13:13-04:00*%
%TF.ProjectId,PantryLED,50616e74-7279-44c4-9544-2e6b69636164,rev?*%
%TF.SameCoordinates,Original*%
%TF.FileFunction,Legend,Top*%
%TF.FilePolarity,Positive*%
%FSLAX46Y46*%
G04 Gerber Fmt 4.6, Leading zero omitted, Abs format (unit mm)*
G04 Created by KiCad (PCBNEW (6.0.9)) date 2024-07-08 19:13:13*
%MOMM*%
%LPD*%
G01*
G04 APERTURE LIST*
%ADD10C,0.150000*%
%ADD11C,0.300000*%
%ADD12C,0.120000*%
G04 APERTURE END LIST*
D10*
X137231428Y-112251904D02*
X137231428Y-111490000D01*
X137612380Y-111870952D02*
X136850476Y-111870952D01*
X137612380Y-110490000D02*
X137612380Y-111061428D01*
X137612380Y-110775714D02*
X136612380Y-110775714D01*
X136755238Y-110870952D01*
X136850476Y-110966190D01*
X136898095Y-111061428D01*
X136707619Y-110109047D02*
X136660000Y-110061428D01*
X136612380Y-109966190D01*
X136612380Y-109728095D01*
X136660000Y-109632857D01*
X136707619Y-109585238D01*
X136802857Y-109537619D01*
X136898095Y-109537619D01*
X137040952Y-109585238D01*
X137612380Y-110156666D01*
X137612380Y-109537619D01*
X136612380Y-109251904D02*
X137612380Y-108918571D01*
X136612380Y-108585238D01*
X142692380Y-112132857D02*
X141692380Y-112132857D01*
X142692380Y-111085238D02*
X142216190Y-111418571D01*
X142692380Y-111656666D02*
X141692380Y-111656666D01*
X141692380Y-111275714D01*
X141740000Y-111180476D01*
X141787619Y-111132857D01*
X141882857Y-111085238D01*
X142025714Y-111085238D01*
X142120952Y-111132857D01*
X142168571Y-111180476D01*
X142216190Y-111275714D01*
X142216190Y-111656666D01*
X142787619Y-110894761D02*
X142787619Y-110132857D01*
X142692380Y-109894761D02*
X141692380Y-109894761D01*
X142692380Y-109418571D02*
X141692380Y-109418571D01*
X142692380Y-108847142D01*
X141692380Y-108847142D01*
X147724761Y-114783809D02*
X147772380Y-114640952D01*
X147772380Y-114402857D01*
X147724761Y-114307619D01*
X147677142Y-114260000D01*
X147581904Y-114212380D01*
X147486666Y-114212380D01*
X147391428Y-114260000D01*
X147343809Y-114307619D01*
X147296190Y-114402857D01*
X147248571Y-114593333D01*
X147200952Y-114688571D01*
X147153333Y-114736190D01*
X147058095Y-114783809D01*
X146962857Y-114783809D01*
X146867619Y-114736190D01*
X146820000Y-114688571D01*
X146772380Y-114593333D01*
X146772380Y-114355238D01*
X146820000Y-114212380D01*
X147772380Y-113783809D02*
X146772380Y-113783809D01*
X147772380Y-113212380D01*
X146772380Y-113212380D01*
X146772380Y-112831428D02*
X147772380Y-112593333D01*
X147058095Y-112402857D01*
X147772380Y-112212380D01*
X146772380Y-111974285D01*
X146772380Y-111736190D02*
X146772380Y-111164761D01*
X147772380Y-111450476D02*
X146772380Y-111450476D01*
X147772380Y-110831428D02*
X146772380Y-110831428D01*
X146772380Y-110593333D01*
X146820000Y-110450476D01*
X146915238Y-110355238D01*
X147010476Y-110307619D01*
X147200952Y-110260000D01*
X147343809Y-110260000D01*
X147534285Y-110307619D01*
X147629523Y-110355238D01*
X147724761Y-110450476D01*
X147772380Y-110593333D01*
X147772380Y-110831428D01*
X147772380Y-109831428D02*
X146772380Y-109831428D01*
X146772380Y-109164761D02*
X146772380Y-108974285D01*
X146820000Y-108879047D01*
X146915238Y-108783809D01*
X147105714Y-108736190D01*
X147439047Y-108736190D01*
X147629523Y-108783809D01*
X147724761Y-108879047D01*
X147772380Y-108974285D01*
X147772380Y-109164761D01*
X147724761Y-109260000D01*
X147629523Y-109355238D01*
X147439047Y-109402857D01*
X147105714Y-109402857D01*
X146915238Y-109355238D01*
X146820000Y-109260000D01*
X146772380Y-109164761D01*
D11*
X134965714Y-114407142D02*
X136108571Y-114407142D01*
X135537142Y-114978571D02*
X135537142Y-113835714D01*
X137322857Y-114192857D02*
X137537142Y-114264285D01*
X137608571Y-114335714D01*
X137680000Y-114478571D01*
X137680000Y-114692857D01*
X137608571Y-114835714D01*
X137537142Y-114907142D01*
X137394285Y-114978571D01*
X136822857Y-114978571D01*
X136822857Y-113478571D01*
X137322857Y-113478571D01*
X137465714Y-113550000D01*
X137537142Y-113621428D01*
X137608571Y-113764285D01*
X137608571Y-113907142D01*
X137537142Y-114050000D01*
X137465714Y-114121428D01*
X137322857Y-114192857D01*
X136822857Y-114192857D01*
X138251428Y-114550000D02*
X138965714Y-114550000D01*
X138108571Y-114978571D02*
X138608571Y-113478571D01*
X139108571Y-114978571D01*
X139394285Y-113478571D02*
X140251428Y-113478571D01*
X139822857Y-114978571D02*
X139822857Y-113478571D01*
X140751428Y-114407142D02*
X141894285Y-114407142D01*
D10*
X149931428Y-112998095D02*
X149931428Y-112236190D01*
X150312380Y-112617142D02*
X149550476Y-112617142D01*
X149312380Y-111855238D02*
X149312380Y-111236190D01*
X149693333Y-111569523D01*
X149693333Y-111426666D01*
X149740952Y-111331428D01*
X149788571Y-111283809D01*
X149883809Y-111236190D01*
X150121904Y-111236190D01*
X150217142Y-111283809D01*
X150264761Y-111331428D01*
X150312380Y-111426666D01*
X150312380Y-111712380D01*
X150264761Y-111807619D01*
X150217142Y-111855238D01*
X150217142Y-110807619D02*
X150264761Y-110760000D01*
X150312380Y-110807619D01*
X150264761Y-110855238D01*
X150217142Y-110807619D01*
X150312380Y-110807619D01*
X149312380Y-110426666D02*
X149312380Y-109807619D01*
X149693333Y-110140952D01*
X149693333Y-109998095D01*
X149740952Y-109902857D01*
X149788571Y-109855238D01*
X149883809Y-109807619D01*
X150121904Y-109807619D01*
X150217142Y-109855238D01*
X150264761Y-109902857D01*
X150312380Y-109998095D01*
X150312380Y-110283809D01*
X150264761Y-110379047D01*
X150217142Y-110426666D01*
X149312380Y-109521904D02*
X150312380Y-109188571D01*
X149312380Y-108855238D01*
X151900000Y-110616904D02*
X151852380Y-110712142D01*
X151852380Y-110855000D01*
X151900000Y-110997857D01*
X151995238Y-111093095D01*
X152090476Y-111140714D01*
X152280952Y-111188333D01*
X152423809Y-111188333D01*
X152614285Y-111140714D01*
X152709523Y-111093095D01*
X152804761Y-110997857D01*
X152852380Y-110855000D01*
X152852380Y-110759761D01*
X152804761Y-110616904D01*
X152757142Y-110569285D01*
X152423809Y-110569285D01*
X152423809Y-110759761D01*
X152852380Y-110140714D02*
X151852380Y-110140714D01*
X152852380Y-109569285D01*
X151852380Y-109569285D01*
X152852380Y-109093095D02*
X151852380Y-109093095D01*
X151852380Y-108855000D01*
X151900000Y-108712142D01*
X151995238Y-108616904D01*
X152090476Y-108569285D01*
X152280952Y-108521666D01*
X152423809Y-108521666D01*
X152614285Y-108569285D01*
X152709523Y-108616904D01*
X152804761Y-108712142D01*
X152852380Y-108855000D01*
X152852380Y-109093095D01*
X145184761Y-114498095D02*
X145232380Y-114355238D01*
X145232380Y-114117142D01*
X145184761Y-114021904D01*
X145137142Y-113974285D01*
X145041904Y-113926666D01*
X144946666Y-113926666D01*
X144851428Y-113974285D01*
X144803809Y-114021904D01*
X144756190Y-114117142D01*
X144708571Y-114307619D01*
X144660952Y-114402857D01*
X144613333Y-114450476D01*
X144518095Y-114498095D01*
X144422857Y-114498095D01*
X144327619Y-114450476D01*
X144280000Y-114402857D01*
X144232380Y-114307619D01*
X144232380Y-114069523D01*
X144280000Y-113926666D01*
X144708571Y-113164761D02*
X144756190Y-113021904D01*
X144803809Y-112974285D01*
X144899047Y-112926666D01*
X145041904Y-112926666D01*
X145137142Y-112974285D01*
X145184761Y-113021904D01*
X145232380Y-113117142D01*
X145232380Y-113498095D01*
X144232380Y-113498095D01*
X144232380Y-113164761D01*
X144280000Y-113069523D01*
X144327619Y-113021904D01*
X144422857Y-112974285D01*
X144518095Y-112974285D01*
X144613333Y-113021904D01*
X144660952Y-113069523D01*
X144708571Y-113164761D01*
X144708571Y-113498095D01*
X144232380Y-112593333D02*
X145232380Y-112355238D01*
X144518095Y-112164761D01*
X145232380Y-111974285D01*
X144232380Y-111736190D01*
X144232380Y-111498095D02*
X144232380Y-110926666D01*
X145232380Y-111212380D02*
X144232380Y-111212380D01*
X145137142Y-110021904D02*
X145184761Y-110069523D01*
X145232380Y-110212380D01*
X145232380Y-110307619D01*
X145184761Y-110450476D01*
X145089523Y-110545714D01*
X144994285Y-110593333D01*
X144803809Y-110640952D01*
X144660952Y-110640952D01*
X144470476Y-110593333D01*
X144375238Y-110545714D01*
X144280000Y-110450476D01*
X144232380Y-110307619D01*
X144232380Y-110212380D01*
X144280000Y-110069523D01*
X144327619Y-110021904D01*
X145232380Y-109593333D02*
X144232380Y-109593333D01*
X145232380Y-109021904D02*
X144660952Y-109450476D01*
X144232380Y-109021904D02*
X144803809Y-109593333D01*
X139200000Y-111251904D02*
X139152380Y-111347142D01*
X139152380Y-111490000D01*
X139200000Y-111632857D01*
X139295238Y-111728095D01*
X139390476Y-111775714D01*
X139580952Y-111823333D01*
X139723809Y-111823333D01*
X139914285Y-111775714D01*
X140009523Y-111728095D01*
X140104761Y-111632857D01*
X140152380Y-111490000D01*
X140152380Y-111394761D01*
X140104761Y-111251904D01*
X140057142Y-111204285D01*
X139723809Y-111204285D01*
X139723809Y-111394761D01*
X140152380Y-110775714D02*
X139152380Y-110775714D01*
X140152380Y-110204285D01*
X139152380Y-110204285D01*
X140152380Y-109728095D02*
X139152380Y-109728095D01*
X139152380Y-109490000D01*
X139200000Y-109347142D01*
X139295238Y-109251904D01*
X139390476Y-109204285D01*
X139580952Y-109156666D01*
X139723809Y-109156666D01*
X139914285Y-109204285D01*
X140009523Y-109251904D01*
X140104761Y-109347142D01*
X140152380Y-109490000D01*
X140152380Y-109728095D01*
D11*
X156253571Y-97261428D02*
X154753571Y-97261428D01*
X154753571Y-96690000D01*
X154825000Y-96547142D01*
X154896428Y-96475714D01*
X155039285Y-96404285D01*
X155253571Y-96404285D01*
X155396428Y-96475714D01*
X155467857Y-96547142D01*
X155539285Y-96690000D01*
X155539285Y-97261428D01*
X156253571Y-95118571D02*
X155467857Y-95118571D01*
X155325000Y-95190000D01*
X155253571Y-95332857D01*
X155253571Y-95618571D01*
X155325000Y-95761428D01*
X156182142Y-95118571D02*
X156253571Y-95261428D01*
X156253571Y-95618571D01*
X156182142Y-95761428D01*
X156039285Y-95832857D01*
X155896428Y-95832857D01*
X155753571Y-95761428D01*
X155682142Y-95618571D01*
X155682142Y-95261428D01*
X155610714Y-95118571D01*
X155253571Y-94404285D02*
X156253571Y-94404285D01*
X155396428Y-94404285D02*
X155325000Y-94332857D01*
X155253571Y-94190000D01*
X155253571Y-93975714D01*
X155325000Y-93832857D01*
X155467857Y-93761428D01*
X156253571Y-93761428D01*
X155253571Y-93261428D02*
X155253571Y-92690000D01*
X154753571Y-93047142D02*
X156039285Y-93047142D01*
X156182142Y-92975714D01*
X156253571Y-92832857D01*
X156253571Y-92690000D01*
X156253571Y-92190000D02*
X155253571Y-92190000D01*
X155539285Y-92190000D02*
X155396428Y-92118571D01*
X155325000Y-92047142D01*
X155253571Y-91904285D01*
X155253571Y-91761428D01*
X155253571Y-91404285D02*
X156253571Y-91047142D01*
X155253571Y-90690000D02*
X156253571Y-91047142D01*
X156610714Y-91190000D01*
X156682142Y-91261428D01*
X156753571Y-91404285D01*
X156253571Y-88261428D02*
X156253571Y-88975714D01*
X154753571Y-88975714D01*
X155467857Y-87761428D02*
X155467857Y-87261428D01*
X156253571Y-87047142D02*
X156253571Y-87761428D01*
X154753571Y-87761428D01*
X154753571Y-87047142D01*
X156253571Y-86404285D02*
X154753571Y-86404285D01*
X154753571Y-86047142D01*
X154825000Y-85832857D01*
X154967857Y-85690000D01*
X155110714Y-85618571D01*
X155396428Y-85547142D01*
X155610714Y-85547142D01*
X155896428Y-85618571D01*
X156039285Y-85690000D01*
X156182142Y-85832857D01*
X156253571Y-86047142D01*
X156253571Y-86404285D01*
D10*
%TO.C,J1*%
X154602380Y-107038333D02*
X155316666Y-107038333D01*
X155459523Y-107085952D01*
X155554761Y-107181190D01*
X155602380Y-107324047D01*
X155602380Y-107419285D01*
X155602380Y-106038333D02*
X155602380Y-106609761D01*
X155602380Y-106324047D02*
X154602380Y-106324047D01*
X154745238Y-106419285D01*
X154840476Y-106514523D01*
X154888095Y-106609761D01*
%TO.C,D1*%
X154032380Y-71858095D02*
X153032380Y-71858095D01*
X153032380Y-71620000D01*
X153080000Y-71477142D01*
X153175238Y-71381904D01*
X153270476Y-71334285D01*
X153460952Y-71286666D01*
X153603809Y-71286666D01*
X153794285Y-71334285D01*
X153889523Y-71381904D01*
X153984761Y-71477142D01*
X154032380Y-71620000D01*
X154032380Y-71858095D01*
X154032380Y-70334285D02*
X154032380Y-70905714D01*
X154032380Y-70620000D02*
X153032380Y-70620000D01*
X153175238Y-70715238D01*
X153270476Y-70810476D01*
X153318095Y-70905714D01*
X152912380Y-63761904D02*
X151912380Y-63761904D01*
X152912380Y-63190476D02*
X152340952Y-63619047D01*
X151912380Y-63190476D02*
X152483809Y-63761904D01*
%TO.C,H3*%
X128778095Y-109282380D02*
X128778095Y-108282380D01*
X128778095Y-108758571D02*
X129349523Y-108758571D01*
X129349523Y-109282380D02*
X129349523Y-108282380D01*
X129730476Y-108282380D02*
X130349523Y-108282380D01*
X130016190Y-108663333D01*
X130159047Y-108663333D01*
X130254285Y-108710952D01*
X130301904Y-108758571D01*
X130349523Y-108853809D01*
X130349523Y-109091904D01*
X130301904Y-109187142D01*
X130254285Y-109234761D01*
X130159047Y-109282380D01*
X129873333Y-109282380D01*
X129778095Y-109234761D01*
X129730476Y-109187142D01*
%TO.C,H4*%
X150368095Y-53792380D02*
X150368095Y-52792380D01*
X150368095Y-53268571D02*
X150939523Y-53268571D01*
X150939523Y-53792380D02*
X150939523Y-52792380D01*
X151844285Y-53125714D02*
X151844285Y-53792380D01*
X151606190Y-52744761D02*
X151368095Y-53459047D01*
X151987142Y-53459047D01*
%TO.C,D2*%
X132611904Y-107357380D02*
X132611904Y-106357380D01*
X132850000Y-106357380D01*
X132992857Y-106405000D01*
X133088095Y-106500238D01*
X133135714Y-106595476D01*
X133183333Y-106785952D01*
X133183333Y-106928809D01*
X133135714Y-107119285D01*
X133088095Y-107214523D01*
X132992857Y-107309761D01*
X132850000Y-107357380D01*
X132611904Y-107357380D01*
X133564285Y-106452619D02*
X133611904Y-106405000D01*
X133707142Y-106357380D01*
X133945238Y-106357380D01*
X134040476Y-106405000D01*
X134088095Y-106452619D01*
X134135714Y-106547857D01*
X134135714Y-106643095D01*
X134088095Y-106785952D01*
X133516666Y-107357380D01*
X134135714Y-107357380D01*
%TO.C,U1*%
X142748095Y-45172380D02*
X142748095Y-45981904D01*
X142795714Y-46077142D01*
X142843333Y-46124761D01*
X142938571Y-46172380D01*
X143129047Y-46172380D01*
X143224285Y-46124761D01*
X143271904Y-46077142D01*
X143319523Y-45981904D01*
X143319523Y-45172380D01*
X144319523Y-46172380D02*
X143748095Y-46172380D01*
X144033809Y-46172380D02*
X144033809Y-45172380D01*
X143938571Y-45315238D01*
X143843333Y-45410476D01*
X143748095Y-45458095D01*
%TO.C,TP3*%
X154948095Y-56602380D02*
X155519523Y-56602380D01*
X155233809Y-57602380D02*
X155233809Y-56602380D01*
X155852857Y-57602380D02*
X155852857Y-56602380D01*
X156233809Y-56602380D01*
X156329047Y-56650000D01*
X156376666Y-56697619D01*
X156424285Y-56792857D01*
X156424285Y-56935714D01*
X156376666Y-57030952D01*
X156329047Y-57078571D01*
X156233809Y-57126190D01*
X155852857Y-57126190D01*
X156757619Y-56602380D02*
X157376666Y-56602380D01*
X157043333Y-56983333D01*
X157186190Y-56983333D01*
X157281428Y-57030952D01*
X157329047Y-57078571D01*
X157376666Y-57173809D01*
X157376666Y-57411904D01*
X157329047Y-57507142D01*
X157281428Y-57554761D01*
X157186190Y-57602380D01*
X156900476Y-57602380D01*
X156805238Y-57554761D01*
X156757619Y-57507142D01*
%TO.C,TP2*%
X154948095Y-69694380D02*
X155519523Y-69694380D01*
X155233809Y-70694380D02*
X155233809Y-69694380D01*
X155852857Y-70694380D02*
X155852857Y-69694380D01*
X156233809Y-69694380D01*
X156329047Y-69742000D01*
X156376666Y-69789619D01*
X156424285Y-69884857D01*
X156424285Y-70027714D01*
X156376666Y-70122952D01*
X156329047Y-70170571D01*
X156233809Y-70218190D01*
X155852857Y-70218190D01*
X156805238Y-69789619D02*
X156852857Y-69742000D01*
X156948095Y-69694380D01*
X157186190Y-69694380D01*
X157281428Y-69742000D01*
X157329047Y-69789619D01*
X157376666Y-69884857D01*
X157376666Y-69980095D01*
X157329047Y-70122952D01*
X156757619Y-70694380D01*
X157376666Y-70694380D01*
%TO.C,R2*%
X152672380Y-87791666D02*
X152196190Y-88125000D01*
X152672380Y-88363095D02*
X151672380Y-88363095D01*
X151672380Y-87982142D01*
X151720000Y-87886904D01*
X151767619Y-87839285D01*
X151862857Y-87791666D01*
X152005714Y-87791666D01*
X152100952Y-87839285D01*
X152148571Y-87886904D01*
X152196190Y-87982142D01*
X152196190Y-88363095D01*
X151767619Y-87410714D02*
X151720000Y-87363095D01*
X151672380Y-87267857D01*
X151672380Y-87029761D01*
X151720000Y-86934523D01*
X151767619Y-86886904D01*
X151862857Y-86839285D01*
X151958095Y-86839285D01*
X152100952Y-86886904D01*
X152672380Y-87458333D01*
X152672380Y-86839285D01*
%TO.C,R1*%
X131422380Y-86521666D02*
X130946190Y-86855000D01*
X131422380Y-87093095D02*
X130422380Y-87093095D01*
X130422380Y-86712142D01*
X130470000Y-86616904D01*
X130517619Y-86569285D01*
X130612857Y-86521666D01*
X130755714Y-86521666D01*
X130850952Y-86569285D01*
X130898571Y-86616904D01*
X130946190Y-86712142D01*
X130946190Y-87093095D01*
X131422380Y-85569285D02*
X131422380Y-86140714D01*
X131422380Y-85855000D02*
X130422380Y-85855000D01*
X130565238Y-85950238D01*
X130660476Y-86045476D01*
X130708095Y-86140714D01*
%TO.C,U2*%
X130262380Y-93471904D02*
X131071904Y-93471904D01*
X131167142Y-93424285D01*
X131214761Y-93376666D01*
X131262380Y-93281428D01*
X131262380Y-93090952D01*
X131214761Y-92995714D01*
X131167142Y-92948095D01*
X131071904Y-92900476D01*
X130262380Y-92900476D01*
X130357619Y-92471904D02*
X130310000Y-92424285D01*
X130262380Y-92329047D01*
X130262380Y-92090952D01*
X130310000Y-91995714D01*
X130357619Y-91948095D01*
X130452857Y-91900476D01*
X130548095Y-91900476D01*
X130690952Y-91948095D01*
X131262380Y-92519523D01*
X131262380Y-91900476D01*
%TO.C,TP1*%
X154948095Y-63344380D02*
X155519523Y-63344380D01*
X155233809Y-64344380D02*
X155233809Y-63344380D01*
X155852857Y-64344380D02*
X155852857Y-63344380D01*
X156233809Y-63344380D01*
X156329047Y-63392000D01*
X156376666Y-63439619D01*
X156424285Y-63534857D01*
X156424285Y-63677714D01*
X156376666Y-63772952D01*
X156329047Y-63820571D01*
X156233809Y-63868190D01*
X155852857Y-63868190D01*
X157376666Y-64344380D02*
X156805238Y-64344380D01*
X157090952Y-64344380D02*
X157090952Y-63344380D01*
X156995714Y-63487238D01*
X156900476Y-63582476D01*
X156805238Y-63630095D01*
%TO.C,H1*%
X128778095Y-55062380D02*
X128778095Y-54062380D01*
X128778095Y-54538571D02*
X129349523Y-54538571D01*
X129349523Y-55062380D02*
X129349523Y-54062380D01*
X130349523Y-55062380D02*
X129778095Y-55062380D01*
X130063809Y-55062380D02*
X130063809Y-54062380D01*
X129968571Y-54205238D01*
X129873333Y-54300476D01*
X129778095Y-54348095D01*
%TO.C,H2*%
X156083095Y-110942380D02*
X156083095Y-109942380D01*
X156083095Y-110418571D02*
X156654523Y-110418571D01*
X156654523Y-110942380D02*
X156654523Y-109942380D01*
X157083095Y-110037619D02*
X157130714Y-109990000D01*
X157225952Y-109942380D01*
X157464047Y-109942380D01*
X157559285Y-109990000D01*
X157606904Y-110037619D01*
X157654523Y-110132857D01*
X157654523Y-110228095D01*
X157606904Y-110370952D01*
X157035476Y-110942380D01*
X157654523Y-110942380D01*
%TO.C,C2*%
X133203333Y-68377142D02*
X133155714Y-68424761D01*
X133012857Y-68472380D01*
X132917619Y-68472380D01*
X132774761Y-68424761D01*
X132679523Y-68329523D01*
X132631904Y-68234285D01*
X132584285Y-68043809D01*
X132584285Y-67900952D01*
X132631904Y-67710476D01*
X132679523Y-67615238D01*
X132774761Y-67520000D01*
X132917619Y-67472380D01*
X133012857Y-67472380D01*
X133155714Y-67520000D01*
X133203333Y-67567619D01*
X133584285Y-67567619D02*
X133631904Y-67520000D01*
X133727142Y-67472380D01*
X133965238Y-67472380D01*
X134060476Y-67520000D01*
X134108095Y-67567619D01*
X134155714Y-67662857D01*
X134155714Y-67758095D01*
X134108095Y-67900952D01*
X133536666Y-68472380D01*
X134155714Y-68472380D01*
%TO.C,L1*%
X146252380Y-64936666D02*
X146252380Y-65412857D01*
X145252380Y-65412857D01*
X146252380Y-64079523D02*
X146252380Y-64650952D01*
X146252380Y-64365238D02*
X145252380Y-64365238D01*
X145395238Y-64460476D01*
X145490476Y-64555714D01*
X145538095Y-64650952D01*
%TO.C,C1*%
X154773333Y-54967142D02*
X154725714Y-55014761D01*
X154582857Y-55062380D01*
X154487619Y-55062380D01*
X154344761Y-55014761D01*
X154249523Y-54919523D01*
X154201904Y-54824285D01*
X154154285Y-54633809D01*
X154154285Y-54490952D01*
X154201904Y-54300476D01*
X154249523Y-54205238D01*
X154344761Y-54110000D01*
X154487619Y-54062380D01*
X154582857Y-54062380D01*
X154725714Y-54110000D01*
X154773333Y-54157619D01*
X155725714Y-55062380D02*
X155154285Y-55062380D01*
X155440000Y-55062380D02*
X155440000Y-54062380D01*
X155344761Y-54205238D01*
X155249523Y-54300476D01*
X155154285Y-54348095D01*
%TO.C,R3*%
X135723333Y-69032380D02*
X135390000Y-68556190D01*
X135151904Y-69032380D02*
X135151904Y-68032380D01*
X135532857Y-68032380D01*
X135628095Y-68080000D01*
X135675714Y-68127619D01*
X135723333Y-68222857D01*
X135723333Y-68365714D01*
X135675714Y-68460952D01*
X135628095Y-68508571D01*
X135532857Y-68556190D01*
X135151904Y-68556190D01*
X136056666Y-68032380D02*
X136675714Y-68032380D01*
X136342380Y-68413333D01*
X136485238Y-68413333D01*
X136580476Y-68460952D01*
X136628095Y-68508571D01*
X136675714Y-68603809D01*
X136675714Y-68841904D01*
X136628095Y-68937142D01*
X136580476Y-68984761D01*
X136485238Y-69032380D01*
X136199523Y-69032380D01*
X136104285Y-68984761D01*
X136056666Y-68937142D01*
%TO.C,R4*%
X131913333Y-77922380D02*
X131580000Y-77446190D01*
X131341904Y-77922380D02*
X131341904Y-76922380D01*
X131722857Y-76922380D01*
X131818095Y-76970000D01*
X131865714Y-77017619D01*
X131913333Y-77112857D01*
X131913333Y-77255714D01*
X131865714Y-77350952D01*
X131818095Y-77398571D01*
X131722857Y-77446190D01*
X131341904Y-77446190D01*
X132770476Y-77255714D02*
X132770476Y-77922380D01*
X132532380Y-76874761D02*
X132294285Y-77589047D01*
X132913333Y-77589047D01*
%TO.C,U3*%
X144018095Y-75862380D02*
X144018095Y-76671904D01*
X144065714Y-76767142D01*
X144113333Y-76814761D01*
X144208571Y-76862380D01*
X144399047Y-76862380D01*
X144494285Y-76814761D01*
X144541904Y-76767142D01*
X144589523Y-76671904D01*
X144589523Y-75862380D01*
X144970476Y-75862380D02*
X145589523Y-75862380D01*
X145256190Y-76243333D01*
X145399047Y-76243333D01*
X145494285Y-76290952D01*
X145541904Y-76338571D01*
X145589523Y-76433809D01*
X145589523Y-76671904D01*
X145541904Y-76767142D01*
X145494285Y-76814761D01*
X145399047Y-76862380D01*
X145113333Y-76862380D01*
X145018095Y-76814761D01*
X144970476Y-76767142D01*
D12*
%TO.C,J1*%
X151110000Y-105375000D02*
X135810000Y-105375000D01*
X153710000Y-106705000D02*
X153710000Y-108035000D01*
X151110000Y-105375000D02*
X151110000Y-108035000D01*
X153710000Y-108035000D02*
X152380000Y-108035000D01*
X151110000Y-108035000D02*
X135810000Y-108035000D01*
X135810000Y-105375000D02*
X135810000Y-108035000D01*
%TO.C,D1*%
X149860000Y-76900000D02*
X149860000Y-75990000D01*
X149860000Y-65340000D02*
X149860000Y-66250000D01*
X152580000Y-75990000D02*
X152580000Y-66250000D01*
X147140000Y-66250000D02*
X147140000Y-75990000D01*
X152580000Y-67675000D02*
X147140000Y-67675000D01*
X152580000Y-67795000D02*
X147140000Y-67795000D01*
X147140000Y-75990000D02*
X152580000Y-75990000D01*
X152580000Y-66250000D02*
X147140000Y-66250000D01*
X152580000Y-67915000D02*
X147140000Y-67915000D01*
%TO.C,D2*%
X134670000Y-100265000D02*
X132010000Y-100265000D01*
X132010000Y-102865000D02*
X132010000Y-100265000D01*
X132010000Y-105465000D02*
X132010000Y-104135000D01*
X134670000Y-102865000D02*
X132010000Y-102865000D01*
X133340000Y-105465000D02*
X132010000Y-105465000D01*
X134670000Y-102865000D02*
X134670000Y-100265000D01*
%TO.C,U1*%
X146980000Y-56280000D02*
X146980000Y-56630000D01*
X148550000Y-47650000D02*
X148550000Y-56280000D01*
X139360000Y-56280000D02*
X139360000Y-56690000D01*
X142620000Y-56280000D02*
X142620000Y-56690000D01*
X147487145Y-47650000D02*
X147487145Y-56280000D01*
X147723335Y-47650000D02*
X147723335Y-56280000D01*
X146188100Y-47650000D02*
X146188100Y-56280000D01*
X147700000Y-56280000D02*
X147700000Y-56630000D01*
X137540000Y-56280000D02*
X137540000Y-56690000D01*
X147369050Y-47650000D02*
X147369050Y-56280000D01*
X143530000Y-47650000D02*
X143530000Y-56280000D01*
X140080000Y-56280000D02*
X140080000Y-56690000D01*
X140990000Y-47650000D02*
X140990000Y-56280000D01*
X146306195Y-47650000D02*
X146306195Y-56280000D01*
X147605240Y-47650000D02*
X147605240Y-56280000D01*
X136820000Y-56280000D02*
X136820000Y-56690000D01*
X148670000Y-47650000D02*
X148670000Y-56280000D01*
X145160000Y-56280000D02*
X145160000Y-56690000D01*
X144440000Y-56280000D02*
X144440000Y-56690000D01*
X148670000Y-57740000D02*
X148670000Y-58850000D01*
X135850000Y-47650000D02*
X135850000Y-56280000D01*
X147959525Y-47650000D02*
X147959525Y-56280000D01*
X148670000Y-47650000D02*
X135850000Y-47650000D01*
X146542385Y-47650000D02*
X146542385Y-56280000D01*
X147014765Y-47650000D02*
X147014765Y-56280000D01*
X146070000Y-47650000D02*
X146070000Y-56280000D01*
X148313810Y-47650000D02*
X148313810Y-56280000D01*
X146424290Y-47650000D02*
X146424290Y-56280000D01*
X138450000Y-47650000D02*
X138450000Y-56280000D01*
X148077620Y-47650000D02*
X148077620Y-56280000D01*
X141900000Y-56280000D02*
X141900000Y-56690000D01*
X148431905Y-47650000D02*
X148431905Y-56280000D01*
X147250955Y-47650000D02*
X147250955Y-56280000D01*
X147841430Y-47650000D02*
X147841430Y-56280000D01*
X148670000Y-56280000D02*
X135850000Y-56280000D01*
X146896670Y-47650000D02*
X146896670Y-56280000D01*
X148670000Y-58850000D02*
X147340000Y-58850000D01*
X147132860Y-47650000D02*
X147132860Y-56280000D01*
X146778575Y-47650000D02*
X146778575Y-56280000D01*
X146660480Y-47650000D02*
X146660480Y-56280000D01*
X148195715Y-47650000D02*
X148195715Y-56280000D01*
%TO.C,TP3*%
X157660000Y-59690000D02*
G75*
G03*
X157660000Y-59690000I-1450000J0D01*
G01*
%TO.C,TP2*%
X157660000Y-72390000D02*
G75*
G03*
X157660000Y-72390000I-1450000J0D01*
G01*
%TO.C,R2*%
X149850000Y-83585000D02*
X149850000Y-84355000D01*
X151220000Y-84355000D02*
X148480000Y-84355000D01*
X148480000Y-90895000D02*
X151220000Y-90895000D01*
X148480000Y-84355000D02*
X148480000Y-90895000D01*
X151220000Y-90895000D02*
X151220000Y-84355000D01*
X149850000Y-91665000D02*
X149850000Y-90895000D01*
%TO.C,R1*%
X133340000Y-82315000D02*
X133340000Y-83085000D01*
X133340000Y-90395000D02*
X133340000Y-89625000D01*
X131970000Y-89625000D02*
X134710000Y-89625000D01*
X131970000Y-83085000D02*
X131970000Y-89625000D01*
X134710000Y-83085000D02*
X131970000Y-83085000D01*
X134710000Y-89625000D02*
X134710000Y-83085000D01*
%TO.C,U2*%
X130220000Y-94715000D02*
X130220000Y-98315000D01*
X130231522Y-98353478D02*
G75*
G03*
X134670000Y-96515000I1838478J1838478D01*
G01*
X134670001Y-96515000D02*
G75*
G03*
X130231522Y-94676522I-2600001J0D01*
G01*
%TO.C,TP1*%
X157660000Y-66040000D02*
G75*
G03*
X157660000Y-66040000I-1450000J0D01*
G01*
%TO.C,C2*%
X136640000Y-63620000D02*
G75*
G03*
X136640000Y-63620000I-3270000J0D01*
G01*
%TO.C,L1*%
X140390000Y-62970000D02*
X140390000Y-66570000D01*
X140401522Y-66608478D02*
G75*
G03*
X144840000Y-64770000I1838478J1838478D01*
G01*
X144840001Y-64770000D02*
G75*
G03*
X140401522Y-62931522I-2600001J0D01*
G01*
%TO.C,C1*%
X154750000Y-57150000D02*
G75*
G03*
X154750000Y-57150000I-2620000J0D01*
G01*
%TO.C,R3*%
X140430000Y-72490000D02*
X140430000Y-69750000D01*
X141200000Y-71120000D02*
X140430000Y-71120000D01*
X140430000Y-69750000D02*
X133890000Y-69750000D01*
X133120000Y-71120000D02*
X133890000Y-71120000D01*
X133890000Y-69750000D02*
X133890000Y-72490000D01*
X133890000Y-72490000D02*
X140430000Y-72490000D01*
%TO.C,R4*%
X133890000Y-76300000D02*
X140430000Y-76300000D01*
X141200000Y-74930000D02*
X140430000Y-74930000D01*
X140430000Y-76300000D02*
X140430000Y-73560000D01*
X133120000Y-74930000D02*
X133890000Y-74930000D01*
X133890000Y-73560000D02*
X133890000Y-76300000D01*
X140430000Y-73560000D02*
X133890000Y-73560000D01*
%TO.C,U3*%
X139970000Y-77410000D02*
X138320000Y-77410000D01*
X138320000Y-102930000D02*
X143620000Y-102930000D01*
X143620000Y-77410000D02*
X141970000Y-77410000D01*
X138320000Y-77410000D02*
X138320000Y-102930000D01*
X143620000Y-102930000D02*
X143620000Y-77410000D01*
X139970000Y-77410000D02*
G75*
G03*
X141970000Y-77410000I1000000J0D01*
G01*
%TD*%
M02*
